<svg width="418" height="449" viewBox="0 0 418 449" fill="none" xmlns="http://www.w3.org/2000/svg">
<path d="M366 408.173C355.13 406.5 343.878 407.324 333.375 410.561C336.531 405.343 339.688 400.124 342.845 394.906C331.603 394.822 321.087 399.998 311.068 405.053C314.505 396.5 318.59 388.202 323.276 380.253C305.542 387.521 292.846 400.457 285.268 417.924C287.233 393.622 294.507 369.753 306.446 348.434C293.372 358.249 282.194 370.532 273.693 384.43C275.846 364.835 280.545 345.516 287.637 327.099C268.961 348.786 255.281 374.67 247.929 402.228C248.582 383.823 249.234 365.415 249.887 347.01C243.633 363.28 237.378 379.551 231.126 395.82C230.448 386.823 227.973 377.962 223.89 369.898C220.077 379.246 216.262 388.592 212.448 397.94C207.613 387.82 202.779 377.701 197.944 367.581C195.139 379.753 192.333 391.927 189.529 404.1C175.548 374.147 156.878 346.347 134.391 322C145.415 345.086 156.598 368.711 159.42 394.097C147.152 380.552 131.626 369.92 114.501 363.336C120.822 374.772 125.534 387.079 128.462 399.789C119.913 395.352 110.737 392.107 101.284 390.178C103.993 398.537 106.703 406.898 109.411 415.257C98.9064 409.67 67.8973 396.876 56 396.101C57.5043 399.816 77.8166 413.183 78.3319 417.152C78.3319 417.152 82.675 427.068 85.2913 431.818V435.147H325.837C325.788 435.432 325.726 435.717 325.641 436C325.931 435.704 326.231 435.423 326.534 435.147H330.471C330.471 435.147 344.728 426.337 350.512 421.399C355.674 416.989 360.838 412.581 366 408.173Z" fill="#27665A"/>
<path d="M81.1278 92.8033C80.851 92.8033 80.5778 92.8088 80.3046 92.8197C77.7444 87.4465 72.9137 83.8245 67.3773 83.8245C63.7081 83.8245 60.3501 85.416 57.7574 88.0508C56.0187 80.5255 50.2598 75 43.4207 75C37.4881 75 32.3679 79.1573 29.9796 85.171C28.9665 84.9097 27.9135 84.77 26.8333 84.77C22.6268 84.77 18.8291 86.8604 16.1224 90.2211C15.7117 90.1975 15.2956 90.183 14.874 90.183C6.65812 90.183 0 94.9083 0 100.735C0 106.319 6.11172 110.888 13.8464 111.262C16.392 116.704 21.2535 120.382 26.8333 120.382C28.9502 120.382 30.9657 119.85 32.7876 118.896C35.44 123.774 40.0356 127 45.2608 127C51.3743 127 56.6248 122.585 58.9117 116.274C61.3144 118.268 64.231 119.437 67.3755 119.437C71.6942 119.437 75.5805 117.234 78.2981 113.715C79.2136 113.84 80.158 113.906 81.126 113.906C89.3419 113.906 96 109.18 96 103.354C96.0018 97.5286 89.3419 92.8033 81.1278 92.8033Z" fill="#ECF4FD"/>
<path d="M400.1 59.9518C398.064 59.9518 396.109 60.1822 394.286 60.6054C389.891 51.6494 380.556 45.4669 369.749 45.4669C368.059 45.4669 366.405 45.6187 364.8 45.9097C359.921 38.7307 351.594 34 342.143 34C331.019 34 321.456 40.5487 317.235 49.9314C313.495 48.0349 309.254 46.9616 304.754 46.9616C293.395 46.9616 283.663 53.7906 279.585 63.4931C269.845 63.6074 262 68.9756 262 75.585C262 82.264 270.014 87.6805 279.9 87.6805C280.455 87.6805 281.003 87.6626 281.545 87.6287C286.333 95.2792 294.935 100.381 304.754 100.381C310.567 100.381 315.954 98.5919 320.376 95.5435C324.472 105.207 334.183 112 345.513 112C355.49 112 364.212 106.73 368.95 98.8723C369.216 98.8795 369.482 98.8848 369.749 98.8848C380.649 98.8848 390.051 92.5951 394.397 83.5123C396.187 83.9195 398.105 84.1392 400.1 84.1392C409.986 84.1392 418 78.7245 418 72.0437C418 65.3664 409.986 59.9518 400.1 59.9518Z" fill="#ECF4FD"/>
<path d="M188.978 449L184 438.072V283H217L188.978 449Z" fill="#C0B1AA"/>
<path d="M221 286H188V448H221V286Z" fill="#F0D8D0"/>
<path d="M291.546 300H87.2778C80.4967 300 75 294.516 75 287.749V165.251C75 158.484 80.4967 153 87.2778 153H291.546C298.327 153 303.824 158.484 303.824 165.251C395.771 210.341 414.578 232.234 303.824 287.749C303.824 294.516 298.327 300 291.546 300Z" fill="#C0B1AA"/>
<path d="M296.546 304H92.2778C85.4967 304 80 298.516 80 291.749V169.251C80 162.484 85.4967 157 92.2778 157H296.546C303.327 157 308.824 162.484 308.824 169.251C400.771 214.341 419.578 236.234 308.824 291.749C308.824 298.516 303.327 304 296.546 304Z" fill="#F0D8D0"/>
<path d="M227.963 155.946C227.493 153.251 225.313 151.184 223.086 149.561C219.573 147.001 215.628 145.021 211.465 143.727L202.098 72L199 72.0796L208.385 143.944C208.227 144.065 208.09 144.207 207.983 144.368C207.431 145.2 207.448 146.263 207.419 147.258C207.353 149.519 206.957 151.769 206.242 153.917C205.56 155.968 204.577 158.077 205.002 160.194C205.215 161.255 206.289 162.403 207.237 161.862C207.541 161.688 207.736 161.376 207.914 161.076C209.23 158.841 210.304 156.464 211.111 154.004C211.311 153.398 211.76 152.634 212.374 152.833C212.713 152.944 212.882 153.311 213.01 153.64C213.769 155.599 214.475 157.577 215.128 159.574C215.371 160.318 215.797 161.21 216.589 161.217C217.443 161.224 217.865 160.194 217.955 159.356C218.184 157.203 217.746 154.983 216.715 153.072C216.449 152.58 216.189 151.87 216.653 151.553C216.856 151.414 217.126 151.425 217.372 151.454C220.809 151.867 223.286 154.768 225.649 157.268C226.006 157.646 226.443 158.05 226.965 158.013C227.834 157.95 228.109 156.795 227.963 155.946Z" fill="#50607D"/>
<path d="M200.097 148.537C196.823 146.143 193.175 144.255 189.323 142.959L180.092 72L177 72.0798L186.167 142.549C185.713 142.665 185.278 142.948 185.022 143.334C184.471 144.168 184.487 145.233 184.458 146.23C184.392 148.495 183.997 150.749 183.283 152.902C182.603 154.957 181.622 157.069 182.046 159.191C182.259 160.254 183.331 161.403 184.277 160.861C184.581 160.687 184.775 160.375 184.952 160.074C186.266 157.835 187.338 155.453 188.143 152.989C188.342 152.382 188.791 151.616 189.404 151.816C189.742 151.926 189.911 152.294 190.039 152.625C190.796 154.587 191.501 156.569 192.152 158.569C192.395 159.314 192.82 160.208 193.61 160.216C194.463 160.223 194.884 159.191 194.973 158.351C195.202 156.193 194.765 153.97 193.737 152.055C193.471 151.562 193.211 150.851 193.674 150.534C193.877 150.394 194.146 150.405 194.392 150.434C197.822 150.847 200.294 153.754 202.653 156.259C203.01 156.638 203.445 157.042 203.967 157.006C204.836 156.944 205.11 155.789 204.962 154.937C204.495 152.235 202.322 150.164 200.097 148.537Z" fill="#50607D"/>
<path d="M184.014 11.4892C184.661 14.5607 186.619 17.1708 188.954 19.0871C191.288 21.0034 193.998 22.3148 196.68 23.6062C199.308 24.8723 201.936 26.1383 204.564 27.4061C208 29.0626 211.474 30.7409 214.457 33.2039C217.442 35.6669 219.94 39.0254 220.735 42.9669C221.635 47.4261 220.186 52.2613 217.275 55.5961C214.365 58.9292 210.125 60.7855 205.865 60.9817C203.429 61.0925 200.989 60.6929 198.638 60.0063C191.964 58.0573 185.918 53.7271 181.689 47.8675C177.462 42.0079 175.074 34.6534 175.002 27.2517C174.971 24.2456 175.312 21.2486 175.656 18.2643C176.063 14.7387 176.509 11.1169 178.101 8C178.253 10.6864 178.974 13.3329 180.191 15.6887C180.51 13.1639 180.979 10.6592 181.593 8.19798C181.7 9.56208 181.805 10.9244 181.912 12.2884C182.453 11.1478 182.993 10.0053 183.535 8.86459C183.678 9.71646 183.821 10.5702 183.962 11.422" fill="#949293"/>
<path d="M264.516 14.6864C260.434 5.35026 252.031 1.08894 243.495 0.440315C234.882 -0.282589 226.134 2.61084 219.589 5.92822C212.92 9.44309 208.457 13.3819 205.513 19.3173C195.363 39.4626 167.583 45.6879 147.673 32.2553C147.662 32.2843 147.651 32.3151 147.641 32.3441C138.664 26.2782 131.291 16.2246 127.852 1.66327C127.633 0.751942 127.132 -0.00719569 126.719 5.14634e-05C127.709 14.0432 131.474 27.619 139.506 39.5097C131.012 31.2896 124.689 19.7395 122.316 4.78499C122.131 3.65262 121.331 2.77934 120.505 2.87174C120.662 19.1706 124.643 34.7357 133.124 48.3857C124.56 38.6691 118.462 25.9286 116.36 10.2729C116.176 8.91224 115.675 7.86502 115.206 7.97373C112.39 41.0878 139.399 66.1956 139.606 66.288C148.71 73.6221 159.375 78.7404 170.683 81.5287C177.137 83.1195 183.799 83.9511 190.501 84C190.566 83.0488 190.729 82.132 190.989 81.266C191.239 81.6882 191.474 82.1248 191.694 82.5759C191.922 83.0452 192.127 83.5199 192.31 83.9946C198.14 83.9167 203.988 83.2445 209.744 81.969C209.66 81.5251 209.588 81.0758 209.519 80.6264C209.2 78.5393 209.03 76.3996 209.03 74.2163C209.03 52.3535 225.653 34.6288 246.158 34.6288C252.869 34.6288 259.163 36.5275 264.594 39.8467C268.133 30.5251 267.477 21.2523 264.516 14.6864Z" fill="#C0B1AA"/>
<path d="M264.332 19L284 25.1029L264 33L264.332 19Z" fill="#EF8062"/>
<path d="M258.326 50.3273C260.847 47.0266 262.706 43.5999 264 40.1804C258.622 36.8833 252.392 35 245.751 35C225.455 35 209 52.5973 209 74.3031C209 76.9383 209.244 79.5105 209.707 82C228.132 77.9006 245.588 67.5037 258.326 50.3273Z" fill="#F0D8D0"/>
<path d="M162.016 15.5726C163.339 18.3949 165.831 20.4242 168.527 21.6804C171.225 22.9384 174.147 23.5054 177.041 24.0633C179.874 24.6103 182.71 25.1573 185.543 25.7042C189.249 26.4189 192.995 27.1464 196.447 28.7654C199.898 30.3845 203.081 33.0026 204.748 36.6327C206.631 40.7386 206.326 45.8272 204.263 49.8328C202.2 53.8385 198.512 56.7538 194.428 58.0556C192.094 58.7995 189.638 59.0474 187.203 58.9927C180.292 58.8377 173.449 56.1995 168.022 51.5995C162.593 46.9995 158.612 40.4614 156.861 33.2743C156.15 30.3553 155.797 27.3488 155.455 24.3532C155.05 20.8125 154.659 17.1715 155.493 13.7202C156.251 16.2964 157.55 18.6848 159.264 20.6594C159 18.1178 158.886 15.558 158.922 13C159.334 14.3 159.747 15.5999 160.158 16.8999C160.422 15.6473 160.688 14.3948 160.952 13.1422C161.283 13.9353 161.616 14.7284 161.947 15.5215" fill="#F0D8D0"/>
<path d="M245 21C247.209 21 249 19.2091 249 17C249 14.7909 247.209 13 245 13C242.791 13 241 14.7909 241 17C241 19.2091 242.791 21 245 21Z" fill="#112149"/>
<path d="M189.411 83.429C182.624 83.3792 175.877 82.5635 169.342 81C168.609 84.1431 169.037 87.8615 170.797 91.3768C174.242 98.2489 181.469 101.729 186.944 99.1482C189.525 97.9319 191.255 95.583 192 92.7213C191.64 92.1817 191.308 91.6101 191.009 91.0117C189.747 88.4936 189.242 85.8545 189.411 83.429Z" fill="#949293"/>
<path d="M191 83.3449C192.26 86.5819 192.468 89.9052 191.747 92.7304C195.169 97.9888 201.126 100.408 205.785 98.1614C210.927 95.6815 212.541 88.4576 209.388 82.0249C209.037 81.3074 208.64 80.633 208.206 80C208.275 80.446 208.348 80.892 208.431 81.3326C202.679 82.6022 196.832 83.2676 191 83.3449Z" fill="#949293"/>
<path d="M190.839 84C190.235 84.0069 189.633 84.0069 189.031 84.0035C188.864 86.35 189.363 88.9069 190.609 91.3448C190.905 91.9241 191.233 92.4759 191.588 93C192.308 90.2897 192.1 87.1052 190.839 84Z" fill="#949293"/>
<path d="M192 83.9916C191.798 83.4711 191.571 82.9507 191.319 82.4362C191.076 81.9416 190.816 81.4628 190.539 81C190.252 81.9495 190.072 82.9546 190 83.9975C190.667 84.0015 191.335 84.0015 192 83.9916Z" fill="#C0B1AA"/>
<path d="M175.223 235.628V245.175H127.075L126.57 237.831L154.89 193.172H164.574L154.109 210.935L138.917 235.628H175.223ZM167.282 193.172V260H155.119V193.172H167.282ZM226.767 220.849V232.094C226.767 237.234 226.246 241.625 225.206 245.267C224.166 248.908 222.666 251.891 220.708 254.217C218.75 256.512 216.409 258.21 213.686 259.312C210.962 260.382 207.933 260.918 204.598 260.918C201.936 260.918 199.457 260.581 197.162 259.908C194.867 259.204 192.802 258.133 190.966 256.695C189.16 255.227 187.6 253.36 186.284 251.096C184.999 248.831 184.005 246.123 183.301 242.972C182.628 239.82 182.291 236.194 182.291 232.094V220.849C182.291 215.708 182.811 211.332 183.852 207.722C184.923 204.111 186.437 201.158 188.396 198.863C190.354 196.568 192.695 194.901 195.418 193.86C198.141 192.789 201.171 192.254 204.506 192.254C207.199 192.254 209.677 192.59 211.941 193.264C214.236 193.937 216.286 194.993 218.092 196.431C219.928 197.838 221.488 199.674 222.773 201.938C224.059 204.172 225.038 206.865 225.711 210.017C226.415 213.138 226.767 216.748 226.767 220.849ZM214.649 233.746V219.15C214.649 216.58 214.496 214.346 214.19 212.449C213.915 210.521 213.502 208.884 212.951 207.538C212.4 206.192 211.712 205.105 210.886 204.279C210.06 203.423 209.111 202.795 208.04 202.397C206.969 202 205.791 201.801 204.506 201.801C202.915 201.801 201.492 202.122 200.237 202.765C198.983 203.377 197.927 204.356 197.07 205.702C196.214 207.049 195.556 208.839 195.097 211.072C194.668 213.275 194.454 215.968 194.454 219.15V233.746C194.454 236.316 194.592 238.565 194.867 240.493C195.173 242.421 195.602 244.073 196.152 245.45C196.734 246.827 197.422 247.959 198.218 248.847C199.044 249.703 199.993 250.346 201.063 250.774C202.134 251.172 203.312 251.371 204.598 251.371C206.219 251.371 207.642 251.05 208.866 250.407C210.121 249.765 211.176 248.755 212.033 247.378C212.89 245.97 213.533 244.15 213.961 241.916C214.42 239.652 214.649 236.928 214.649 233.746ZM282.625 235.628V245.175H234.478L233.973 237.831L262.292 193.172H271.977L261.512 210.935L246.319 235.628H282.625ZM274.685 193.172V260H262.521V193.172H274.685Z" fill="#585F66"/>
</svg>
