<svg width="218" height="367" viewBox="0 0 218 367" fill="none" xmlns="http://www.w3.org/2000/svg">
<path d="M55.6565 25.5209C53.1593 17.0469 58.005 8.1532 66.4793 5.65636C74.9536 3.15952 83.8465 8.00493 86.3436 16.479C88.8407 24.9531 83.994 33.8469 75.5208 36.3436C67.0465 38.8405 58.1536 33.995 55.6565 25.5209Z" fill="#F97352"/>
<g opacity="0.38">
<path d="M37.4745 122.796C38.4235 115.857 44.6269 105.428 48.3944 100.924C52.1639 96.4209 57.7395 90.9012 59.6667 87.0415C61.594 83.182 62.5931 73.3265 61.988 66.6988C61.3819 60.0713 60.9679 51.3975 62.4991 43.2121C63.1531 39.7212 65.2164 36.2181 67.3666 33.342C70.259 29.474 73.3083 26.7441 73.3083 26.7441C73.3083 26.7441 88.9892 27.542 92.3045 30.9693C95.6199 34.3966 98.5597 17.6555 125.191 29.0026C134.93 52.684 206.681 48.09 203.923 99.8267C201.666 119.667 188.86 125.78 180.353 132.727C171.844 139.673 157.679 124.826 157.599 136.619C157.518 148.414 145.625 157.445 135.993 158.148C126.363 158.854 116.398 157.843 111.896 156.258C107.392 154.673 83.6399 172.717 70.6983 147.298C68.0361 145.117 32.513 143.122 37.4745 122.796Z" fill="#CECBE2"/>
</g>
<path d="M73.5705 34.3482C73.5705 34.3482 75.8006 42.924 75.3266 50.8125C74.433 65.6661 56.8014 89.3969 55.2902 97.4259C53.3393 107.788 49.7447 133.429 78.2194 141.154C85.8102 143.213 131.65 146.074 137.999 144.588C154.907 140.63 180.363 126.987 175.36 100.176C171.539 79.6992 167.136 82.1671 143.515 61.8043C119.895 41.4414 118.912 16 118.912 16L73.5705 34.3482Z" fill="#DF5F46"/>
<path d="M126.5 40C125.119 40 124 38.8807 124 37.4999C124 36.1192 125.119 35 126.5 35C127.88 35 129 36.1192 129 37.4999C129 38.8807 127.88 40 126.5 40Z" fill="white"/>
<path d="M117.57 91.0812L142.211 134.688L142.73 135.605C148.469 145.757 178.834 155.62 189.622 162C191.323 154.741 194.553 156.87 188.391 152.323C181.513 147.247 164.633 135.439 155.643 125.368L139.481 80.7441C137.056 74.5011 130.017 71.4027 123.761 73.8232C117.505 76.2438 114.399 83.267 116.825 89.5097C117.029 90.0368 117.302 90.6006 117.57 91.0812Z" fill="#DB9F8D"/>
<path d="M132.5 93C124.492 93 118 86.5083 118 78.5C118 70.4919 124.492 64 132.5 64C140.509 64 147 70.4919 147 78.5C147 86.5083 140.509 93 132.5 93Z" fill="white"/>
<path d="M123.306 67.0949L125.271 67.0112C131.36 66.7516 136.701 71.038 137.765 77.038L139 84.0044L136.038 132.794L91.6499 135L77.2428 91.4974C75.3808 79.5958 84.4609 68.7918 96.5068 68.577L104.272 68.4384L123.306 67.0949Z" fill="white"/>
<path d="M131 85.1402C130.584 84.1014 129.054 81.8603 126.97 82.5209C124.497 83.305 124.598 87.9679 123.515 88C123.515 88 122.548 82.7242 116.745 83.4449C113.985 83.7879 112.943 87.152 113.129 86.4343L113.033 86.2381C109.198 78.5186 102.556 72.5096 94.4283 69.4109L93 68.866L123.368 67L125.638 69.2642C128.446 72.3263 130.171 76.2054 130.553 80.3183L131 85.1402Z" fill="#ECB6A2"/>
<path d="M51.677 27.1622C49.102 18.4233 54.098 9.2517 62.8384 6.67686C71.5768 4.10201 80.7485 9.09892 83.3235 17.8377C85.8974 26.5767 80.9014 35.7483 72.1631 38.3231C63.4226 40.898 54.2519 35.9012 51.677 27.1622Z" fill="#F97352"/>
<path d="M71.2403 26.9258C72.5796 33.6969 79.1541 38.0997 85.9247 36.7599C92.6972 35.4202 97.0994 28.8453 95.76 22.0743C94.4196 15.3032 87.8452 10.9004 81.0736 12.2401C74.3031 13.5798 69.8999 20.1548 71.2403 26.9258Z" fill="white"/>
<path d="M110 3C110 3 76.8908 9.97547 73.5882 23.4477C70.2846 36.9197 81.2329 54.2343 98.0031 55.9565C113.977 57.5972 96.7334 12.2568 96.7334 12.2568L110 3Z" fill="#F97352"/>
<path d="M96 7.02992C96 7.02992 118.574 -9.18336 126.1 7.63496C131.118 18.8465 113.512 29 113.512 29L96 7.02992Z" fill="#F97352"/>
<path d="M115.136 32.916C115.919 36.9828 119.849 39.6459 123.917 38.8636C127.983 38.0818 130.646 34.151 129.864 30.084C129.083 26.0171 125.151 23.3542 121.084 24.1363C117.017 24.9182 114.354 28.8492 115.136 32.916Z" fill="#DDA290"/>
<path d="M114.757 51.0992L117.724 66.3668C118.777 71.726 116.48 79 116.48 79L110.152 74.0949C105.737 74.9623 100.538 71.2562 100.538 71.2562L97 47L114.757 51.0992Z" fill="#ECB6A2"/>
<path d="M117 64L99 54.8436L114.284 50L117 64Z" fill="#DDA290"/>
<path d="M113.798 57.5769C122.822 55.1924 128.385 46.046 126.7 38.5546L122.618 20.9044C120.506 11.5149 111.384 5.50617 102 7.324C92.3936 9.18522 84.4206 18.866 86.2679 28.5443L89.7043 42.7041C92.3606 53.6558 102.809 59.7057 113.798 57.5769Z" fill="#ECB6A2"/>
<path d="M114.66 9.09782C114.66 9.09782 119.941 20.0362 88.8555 30.9973C88.1986 31.229 72.0398 16.5218 96.419 6.58095C96.419 6.58095 104.2 1.69682 114.66 9.09782Z" fill="#F97352"/>
<path d="M97 25L92.7104 39L80 30.4174L97 25Z" fill="#F97352"/>
<path d="M80.1366 42.916C80.9184 46.9828 84.8484 49.6459 88.9167 48.8636C92.983 48.0817 95.6456 44.1508 94.8638 40.0841C94.0809 36.0172 90.1509 33.3542 86.0847 34.1363C82.0163 34.9183 79.3537 38.8491 80.1366 42.916Z" fill="#ECB6A2"/>
<path d="M90.5253 43C90.5546 43 90.584 42.9975 90.6164 42.9917C90.8729 42.9407 91.0414 42.6873 90.9911 42.4243C90.9702 42.313 90.4552 39.6844 88.4475 38.527C87.2887 37.8614 85.8966 37.8259 84.3107 38.4229C84.0647 38.5153 83.9391 38.7948 84.0291 39.0459C84.1212 39.2971 84.3955 39.4238 84.6394 39.3327C85.952 38.8374 87.0773 38.8505 87.9796 39.3717C89.6094 40.3099 90.0543 42.5842 90.0595 42.6067C90.1035 42.8389 90.3024 43 90.5253 43Z" fill="#312220"/>
<path d="M91.4995 52C90.1198 52 89 50.8806 89 49.4999C89 48.1194 90.1198 47 91.4995 47C92.8802 47 94 48.1194 94 49.4999C94 50.8806 92.8802 52 91.4995 52Z" fill="white"/>
<path d="M74.5005 33C73.1192 33 72 31.8808 72 30.5001C72 29.1193 73.1192 28 74.5005 28C75.8819 28 77 29.1193 77 30.5001C77 31.8808 75.8819 33 74.5005 33Z" fill="white"/>
<path d="M74 29C72.8952 29 72 28.1046 72 27C72 25.8954 72.8952 25 74 25C75.1038 25 76 25.8954 76 27C76 28.1046 75.1038 29 74 29Z" fill="white"/>
<path d="M71 31C69.8952 31 69 30.1046 69 29C69 27.8954 69.8952 27 71 27C72.1048 27 73 27.8954 73 29C73 30.1046 72.1048 31 71 31Z" fill="white"/>
<path d="M71.5 24C70.671 24 70 23.3284 70 22.4999C70 21.6714 70.671 21 71.5 21C72.3278 21 73 21.6714 73 22.4999C73 23.3284 72.3278 24 71.5 24Z" fill="white"/>
<path d="M74.5 36C73.671 36 73 35.3284 73 34.5001C73 33.6714 73.671 33 74.5 33C75.3278 33 76 33.6714 76 34.5001C76 35.3284 75.3278 36 74.5 36Z" fill="white"/>
<path d="M74.4994 25C73.6713 25 73 24.3284 73 23.5001C73 22.6717 73.6713 22 74.4994 22C75.3287 22 76 22.6717 76 23.5001C76 24.3284 75.3287 25 74.4994 25Z" fill="white"/>
<path d="M77.5 20C76.6722 20 76 19.3286 76 18.4999C76 17.6716 76.6722 17 77.5 17C78.3278 17 79 17.6716 79 18.4999C79 19.3286 78.3278 20 77.5 20Z" fill="white"/>
<path d="M70.5006 28C69.6713 28 69 27.3284 69 26.5001C69 25.6714 69.6713 25 70.5006 25C71.3287 25 72 25.6714 72 26.5001C72 27.3284 71.3287 28 70.5006 28Z" fill="white"/>
<path d="M74.5 35C73.6722 35 73 34.3284 73 33.5001C73 32.6716 73.6722 32 74.5 32C75.3278 32 76 32.6716 76 33.5001C76 34.3284 75.3278 35 74.5 35Z" fill="white"/>
<path d="M71.4994 21C70.6708 21 70 20.3284 70 19.5001C70 18.6717 70.6708 18 71.4994 18C72.3281 18 73 18.6717 73 19.5001C73 20.3284 72.3281 21 71.4994 21Z" fill="white"/>
<path d="M78.4994 19C77.6713 19 77 18.3285 77 17.4999C77 16.6715 77.6713 16 78.4994 16C79.3287 16 80 16.6715 80 17.4999C80 18.3285 79.3287 19 78.4994 19Z" fill="white"/>
<path d="M75.5 16C74.6722 16 74 15.3283 74 14.4999C74 13.6716 74.6722 13 75.5 13C76.329 13 77 13.6716 77 14.4999C77 15.3283 76.329 16 75.5 16Z" fill="white"/>
<path d="M73.4994 19C72.6713 19 72 18.3286 72 17.4999C72 16.6716 72.6713 16 73.4994 16C74.3287 16 75 16.6716 75 17.4999C75 18.3286 74.3287 19 73.4994 19Z" fill="white"/>
<path d="M75.4994 23C74.6713 23 74 22.3284 74 21.5001C74 20.6717 74.6713 20 75.4994 20C76.3287 20 77 20.6717 77 21.5001C77 22.3284 76.3287 23 75.4994 23Z" fill="white"/>
<path d="M75.5 21C74.671 21 74 20.3284 74 19.4999C74 18.6716 74.671 18 75.5 18C76.3278 18 77 18.6716 77 19.4999C77 20.3284 76.3278 21 75.5 21Z" fill="white"/>
<path d="M73.5006 17C72.6713 17 72 16.3284 72 15.5001C72 14.6717 72.6713 14 73.5006 14C74.3287 14 75 14.6717 75 15.5001C75 16.3284 74.3287 17 73.5006 17Z" fill="white"/>
<path d="M70.5 25C69.6722 25 69 24.3284 69 23.5001C69 22.6716 69.6722 22 70.5 22C71.3278 22 72 22.6716 72 23.5001C72 24.3284 71.3278 25 70.5 25Z" fill="white"/>
<path d="M77.5012 15C76.6722 15 76 14.3283 76 13.4999C76 12.6716 76.6722 12 77.5012 12C78.329 12 79 12.6716 79 13.4999C79 14.3283 78.329 15 77.5012 15Z" fill="white"/>
<path d="M80.4994 14C79.6713 14 79 13.3286 79 12.5001C79 11.6717 79.6713 11 80.4994 11C81.3287 11 82 11.6717 82 12.5001C82 13.3286 81.3287 14 80.4994 14Z" fill="white"/>
<path d="M82.5006 14C81.6713 14 81 13.3284 81 12.5001C81 11.6717 81.6713 11 82.5006 11C83.3287 11 84 11.6717 84 12.5001C84 13.3284 83.3287 14 82.5006 14Z" fill="white"/>
<path d="M115.406 41C115.453 41 115.501 40.9909 115.547 40.9716L117.734 40.0492C117.841 40.0037 117.926 39.9105 117.969 39.7899C118.012 39.6705 118.01 39.5351 117.963 39.418L116.692 36.271C116.599 36.0379 116.358 35.9344 116.153 36.0435C115.95 36.1504 115.861 36.4268 115.954 36.66L117.039 39.3498L115.266 40.0981C115.055 40.1869 114.947 40.4553 115.025 40.6951C115.085 40.884 115.241 41 115.406 41Z" fill="#312220"/>
<path d="M114.109 46C116.884 46 118.756 44.0123 118.857 43.9019C119.036 43.7075 119.049 43.3798 118.885 43.1692C118.722 42.9557 118.446 42.9443 118.267 43.1348C118.15 43.2593 115.349 46.207 111.608 44.3401C111.385 44.2295 111.128 44.3528 111.035 44.617C110.94 44.8824 111.045 45.1872 111.268 45.2977C112.286 45.8044 113.241 46 114.109 46Z" fill="#312220"/>
<path d="M100.008 31.3559C100.008 31.3559 100.274 32.6423 102.656 31.5791C104.464 30.7718 105.601 30.2447 106.734 29.928C107.379 29.7482 107.908 29.2937 107.991 28.8535C108.059 28.4979 107.727 28.111 107.282 28.0472C106.381 27.918 104.775 28.0021 102.564 28.9673C99.7261 30.2067 100.008 31.3559 100.008 31.3559Z" fill="#312220"/>
<path d="M120.982 23.8001C120.982 23.8001 121.285 24.9989 119.416 25.288C117.996 25.5076 117.098 25.629 116.278 25.9238C115.811 26.0913 115.316 25.975 115.103 25.6506C114.93 25.3887 114.976 25.0443 115.23 24.7726C115.743 24.2218 116.793 23.3617 118.519 23.0756C120.737 22.7081 120.982 23.8001 120.982 23.8001Z" fill="#312220"/>
<path d="M105.711 38C108.878 38 109.903 35.8489 109.949 35.7458C110.063 35.4976 109.979 35.1898 109.765 35.0595C109.552 34.9278 109.285 35.0222 109.171 35.2692C109.123 35.3685 108.069 37.4701 104.503 36.8792C104.259 36.837 104.039 37.0331 104.004 37.3087C103.971 37.5867 104.138 37.8449 104.378 37.8846C104.859 37.9641 105.302 38 105.711 38Z" fill="#312220"/>
<path d="M119.349 33C121.492 33 122.633 32.0655 122.96 31.5046C123.067 31.3209 122.952 31.1071 122.7 31.028C122.452 30.9526 122.165 31.0342 122.058 31.2162C122.021 31.2766 121.217 32.527 118.568 32.227C118.297 32.1986 118.048 32.3317 118.006 32.5296C117.964 32.7275 118.148 32.913 118.416 32.944C118.746 32.9822 119.058 33 119.349 33Z" fill="#312220"/>
<path d="M104.161 137.406L91.5245 138.602C91.3067 138.623 91.0951 138.626 90.8774 138.608C89.103 138.473 80.3437 137.801 75.351 137.411C73.7573 137.288 72.5033 138.134 73.0454 138.972L73.0716 139.013C73.5025 139.678 72.7334 140.396 71.4625 140.513L64.768 141.134C64.0637 141.2 63.4677 141.454 63.1835 141.814C62.1782 143.089 59.8077 146.091 59.3258 146.702C59.2687 146.775 59.2008 146.841 59.1174 146.905C59.0788 146.934 59.0402 146.97 59 147C59.8679 145.262 60.9134 143.168 61.4987 141.996C61.7828 141.427 62.3774 141.025 63.0831 140.922L69.7761 139.94C71.0486 139.753 71.8177 138.619 71.3868 137.567L71.3606 137.503C70.817 136.179 72.0725 134.838 73.6662 135.036C78.6589 135.652 87.4182 136.713 89.191 136.928C89.4103 136.954 89.6203 136.949 89.8381 136.917L102.475 135.028C103.837 134.824 105.06 135.778 104.964 136.971L104.955 137.103C104.946 137.215 104.986 137.316 105 137.424C104.733 137.392 104.452 137.38 104.161 137.406Z" fill="#D2CFE5"/>
<path d="M95.5384 136.939C95.2889 137.071 95.0355 137.176 94.7622 137.258C92.5444 137.919 75.3484 143.04 75.3484 143.04C75.3484 143.04 72.3168 145.393 73.4415 146.282L73.495 146.325C74.39 147.029 73.8653 148.38 72.396 149.151L64.6653 153.203C63.8515 153.629 63.2752 154.261 63.1346 154.89C62.6356 157.12 61.4634 162.369 61.2258 163.436C61.196 163.562 61.1525 163.685 61.0871 163.813C61.0574 163.872 61.0297 163.94 61 164C61.0713 161.201 61.1545 157.833 61.202 155.947C61.2258 155.03 61.7188 154.195 62.5129 153.716L70.0396 149.17C71.4692 148.306 71.7603 146.383 70.6494 145.148L70.5821 145.074C69.1821 143.517 69.9425 141.08 71.9782 140.588C78.3504 139.046 89.5206 136.314 91.782 135.759C92.0612 135.691 92.3127 135.584 92.5583 135.436C94.087 134.504 97.1465 135.116 97.703 136.797L97.7644 136.982C97.8178 137.14 97.9228 137.259 98 137.401C97.6594 137.482 95.8751 136.761 95.5384 136.939Z" fill="#D2CFE5"/>
<path d="M136.979 289C136.979 289 135.744 338.388 141.398 346.168C141.398 346.168 151.954 359.724 159.288 360.195C159.288 360.195 163.872 363.26 161.121 364.202C158.371 365.145 142.328 369.388 132.855 360.195V363.731L126.131 363.966C126.131 363.966 122.159 357.837 123.38 352.886C124.604 347.935 122.977 337.799 122.213 335.441C121.448 333.084 109.764 306.681 109 289H136.979Z" fill="#ECB6A2"/>
<path d="M117 290.887L136.086 289C136.086 289 136.841 324.473 140 340.75C136.131 344.685 130.669 349.131 124.416 351C125.351 345.71 122.401 336.371 121.803 334.288C121.127 331.929 117.677 308.583 117 290.887Z" fill="#DDA290"/>
<path d="M126.006 362.85C126.006 362.85 121.116 356.908 123.81 351.107C123.888 350.762 123.965 350.39 124.043 350C127.807 352.149 138.389 358.169 143.365 358.919C147.625 359.56 150.292 356.442 151.288 354.986C153.558 357.039 159.932 358.415 162.377 358.585C162.377 358.585 166.81 361.827 164.15 362.823C161.49 363.821 141.721 368.932 132.971 358.835V362.575L126.006 362.85Z" fill="#CDB2D8"/>
<path d="M6.04987 353.682C5.6374 352.246 5.43201 350.523 5.30326 348.728C5.21337 347.459 5.15934 346.103 5.1039 344.742L5.1035 344.737C5.0808 344.175 5.059 343.614 5.0337 343.057C4.72788 336.307 6.57915 328.701 7.53497 325.273L7.67798 324.76L8.15032 324.516C10.0914 323.516 11.4749 323.226 12.3678 323.19L12.6046 323.18L12.8371 323.13L18.6817 321.837L19.1892 320.411C19.3457 319.968 33.2568 281.295 60.6882 245.193L61.5941 244L82 267.652L81.3823 268.443C74.2165 277.629 47.8961 306.558 32.0424 326.456C24.1004 336.425 18.7275 343.686 13.7039 351.599L12.168 357.226L11.2903 357.656C9.57536 358.255 9.5848 358.046 8.32327 357.226C7.12038 356.443 6.45592 355.097 6.04987 353.682ZM60.9031 246.925C60.6139 247.311 60.3347 247.697 60.0485 248.082C60.5807 247.365 61.11 246.648 61.6534 245.932C61.4023 246.262 61.1522 246.593 60.9031 246.925Z" fill="#ECB6A2"/>
<path d="M0 328.424C0 328.424 4.56535 322.073 10.8934 323.116C11.2492 323.097 11.6317 323.072 12.0312 323.042C10.8804 327.273 7.66575 339.165 8.1825 344.193C8.6245 348.498 12.3317 350.24 14 350.812C12.5686 353.571 12.826 360.123 13.2718 362.54C13.2718 362.54 11.2244 367.716 9.58668 365.406C7.94782 363.097 -1.98698 345.31 5.65835 334.092L2.01502 335.103L0 328.424Z" fill="#CDB2D8"/>
<path d="M27.0748 290.601L75.1422 196.639C75.1552 196.57 75.1662 196.509 75.1792 196.441C73.9137 184.682 81.9407 159.092 87.6144 148.568C87.6653 148.473 87.7042 148.378 87.7342 148.274C87.9867 147.405 89.2272 143.127 89.7541 141.311C89.9028 140.798 90.299 140.399 90.809 140.245L95.6454 138.783C96.5656 138.505 97.0117 137.465 96.5805 136.606L96.5546 136.554C96.0117 135.473 96.7941 134.211 97.9927 134.231C101.746 134.293 108.329 134.385 109.662 134.404C109.826 134.406 109.982 134.383 110.139 134.335L119.244 135.535C120.228 135.234 120.046 134.507 120.104 135.535L121.316 136.013C121.363 136.846 130.348 136.002 131.182 136.013L133.672 134.735C134.635 134.748 135.388 133.906 135.268 132.947L135.149 132C143.218 151.923 150.569 173.113 153.567 194.402L172.983 327.059C173.056 327.56 172.887 328.066 172.527 328.421L170.232 329.845C144.413 345.865 115.303 353.61 84.9377 352.963C73.5624 352.721 17.6012 337.419 27.0748 290.601Z" fill="#E6E3FA"/>
<path d="M75.1334 197.22C74.5494 191.805 75.9408 183.459 78.1657 175V175.006C78.1657 175.006 100.698 220.125 133.648 242.535C144.795 250.116 159.397 249.508 169.948 247.543L194 325.597C194.073 326.099 184.066 323.712 172.844 329.369L170.54 330.795C144.625 346.836 75.0964 197.418 75.0964 197.418C75.1094 197.349 75.1204 197.288 75.1334 197.22Z" fill="#D2E5FA"/>
<path d="M78.7526 225C78.7526 225 99.459 294.626 119.564 316.968C139.669 339.309 147 342.413 147 342.413L125.466 348.558C116.738 351.048 107.753 352.538 98.6872 353L91.6696 333.002C81.7756 304.809 77.1819 275.035 78.1193 245.177L78.7526 225Z" fill="#CBDFF8"/>
<path d="M78.2425 175.473C78.0829 175.162 78.0005 174.998 78.0005 174.998V174.992C78.0277 174.891 78.0538 174.789 78.0819 174.687C78.0056 174.165 77.9805 173.603 78.0156 172.998C78.369 166.82 79.5689 161.091 81.4526 155.285C82.4155 152.319 83.6887 149.536 84.9599 146.757C86.1136 144.237 87.2643 141.72 88.181 139.075C88.6198 137.806 89.2764 136.82 90.0626 136.089C90.3217 135.622 90.7434 135.287 91.4302 135.125C93.1934 134.216 95.2688 134.234 96.9918 134.985C100.675 135.075 104.773 135.386 108.966 135.703C117.714 136.366 126.871 137.059 133.514 135.841C135.449 135.486 135.568 133.907 135.616 133.269C135.646 132.866 135.648 132.838 136.061 133.728C136.097 133.71 136.137 134.063 136.176 134.406C136.212 134.729 136.248 135.042 136.278 135.022C144.005 154.308 150.933 174.717 153.827 195.221L170 247.718C159.423 249.689 144.787 250.298 133.615 242.699C105.51 223.58 84.9669 187.977 79.4665 177.788C78.9173 177.171 78.4915 176.4 78.2425 175.473Z" fill="white"/>
<path d="M193 324.289L152.939 194.659L152.925 194.615L152.919 194.568C150.003 173.954 142.97 153.413 135.144 134C134.807 134.504 134.31 134.886 133.719 135.175C132.487 135.779 130.718 136.044 128.66 136.118C124.751 136.26 119.495 135.722 114.113 135.171C113.803 135.139 113.493 135.107 113.183 135.075C107.45 134.49 101.642 133.932 97.0826 134.157C94.8009 134.27 92.8813 134.577 91.4572 135.148C90.0401 135.716 89.1896 136.511 88.8807 137.568C88.6039 138.519 87.7474 140.567 86.9511 142.439C86.8036 142.785 86.6572 143.127 86.5168 143.456C86.2721 144.027 86.0434 144.564 85.8478 145.028C85.5319 145.778 85.3253 146.29 85.2742 146.466C85.2331 146.609 85.1779 146.743 85.1067 146.875C82.2995 152.057 79.5284 161.527 77.6189 171.211C75.7093 180.896 74.6843 190.674 75.3101 196.464L75.3302 196.655L75.2339 196.821C64.6711 214.929 52.3222 239.279 40.97 261.664C35.5682 272.316 30.392 282.522 25.7417 291.399C24.0725 300.775 24.7532 313.801 32.7015 325.644C40.6631 337.507 55.9808 348.279 83.7929 352.965C114.179 353.602 144.101 345.448 169.938 329.489L172.245 328.064L172.28 328.043L172.317 328.026C178.148 325.463 183.539 324.629 187.461 324.373C189.422 324.245 191.015 324.261 192.105 324.278L192.281 324.28C192.565 324.284 192.803 324.288 193 324.289Z" stroke="#C8DBF1"/>
<path opacity="0.42" d="M72.5456 64.5446C75.6469 69.4369 74.3272 77.3739 63.2832 91.1567C48.7213 109.33 39.966 125.827 64.7173 122.254C68.628 121.688 70.3445 127.316 73.5514 128.054C69.4769 128.176 63.7737 130.274 53.5035 133.553C36.9887 138.826 36.3295 128.505 37.2717 121.57C38.1949 114.766 44.2243 104.539 47.8872 100.123C51.5511 95.7068 56.971 90.2944 58.8444 86.51C60.7178 82.7254 61.6891 73.0611 61.1008 66.5622C60.5115 60.0634 60.1098 51.558 61.5993 43.5317C62.2339 40.1086 64.2386 36.6736 66.3292 33.8533C69.4522 31.4429 72.6808 29 72.6808 29C72.6808 29 57.6836 41.0989 72.5456 64.5446Z" fill="#9D9BEE"/>
<path d="M91.5933 136H134.408C135.287 136 136 135.106 136 134.001V130.999C136 129.895 135.287 129 134.408 129H91.5933C90.7133 129 90 129.895 90 130.999V134.001C90 135.106 90.7133 136 91.5933 136Z" fill="#CBC7DD"/>
<path d="M75.0497 86.2155L77.9724 135.011C78.2314 137.836 81.6692 142.172 84.0217 143.386C85.5551 144.178 87.3565 144.063 89.0669 143.817C93.4089 143.193 97.3578 140.968 100.136 137.581L108.402 127.503C120.35 112.938 122.385 109.696 113.54 106.51L91.9935 125.56C90.7593 126.65 90.6212 128.523 91.6805 129.782C93.4559 131.894 96.9057 130.742 97.0507 127.99L99.2672 85.745C99.6183 79.0652 94.4731 73.3665 87.7756 73.0169C81.0791 72.6672 75.3658 77.799 75.0147 84.4791C74.9847 85.0426 75.0027 85.6682 75.0497 86.2155Z" fill="#ECB6A2"/>
<path d="M88.4995 98C78.8349 98 71 90.1651 71 80.5C71 70.8351 78.8349 63 88.4995 63C98.1651 63 106 70.8351 106 80.5C106 90.1651 98.1651 98 88.4995 98Z" fill="white"/>
<path d="M116.106 114.646C123.386 114.86 130.853 109.232 130.853 109.232L139.969 106.074C140.592 105.859 140.987 105.253 140.932 104.604C140.856 103.695 139.949 103.089 139.068 103.355L131.229 105.727L130.894 104.746L140.118 99.9998C140.887 99.6046 141.21 98.6847 140.858 97.9017C140.48 97.0629 139.475 96.7018 138.64 97.1057L129.793 101.393L129.347 100.229L138.943 93.8383C139.736 93.3103 140.043 92.3029 139.676 91.43C139.189 90.2753 137.759 89.8474 136.708 90.542L126.938 97.001L126.416 95.9767L134.247 87.4457C134.914 86.7182 134.969 85.6257 134.379 84.8362C133.617 83.8155 132.112 83.7125 131.215 84.6195L118.133 97.8413L119.39 91.7924C119.549 91.0346 119.228 90.2558 118.576 89.8254C117.617 89.1917 116.313 89.5298 115.793 90.5492L112.503 99.5316C108.708 106.994 113.295 116 113.295 116L116.106 114.646Z" fill="#ECB6A2"/>
<path d="M210.94 152.806L210.685 152.096L217 148.853C217 148.853 216.252 145.505 212.26 146.224C208.688 146.868 199.92 147.187 187.9 152.514L173.309 143.607C171.507 142.506 169.244 142.946 168.282 144.582L167.435 146.02C166.473 147.656 167.16 149.895 168.962 150.996L189.279 163.399C190.727 164.284 192.46 164.16 193.589 163.235L209.621 156.303C210.894 155.752 211.46 154.252 210.94 152.806Z" fill="#DB9F8D"/>
</svg>
