<svg width="179" height="388" viewBox="0 0 179 388" fill="none" xmlns="http://www.w3.org/2000/svg">
<path d="M44.0559 175.537C46.0498 181.537 35.0649 188.945 35.0649 188.945L29.2999 198.001C28.9063 198.62 28.1443 198.908 27.4498 198.703C26.4766 198.418 26.0457 197.311 26.5603 196.427L31.1423 188.564L30.1572 187.985L22.6302 196.8C22.0029 197.535 20.9162 197.676 20.1511 197.123C19.3313 196.53 19.1928 195.372 19.8457 194.569L26.7754 186.056L25.6177 185.317L16.2014 194.162C15.4234 194.893 14.2455 194.995 13.3858 194.407C12.2485 193.628 12.1451 192 13.1707 191.03L22.7065 182.014L21.721 181.226L10.4158 187.701C9.45176 188.253 8.24497 188.068 7.53301 187.259C6.61244 186.213 6.88248 184.58 8.10082 183.822L25.8624 172.774L18.9387 172.765C18.0709 172.765 17.3023 172.247 16.9982 171.452C16.5499 170.283 17.2508 168.962 18.496 168.633L30.272 165.522C39.3836 163.13 41.3389 170.151 41.3389 170.151L44.0559 175.537Z" fill="#DDA290"/>
<path d="M34.8936 177.344C35.0345 177.26 35.1138 177.094 35.08 176.921C35.0382 176.699 34.8263 176.551 34.606 176.59C31.3669 177.172 28.9506 176.849 27.4246 175.632C26.0017 174.497 25.8966 172.971 25.8953 172.956C25.8824 172.731 25.6905 172.557 25.4667 172.567C25.2417 172.574 25.0722 172.768 25.0851 172.993C25.0896 173.07 25.2167 174.907 26.9263 176.271C28.6466 177.642 31.2816 178.02 34.7583 177.395C34.808 177.387 34.8533 177.369 34.8936 177.344Z" fill="#A96448"/>
<path d="M35.4053 167.703L57.343 159.557L61.6951 172.906L42.971 178.322L35.4053 167.703Z" fill="#DDA290"/>
<path d="M89.5609 368.999C88.2844 367 89.029 363.833 89.5609 362.499L83.7098 358L65 373H87.9652C89.029 372.5 90.8375 370.999 89.5609 368.999Z" fill="#28527C"/>
<path d="M74.3602 185.622L71.6721 208.43L68.8682 231.218L63.2538 276.795L63 278.862L63.0257 279.439L65.0207 323.22L66.0149 345.111L66.8916 367L85.0434 363.283H89.6526L94.2617 323.22L96.901 279.538L96.6727 282.182L106.5 237.285L111.417 214.837L116.449 192.407L121 172.126L76.7906 165L74.3602 185.622Z" fill="#3C92E9"/>
<path d="M90.7815 367.026C95.2949 374.073 91.5244 384.782 91.5244 384.782L40 385L43.1793 376.102C43.1793 376.102 49.6519 374.708 58.2542 370.661C67.4597 366.329 67.3987 363 67.3987 363C67.3987 363 73.2527 362.871 73.1261 367.491C72.9992 372.111 72.0952 371.663 72.0952 371.663L90.7815 367.026Z" fill="#3272B4"/>
<path d="M146.572 370C145.326 368 146.052 364.834 146.572 363.5L140.862 359L131 370L145.014 374C146.052 373.499 147.817 371.999 146.572 370Z" fill="#28527C"/>
<path d="M74.8397 92.16L63.9044 154.674L80.1011 142.618L44.4681 159.736C38.7422 161.774 38.0414 160.987 38 167.217C39.8555 172.164 41.4635 176.37 41.8306 182L76.6455 171.791C83.7131 173.441 90.7794 169.049 92.4288 161.981C92.4817 161.754 92.5284 161.527 92.5689 161.301L92.8423 159.736L103.778 97.2221C105.176 89.2311 99.8307 81.62 91.8397 80.2222C83.8489 78.8242 76.2378 84.169 74.8397 92.16Z" fill="#3C92E9"/>
<path d="M20 148.001H19.999L19.998 148L20 148.001Z" fill="white"/>
<path d="M101.351 135.139C101.351 135.139 98.8102 128.171 107.395 124.667L118.5 120.155C119.674 119.678 120.996 120.345 121.323 121.58C121.545 122.418 121.24 123.308 120.554 123.83L115.094 128L135.544 126.44C136.946 126.332 138.11 127.518 137.992 128.933C137.9 130.029 137.055 130.907 135.973 131.032L123.282 132.485L122.963 133.729L135.736 135.434C137.11 135.618 137.976 137.025 137.531 138.351C137.195 139.354 136.205 139.977 135.166 139.841L122.586 138.203L122.103 139.509L132.526 142.369C133.509 142.638 134.074 143.677 133.771 144.659C133.489 145.576 132.549 146.112 131.627 145.882L120.555 143.135L120.114 144.204L128.307 147.938C129.228 148.358 129.531 149.53 128.93 150.351H128.93C128.5 150.938 127.731 151.157 127.061 150.883L117.241 146.878C117.241 146.878 104.258 147.367 102.341 141.218L101.351 135.139Z" fill="#DDA290"/>
<path d="M110.378 136C110.433 136 110.489 135.988 110.542 135.961C113.51 134.486 115.29 132.719 115.831 130.708C116.369 128.709 115.454 127.237 115.414 127.176C115.3 126.996 115.067 126.947 114.893 127.063C114.719 127.18 114.669 127.421 114.782 127.601C114.814 127.652 115.552 128.86 115.099 130.518C114.613 132.296 112.969 133.892 110.214 135.261C110.026 135.354 109.947 135.587 110.038 135.78C110.103 135.919 110.238 136 110.378 136Z" fill="#A96448"/>
<path d="M108.165 55.8208L108.001 72.1638C107.932 77.9028 111.235 80.9996 116.569 81C121.123 81.0002 126.146 77.8345 125.997 72.7731L125.086 48L108.165 55.8208Z" fill="#D08864"/>
<path d="M34 157C34.5738 157.077 35.0089 157.384 34.9653 157.753L34.9591 157.804C34.9511 157.872 34.9769 157.936 35 158C34.4511 157.91 34.0596 157.498 34 157Z" fill="#D2CFE5"/>
<path d="M101 71.1779L134 71L129.591 80L104.91 77.7031L101 71.1779Z" fill="#8A7FBF"/>
<path d="M112.429 199.415L113.827 220.358L115.105 241.304C117.972 287.353 126.249 328.64 123.349 367H145.257H147.394L148.34 346.03L149.434 325.059L150.647 304.086C151.038 297.095 151.517 290.103 151.789 283.112C152.442 269.13 152.998 255.148 153.732 241.164L154.806 220.188L156 199.21L154.806 178H111L112.429 199.415Z" fill="#3C92E9"/>
<path d="M122.073 71L139 77.6731C139 77.6731 135.324 83.4099 120.97 85.6086C117.231 86.1812 113.423 86.1469 109.712 85.3641C105.326 84.4389 100.49 82.3928 100 77.87L112.218 71H122.073Z" fill="#DDA290"/>
<path d="M105 16.5856L97.1451 33C90.7581 17.5537 100.669 16 100.669 16L105 16.5856Z" fill="#332C30"/>
<path d="M98.5985 31.0206C94.7472 30.7265 91.3567 33.6129 91.0261 37.4676C90.6954 41.3224 93.5496 44.6855 97.4013 44.9794C101.253 45.2736 104.643 42.3872 104.974 38.5325C105.304 34.678 102.45 31.3145 98.5985 31.0206Z" fill="#DDA290"/>
<path d="M125.767 47L126 71.7406C125.989 77.0175 120.659 79.149 115.893 78.992C110.309 78.8079 106.753 76.7123 107.013 70.7371L107.798 54.5634L125.767 47Z" fill="#ECB6A2"/>
<path d="M107.724 53.0007C107.724 53.0007 126.49 52.8327 124.905 57.6175L107 68L107.724 53.0007Z" fill="#DDA290"/>
<path d="M133.211 43.4555L134.944 30.3691C135.801 20.0166 126.655 10.8451 116.673 10.0553C106.922 9.28389 98.2649 16.673 97.1077 26.7552L95.0857 43.5728C94.1624 51.617 100.796 60.5196 110.242 61.9273C121.66 62.8306 131.663 55.2388 133.211 43.4555Z" fill="#ECB6A2"/>
<path d="M136 36.74L135.752 21.053C135.752 21.053 132.79 17.3351 120.925 7.02156C105.192 -6.65506 91.7758 1.82555 94.309 13.9282C96.8421 26.0308 125.324 21.182 125.324 21.182C132.859 25.2917 129.057 41 129.057 41L136 36.74Z" fill="#332C30"/>
<path d="M131.471 19.4384L133.131 38.1192L134.784 39C162.607 0.207312 101 11.5419 101 11.5419L131.471 19.4384Z" fill="#332C30"/>
<path d="M134.494 49.9247C130.948 49.3627 128.524 45.8069 129.079 41.9825C129.635 38.1581 132.96 35.5133 136.506 36.0753C140.052 36.6373 142.476 40.1931 141.921 44.0175C141.365 47.842 138.04 50.4867 134.494 49.9247Z" fill="#ECB6A2"/>
<path d="M132.451 46C132.682 46 132.879 45.8233 132.899 45.5899C132.901 45.5673 133.103 43.4131 134.512 42.413C135.263 41.8784 136.248 41.7617 137.439 42.0618C137.678 42.123 137.925 41.9769 137.986 41.7357C138.047 41.4955 137.901 41.2509 137.66 41.1898C136.196 40.8228 134.96 40.9882 133.985 41.6847C132.236 42.9306 132.01 45.4088 132.002 45.5141C131.981 45.761 132.165 45.9774 132.412 45.9989C132.425 46 132.438 46 132.451 46Z" fill="#3E3431"/>
<path d="M107.579 44C107.777 44 107.954 43.8423 107.992 43.6169C108.036 43.3619 107.886 43.1152 107.658 43.0666L105.94 42.7013L106.648 39.5879C106.706 39.3352 106.569 39.0802 106.344 39.0162C106.12 38.9474 105.889 39.1041 105.832 39.3554L105.013 42.9539C104.984 43.0796 105.003 43.2137 105.066 43.3228C105.128 43.4319 105.229 43.5078 105.343 43.5327L107.5 43.9917C107.527 43.9965 107.553 44 107.579 44Z" fill="#3E3431"/>
<path d="M102.683 34.0097C101.861 33.9164 101.112 34.5081 101.011 35.3312C100.91 36.1541 101.495 36.897 102.317 36.9903C103.139 37.0837 103.887 36.4922 103.989 35.6691C104.09 34.846 103.505 34.1031 102.683 34.0097Z" fill="#3E3431"/>
<path d="M115.683 36.0097C114.861 35.9164 114.113 36.5079 114.011 37.331C113.91 38.1541 114.495 38.897 115.317 38.9903C116.139 39.0835 116.888 38.492 116.989 37.669C117.09 36.8458 116.505 36.1029 115.683 36.0097Z" fill="#3E3431"/>
<path d="M108.315 50.9858C113.936 51.2566 115 47.5588 115 47.5588L102 46C102 46 102.719 50.7162 108.315 50.9858Z" fill="white"/>
<path d="M102.166 26C100.155 25.9994 98.905 26.8235 98.288 27.3825C97.9838 27.6584 97.9169 28.0631 98.105 28.4119C98.3377 28.8437 98.9064 29.0823 99.4528 28.974C100.415 28.7835 101.46 28.8169 103.112 28.8361C105.287 28.8614 104.986 27.3611 104.986 27.3611C104.986 27.3611 104.748 26.0008 102.166 26Z" fill="#332C30"/>
<path d="M117.869 27.3144C120.183 28.054 121.332 29.4786 121.846 30.3602C122.099 30.7949 122.034 31.2933 121.695 31.6321C121.276 32.0519 120.538 32.1216 119.947 31.7938C118.907 31.2164 117.692 30.8706 115.785 30.2851C113.273 29.5138 114.147 27.869 114.147 27.869C114.147 27.869 114.899 26.3648 117.869 27.3144Z" fill="#332C30"/>
<path d="M106 87.715L113.923 83L122 89.0313L112.318 96L106 87.715Z" fill="#312220"/>
<path d="M112 140L133.826 79.4691L134 71L115.7 83.0489" fill="#ECF4FD"/>
<path d="M116 82.9047L101.503 71L99 79.3159L112.383 140" fill="#CBC7DD"/>
<path d="M111.37 129.773L133.54 79L161.993 80.6379C161.993 80.6379 162.547 112.739 153.864 166.132C153.864 166.132 157.189 199.217 157.559 217.887C157.559 217.887 125.411 220.835 111 196.595" fill="#6BB0F6"/>
<path d="M111.635 130.584L87.5326 82H86.2894C81.3498 82 77.1429 85.6204 76.3844 90.5447C74.4094 103.366 72.0694 130.111 78.0403 167.349C78.0403 167.349 66.3651 200.175 66 218.887C66 218.887 97.7619 221.842 112 197.549" fill="#6BB0F7"/>
<path d="M79 84.3522C79 84.3522 85.6839 100.983 100.86 133.874L92.7166 139.794C92.7166 139.794 101.23 154.595 112.705 174L114 119.155L99.7494 75C99.7494 75 84.9589 79.4474 79 84.3522Z" fill="#2B7ED1"/>
<path d="M113 119.222C112.022 145.433 112.137 171.681 111.212 197.887C111.207 198.037 111.021 198.038 111.021 197.887C110.864 171.692 111.625 145.387 112.623 119.222C112.635 118.927 113.011 118.925 113 119.222Z" fill="#2B7ED1"/>
<path d="M115 84.0819C114.54 95.6488 113.844 107.202 113.415 118.771C113.403 119.076 112.987 119.077 113 118.771C113.517 107.205 114.002 95.6233 114.851 84.0819C114.859 83.9742 115.004 83.9712 115 84.0819Z" fill="#B3ACD2"/>
<path d="M161 78.7853C161 78.7853 149.619 107.901 132.265 125.886L139.505 129.998C139.505 129.998 122.338 154.688 112 173L112.646 120.189L134.153 75.8793C134.153 75.8793 154.941 72.5722 161 78.7853Z" fill="#2B7ED1"/>
<path d="M115 84.6193C115 84.6193 102.928 73.7272 98.4807 75.1237C94.0332 76.5201 101.022 83.2229 101.022 83.2229C101.022 83.2229 96.8924 85.4572 98.1631 88.8086C99.4338 92.16 111.823 87.6915 115 84.6193Z" fill="#FFC55D"/>
<path d="M111 84.5001C111 82.567 112.791 81 115 81C117.209 81 119 82.567 119 84.5001C119 86.433 117.209 88 115 88C112.791 88 111 86.433 111 84.5001Z" fill="#FFD485"/>
<path d="M133.715 113.561C129.132 111.112 124.737 108.264 120 106.132L133.715 74.113C133.715 74.113 154.982 72.8074 161 79.0733C161 79.0733 152.083 99.1702 140.491 117C138.217 115.884 135.95 114.756 133.715 113.561Z" fill="#2B7ED1"/>
<path d="M116 84.6193C116 84.6193 128.072 73.7272 132.519 75.1237C136.967 76.5201 129.978 83.2229 129.978 83.2229C129.978 83.2229 134.108 85.4572 132.837 88.8086C131.566 92.16 119.177 87.6915 116 84.6193Z" fill="#FFC55D"/>
<path d="M131.226 364.25C134.022 365.549 140.083 363.083 141.83 362L142.861 364.39C143.879 366.75 144.719 369.174 145.378 371.645L145.798 371.586L147.334 369.087C147.334 369.087 146.903 368.456 148.358 370.586C149.178 371.787 149.041 374.753 148.87 376.087L148.644 376.382C148.622 376.734 148.598 377.082 148.575 377.409C148.528 378.082 148.488 378.664 148.488 379.001C148.488 379.655 148.183 380.537 147.906 381.34C147.675 382.009 147.464 382.621 147.464 383.001L145.389 383.406L143.457 387H123.563C121.829 387 120.237 386.061 119.431 384.561C118.02 381.936 117.507 378.88 118.56 376.1C119.644 373.237 121.066 370.604 122.509 367.932C123.714 365.7 124.934 363.442 125.984 361C126.566 361.541 128.43 362.95 131.226 364.25Z" fill="#3272B4"/>
<path d="M96.2836 141.638L123.506 150.738C125.92 151.546 128.478 150.423 129.189 148.246L129.814 146.33C130.525 144.153 129.131 141.711 126.716 140.903L95.394 130.433C95.2343 130.38 94.2229 129.883 94.1759 130.026L93.1857 136.211C92.4747 138.39 93.8688 140.832 96.2836 141.638Z" fill="#ECB6A2"/>
<path d="M138.393 93.296L149.97 157.78L167.96 141.115L113.958 130.612C107.925 129.439 107.568 135.078 106.395 141.115C105.312 146.688 103.105 150.398 108.361 152.12L160.627 169.296C167.973 171.711 175.884 167.71 178.297 160.36C179.041 158.093 179.176 155.771 178.789 153.575L178.618 152.631L167.04 90.3522C165.619 82.4372 158.521 73.7319 150.61 75.1537C142.7 76.5755 136.972 85.3809 138.393 93.296Z" fill="#6BB0F6"/>
<path d="M153.692 168L154 167.057L110.022 152.498L109.971 152.381L109.846 152.437C108.719 152.041 107.95 151.529 107.5 150.872C107.08 150.259 106.923 149.515 107.006 148.53C107.083 147.628 107.35 146.616 107.666 145.481L107.76 145.145C108.065 144.052 108.371 142.953 108.606 141.739C108.774 140.865 108.911 140.021 109.045 139.195C109.148 138.559 109.236 138.018 109.332 137.483C109.536 136.342 109.806 135.03 110.26 133.96C110.713 132.894 111.306 132.175 112.073 131.76C112.942 131.291 114.048 131.194 115.453 131.47L145.776 137.412L146.862 143.469L147.833 143.293L139.167 94.9884C138.5 91.2462 139.459 84.9816 141.613 81.8602C143.767 78.7388 146.998 76.6499 150.712 75.9777L150.537 75C146.565 75.7192 143.108 77.9541 140.804 81.2933C138.5 84.6324 137.484 91.1608 138.197 95.1649L145.588 136.363L115.641 130.495C114.005 130.175 112.685 130.302 111.606 130.886C110.636 131.41 109.899 132.288 109.354 133.569C108.861 134.731 108.576 136.111 108.362 137.307C108.266 137.846 108.177 138.393 108.086 138.947C107.94 139.852 107.804 140.686 107.638 141.55C107.411 142.723 107.111 143.803 106.82 144.846L106.717 145.214C106.388 146.397 106.108 147.458 106.025 148.445C105.922 149.657 106.14 150.634 106.69 151.437C107.119 152.062 107.746 152.575 108.594 152.99L108.491 153.036L153.692 168Z" fill="#2B7ED1"/>
<path d="M101.651 142.268C97.9131 147.357 85.8617 142.75 85.8617 142.75L75.3681 143.324C74.6513 143.364 73.9975 142.913 73.7783 142.232C73.4707 141.279 74.1249 140.289 75.1229 140.194L84.0002 139.352L83.9226 138.219L72.6486 137.227C71.7091 137.144 70.9943 136.346 71.0174 135.405C71.0425 134.398 71.8998 133.616 72.9087 133.679L83.6088 134.362L83.5653 132.996L71.222 130.492C70.2025 130.285 69.4682 129.39 69.4674 128.353C69.467 126.981 70.7234 125.954 72.073 126.223L84.6196 128.726L84.7109 127.471L73.2352 122.064C72.2568 121.603 71.7391 120.518 71.9982 119.473C72.3324 118.122 73.7997 117.395 75.0849 117.943L93.8196 125.931L89.9985 120.318C89.518 119.615 89.5115 118.693 89.9849 117.986C90.6797 116.946 92.1332 116.749 93.0869 117.567L102.108 125.304C109.077 131.299 104.494 136.948 104.494 136.948L101.651 142.268Z" fill="#ECB6A2"/>
</svg>
