<svg width="354" height="627" viewBox="0 0 354 627" fill="none" xmlns="http://www.w3.org/2000/svg">
<path d="M179.5 456C275.874 456 354 377.874 354 281.5C354 185.126 275.874 107 179.5 107C83.1263 107 5 185.126 5 281.5C5 377.874 83.1263 456 179.5 456Z" fill="#CDB2D8"/>
<path d="M206 321H134V360H206V321Z" fill="#6E66B3"/>
<path d="M147.331 607.6C145.384 604.4 146.52 599.333 147.331 597.2L138.409 590L123 607.6L144.897 614C146.52 613.2 149.277 610.8 147.331 607.6Z" fill="#B2559C"/>
<path d="M181.036 326.866L175.674 362.594L170.496 398.341L157.55 464.71L157.668 462.749L154.173 533.024L153.041 602.39H139.024L120.497 600.161H107.118L107 466.671L107.118 464.71L110.778 392.57L112.603 356.499L114.245 320.411L115.764 287L186 293.787L181.036 326.866Z" fill="#6E66B3"/>
<path d="M238.096 598.952C239.391 594.49 240.794 589.125 241.333 587H258.33C261.298 592.046 267.719 603.573 269.661 609.31C272.089 616.481 260.758 613.294 258.33 613.294C255.902 613.294 236.477 604.529 238.096 598.952Z" fill="#B2559C"/>
<path d="M238.533 319.656L245.858 358.517L267.78 456.137C267.78 478.71 266.353 559.033 267.78 599.79L274 622L263.717 599.79L232.484 589.395C227.129 548.721 215.666 515.826 215.666 464.648L183.61 373.82L172.029 336.004L162 303.255L232.189 286L238.533 319.656Z" fill="#6E66B3"/>
<path d="M232.516 596.406C225.363 607.615 231.339 624.652 231.339 624.652L313 625L307.961 610.845C307.961 610.845 297.702 608.626 284.069 602.187C269.479 595.296 269.575 590.001 269.575 590.001C269.575 590.001 260.297 589.794 260.498 597.144C260.699 604.494 262.132 603.783 262.132 603.783L232.516 596.406Z" fill="#3C4E74"/>
<path d="M306.691 621C306.673 621 306.655 621 306.637 621L230.255 617.748C229.535 617.715 228.973 617.077 229.001 616.32C229.034 615.564 229.665 615.086 230.363 615L306.744 618.252C307.465 618.284 308.027 618.923 307.999 619.68C307.968 620.42 307.391 621 306.691 621Z" fill="#020023"/>
<path d="M217.083 165.291C222.736 158.557 232.542 157.02 240.011 161.698L311.758 206.63C319.326 211.369 322.129 220.977 318.283 228.996C313.729 238.493 301.834 241.902 292.88 236.277L221.194 191.248C212.207 185.603 210.275 173.401 217.083 165.291Z" fill="#B2559C"/>
<path d="M301.81 243C297.834 243 293.895 241.891 290.47 239.74L218.834 194.713C213.692 191.48 210.202 186.204 209.257 180.234C208.311 174.265 210.005 168.179 213.899 163.537C220.657 155.482 232.488 153.625 241.418 159.221L313.116 204.151C322.189 209.838 325.553 221.38 320.942 230.998C318.338 236.431 313.506 240.505 307.687 242.175C305.758 242.727 303.78 243 301.81 243ZM230.162 163.022C226.1 163.022 222.086 164.757 219.335 168.036C216.745 171.123 215.62 175.171 216.249 179.142C216.877 183.113 219.199 186.624 222.618 188.774L294.254 233.799C297.665 235.944 301.845 236.536 305.722 235.422C309.6 234.31 312.817 231.597 314.552 227.978C317.624 221.57 315.383 213.883 309.339 210.096L237.641 165.165C235.336 163.72 232.739 163.022 230.162 163.022Z" fill="#B2559C"/>
<path d="M134 123.414C134 123.414 181.156 104.687 227 123.11L216.755 163H152.304L134 123.414Z" fill="#822E72"/>
<path d="M201.018 89.9005C200.684 95.6808 205.078 100.642 210.834 100.982C216.589 101.322 222.648 96.8796 222.982 91.0995C223.316 85.3192 218.921 80.3579 213.167 80.0183C207.411 79.6784 201.352 84.1206 201.018 89.9005Z" fill="#A96448"/>
<path d="M196.735 117.087L196.998 142.344C197.109 151.213 191.788 155.999 183.194 156C175.858 156 167.765 151.108 168.005 143.286L169.473 105L196.735 117.087Z" fill="#D08864"/>
<path d="M196 137C196 137 171.73 120.33 172.002 117.111C172.64 109.585 195.71 114.694 195.71 114.694L196 137Z" fill="#A96448"/>
<path d="M188.796 125C203.333 124.884 215.207 112.963 215.505 100.736L215.991 75.1521C216.365 59.8264 204.865 46.9495 190 46.05C174.783 45.129 154.884 57.0429 154 72.7101L158.045 92.5305C157.902 110.483 171.389 123.947 188.796 125Z" fill="#D08864"/>
<path d="M160.392 91L164.242 84.8376C165.074 79.2784 164.079 74.314 162.827 71.6261C161.393 68.5474 161.559 63.7156 166.872 59.76C174.668 53.956 190.61 49.73 204.721 55.4407C208.704 57.0527 211.951 60.1528 213.628 64.1176C214.376 65.8853 214.95 67.7799 215 69.4969L214.934 65.6577C214.684 51.1111 202.675 40.6738 188.168 41.0183C183.088 41.1392 177.285 40.6142 170.857 41.7589C154.608 44.6519 142.174 59.8842 147.085 75.6815L152.183 86.265L160.392 91Z" fill="#312220"/>
<path d="M142.014 91.882C141.695 97.6887 146.972 102.641 152.465 102.982C157.958 103.323 162.669 98.8926 162.988 93.0861C163.307 87.2795 156.948 82.3598 151.455 82.0186C145.962 81.6772 142.333 86.0755 142.014 91.882Z" fill="#D08864"/>
<path d="M157.327 97C157 97 156.714 96.7636 156.662 96.4339C156.657 96.4006 156.123 93.1091 153.718 91.3876C152.401 90.4452 150.743 90.1272 148.785 90.4602C148.416 90.5135 148.071 90.2771 148.009 89.9141C147.949 89.5512 148.194 89.2065 148.56 89.1449C150.886 88.757 152.892 89.1483 154.516 90.3137C157.378 92.3699 157.969 96.0776 157.992 96.2358C158.048 96.5988 157.794 96.9367 157.428 96.9917C157.394 96.9967 157.361 97 157.327 97Z" fill="#312220"/>
<path d="M167 59.751C167 59.751 170.729 58.3332 178.224 60.463C197.494 65.9389 210.925 61.8696 208.774 54.7349L189.973 49L168.236 51.8039L167 59.751Z" fill="#312220"/>
<path d="M197.697 97C197.328 97 197.02 96.7032 197.001 96.3206C196.982 95.9255 197.279 95.5894 197.662 95.5697L200.495 95.4267L199.783 90.832C199.722 90.4422 199.982 90.0739 200.361 90.0131C200.754 89.9345 201.099 90.2187 201.158 90.6067L201.991 95.9899C202.023 96.1901 201.969 96.3957 201.845 96.553C201.72 96.7122 201.535 96.8069 201.339 96.8176L197.732 97C197.72 97 197.707 97 197.697 97Z" fill="#312220"/>
<path d="M202.603 75.6245C203.578 75.8072 204.516 75.8142 205.418 75.8473C206.301 75.8712 207.231 75.8308 207.978 75.8789C209.519 75.9928 211.316 76.577 213.161 76.976L213.203 76.9847C213.556 77.0613 213.907 76.8426 213.985 76.4965C214.033 76.2811 213.962 76.0642 213.819 75.9147C213.088 75.1649 212.268 74.596 211.358 74.1029C210.447 73.6234 209.45 73.2413 208.303 73.0711C207.14 72.9358 206.144 72.9983 205.122 73.2185C204.119 73.4607 203.163 73.7886 202.278 74.4251C201.975 74.6426 201.91 75.0592 202.132 75.3553C202.237 75.4959 202.389 75.5841 202.551 75.6148L202.603 75.6245Z" fill="#312220"/>
<path d="M189.63 74.3539C188.287 73.6876 186.904 73.3597 185.487 73.1495C184.063 72.9539 182.645 72.9457 181.148 73.1519C179.636 73.3641 178.255 73.8725 176.938 74.4789C175.627 75.111 174.391 75.8428 173.241 76.7968C172.971 77.0207 172.92 77.4411 173.128 77.7357C173.283 77.9556 173.538 78.0431 173.77 77.98L173.796 77.9728C176.419 77.2555 179.023 76.3934 181.48 76.121C182.714 76.0009 184.054 76.009 185.374 75.9502C186.702 75.8891 188.059 75.8566 189.433 75.6538L189.46 75.6498C189.803 75.5991 190.042 75.2554 189.994 74.8821C189.963 74.6436 189.818 74.4487 189.63 74.3539Z" fill="#312220"/>
<path d="M183.243 88C182.147 88 180.862 87.755 179.396 87.0838C179.061 86.9302 178.91 86.523 179.055 86.1745C179.201 85.8225 179.593 85.6638 179.922 85.8173C184.435 87.8844 186.836 85.2514 186.857 85.2221C187.104 84.9425 187.519 84.9236 187.789 85.1841C188.055 85.4429 188.072 85.8795 187.825 86.1607C187.736 86.2608 186.158 88 183.243 88Z" fill="#312220"/>
<path d="M208.59 87C207.159 87 205.919 86.4824 205.259 86.0406C204.963 85.8408 204.913 85.4749 205.148 85.2226C205.382 84.9718 205.814 84.9266 206.114 85.1235C206.212 85.1891 208.552 86.6909 210.882 85.1249C211.183 84.9266 211.615 84.9689 211.851 85.2197C212.087 85.4734 212.037 85.8394 211.739 86.0406C210.684 86.7478 209.59 87 208.59 87Z" fill="#312220"/>
<path d="M213.997 101C210.83 101 207.788 99.7225 205.411 97.3878C202.667 94.6936 201.061 90.8118 201.002 86.7362C200.885 78.7417 206.621 72.1323 213.787 72.0019C217.033 71.9437 220.155 73.2248 222.588 75.6123C225.331 78.3048 226.939 82.1883 226.998 86.264C227.115 94.2584 221.379 100.868 214.214 100.998C214.142 101 214.069 101 213.997 101ZM214.001 74.0441C213.942 74.0441 213.883 74.0459 213.822 74.0459C207.765 74.1569 202.917 79.836 203.016 86.7045C203.068 90.2409 204.45 93.5994 206.812 95.9182C208.811 97.8812 211.356 98.956 213.997 98.956C214.058 98.956 214.117 98.9543 214.176 98.9543C220.235 98.8432 225.083 93.1642 224.984 86.2957C224.932 82.7575 223.548 79.4008 221.186 77.0819C219.186 75.119 216.642 74.0441 214.001 74.0441Z" fill="white"/>
<path d="M180.495 101C172.611 101 166.132 94.4325 166.002 86.2449C165.939 82.2398 167.388 78.4477 170.081 75.5694C172.776 72.6893 176.392 71.0674 180.263 71.0018C180.342 71.0018 180.423 71 180.502 71C188.389 71 194.868 77.5693 194.998 85.7551C195.127 94.0244 188.729 100.862 180.737 100.998C180.656 100.998 180.576 101 180.495 101ZM180.502 73.1685C180.433 73.1685 180.366 73.1685 180.298 73.1702C173.459 73.2856 167.985 79.1344 168.098 86.2094C168.21 93.2844 173.906 99.0125 180.702 98.8298C187.54 98.7144 193.013 92.8638 192.902 85.7906C192.792 78.7866 187.248 73.1685 180.502 73.1685Z" fill="white"/>
<path d="M194.126 89L193 87.3825C197.874 84.3785 201.835 87.1878 202 87.3081L200.742 88.837L201.371 88.0725L200.747 88.8401C200.626 88.7547 197.746 86.7636 194.126 89Z" fill="white"/>
<path d="M162.006 89C161.738 89 161.471 88.888 161.273 88.6675C160.892 88.2437 160.912 87.5787 161.317 87.1807L166.305 82.2861C166.71 81.8864 167.346 81.9088 167.727 82.3326C168.108 82.7564 168.088 83.4215 167.683 83.8194L162.695 88.714C162.501 88.9052 162.253 89 162.006 89Z" fill="white"/>
<path d="M174.475 141L148 149.898C148 149.898 153.75 157.546 176.201 160.478C182.05 161.242 188.006 161.196 193.81 160.152C200.67 158.918 208.234 156.19 209 150.16L189.89 141H174.475Z" fill="#D08864"/>
<path d="M210 305H148L150.558 153.188C150.558 153.188 193.153 170.745 209.026 151L210 305Z" fill="white"/>
<path d="M42.3145 54.5462C42.3145 54.5462 53.7294 52.6716 51.7749 38.4829L49.2197 20.1423C48.9497 18.2037 47.0141 16.9343 45.0883 17.4326C43.7809 17.7709 42.8133 18.8547 42.6425 20.1721L41.2575 30.6703L27.4181 2.01844C26.4693 0.0540261 23.9562 -0.609443 22.1329 0.623135C20.7209 1.57776 20.1912 3.37897 20.8676 4.92625L28.8006 23.0763L27.3662 24.4481L15.093 8.58653C13.7722 6.87958 11.193 6.78389 9.74496 8.38829C8.6508 9.6007 8.5785 11.403 9.57247 12.6961L21.604 28.3496L20.2119 29.9893L8.21099 18.1588C7.07992 17.0437 5.23288 17.0736 4.13949 18.2246C3.11906 19.299 3.12636 20.9683 4.15648 22.0341L16.5127 34.8191L15.4093 36.2225L3.96363 28.0524C2.67663 27.1336 0.854856 27.6163 0.212608 29.0463V29.0465C-0.24681 30.0695 0.0561293 31.2682 0.949375 31.9613L14.0324 42.1113C14.0324 42.1113 23.4967 59.9205 33.3157 57.8293L42.3145 54.5462Z" fill="#D08864"/>
<path d="M33.7055 45C33.377 45 33.1001 44.7404 33.0778 44.4018C32.6977 38.8054 33.7124 34.728 36.0945 32.2819C38.4645 29.848 41.2885 29.9945 41.4107 30.005C41.7564 30.027 42.0195 30.3295 41.9989 30.683C41.9799 31.0373 41.7013 31.318 41.335 31.2873C41.2335 31.2846 38.9271 31.1785 36.9682 33.2071C34.8682 35.3822 33.9824 39.1194 34.3333 44.3124C34.3574 44.6667 34.0959 44.9737 33.7485 44.9982C33.7348 44.9991 33.7193 45 33.7055 45Z" fill="#A96448"/>
<path d="M30 56.5978L35.0435 86L56 81.7678L47.3623 47L30 56.5978Z" fill="#D08864"/>
<path d="M295.185 153.124C304.484 149.566 302.574 129.226 302.574 129.226L307.869 113.451C308.231 112.374 307.825 111.187 306.882 110.564L306.882 110.564C305.565 109.693 303.788 110.272 303.223 111.756L298.201 124.952L296.516 124.355L299.762 106.727C300.033 105.258 299.124 103.83 297.687 103.468C296.148 103.081 294.598 104.06 294.271 105.627L290.796 122.247L288.741 121.605L290.145 101.708C290.261 100.064 289.212 98.5658 287.639 98.1267C285.557 97.5457 283.468 99.0303 283.308 101.205L281.818 121.412L279.874 121.022L276.506 101.224C276.219 99.5358 274.792 98.2874 273.096 98.2411C270.906 98.1815 269.184 100.114 269.474 102.306L273.698 134.276L266.79 126.074C265.926 125.043 264.528 124.645 263.257 125.067C261.385 125.69 260.475 127.825 261.314 129.626L269.251 146.661C275.409 159.828 285.914 155.218 285.914 155.218L295.185 153.124Z" fill="#D08864"/>
<path d="M287.371 143C287.151 143 286.936 142.876 286.82 142.657C284.336 137.912 281.591 135.166 278.66 134.492C275.93 133.861 274.024 135.326 274.005 135.341C273.725 135.563 273.331 135.497 273.125 135.202C272.917 134.905 272.975 134.488 273.255 134.269C273.352 134.194 275.648 132.434 278.926 133.187C282.229 133.945 285.254 136.913 287.921 142.009C288.089 142.331 287.981 142.738 287.677 142.916C287.579 142.974 287.474 143 287.371 143Z" fill="#A96448"/>
<path d="M277 150.415L288.863 185L309 176.993L297.047 149L277 150.415Z" fill="#D08864"/>
<path d="M138.731 184.508C133.351 191.49 130.752 196.791 123.095 192.397L50.8544 151.868C43.0962 147.415 39.9058 137.889 43.4267 129.689C47.596 119.98 59.3501 116.084 68.53 121.369L143.772 153.628C152.985 158.932 145.21 176.1 138.731 184.508Z" fill="#B2559C"/>
<path d="M127.541 197C125.584 197 123.365 196.387 120.804 194.918L48.6481 154.435C39.3176 149.082 35.4883 137.644 39.7084 127.816C42.0924 122.263 46.7585 117.986 52.5103 116.08C58.1912 114.195 64.4185 114.798 69.6291 117.726L145.004 150.07C148.009 151.8 149.975 154.605 150.687 158.181C152.613 167.845 145.194 180.686 141.004 186.127C140.421 186.881 139.873 187.616 139.347 188.321C136.26 192.458 132.87 197 127.541 197ZM59.2043 122.053C57.7037 122.053 56.1979 122.291 54.7457 122.771C50.9146 124.042 47.8079 126.891 46.2191 130.588C43.408 137.136 45.9598 144.753 52.1542 148.308L124.308 188.791C128.072 190.946 128.859 190.554 133.663 184.114C134.211 183.383 134.78 182.618 135.385 181.833C140.383 175.347 144.875 165.242 143.74 159.555C143.438 158.031 142.76 156.981 141.616 156.268L66.2752 123.94C64.1055 122.69 61.661 122.053 59.2043 122.053Z" fill="#B2559C"/>
<path d="M25 63.737L42.1149 139L83 136.38L56.6879 58L25 63.737Z" fill="#B2559C"/>
<path d="M39.5642 143L21 60.9695L59.3103 54L88 139.879L39.5642 143ZM29.5635 66.6037L45.1667 135.549L78.3465 133.412L54.513 62.0645L29.5635 66.6037Z" fill="#B2559C"/>
<path d="M308.099 148.62C308.343 148.082 308.968 147.849 309.488 148.102L319.402 152.94C319.921 153.194 320.145 153.841 319.901 154.38C319.656 154.918 319.031 155.151 318.512 154.898L308.599 150.06C308.08 149.807 307.854 149.159 308.099 148.62Z" fill="#163560"/>
<path d="M244.097 118.604C246.801 112.859 253.651 110.393 259.396 113.097C265.141 115.802 267.606 122.65 264.903 128.396C262.199 134.141 255.348 136.607 249.605 133.902C243.859 131.198 241.393 124.35 244.097 118.604Z" fill="#739AF0"/>
<path d="M261.51 117L302.315 138.963L303.538 139.619L305.056 140.431L309.496 142.814C311.722 144.008 312.624 146.762 311.545 149.07L309.959 152.463C308.957 154.608 306.454 155.579 304.289 154.645L299.391 152.554L297.814 151.868L296.538 151.326L254 133.071L261.51 117Z" fill="#1C468A"/>
<path d="M253.154 135.591L262.913 113.97C263.293 113.128 264.263 112.764 265.07 113.16C265.876 113.556 266.226 114.568 265.847 115.41L256.087 137.031C255.708 137.871 254.737 138.236 253.93 137.84C253.123 137.444 252.774 136.432 253.154 135.591Z" fill="#163560"/>
<path d="M303.104 139L304.397 139.675L306 140.513L300.014 153L298.349 152.293L297 151.734L303.104 139Z" fill="#EE9849"/>
<path d="M265 138.762C265 138.762 268.34 131.024 272.247 130.126C276.155 129.228 281.973 126.258 282.863 129.426C283.753 132.595 280.063 135.995 278.543 136.876C277.023 137.757 280.714 144.335 277.675 146.657C274.635 148.978 265 138.762 265 138.762Z" fill="#D08864"/>
<path d="M201 177L212.743 200.701L239 204.502L220 222.95L224.485 249L201 236.701L177.515 249L182 222.95L163 204.502L189.257 200.701L201 177Z" fill="#6E66B3"/>
<path d="M167.5 240L173.526 252.18L187 254.133L177.25 263.613L179.552 277L167.5 270.68L155.448 277L157.75 263.613L148 254.133L161.474 252.18L167.5 240Z" fill="#1C468A"/>
<path d="M208.22 155C208.22 155 207.444 276.644 206 328L243.653 325.489L237.924 250.44L254.909 179.703C256.399 170.448 239.313 159.651 228.563 157.571L208.22 155Z" fill="#B2559C"/>
<path d="M228 165L226.335 123C226.335 123 208.811 124.15 207 154.752L228 165Z" fill="#B2559C"/>
<path d="M228.27 328L228 326.28L242.989 324.012L237.192 249.941L237.222 249.814L249.27 198L251 198.385L238.982 250.072L244.884 325.484L228.27 328Z" fill="#822E72"/>
<path d="M144.384 148H130.307C108.303 148 105.382 168.248 110.039 189.7C117.788 225.4 93 312.898 93 312.898L106.316 319.54C124.15 328.436 144.444 331.159 164 327.279L162.274 149.126L144.384 148Z" fill="#B2559C"/>
<path d="M162 148.764C162 148.764 157.043 127.728 134 123L140.166 154L162 148.764Z" fill="#B2559C"/>
<path d="M277 158.415L281.461 219.409L312.095 224C316.604 224 319.902 219.823 318.779 215.534L302.708 154L277 158.415Z" fill="#B2559C"/>
<path d="M311.604 228L311.07 227.96L277.859 222.915L273 155.553L304.897 150L321.668 215.082C322.473 218.199 321.798 221.448 319.814 223.994C317.832 226.54 314.838 228 311.604 228ZM284.514 216.799L311.825 220.948C312.77 220.886 313.636 220.43 314.221 219.676C314.854 218.865 315.07 217.829 314.812 216.835L299.668 158.064L280.516 161.397L284.514 216.799Z" fill="#B2559C"/>
<path d="M201 105.806C201 109.326 198.314 114 195 114C191.686 114 189 109.326 189 105.806C189 102.287 192.543 103.075 195.857 103.075C199.171 103.075 201 102.287 201 105.806Z" fill="#312220"/>
<path d="M130.335 602.378L133.534 603.294C141.116 605.463 146.26 611.754 146.26 618.859V626.617L106.176 627H117.554L101.007 626.811V619.454C100.468 597.942 130.335 602.378 130.335 602.378Z" fill="#3C4E74"/>
<path d="M150 611.667V616.982C150 620.242 148.523 623.326 145.985 625.363L138.757 617.307V611.667L145.985 609.251V603.611L150 606.028V611.667Z" fill="#3C4E74"/>
<path d="M114.408 596.3C113.442 593.17 115.782 590 119.057 590H136.225C139.591 590 141.995 593.258 141.003 596.474L138.105 605.868C137.512 607.787 135.829 609.166 133.831 609.369L115.358 611.241C110.359 611.747 107.819 605.391 111.791 602.314L112.739 601.58C114.34 600.339 115.005 598.235 114.408 596.3Z" fill="#3C4E74"/>
</svg>
