<svg width="473" height="624" viewBox="0 0 473 624" fill="none" xmlns="http://www.w3.org/2000/svg">
<path d="M246 533C364.189 533 460 437.189 460 319C460 200.811 364.189 105 246 105C127.811 105 32 200.811 32 319C32 437.189 127.811 533 246 533Z" fill="#CDB2D8"/>
<path d="M302 471H196V528H302V471Z" fill="#6E66B3"/>
<path d="M264.774 480.469L256.968 532.871L249.43 585.3L230.586 682.641L230.757 679.765L225.67 782.835L224.021 884.572H203.617L176.647 881.302H157.172L157 685.518L157.172 682.641L162.5 576.836L165.157 523.932L167.546 471.003L169.758 422L272 431.955L264.774 480.469Z" fill="#6E66B3"/>
<path d="M349.067 469.482L359.792 526.617L391.892 670.142C391.892 703.329 389.803 821.424 391.892 881.347L401 914L385.943 881.347L340.209 866.063C332.367 806.263 315.583 757.899 315.583 682.655L268.644 549.116L251.686 493.519L237 445.369L339.777 420L349.067 469.482Z" fill="#6E66B3"/>
<path d="M316.991 244.279C325.286 234.346 339.673 232.079 350.633 238.979L455.907 305.254C467.011 312.245 471.124 326.415 465.48 338.244C458.798 352.251 441.345 357.28 428.207 348.984L323.024 282.566C309.837 274.24 307.001 256.241 316.991 244.279Z" fill="#B2559C"/>
<path d="M441.959 358C436.134 358 430.363 356.369 425.346 353.203L320.406 286.957C312.873 282.201 307.76 274.437 306.376 265.654C304.991 256.873 307.472 247.918 313.177 241.089C323.077 229.238 340.408 226.506 353.49 234.739L458.521 300.843C471.812 309.21 476.741 326.191 469.985 340.342C466.17 348.335 459.093 354.329 450.568 356.786C447.743 357.599 444.844 358 441.959 358ZM337.001 240.331C331.05 240.331 325.17 242.884 321.14 247.708C317.346 252.25 315.698 258.206 316.62 264.048C317.538 269.89 320.94 275.056 325.95 278.219L430.89 344.463C435.886 347.618 442.009 348.489 447.69 346.851C453.37 345.215 458.083 341.223 460.624 335.899C465.125 326.472 461.842 315.161 452.987 309.589L347.956 243.485C344.58 241.359 340.775 240.331 337.001 240.331Z" fill="#B2559C"/>
<path d="M196 181.445C196 181.445 264.959 153.745 332 180.996L317.018 240H222.767L196 181.445Z" fill="#822E72"/>
<path d="M295.026 132.615C294.54 141.148 300.932 148.472 309.303 148.973C317.674 149.475 326.488 142.917 326.974 134.385C327.46 125.852 321.068 118.528 312.697 118.027C304.326 117.525 295.512 124.083 295.026 132.615Z" fill="#A96448"/>
<path d="M287.616 172.775L287.998 209.918C288.158 222.961 280.452 229.999 268.005 230C257.381 230.001 245.66 222.806 246.008 211.303L248.134 155L287.616 172.775Z" fill="#D08864"/>
<path d="M287 202C287 202 251.606 177.689 252.003 172.996C252.933 162.02 286.577 169.471 286.577 169.471L287 202Z" fill="#A96448"/>
<path d="M276.071 184C297.408 183.829 314.836 166.326 315.274 148.371L315.987 110.806C316.536 88.3021 299.657 69.3941 277.839 68.0734C255.504 66.7211 226.297 84.215 225 107.22L230.937 136.323C230.727 162.684 250.522 182.453 276.071 184Z" fill="#D08864"/>
<path d="M235.066 134L240.702 125.003C241.92 116.886 240.463 109.638 238.63 105.714C236.532 101.219 236.774 94.1648 244.552 88.3896C255.964 79.9157 279.298 73.7458 299.954 82.0834C305.784 84.4369 310.537 88.9631 312.992 94.7517C314.086 97.3326 314.927 100.099 315 102.606L314.903 97.0003C314.538 75.7623 296.959 60.5238 275.725 61.0268C268.288 61.2032 259.794 60.4368 250.385 62.108C226.599 66.3318 208.399 88.5709 215.588 111.635L223.051 127.087L235.066 134Z" fill="#312220"/>
<path d="M209.02 136.588C208.55 145.16 216.339 152.469 224.448 152.973C232.557 153.477 239.512 146.937 239.983 138.365C240.454 129.794 231.066 122.531 222.957 122.027C214.849 121.524 209.491 128.016 209.02 136.588Z" fill="#D08864"/>
<path d="M229.991 143C229.5 143 229.071 142.645 228.993 142.151C228.986 142.101 228.185 137.164 224.577 134.581C222.602 133.168 220.115 132.691 217.178 133.19C216.623 133.27 216.107 132.916 216.014 132.371C215.923 131.827 216.291 131.31 216.84 131.217C220.329 130.636 223.337 131.222 225.774 132.971C230.067 136.055 230.953 141.616 230.989 141.854C231.072 142.398 230.691 142.905 230.142 142.988C230.092 142.995 230.041 143 229.991 143Z" fill="#312220"/>
<path d="M245 88.1265C245 88.1265 250.505 85.9998 261.569 89.1945C290.014 97.4084 309.842 91.3044 306.666 80.6023L278.913 72L246.824 76.2058L245 88.1265Z" fill="#312220"/>
<path d="M288.976 143C288.459 143 288.028 142.576 288.001 142.029C287.974 141.465 288.391 140.985 288.927 140.957L292.893 140.752L291.896 134.189C291.811 133.632 292.174 133.106 292.705 133.019C293.256 132.906 293.738 133.312 293.821 133.867L294.988 141.557C295.032 141.843 294.956 142.137 294.783 142.361C294.608 142.589 294.35 142.724 294.074 142.739L289.024 143C289.007 143 288.99 143 288.976 143Z" fill="#312220"/>
<path d="M296.854 112.937C298.235 113.211 299.565 113.221 300.842 113.271C302.093 113.307 303.411 113.246 304.469 113.318C306.652 113.489 309.198 114.366 311.812 114.964L311.87 114.977C312.371 115.092 312.868 114.764 312.978 114.245C313.047 113.922 312.947 113.596 312.743 113.372C311.708 112.247 310.546 111.394 309.257 110.654C307.966 109.935 306.554 109.362 304.929 109.107C303.281 108.904 301.871 108.997 300.423 109.328C299.001 109.691 297.648 110.183 296.393 111.138C295.964 111.464 295.872 112.089 296.187 112.533C296.336 112.744 296.55 112.876 296.78 112.922L296.854 112.937Z" fill="#312220"/>
<path d="M277.456 110.166C275.481 109.1 273.447 108.575 271.363 108.239C269.269 107.926 267.184 107.913 264.983 108.243C262.759 108.583 260.728 109.396 258.791 110.366C256.863 111.378 255.046 112.548 253.354 114.075C252.957 114.433 252.883 115.106 253.188 115.577C253.416 115.929 253.791 116.069 254.132 115.968L254.17 115.957C258.028 114.809 261.858 113.43 265.47 112.994C267.285 112.801 269.256 112.814 271.197 112.72C273.15 112.623 275.145 112.57 277.166 112.246L277.206 112.24C277.71 112.159 278.062 111.609 277.991 111.011C277.945 110.63 277.732 110.318 277.456 110.166Z" fill="#312220"/>
<path d="M267.601 129C265.896 129 263.896 128.673 261.615 127.778C261.096 127.574 260.86 127.031 261.085 126.566C261.313 126.097 261.923 125.885 262.435 126.09C269.454 128.846 273.189 125.335 273.223 125.296C273.607 124.923 274.252 124.898 274.672 125.245C275.086 125.591 275.112 126.173 274.728 126.548C274.59 126.681 272.135 129 267.601 129Z" fill="#312220"/>
<path d="M305.128 128C303.084 128 301.313 127.224 300.371 126.561C299.948 126.261 299.876 125.712 300.211 125.334C300.545 124.958 301.163 124.89 301.591 125.185C301.731 125.284 305.074 127.536 308.402 125.187C308.833 124.89 309.45 124.953 309.787 125.33C310.124 125.71 310.053 126.259 309.628 126.561C308.12 127.622 306.557 128 305.128 128Z" fill="#312220"/>
<path d="M312.996 148C308.367 148 303.921 146.194 300.446 142.893C296.436 139.084 294.089 133.596 294.003 127.834C293.833 116.531 302.215 107.187 312.689 107.003C317.432 106.92 321.996 108.732 325.551 112.107C329.561 115.914 331.911 121.404 331.997 127.166C332.167 138.469 323.785 147.813 313.313 147.998C313.207 148 313.1 148 312.996 148ZM313.001 109.89C312.915 109.89 312.829 109.892 312.74 109.892C303.888 110.049 296.802 118.078 296.947 127.789C297.023 132.789 299.043 137.537 302.494 140.815C305.415 143.591 309.136 145.11 312.996 145.11C313.085 145.11 313.171 145.108 313.258 145.108C322.112 144.951 329.198 136.922 329.053 127.211C328.977 122.209 326.955 117.463 323.503 114.185C320.579 111.41 316.861 109.89 313.001 109.89Z" fill="white"/>
<path d="M264.492 147C252.803 147 243.196 137.806 243.003 126.343C242.909 120.736 245.058 115.427 249.051 111.397C253.047 107.365 258.409 105.094 264.149 105.002C264.266 105.002 264.386 105 264.503 105C276.197 105 285.804 114.197 285.997 125.657C286.188 137.234 276.701 146.806 264.851 146.998C264.732 146.998 264.612 147 264.492 147ZM264.503 108.036C264.401 108.036 264.302 108.036 264.2 108.038C254.059 108.2 245.943 116.388 246.111 126.293C246.276 136.198 254.723 144.218 264.8 143.962C274.938 143.8 283.054 135.609 282.889 125.707C282.726 115.901 274.506 108.036 264.503 108.036Z" fill="white"/>
<path d="M284.752 131L283 128.304C290.582 123.298 296.744 127.98 297 128.18L295.044 130.728L296.022 129.454L295.052 130.734C294.863 130.591 290.383 127.273 284.752 131Z" fill="white"/>
<path d="M237.581 130C237.159 130 236.74 129.84 236.429 129.525C235.831 128.92 235.862 127.97 236.499 127.401L244.337 120.409C244.973 119.838 245.973 119.87 246.571 120.475C247.169 121.081 247.138 122.031 246.501 122.599L238.663 129.591C238.358 129.865 237.97 130 237.581 130Z" fill="white"/>
<path d="M256.061 208L217 220.901C217 220.901 225.484 231.992 258.609 236.243C267.237 237.35 276.025 237.284 284.589 235.77C294.709 233.982 305.87 230.026 307 221.282L278.805 208H256.061Z" fill="#D08864"/>
<path d="M308 449H217L220.754 226.211C220.754 226.211 283.273 251.977 306.57 223L308 449Z" fill="white"/>
<path d="M61.0305 81.8789C61.0305 81.8789 77.4943 79.0992 74.6753 58.0609L70.99 30.8662C70.6005 27.9917 67.8088 26.1094 65.0312 26.8484C63.1455 27.35 61.75 28.957 61.5036 30.9104L59.506 46.4766L39.5454 3.99286C38.1769 1.08011 34.5522 0.0963429 31.9225 1.92396C29.8859 3.33944 29.122 6.0102 30.0975 8.30443L41.5393 35.2165L39.4704 37.2506L21.7687 13.7318C19.8638 11.2008 16.1438 11.0589 14.0552 13.4378C12.4771 15.2355 12.3728 17.9079 13.8064 19.8252L31.1596 43.0356L29.1518 45.4669L11.8428 27.9252C10.2114 26.2717 7.54743 26.3161 5.97042 28.0226C4.49864 29.6158 4.50917 32.0909 5.99492 33.6712L23.8165 52.6284L22.225 54.7092L5.71678 42.595C3.86052 41.2325 1.23297 41.9484 0.306646 44.0687V44.0689C-0.355976 45.5858 0.0809558 47.3632 1.36929 48.3909L20.239 63.4409C20.239 63.4409 33.8894 89.8476 48.0515 86.7468L61.0305 81.8789Z" fill="#D08864"/>
<path d="M48.0191 68C47.5446 68 47.1446 67.6192 47.1123 67.1227C46.5633 58.9146 48.029 52.9343 51.4698 49.3467C54.8931 45.7771 58.9723 45.9919 59.1487 46.0074C59.6481 46.0395 60.0282 46.4833 59.9984 47.0017C59.971 47.5214 59.5686 47.933 59.0394 47.888C58.8928 47.8842 55.5614 47.7285 52.7318 50.7038C49.6985 53.894 48.4191 59.3751 48.9258 66.9915C48.9606 67.5112 48.583 67.9614 48.0812 67.9974C48.0613 67.9987 48.039 68 48.0191 68Z" fill="#A96448"/>
<path d="M44 83.2736L51.3713 127L82 120.706L69.3756 69L44 83.2736Z" fill="#D08864"/>
<path d="M432.187 223.834C445.838 218.682 443.034 189.224 443.034 189.224L450.808 166.378C451.339 164.818 450.743 163.098 449.359 162.196L449.359 162.196C447.425 160.935 444.816 161.774 443.987 163.923L436.615 183.034L434.14 182.169L438.906 156.64C439.304 154.511 437.969 152.443 435.86 151.92C433.601 151.359 431.325 152.777 430.845 155.046L425.743 179.116L422.726 178.187L424.787 149.37C424.957 146.989 423.418 144.819 421.108 144.183C418.052 143.342 414.985 145.492 414.75 148.642L412.562 177.906L409.709 177.342L404.765 148.669C404.343 146.224 402.247 144.416 399.758 144.349C396.543 144.263 394.015 147.062 394.44 150.237L400.641 196.537L390.501 184.658C389.232 183.165 387.18 182.589 385.314 183.201C382.566 184.102 381.229 187.195 382.46 189.803L394.113 214.475C403.154 233.544 418.576 226.868 418.576 226.868L432.187 223.834Z" fill="#D08864"/>
<path d="M421.077 208C420.754 208 420.439 207.827 420.27 207.52C416.627 200.877 412.6 197.032 408.301 196.088C404.297 195.205 401.501 197.257 401.474 197.277C401.063 197.588 400.485 197.496 400.183 197.083C399.878 196.667 399.963 196.083 400.374 195.777C400.516 195.672 403.884 193.208 408.692 194.261C413.536 195.323 417.973 199.479 421.884 206.612C422.131 207.064 421.972 207.633 421.526 207.883C421.382 207.964 421.228 208 421.077 208Z" fill="#A96448"/>
<path d="M405 221.044L422.424 271L452 259.434L434.444 219L405 221.044Z" fill="#D08864"/>
<path d="M203.359 269.952C195.44 280.286 191.616 288.131 180.348 281.627L74.0311 221.644C62.6132 215.054 57.918 200.955 63.0997 188.82C69.2357 174.45 86.5341 168.685 100.044 176.507L210.777 224.25C224.337 232.1 212.894 257.508 203.359 269.952Z" fill="#B2559C"/>
<path d="M187.539 289C184.664 289 181.403 288.096 177.641 285.928L71.6424 226.19C57.9357 218.291 52.3102 201.414 58.5096 186.911C62.0119 178.718 68.8665 172.407 77.316 169.594C85.6615 166.812 94.8094 167.702 102.464 172.023L213.192 219.749C217.606 222.303 220.494 226.441 221.54 231.718C224.369 245.979 213.471 264.927 207.315 272.956C206.459 274.069 205.654 275.153 204.882 276.193C200.346 282.298 195.366 289 187.539 289ZM87.1497 178.408C84.9453 178.408 82.7332 178.759 80.5999 179.467C74.9719 181.342 70.4081 185.547 68.0741 191.002C63.9446 200.664 67.6931 211.904 76.7929 217.15L182.789 276.886C188.318 280.067 189.474 279.488 196.532 269.986C197.337 268.906 198.172 267.778 199.061 266.619C206.403 257.049 213.002 242.138 211.336 233.746C210.891 231.497 209.896 229.948 208.214 228.896L97.5371 181.192C94.3497 179.348 90.7586 178.408 87.1497 178.408Z" fill="#B2559C"/>
<path d="M37 94.4285L62.0822 205L122 201.15L83.4392 86L37 94.4285Z" fill="#B2559C"/>
<path d="M58.1535 210L31 90.1801L87.0359 80L129 205.441L58.1535 210ZM43.5258 98.41L66.3483 199.116L114.88 195.995L80.019 91.7796L43.5258 98.41Z" fill="#B2559C"/>
<path d="M452.14 219.886C452.486 219.117 453.371 218.785 454.108 219.146L468.152 226.056C468.888 226.419 469.206 227.345 468.86 228.114C468.513 228.883 467.628 229.215 466.892 228.854L452.848 221.943C452.113 221.581 451.793 220.656 452.14 219.886Z" fill="#163560"/>
<path d="M358.574 175.762C362.453 167.271 372.282 163.624 380.525 167.622C388.767 171.62 392.305 181.744 388.427 190.238C384.546 198.73 374.717 202.376 366.476 198.377C358.232 194.38 354.695 184.256 358.574 175.762Z" fill="#739AF0"/>
<path d="M383.876 174L442.973 205.789L444.745 206.738L446.943 207.914L453.373 211.363C456.598 213.09 457.904 217.076 456.341 220.418L454.044 225.328C452.593 228.432 448.967 229.837 445.833 228.487L438.738 225.46L436.455 224.468L434.606 223.682L373 197.261L383.876 174Z" fill="#1C468A"/>
<path d="M372.224 200.531L386.488 169.397C387.044 168.185 388.461 167.66 389.641 168.231C390.819 168.801 391.33 170.258 390.776 171.47L376.512 202.604C375.957 203.814 374.539 204.339 373.36 203.77C372.179 203.199 371.67 201.742 372.224 200.531Z" fill="#163560"/>
<path d="M443.138 206L444.862 206.965L447 208.161L439.019 226L436.798 224.991L435 224.192L443.138 206Z" fill="#EE9849"/>
<path d="M389 203.293C389 203.293 394.009 192.297 399.871 191.021C405.732 189.745 414.46 185.525 415.795 190.027C417.13 194.529 411.594 199.362 409.314 200.613C407.035 201.865 412.571 211.214 408.012 214.512C403.453 217.811 389 203.293 389 203.293Z" fill="#D08864"/>
<path d="M294.5 261L311.65 295.564L350 301.106L322.25 328.011L328.801 366L294.5 348.064L260.199 366L266.75 328.011L239 301.106L277.35 295.564L294.5 261Z" fill="#6E66B3"/>
<path d="M244.5 354L253.307 371.776L273 374.626L258.75 388.463L262.114 408L244.5 398.776L226.886 408L230.25 388.463L216 374.626L235.693 371.776L244.5 354Z" fill="#1C468A"/>
<path d="M304.263 228C304.263 228 303.121 406.599 301 482L356.327 478.314L347.908 368.126L372.866 264.269C375.055 250.68 349.95 234.829 334.154 231.774L304.263 228Z" fill="#B2559C"/>
<path d="M334 243L331.621 181C331.621 181 306.586 182.697 304 227.872L334 243Z" fill="#B2559C"/>
<path d="M334.388 483L334 480.473L355.506 477.14L347.189 368.314L347.232 368.127L364.517 292L367 292.566L349.757 368.506L358.225 479.303L334.388 483Z" fill="#822E72"/>
<path d="M211.267 219H190.647C158.416 219 154.138 248.757 160.958 280.282C172.31 332.749 136 461.336 136 461.336L155.506 471.098C181.628 484.171 211.355 488.172 240 482.471L237.472 220.655L211.267 219Z" fill="#B2559C"/>
<path d="M238 220.231C238 220.231 230.564 189.016 196 182L205.249 228L238 220.231Z" fill="#B2559C"/>
<path d="M406 233.559L412.478 324.18L456.972 331C463.52 331 468.309 324.794 466.679 318.422L443.338 227L406 233.559Z" fill="#B2559C"/>
<path d="M456.724 336L455.939 335.942L407.139 328.503L400 229.186L446.868 221L471.512 316.954C472.695 321.55 471.703 326.34 468.788 330.094C465.876 333.847 461.477 336 456.724 336ZM416.918 319.485L457.049 325.602C458.438 325.511 459.71 324.839 460.57 323.728C461.499 322.531 461.817 321.004 461.438 319.538L439.186 232.889L411.044 237.804L416.918 319.485Z" fill="#B2559C"/>
<path d="M295 156.082C295 161.201 290.971 168 286 168C281.029 168 277 161.201 277 156.082C277 150.963 282.315 152.11 287.286 152.11C292.256 152.11 295 150.963 295 156.082Z" fill="#312220"/>
</svg>
