<svg width="472" height="600" viewBox="0 0 472 600" fill="none" xmlns="http://www.w3.org/2000/svg">
<path d="M231 470C349.189 470 445 374.189 445 256C445 137.811 349.189 42 231 42C112.811 42 17 137.811 17 256C17 374.189 112.811 470 231 470Z" fill="#ECF4FD"/>
<path d="M197 507.544L259.701 516L261 478.073L242.749 456L200.465 462.345L197 507.544Z" fill="#6E66B3"/>
<path d="M253.034 456.974L180.338 678.986L181.564 659.58L201.749 783.958L212.099 906L150.048 903.076L98.7309 673.881L97 666.043L99.9576 654.474L139.747 421.463L164.863 375L271 407.365L253.034 456.974Z" fill="#6E66B3"/>
<path d="M348.858 448.023L344.753 501.527L340.931 555.047C338.319 590.73 336.179 626.427 333.786 662.127C331.403 697.83 329.487 733.518 327.35 769.231L324.54 822.803L322.097 876.389L320.656 907.996L260.006 908L250.153 769.231V715.086L248.573 688.188C248.034 679.221 247.967 670.263 247.641 661.3C246.52 625.451 245.654 589.598 244.315 553.732L242.402 499.929L240.207 446.109L238 392L353 394.026L348.858 448.023Z" fill="#6E66B3"/>
<path d="M277.932 420.664L172.996 417L172.248 439.988L277.184 443.652L277.932 420.664Z" fill="#312220"/>
<path d="M209.698 197.896L209.698 197.895C203.747 187.633 193.756 181.015 182.778 179L165.135 181.069C163.752 181.342 162.218 181.775 160.578 182.346L160.657 181.319L111.373 197.437L26.2759 225.268C18.2607 228.588 11.8818 234.286 7.66969 241.239L5.35701 245.742C2.01174 253.305 1.04505 261.917 3.00869 270.433C3.15163 271.053 3.26645 271.674 3.44076 272.293C9.84771 295.015 34.702 307.033 56.5225 297.96L66.6287 294.634L74.1258 292.167L190.805 253.774C212.705 244.667 221.587 218.398 209.698 197.896Z" fill="#6E66B3"/>
<path d="M201.638 159L272 161.405L261.239 183L201 177.489L201.638 159Z" fill="#CCB2F1"/>
<path d="M165 124.85L148.826 84.0316C148.826 84.0316 119.389 81.6293 113.02 118.728C112.656 120.847 117.436 130.058 119.055 131.567L138.821 143.809C142.063 145.817 146.287 145.238 148.86 142.435L165 124.85Z" fill="#FFBB9C"/>
<path d="M116.637 119L93 154.136L119.529 175L141 143.706L116.637 119Z" fill="#FFBB9C"/>
<path d="M204 85.6656L202.952 79L158.806 83.0084L124 109.898L125.238 117L170.509 100.161L204 85.6656Z" fill="black"/>
<path d="M146.373 130.26L125.997 112.373C123.591 110.787 123.309 107.386 125.423 105.431L175.084 57.9901C176.342 56.8263 178.241 56.6715 179.674 57.6159L201.339 76.3522C203.34 77.6711 203.574 80.4999 201.817 82.1252L151.893 129.809C150.379 131.209 148.096 131.395 146.373 130.26Z" fill="black"/>
<path d="M147.374 137.26L126.998 119.373C124.591 117.787 124.309 114.386 126.423 112.431L176.084 64.9901C177.342 63.8262 179.241 63.6716 180.674 64.6159L202.339 83.3522C204.34 84.671 204.574 87.4999 202.817 89.1253L152.892 136.809C151.379 138.209 149.097 138.395 147.374 137.26Z" fill="white"/>
<path d="M132.009 140.034C133.353 142.241 139.883 147.46 148.896 145.611C160.754 143.177 169.264 136.151 169.264 136.151C172.935 133.741 174.586 131.185 173.814 127.877C172.977 124.295 168.91 122.322 166.292 123.213L158.271 127.756C158.271 127.756 147.287 124.565 132 134.738L132.009 140.034Z" fill="#FFBB9C"/>
<path d="M14 221L17 217C15.9197 218.251 14.9325 219.6 14 221Z" fill="#F66390"/>
<path d="M227.591 167L185 179.552C185 179.552 193.727 191.882 229.274 197.7C238.533 199.215 248.008 199.465 257.297 198.138C268.273 196.569 280.453 192.691 282 183.257L252.108 167.832L227.591 167Z" fill="#D08864"/>
<path d="M188.951 178C213.167 209.978 282 184.621 282 184.621L277.797 424L179 420.635L188.951 178Z" fill="#CCB2F1"/>
<path d="M283.198 176.108L255.96 277.959L254 504L330.512 489.057C330.512 489.057 329.504 299.897 344.818 243.932C354.019 210.305 350.082 178.131 312.116 176.831L287.827 176L283.198 176.108Z" fill="#6E66B3"/>
<path d="M253 505L254.972 292L257.636 292.027L255.693 501.767L330.487 487.144L331 489.751L253 505Z" fill="#454584"/>
<path d="M329.657 475C329.647 473.252 328.822 299.515 344.042 243.985C348.504 227.704 351.636 205.342 341.221 191.27C335.339 183.326 325.702 179.069 312.576 178.619L288.237 177.789L284.73 177.873L257.706 278.755L255 278.036L282.563 175.133L288.252 175L312.672 175.831C326.697 176.313 337.061 180.948 343.477 189.617C354.557 204.585 351.369 227.843 346.745 244.72C331.625 299.886 332.449 473.238 332.458 474.984L329.657 475Z" fill="#4141AF"/>
<path d="M363 467.954L361.763 536L319.707 533.882L319 466L363 467.954Z" fill="#ECB6A2"/>
<path d="M366 490.913L365.037 519L314 517.245L314.934 490L366 490.913Z" fill="#CCB2F1"/>
<path d="M145 158.873L127.173 181L87 148.464L104.293 127L145 158.873Z" fill="#CCB2F1"/>
<path d="M307.688 177L303.002 480.029C302.868 487.411 308.592 493.566 315.933 493.936L362.375 494.978C370.109 495.368 375.64 490.452 375.701 482.675L377 241.472C376.684 208.862 354.169 182.624 322.102 177.497L307.688 177Z" fill="#6E66B3"/>
<path d="M315.87 495C307.949 494.591 301.858 487.891 302.003 479.747L305.083 276L307.673 276.044L304.593 479.793C304.474 486.494 309.485 492.007 316 492.342L315.87 495Z" fill="#454584"/>
<path d="M214.872 124.629L210.137 178.877C208.736 194.463 218.187 193.735 233.156 194.88C245.933 195.858 260.494 190.922 261.142 177.131L264 107L214.872 124.629Z" fill="#ECB6A2"/>
<path d="M212 163L256 137.669L214.832 130L212 163Z" fill="#DDA290"/>
<path d="M206.996 81.7901C206.784 92.006 198.556 100.158 188.617 99.9977C178.678 99.8375 170.793 91.4263 171.004 81.21C171.216 70.9941 179.445 62.8419 189.383 63.0023C199.322 63.1622 207.207 71.5744 206.996 81.7901Z" fill="#DDA290"/>
<path d="M227.476 137.991C202.087 135.857 182.931 113.77 184.046 92.6936L186.621 48.6155C188.019 22.1999 209.84 1.57688 235.936 2.00659C262.653 2.44686 288.544 24.8268 287.991 51.8978L285.56 86.2225C283.408 117.127 258.037 138.495 227.476 137.991Z" fill="#ECB6A2"/>
<path d="M307.996 86.7899C307.784 97.0061 299.555 105.158 289.617 104.998C279.678 104.838 271.792 96.4261 272.004 86.2101C272.216 75.9938 280.445 67.8417 290.383 68.0023C300.322 68.1621 308.207 76.5739 307.996 86.7899Z" fill="#ECB6A2"/>
<path d="M282.101 92C282.059 92 282.015 91.9973 281.972 91.992C281.368 91.9225 280.936 91.3924 281.008 90.8061C281.042 90.5217 281.908 83.8218 287.124 80.6247C290.334 78.6603 294.413 78.476 299.254 80.0785C299.83 80.2695 300.136 80.8771 299.941 81.4353C299.745 81.9962 299.113 82.2927 298.545 82.1031C294.367 80.7182 290.92 80.8291 288.298 82.4329C283.96 85.0918 283.199 90.9957 283.192 91.0545C283.126 91.5994 282.651 92 282.101 92Z" fill="#312220"/>
<path d="M184.047 83.3047C184.047 83.3047 183.762 99.0213 192.317 102.065C199.988 104.795 204.484 99.814 214.758 100.532C228.14 101.468 236.562 102.806 250.326 110.238C261.838 116.454 279.393 86.2173 281.345 66.4209C281.553 64.3161 286 70.7902 286 70.7902L281.407 101.703C281.407 101.703 273.813 147.618 223.356 143.771C172.899 139.924 184.047 83.3047 184.047 83.3047Z" fill="#332C30"/>
<path d="M289 43.5398L286.12 70.5721L283.679 80L278 43L289 43.5398Z" fill="#332C30"/>
<path d="M222.91 96C222.893 96 222.876 95.9987 222.86 95.9987L216.042 95.6941C215.723 95.6793 215.427 95.529 215.231 95.2822C215.036 95.0353 214.959 94.7173 215.021 94.41L216.963 84.8661C217.081 84.2838 217.652 83.8987 218.246 84.0235C218.838 84.1402 219.221 84.7065 219.102 85.2874L217.41 93.605L222.958 93.8519C223.56 93.8787 224.026 94.3818 223.999 94.9736C223.972 95.5505 223.489 96 222.91 96Z" fill="#312220"/>
<path d="M212.985 58.1719C212.985 58.1719 213.56 62.3504 207.685 61.9763C203.225 61.6925 200.406 61.4545 197.775 61.8455C196.281 62.0676 194.782 61.3306 194.222 60.1074C193.77 59.1197 194.016 58.0133 194.882 57.2953C196.639 55.8404 200.15 53.7435 205.582 54.0258C212.559 54.3886 212.985 58.1719 212.985 58.1719Z" fill="#332C30"/>
<path d="M236.082 59.7534C236.082 59.7534 234.873 64.1074 241.736 64.207C246.947 64.2825 250.249 64.2687 253.25 64.9016C254.954 65.2609 256.788 64.6105 257.596 63.3687C258.249 62.3661 258.107 61.1798 257.195 60.3508C255.346 58.6706 251.545 56.1664 245.206 56.0076C237.066 55.8037 236.082 59.7534 236.082 59.7534Z" fill="#332C30"/>
<path d="M244.626 82C242.056 82 239.111 81.5056 236.474 79.8388C235.981 79.5268 235.851 78.9003 236.187 78.4399C236.524 77.9808 237.194 77.8625 237.69 78.1732C243.087 81.5836 250.465 79.0928 250.541 79.0664C251.103 78.8739 251.721 79.1381 251.931 79.6576C252.14 80.1772 251.858 80.7571 251.299 80.9521C251.099 81.0226 248.236 82 244.626 82Z" fill="#312220"/>
<path d="M203.079 79C200.929 79 198.467 78.5403 196.416 76.9382C195.949 76.5745 195.862 75.8944 196.222 75.4212C196.581 74.9493 197.251 74.8601 197.716 75.2238C201.503 78.182 207.527 76.1459 207.589 76.127C208.143 75.9309 208.752 76.2365 208.942 76.8003C209.133 77.3654 208.837 77.9792 208.28 78.1739C208.118 78.2307 205.859 79 203.079 79Z" fill="#312220"/>
<path d="M220.985 111C217.752 111 214.24 110.454 211.425 108.66C210.978 108.374 210.865 107.806 211.175 107.391C211.486 106.981 212.098 106.875 212.549 107.16C218.766 111.131 229.601 107.988 229.712 107.957C230.228 107.806 230.787 108.067 230.952 108.547C231.119 109.025 230.834 109.539 230.315 109.692C230.027 109.778 225.82 111 220.985 111Z" fill="white"/>
<path d="M284.486 75.3631L293.126 58.9929C301.753 34.4122 279.222 8.46564 253.668 3.03558C243.558 0.887171 238.583 1.53798 230.55 1.07292C207.616 -0.254346 187.496 16.6878 186.312 39.5538L186 45.5887C186.205 42.3582 189.763 44.2648 190.546 38.934C191.567 31.987 196.738 26.2717 203.373 23.9124C225.919 15.8957 250.719 23.3775 262.68 32.8796C270.873 39.3888 270.873 46.9975 268.438 51.7621C267.225 54.1344 267.538 59.0688 268.22 64.5015C269.197 72.2826 272.755 79.5276 278.39 84.9999V85L284.486 75.3631Z" fill="#312220"/>
<path d="M83.296 142L11.5616 226.589L8.22706 230.422C3.15176 236.991 0.146695 245.147 0.023975 253.908C0.014983 254.546 -0.00265867 255.179 0.000338648 255.823C0.133593 284.525 22.4083 305.222 45.8737 301.585L46.44 301.471C50.5973 300.631 54.5301 298.926 57.9813 296.467L60.6604 294.559C63.0158 292.881 65.0712 290.82 66.7403 288.462L123.245 208.646L140 183.659L83.296 142Z" fill="#716DC6"/>
<path d="M216 206.969L233.826 195L252 210.31L230.214 228L216 206.969Z" fill="#312220"/>
<path d="M228.889 218L204 366.884L222.838 412L242 368.174L232.409 220.835L228.889 218Z" fill="#312220"/>
<path d="M307.448 176.632L325 180.142L287.989 237.525L271.028 245.088L283.368 269.485L254.269 397L245 256.024L288.839 173L307.448 176.632Z" fill="#4E4AA0"/>
<path d="M184.726 501C185.185 459.378 187.156 370.588 189 302.471L185.805 395.214L160.009 260.637L183.004 240.005L157.398 224.158L160.572 183C145.005 188.404 119.778 206.287 121.119 219.82L139.403 335.195L121 464.487L184.726 501Z" fill="#6E66B3"/>
<path d="M186.177 505L121 463.76L122.385 460.871L183.45 499.28C183.693 474.932 184.289 435.108 185.22 388L188 388.078C187.031 437.041 186.427 477.837 186.203 502.159L186.177 505Z" fill="#454584"/>
<path d="M190 271.895L189.9 268C189.609 278.84 189.307 290.257 189 302L190 271.895Z" fill="#4E4AA0"/>
<path d="M161 182L167 180C164.981 180.518 162.973 181.154 161 182Z" fill="#6E66B3"/>
<path d="M165.516 181.72L183 179.646C177.661 178.655 172.097 178.788 166.639 180.158L161.078 181.97L161 183C162.625 182.428 164.146 181.993 165.516 181.72Z" fill="#4E4AA0"/>
<path d="M183.962 239.473L160.647 260.147L186.802 395L190.041 302.067C190.368 290.142 190.69 278.55 191 267.542L189.646 178L165.845 181.073C164.441 181.346 162.883 181.78 161.218 182.351L158 223.594L183.962 239.473Z" fill="#4E4AA0"/>
<path d="M271.879 162L301 177.319L247.836 227L233 194.729L271.879 162Z" fill="#F3E9FE"/>
<path d="M233 194.051L214.348 222L185 178.769L201.225 159L233 194.051Z" fill="#F3E9FE"/>
<path d="M155.659 485L120 462.954L138.662 332.281L124.883 238.45L127.541 238L141.386 332.275L122.939 461.431L157 482.494L155.659 485Z" fill="#454584"/>
<path d="M315.052 493L315 496L366.99 497.011L367.043 494.012L315.052 493Z" fill="#595996"/>
<path d="M245.703 452L194 450.252L195.296 413L247 414.753L245.703 452ZM205.563 439.604L234.908 440.598L235.437 425.396L206.091 424.402L205.563 439.604Z" fill="#AF6B64"/>
<path d="M274 597.055L274.557 590.824C275.185 589.337 276.489 588.284 278.031 588.027C283.795 587.068 298.089 585.381 304.972 590.76L306 598L274 597.055Z" fill="#512D2B"/>
<path d="M291.966 591.752C290.988 592.084 290.008 592.083 289.026 591.747C287.838 591.34 287 589.859 287 588.163V569H294V588.148C294 589.853 293.16 591.346 291.966 591.752Z" fill="#512D2B"/>
<path d="M367 597.055L367.557 590.824C368.185 589.337 369.489 588.284 371.031 588.027C376.795 587.068 391.089 585.381 397.972 590.76L399 598L367 597.055Z" fill="#512D2B"/>
<path d="M383.966 591.752C382.988 592.084 382.008 592.083 381.026 591.747C379.838 591.341 379 589.861 379 588.165L379 567H386V588.151C386 589.854 385.16 591.347 383.966 591.752Z" fill="#512D2B"/>
<path d="M285.003 573.998L388.534 570.559C390.894 570.481 392.897 568.773 393.302 566.449C393.87 563.198 394.37 558.33 393.624 553.283C392.776 547.545 387.856 543.282 382.049 543.144C362.735 542.682 313.567 542.696 286.468 553.451C283.602 554.588 281.476 557.045 280.751 560.039C280.059 562.894 279.599 566.706 280.503 570.586C280.983 572.647 282.884 574.068 285.003 573.998Z" fill="#7F4B49"/>
<path d="M283.537 568C283.305 568 283.106 567.825 283.082 567.591C283.066 567.427 282.687 563.536 283.705 559.792C284.479 556.946 286.743 554.658 289.612 553.82C295.408 552.128 306.481 549.252 315.53 549C315.783 548.993 315.993 549.191 316 549.443C316.007 549.694 315.808 549.903 315.555 549.91C306.61 550.16 295.623 553.014 289.87 554.694C287.304 555.443 285.28 557.487 284.589 560.03C283.616 563.607 283.989 567.461 283.993 567.499C284.019 567.749 283.835 567.972 283.584 567.998C283.568 567.999 283.553 568 283.537 568Z" fill="#91B3FA"/>
<path d="M226.108 594.549C259.617 594.12 404.575 592.596 446.682 597.68C450.308 598.118 453.266 600.771 454.051 604.324C456.539 615.579 461.545 641.726 460.952 667.643C460.871 671.17 458.286 674.146 454.806 674.805L358.69 693H324.547L222.134 672.63C218.524 671.912 215.863 668.853 215.676 665.191C215.011 652.152 213.97 621.557 217.494 601.864C218.243 597.679 221.841 594.604 226.108 594.549Z" fill="#AF6B64"/>
<path d="M275 598.055L275.574 591.824C276.222 590.337 277.567 589.284 279.157 589.027C285.101 588.068 299.842 586.381 306.94 591.76L308 599L275 598.055Z" fill="#512D2B"/>
<path d="M292.966 592.752C291.988 593.084 291.008 593.083 290.026 592.747C288.838 592.34 288 590.859 288 589.163V570H295V589.148C295 590.853 294.16 592.346 292.966 592.752Z" fill="#512D2B"/>
<path d="M367 598.055L367.574 591.824C368.222 590.337 369.567 589.284 371.157 589.027C377.101 588.068 391.842 586.381 398.94 591.76L400 599L367 598.055Z" fill="#512D2B"/>
<path d="M384.966 592.752C383.988 593.084 383.008 593.083 382.026 592.747C380.838 592.341 380 590.861 380 589.165L380 568H387V589.151C387 590.854 386.16 592.347 384.966 592.752Z" fill="#512D2B"/>
<path d="M285.003 573.998L388.534 570.559C390.894 570.481 392.897 568.773 393.302 566.449C393.87 563.198 394.37 558.33 393.624 553.283C392.776 547.545 387.856 543.282 382.049 543.144C362.735 542.682 313.567 542.696 286.468 553.451C283.602 554.588 281.476 557.045 280.751 560.039C280.059 562.894 279.599 566.706 280.503 570.586C280.983 572.647 282.884 574.068 285.003 573.998Z" fill="#7F4B49"/>
<path d="M283.537 569C283.305 569 283.106 568.825 283.082 568.591C283.066 568.427 282.687 564.536 283.705 560.792C284.479 557.946 286.743 555.658 289.612 554.82C295.408 553.128 306.481 550.252 315.53 550C315.783 549.993 315.993 550.191 316 550.443C316.007 550.694 315.808 550.903 315.555 550.91C306.61 551.16 295.623 554.014 289.87 555.694C287.304 556.443 285.28 558.487 284.589 561.03C283.616 564.607 283.989 568.461 283.993 568.499C284.019 568.749 283.835 568.972 283.584 568.998C283.568 568.999 283.553 569 283.537 569Z" fill="#91B3FA"/>
<path d="M360.706 579.895C376.465 573.205 383.831 555.244 377.156 539.778C370.482 524.312 352.295 517.198 336.536 523.887C320.776 530.577 313.411 548.538 320.085 564.004C326.759 579.47 344.946 586.584 360.706 579.895Z" fill="#ECB6A2"/>
<path d="M327.785 574.297C327.785 574.297 314.608 579.138 312.408 563.411C310.208 547.684 316.237 526.178 347 522L327.785 574.297Z" fill="#ECB6A2"/>
</svg>
