<svg width="224" height="211" viewBox="0 0 224 211" fill="none" xmlns="http://www.w3.org/2000/svg">
<path d="M106.948 131.882C105.967 121.954 103.577 114.98 100.202 103.642C97.3718 94.1333 88.3509 74.3229 89.9119 66H81.8341H81.1673H73.0881C72.4006 76.6612 65.6296 94.1333 62.7982 103.642C59.4246 114.98 57.0333 121.954 56.0539 131.882C55.4672 137.809 54.3886 186.166 54.0019 204.228C53.9233 207.94 56.3265 211 59.3209 211H77.4974H85.504H103.679C106.673 211 109.078 207.94 108.998 204.228C108.611 186.166 107.533 137.809 106.948 131.882Z" fill="#518E62"/>
<path d="M94 88.5177L80.838 95L67 88.5177L71.028 73.8254V36H89.7252V73.8254L94 88.5177Z" fill="#E49962"/>
<path d="M92 45H70V49H92V45Z" fill="#A86B10"/>
<path d="M89 71.4993C89 71.7758 85.4176 72 81 72C76.5808 72 73 71.7758 73 71.4993C73 71.2228 76.5808 71 81 71C85.4176 71 89 71.2228 89 71.4993Z" fill="#A86B10"/>
<path d="M62 131.619L81.0129 109L101 130.279L81.5007 152L62 131.619Z" fill="#236135"/>
<path d="M55 188C63.837 188 71 166.509 71 140H39C39 166.509 46.163 188 55 188Z" fill="#ACC0E2"/>
<path d="M55 184C61.2867 184 66.5614 167.96 68 146.332C68 146.332 42.7407 145.586 42 146.332C43.4386 167.96 48.7133 184 55 184Z" fill="#F9645A"/>
<path d="M73 134H38V140H73V134Z" fill="#ACC0E2"/>
<path d="M59 186H53V207H59V186Z" fill="#A9C1EA"/>
<path d="M68 208.273L58.5304 205H52.471L43 208.273V210H68V208.273Z" fill="#A9C1EA"/>
<path opacity="0.6" d="M43.5215 134C43.5215 134 41.3562 153.762 45.8501 169.68C50.344 185.599 53.2574 186.385 53.2574 186.385V205.34L45.5593 211H53.9838L55 205.34V186.385C55 186.385 50.7883 171.238 49.9159 160.742C49.0456 150.247 49.6261 134 49.6261 134H43.5215Z" fill="white"/>
<g style="mix-blend-mode:overlay">
<path opacity="0.6" d="M69 134C69 134 68.8275 153.803 64.3682 169.754C59.9088 185.705 56.7292 186.493 56.7292 186.493V205.486L64.3682 211H56.0084L55 205.486V186.493C55 186.493 55.1427 171.314 56.0084 160.797C56.8719 150.281 56.2959 134 56.2959 134H69Z" fill="#0D0000"/>
</g>
<g style="mix-blend-mode:lighten">
<rect x="38" y="137" width="35" height="3" fill="white"/>
</g>
<g opacity="0.600006">
<g opacity="0.600006">
<path opacity="0.600006" d="M36.3613 86.8665C34.4683 89.7079 33.2991 94.2469 32.4653 97.6656C31.9614 99.7257 31.31 106.479 33.8642 107.798C38.2445 110.06 40.0262 92.6443 39.9997 89.9449C39.99 88.9514 38.7025 84.0389 36.3613 86.8665Z" fill="#FEFDEB"/>
</g>
</g>
<g opacity="0.300003">
<g opacity="0.300003">
<path opacity="0.300003" d="M13.4635 114.52C14.6082 112.971 17.3483 110.121 20 113.8C13.7678 125.766 9.55693 138.725 7.56163 152C5.4026 146.007 5.77789 139.548 6.91392 133.364C8.16008 126.59 9.98584 121.932 12.6709 115.888C12.8839 115.406 13.149 114.945 13.4635 114.52Z" fill="white"/>
</g>
</g>
<path d="M152 182L189.776 125L222 180.584L152 182Z" fill="#B2559C"/>
<path d="M143 180L172.679 112L205 180H143Z" fill="#764678"/>
<path d="M134 181L173.101 111L190 181H134Z" fill="#CF7EBC"/>
<path d="M142 167H91V182H142V167Z" fill="#F18751"/>
<g opacity="0.300003">
<path opacity="0.5" d="M142.432 166.108C141.878 165.472 140.969 165.334 140.138 165.239C124.984 163.527 109.64 163.589 94.5014 165.427L91 168.477C91.4627 169.904 92.7841 170.898 94.1822 171.388C95.5802 171.878 97.0822 171.953 98.5521 172.122C102.125 172.529 105.632 173.512 108.905 175.025C111.82 176.373 114.567 178.145 117.638 179.073C120.706 180.003 124.311 179.948 126.793 177.891C127.526 177.283 128.132 176.529 128.869 175.925C129.607 175.325 130.544 174.872 131.477 175.033C134.5 175.554 130.325 183.27 134.5 182.993C135.636 182.917 141.524 177.668 142.199 176.735C142.835 175.86 142.88 174.694 142.9 173.608C142.932 171.933 142.964 170.256 142.996 168.582C143.013 167.715 142.998 166.757 142.432 166.108Z" fill="black"/>
</g>
<path d="M114.029 171H113.971C113.434 171 113 170.565 113 170.031V104.969C113 104.433 113.434 104 113.971 104H114.029C114.564 104 115 104.433 115 104.969V170.031C115 170.565 114.564 171 114.029 171Z" fill="#C27460"/>
<path d="M140.655 159.109C138.116 157.393 134.841 157.307 131.768 157.28C120.999 157.189 110.23 157.098 99.4641 157.005C95.9 156.976 92.1136 157.008 89.1077 158.908C86.828 160.352 85.2078 163.343 86.4057 165.75C87.5221 167.989 90.0858 168.158 92.6817 168.001C98.5008 167.687 104.392 168.759 109.722 171.1C113.17 172.615 116.553 174.697 120.325 174.751C123.807 174.802 127.258 172.944 129.113 170.019C131.479 171.022 133.272 172.988 135.404 174.415C137.533 175.844 140.479 176.69 142.613 175.266C144.537 173.981 145.022 171.384 144.999 169.082C144.96 165.314 143.791 161.229 140.655 159.109Z" fill="#B0CFEE"/>
<path d="M137.17 163.665C134.932 162.31 132.046 162.242 129.338 162.221C119.847 162.149 110.356 162.078 100.867 162.004C97.7254 161.981 94.3883 162.006 91.739 163.506C89.7298 164.646 88.3017 167.008 89.3575 168.908C90.3415 170.675 92.6011 170.809 94.889 170.685C100.018 170.437 105.209 171.283 109.907 173.132C112.946 174.328 115.928 175.971 119.252 176.014C122.322 176.054 125.363 174.587 126.998 172.278C129.083 173.07 130.664 174.622 132.542 175.749C134.419 176.877 137.016 177.545 138.897 176.42C140.592 175.406 141.019 173.356 140.999 171.539C140.965 168.564 139.935 165.339 137.17 163.665Z" fill="white"/>
<g opacity="0.300003">
<path opacity="0.6" d="M107 157C109.771 160.222 113.741 162.074 117.711 161.998C121.681 161.924 125.328 160.489 128 157.164L107 157Z" fill="black"/>
</g>
<path d="M104.78 126.304C105.729 124.764 107.632 121.885 108.581 120.345C108.837 119.926 109.106 119.436 108.958 118.968C108.852 118.633 108.554 118.396 108.263 118.196C106 116.632 103.207 115.853 100.461 116.023C99.9975 116.053 99.4995 116.124 99.1717 116.449C98.8956 116.72 98.7921 117.12 98.7009 117.497C98.0402 120.229 98.2966 125.431 98.2966 125.431C98.2892 125.247 97.7025 127.684 97 129.022L104.311 130C104.247 127.378 104.78 126.304 104.78 126.304Z" fill="#FF735D"/>
<path d="M128.078 124.834C125.23 124.252 122.242 125.643 120.809 128.216C119.177 131.14 121.16 133.399 121.436 135.987C121.854 139.926 117.772 143.353 113.898 142.995C110.025 142.636 106.854 139.339 105.606 135.584C104.707 132.884 104.643 129.995 104.983 127.143C105.188 125.416 103.798 123.923 102.091 124.003C101.231 124.043 100.447 124.491 99.9366 125.197C94.5433 132.648 94.751 144.204 100.196 151.642C105.926 159.47 117.374 162.322 125.943 157.945C134.512 153.57 139.116 142.392 136.048 133.143C134.773 129.298 132.005 125.638 128.078 124.834Z" fill="#FF735D"/>
<path d="M134.999 149.96C134.992 150.034 133.957 150.036 132.329 149.696C130.705 149.363 128.501 148.618 126.327 147.324C124.155 146.024 122.481 144.451 121.444 143.196C120.401 141.939 119.94 141.041 120.006 141.004C120.174 140.864 122.415 144.264 126.678 146.772C130.906 149.336 135.053 149.75 134.999 149.96Z" fill="white"/>
<path d="M135.998 132.016C136.081 132.131 132.933 133.466 128.657 133.865C124.383 134.291 120.95 133.585 121.001 133.46C121.026 133.289 124.423 133.736 128.581 133.32C132.742 132.934 135.925 131.856 135.998 132.016Z" fill="white"/>
<path d="M117.995 158.997C117.959 159.048 117.137 158.45 116.118 157.135C115.101 155.831 113.976 153.739 113.398 151.192C112.829 148.646 112.942 146.232 113.292 144.574C113.637 142.906 114.116 141.974 114.171 142.001C114.268 142.039 113.936 143.02 113.705 144.654C113.47 146.283 113.43 148.595 113.976 151.045C114.532 153.49 115.551 155.526 116.454 156.862C117.354 158.205 118.065 158.915 117.995 158.997Z" fill="white"/>
<path d="M99.022 149.999C98.8678 150.001 99.4846 146.88 102.152 143.975C103.465 142.539 104.938 141.494 106.061 140.856C107.189 140.215 107.955 139.943 107.996 140.01C108.122 140.189 105.205 141.598 102.669 144.376C100.117 147.145 99.2327 150.074 99.022 149.999Z" fill="white"/>
<path d="M104.999 132.57C104.959 132.668 104.411 132.484 103.522 132.475C102.633 132.456 101.411 132.701 100.177 133.284C97.6943 134.455 96.1492 136.123 96.0096 135.993C95.8701 135.916 97.2487 133.989 99.8956 132.731C101.208 132.109 102.589 131.903 103.554 132.041C104.526 132.171 105.03 132.517 104.999 132.57Z" fill="white"/>
<path opacity="0.4" d="M104.78 126.304C105.729 124.764 107.632 121.885 108.581 120.345C108.837 119.926 109.106 119.436 108.958 118.968C108.852 118.633 108.554 118.396 108.263 118.196C106 116.632 103.207 115.853 100.461 116.023C99.9975 116.053 99.4995 116.124 99.1717 116.449C98.8956 116.72 98.7921 117.12 98.7009 117.497C98.0402 120.229 98.2966 125.431 98.2966 125.431C98.2892 125.247 97.7025 127.684 97 129.022L104.311 130C104.247 127.378 104.78 126.304 104.78 126.304Z" fill="black"/>
<path opacity="0.4" d="M98.1983 142.243C99.6079 145.041 100.643 146.945 102.554 149.436C104.462 151.927 106.83 154.133 109.674 155.492C114.744 157.914 121.046 157.332 125.813 154.367C130.578 151.402 133.782 146.24 134.735 140.749C135.048 138.946 135.133 137.079 134.718 135.298C134.304 133.515 133.356 131.817 131.884 130.712C130.884 129.957 129.228 129.613 128.526 130.645C128.099 131.274 128.25 132.107 128.397 132.849C129.382 137.885 129.236 143.339 126.759 147.844C124.282 152.352 119.093 155.612 113.98 154.782C110.942 154.291 108.255 152.458 106.215 150.181C104.172 147.901 102.7 145.186 101.31 142.469C100.951 141.762 100.549 141.01 99.8387 140.644C99.129 140.28 97.2899 140.211 98.2926 142.43" fill="white"/>
<g opacity="0.300003">
<g opacity="0.300003">
<path opacity="0.300003" d="M168.904 177.29C168.518 177.821 168.235 178.223 168.071 178.869C167.906 179.517 168.02 180.288 168.511 180.712C169.072 181.194 169.974 181.039 170.472 180.485C170.969 179.93 171.095 179.082 170.934 178.336C170.83 177.859 170.598 177.382 170.192 177.147C169.788 176.912 169.224 176.959 168.904 177.29Z" fill="white"/>
</g>
</g>
<path d="M139 162.184C139 162.184 143.833 159.676 145.496 159.158C146.685 158.786 156.691 159.156 162.301 159.395C164.4 159.486 166.041 161.238 165.999 163.341L165.677 179.651C165.645 181.191 164.762 182.585 163.382 183.264L157.167 186L139 162.184Z" fill="#FF735D"/>
<path d="M140.231 186.687C138.315 186.647 136.836 184.809 137.015 182.686C137.343 178.768 137.467 173.127 137.689 171.715C138.017 169.629 136 163.588 139.494 162.203C139.892 162.046 140.318 161.993 140.741 162.001L155.927 162.313C157.962 162.353 159.658 164.026 159.95 166.264C160.16 167.874 159.648 170.722 159.491 172.99C159.281 176.038 159.319 180.441 159.1 183.834C159.068 184.331 158.921 184.776 158.715 185.166C158.087 186.352 156.826 187.027 155.521 186.999L140.231 186.687Z" fill="#FF806C"/>
<path d="M152.318 146.056L148.845 146.025L148.953 97.4271C148.952 96.6677 149.626 96.0607 150.454 96.0652L150.929 96.0679C151.754 96.0758 152.425 96.6949 152.426 97.4543L152.318 146.056Z" fill="#C27460"/>
<path d="M142.937 161C142.973 160.995 143.074 161.547 142.907 162.42C142.744 163.281 142.255 164.47 141.287 165.394C140.323 166.326 139.178 166.764 138.354 166.912C137.52 167.066 136.995 166.979 137 166.939C136.998 166.881 137.512 166.873 138.3 166.663C139.081 166.456 140.149 166.002 141.051 165.128C141.961 164.26 142.453 163.169 142.668 162.359C142.889 161.542 142.879 161 142.937 161Z" fill="white"/>
<path d="M154 160.002C154.014 160.036 153.654 160.152 153.145 160.565C152.621 160.968 152.051 161.734 151.4 162.724C151.067 163.214 150.697 163.76 150.198 164.272C149.708 164.801 149.028 165.207 148.303 165.533C147.571 165.861 146.775 166.113 145.994 166.441C145.216 166.765 144.433 167.19 143.896 167.876C143.348 168.55 143.133 169.407 142.996 170.231C142.856 171.059 142.785 171.885 142.587 172.658C142.183 174.213 141.306 175.424 140.425 176.237C139.539 177.066 138.638 177.501 138.011 177.74C137.693 177.848 137.443 177.926 137.267 177.957C137.093 177.993 137.003 178.008 137 177.996C136.99 177.964 137.353 177.88 137.962 177.621C138.562 177.351 139.421 176.894 140.261 176.071C141.096 175.259 141.918 174.076 142.288 172.586C142.472 171.842 142.535 171.028 142.672 170.18C142.807 169.342 143.027 168.419 143.634 167.673C144.224 166.919 145.071 166.472 145.867 166.144C146.67 165.811 147.461 165.567 148.176 165.255C148.888 164.944 149.527 164.574 149.999 164.081C150.484 163.601 150.861 163.074 151.206 162.594C151.88 161.623 152.499 160.85 153.064 160.463C153.336 160.263 153.576 160.144 153.74 160.082C153.907 160.019 153.995 159.992 154 160.002Z" fill="white"/>
<path d="M164.999 163C165.008 163.005 164.961 163.125 164.861 163.352C164.742 163.611 164.589 163.938 164.404 164.341C164.163 164.745 163.856 165.241 163.457 165.776C163.233 166.03 162.997 166.299 162.747 166.584C162.483 166.856 162.169 167.105 161.857 167.388C161.541 167.667 161.158 167.887 160.789 168.155C160.408 168.409 159.98 168.617 159.554 168.861C158.671 169.289 157.707 169.699 156.677 170.064C155.648 170.442 154.561 170.799 153.461 171.236C152.357 171.659 151.258 172.209 150.26 172.954C149.744 173.308 149.332 173.77 148.909 174.207C148.518 174.679 148.154 175.175 147.797 175.656C147.088 176.631 146.403 177.569 145.751 178.466C144.432 180.235 143.245 181.894 141.888 182.91C140.572 183.961 139.311 184.513 138.418 184.762C137.971 184.892 137.614 184.945 137.371 184.977C137.129 184.999 137.002 185.006 137 184.994C136.995 184.96 137.509 184.926 138.383 184.637C139.251 184.354 140.472 183.78 141.745 182.724C143.054 181.708 144.201 180.064 145.51 178.283C146.16 177.381 146.838 176.438 147.543 175.461C147.902 174.974 148.261 174.478 148.664 173.992C149.102 173.535 149.535 173.054 150.065 172.685C151.101 171.916 152.231 171.354 153.347 170.933C154.459 170.494 155.551 170.142 156.577 169.775C157.607 169.419 158.561 169.023 159.435 168.615C159.856 168.378 160.28 168.18 160.658 167.935C161.024 167.679 161.403 167.469 161.715 167.2C162.026 166.931 162.341 166.692 162.605 166.433C162.855 166.159 163.093 165.9 163.316 165.656C163.723 165.143 164.04 164.664 164.294 164.276C164.501 163.889 164.668 163.574 164.801 163.325C164.92 163.108 164.989 162.995 164.999 163Z" fill="white"/>
<path d="M165.998 175.001C166.008 175.006 165.981 175.082 165.914 175.222C165.855 175.367 165.741 175.565 165.573 175.807C165.242 176.293 164.647 176.931 163.741 177.452C162.845 177.984 161.64 178.376 160.299 178.546C158.976 178.76 157.487 178.922 156.104 179.579C154.701 180.219 153.808 181.473 153.094 182.625C152.383 183.79 151.731 184.881 150.968 185.614C150.23 186.364 149.452 186.766 148.889 186.906C148.607 186.977 148.383 187 148.23 187C148.079 186.997 148 186.99 148 186.98C147.998 186.944 148.319 186.949 148.852 186.776C149.383 186.601 150.106 186.186 150.8 185.438C151.516 184.708 152.126 183.643 152.832 182.455C153.193 181.868 153.588 181.247 154.096 180.68C154.598 180.105 155.24 179.609 155.961 179.263C157.418 178.574 158.934 178.429 160.255 178.228C161.588 178.078 162.739 177.724 163.625 177.236C164.516 176.758 165.117 176.171 165.47 175.725C165.825 175.275 165.971 174.985 165.998 175.001Z" fill="white"/>
<path opacity="0.7" fill-rule="evenodd" clip-rule="evenodd" d="M156.988 186.675C156.486 186.908 156.059 186.975 155.77 186.994C155.622 187.002 155.509 187.002 155.433 186.994C155.356 186.992 155.318 186.979 155.318 186.979C155.315 186.966 155.357 186.963 155.437 186.958C155.671 186.944 156.229 186.91 156.974 186.536C157.463 186.282 158.018 185.834 158.391 185.124C158.578 184.77 158.715 184.357 158.753 183.906C158.764 183.655 158.777 183.395 158.789 183.129C158.8 182.9 158.811 182.665 158.822 182.427C158.864 181.326 158.887 180.114 158.912 178.808C158.934 177.644 158.958 176.406 158.997 175.105C159.035 173.728 159.129 172.271 159.308 170.782C159.322 170.651 159.336 170.519 159.35 170.388C159.417 169.77 159.484 169.145 159.533 168.513C159.586 167.749 159.639 166.962 159.519 166.207C159.294 164.685 158.3 163.35 157.003 162.827C156.685 162.688 156.345 162.618 156.007 162.576C155.782 162.554 155.542 162.549 155.304 162.544C155.192 162.542 155.08 162.54 154.971 162.536C154.572 162.528 154.179 162.518 153.79 162.509C153.503 162.502 153.218 162.495 152.936 162.489C150.844 162.436 148.915 162.385 147.201 162.341L145.898 162.307C143.923 162.245 142.312 162.192 141.156 162.155C140.593 162.125 140.167 162.123 139.878 162.185C139.713 162.215 139.595 162.246 139.524 162.266C139.474 162.279 139.446 162.286 139.44 162.283C139.405 162.301 139.371 162.319 139.339 162.335C139.264 162.374 139.198 162.407 139.139 162.436C139.05 162.481 139.002 162.501 139 162.496C139 162.496 139.007 162.485 139.025 162.472C139.046 162.456 139.078 162.434 139.122 162.406C139.182 162.37 139.25 162.328 139.326 162.282C139.379 162.25 139.436 162.215 139.498 162.177C139.828 161.981 140.321 161.697 140.963 161.343C141.604 160.992 142.392 160.566 143.326 160.108C143.792 159.879 144.298 159.645 144.843 159.418C145.119 159.308 145.401 159.201 145.708 159.114C146.021 159.027 146.351 159.012 146.672 159.01C148.988 158.978 151.688 159.028 154.676 159.084C155.041 159.091 155.411 159.097 155.786 159.104C157.499 159.144 159.297 159.184 161.162 159.226C161.32 159.233 161.475 159.235 161.63 159.237C161.941 159.242 162.253 159.246 162.591 159.286C163.082 159.356 163.568 159.55 163.984 159.841C164.813 160.397 165.533 161.238 165.823 162.279C165.947 162.695 165.988 163.146 165.988 163.557C165.997 163.87 165.998 164.18 165.999 164.488C165.999 164.592 165.999 164.696 166 164.8C165.991 165.587 165.984 166.368 165.977 167.138L165.976 167.23C165.943 168.829 165.909 170.383 165.876 171.882C165.787 174.873 165.703 177.645 165.629 180.103V180.093C165.617 181.052 165.32 181.929 164.839 182.626C164.363 183.336 163.668 183.762 163.046 184.098C161.79 184.768 160.657 185.24 159.727 185.627L159.709 185.634C158.775 186.021 158.038 186.299 157.535 186.484L157.211 186.597C157.129 186.626 157.055 186.652 156.988 186.675Z" fill="#A73321"/>
<path d="M164.994 147.596C165.216 155.325 159.132 161.77 151.404 161.994C143.675 162.216 137.23 156.132 137.006 148.404C136.784 140.675 142.868 134.228 150.596 134.006C158.325 133.782 164.77 139.868 164.994 147.596Z" fill="#378E3B"/>
<g opacity="0.300003">
<path d="M153.95 137.973C153.697 136.946 152.704 136.337 151.689 136.146C151.681 136.143 151.672 136.141 151.664 136.141C149.511 135.734 147.279 136.22 145.501 137.468C143.675 138.749 142.271 140.064 141.091 142.163C139.61 144.8 139.502 148.386 141.606 150.587C142.133 151.16 143.131 151.097 143.769 150.642C144.407 150.187 144.759 149.452 145.04 148.733C145.725 146.97 146.131 145.097 147.033 143.427C147.932 141.758 149.479 140.258 151.408 140.062C152.199 139.981 153.066 140.107 153.645 139.406C153.973 139.01 154.071 138.467 153.95 137.973Z" fill="white"/>
</g>
<circle cx="150" cy="127" r="7" fill="#F24439"/>
<path opacity="0.7" d="M151.975 123.052C151.848 122.504 151.352 122.18 150.844 122.078C150.841 122.076 150.836 122.075 150.832 122.075C149.756 121.858 148.64 122.117 147.75 122.783C146.838 123.466 146.136 124.168 145.546 125.287C144.805 126.693 144.751 128.606 145.803 129.78C146.067 130.085 146.565 130.052 146.884 129.809C147.203 129.566 147.38 129.174 147.52 128.791C147.862 127.851 148.066 126.852 148.516 125.961C148.966 125.071 149.74 124.271 150.704 124.166C151.099 124.123 151.533 124.191 151.822 123.816C151.986 123.606 152.036 123.316 151.975 123.052Z" fill="white"/>
<path d="M181.644 184H151.356C150.608 184 150 183.42 150 182.706V182.294C150 181.58 150.608 181 151.356 181H181.644C182.394 181 183 181.58 183 182.294V182.706C183 183.42 182.394 184 181.644 184Z" fill="#E1E1E1"/>
<path d="M189.983 198H116.015C115.458 198 115 197.098 115 196C115 194.899 115.458 194 116.015 194H189.983C190.542 194 191 194.899 191 196C191 197.098 190.542 198 189.983 198Z" fill="#1C1E29"/>
<path d="M81 181C82.541 186.408 94.5697 191.125 112.262 194H192.738C210.43 191.125 222.459 186.408 224 181H81Z" fill="#6BB0F6"/>
<path d="M121.056 211H116L123.945 194H129L121.056 211Z" fill="#1C1E29"/>
<path d="M185.944 211H191L183.055 194H178L185.944 211Z" fill="#1C1E29"/>
</svg>
