<svg width="202" height="206" viewBox="0 0 202 206" fill="none" xmlns="http://www.w3.org/2000/svg">
<path d="M132.594 144.636C124.152 133.532 116.1 121.883 108.314 110.614C100.537 99.3593 92.4976 87.7292 84.0856 76.6592L86.4502 74.8303C94.8917 85.9339 102.944 97.5834 110.73 108.853C118.511 120.103 126.546 131.737 134.962 142.803L132.594 144.636Z" fill="#634E42"/>
<path d="M140.64 137.676C132.525 127.758 123.053 116.138 113.588 104.518C104.12 92.9015 94.6559 81.2893 86.5381 71.3684L88.846 69.5104C96.9563 79.4314 106.429 91.0516 115.897 102.668C125.361 114.289 134.83 125.905 142.944 135.822L140.64 137.676Z" fill="#4F3E35"/>
<path d="M143.643 135.678C123.71 111.134 105.524 89.0029 88.0501 68.0319L90.336 66.1508C107.822 87.1326 126.012 109.267 145.949 133.816L143.643 135.678Z" fill="#634E42"/>
<path d="M140.697 141.727C131.541 131.435 122.031 119.436 112.839 107.836C103.662 96.2504 94.1773 84.2737 85.0547 74.0268L87.2982 72.1168C96.4541 82.4093 105.964 94.4087 115.157 106.009C124.333 117.594 133.818 129.571 142.944 139.821L140.697 141.727Z" fill="#634E42"/>
<path d="M140.918 140.851L138.571 142.614C132.049 133.745 124.271 124.409 116.031 114.523C104.627 100.833 92.8287 86.6752 83.6814 72.8226L86.0907 71.1391C95.1749 84.9046 106.939 99.0166 118.31 112.661C126.57 122.574 134.366 131.932 140.918 140.851Z" fill="#4F3E35"/>
<path d="M130.927 137.841L128.558 139.602L83.9879 77.7977L86.3562 76.0366L130.927 137.841Z" fill="#4F3E35"/>
<path d="M136.908 141.862L134.51 143.559C125.146 129.782 115.532 116.603 106.229 103.863C99.4066 94.5146 92.3541 84.845 85.3891 74.9359L87.7694 73.2153C94.7187 83.1095 101.77 92.7714 108.588 102.109C117.896 114.868 127.523 128.058 136.908 141.862Z" fill="#634E42"/>
<path d="M100.071 79.9266L90.4415 86.7691C90.1087 87.0091 89.6518 86.9629 89.4205 86.6634C89.1941 86.3686 89.2774 85.9337 89.6146 85.6976L99.2442 78.8553C99.5762 78.6149 100.03 78.6659 100.265 78.961C100.492 79.2559 100.399 79.6909 100.071 79.9266Z" fill="#CBBBA0"/>
<path d="M102.053 81.9514L92.9699 89.2152C92.6392 89.477 92.2397 89.4949 92.0771 89.2542C91.9113 89.0104 92.05 88.5998 92.3734 88.3395L101.459 81.0785C101.786 80.8143 102.182 80.8004 102.352 81.0397C102.514 81.2801 102.379 81.694 102.053 81.9514Z" fill="#CBBBA0"/>
<path d="M130.409 117.427L119.331 125.675C119.007 125.92 118.581 125.899 118.379 125.626C118.182 125.358 118.281 124.941 118.609 124.701L129.688 116.452C130.008 116.212 130.434 116.233 130.636 116.506C130.837 116.77 130.734 117.19 130.409 117.427Z" fill="#CBBBA0"/>
<path d="M133.056 119.706L121.322 128.642C120.988 128.894 120.562 128.885 120.373 128.62C120.179 128.352 120.294 127.935 120.625 127.679L132.358 118.744C132.693 118.492 133.118 118.501 133.308 118.766C133.497 119.03 133.386 119.451 133.056 119.706Z" fill="#CBBBA0"/>
<path d="M51.877 13.6362C48.2171 9.1924 41.2764 6.08751 41.2764 6.08751L41.2693 6.1041C41.2078 6.28088 39.2929 11.7179 39.2562 16.8712C35.9247 15.4926 32.978 14.844 32.978 14.844L32.9755 14.864C32.9436 15.0827 31.8433 23.1071 33.8678 28.6901C32.7475 28.5 31.6539 28.3562 30.6374 28.2586C27.4417 27.956 25.0146 28.0449 25.0146 28.0449C25.0146 28.0449 25.9438 36.4924 29.3422 42.2394C27.1249 42.1344 24.8458 42.3414 22.9137 42.6361C20.0169 43.0755 17.8893 43.6893 17.8893 43.6893C17.8893 43.6893 17.8985 43.7121 17.9027 43.7159C17.995 43.9719 21.9679 54.6049 27.9282 57.6221C29.8939 58.6188 31.6076 59.0282 33.1163 59.0584C33.6223 59.9865 34.1827 60.9118 34.7852 61.807C33.5865 61.8981 32.3944 62.064 31.2451 62.2827C30.2868 62.4629 29.362 62.6808 28.5082 62.9028C25.5117 63.688 23.3476 64.5687 23.3476 64.5687C23.3476 64.5687 28.7475 75.5481 35.4268 78.0942C37.1212 78.7346 38.6217 79.0494 39.9538 79.0936C39.3321 79.314 38.9542 79.4619 38.9542 79.4619L38.9678 79.4886C39.1133 79.785 45.1273 92.0307 52.6243 94.9303C54.8743 95.8003 56.8067 96.1066 58.5076 96.0548C58.1945 96.3808 57.9043 96.6975 57.6369 96.9971C57.1356 97.5511 56.7208 98.0408 56.3951 98.4308C55.9102 99.0073 55.6421 99.3668 55.6421 99.3668C55.6421 99.3668 66.1648 106.251 73.4245 104.99C78.107 104.177 80.5942 102.108 81.5729 99.4915C84.0952 101.71 87.0008 103.666 89.9157 104.316C97.8957 106.09 101.779 102.582 102.93 97.4416C102.93 97.4336 102.933 97.4298 102.936 97.4174C103.181 96.3244 103.242 95.2457 103.175 94.2019C104.077 94.4439 105.046 94.5355 106.054 94.4753C106.062 94.4745 106.07 94.474 106.074 94.4777C110.447 94.2047 113.849 91.4442 113.442 84.5918C113.423 84.1618 113.361 83.7305 113.282 83.292C112.967 81.6572 112.257 79.9892 111.386 78.4014C113.449 77.9102 115.569 76.4783 117.616 73.6753C121.977 67.7017 120.539 55.1557 120.539 55.1557C120.539 55.1557 116.142 56.0232 111.67 57.9783C111.951 57.5715 112.23 57.1842 112.499 56.7063C113.545 54.8251 113.994 52.4076 114.117 49.982C114.396 44.6408 113.089 39.2314 113.089 39.2314C113.089 39.2314 110.831 39.9748 108.042 41.3289C107.864 34.7135 100.733 26.559 100.733 26.559C100.733 26.559 99.5653 27.7588 98.1208 29.6112C95.8028 24.6494 91.9887 20.1866 90.6385 18.6935C89.7054 13.8673 86.873 9.07275 86.873 9.07275L86.854 9.08543C86.718 9.1882 82.5853 12.1404 79.7947 15.9025C79.451 15.3603 79.0846 14.8275 78.691 14.3084C77.5151 12.7693 76.1771 11.3539 74.9497 10.1812C73.7187 9.00519 72.5983 8.07175 71.8629 7.48485C71.4968 7.19298 71.2267 6.98664 71.091 6.87962C71.0176 6.82839 70.9809 6.80279 70.9809 6.80279L70.9699 6.82292C70.8791 6.96638 68.6176 10.6872 67.1558 15.0984C66.96 14.3742 66.7114 13.617 66.3492 12.8035C63.7408 6.96462 53.7247 2.7201 53.7247 2.7201C53.7247 2.7201 51.8356 8.34474 51.877 13.6362Z" fill="#699711"/>
<path d="M42.0529 29.6224C42.0431 29.8629 41.7699 39.7852 45.5804 44.0926C49.4355 48.4481 53.1715 47.9741 56.0211 45.4022C56.0289 45.4016 56.0324 45.3977 56.0324 45.3977C56.7482 44.7504 57.3371 44.0336 57.7595 43.258C57.9702 42.866 58.1414 42.4616 58.2656 42.0443C58.3859 41.6233 58.4626 41.1865 58.4878 40.7412C58.5343 39.8385 58.3719 38.8915 57.954 37.8879C57.5398 36.8883 56.8703 35.8398 55.9061 34.745C52.0468 30.3859 42.0565 29.6025 42.0565 29.6025L42.0529 29.6224Z" fill="#82AF2C"/>
<path opacity="0.1" d="M78.623 81.1206C78.6767 81.3053 81.0298 88.8685 85.0542 91.268C89.1223 93.692 91.8498 92.4895 93.3617 89.9045C93.3653 89.9005 93.3689 89.8964 93.3684 89.8885C93.7478 89.2434 94.0141 88.5688 94.1354 87.8859C94.1939 87.5427 94.2179 87.197 94.2043 86.8537C94.1906 86.5094 94.1382 86.1598 94.0367 85.8163C93.841 85.129 93.4742 84.4454 92.8949 83.78C92.3193 83.1179 91.5393 82.4732 90.5212 81.8662C86.4461 79.4426 78.6145 81.1055 78.6145 81.1055L78.623 81.1206Z" fill="#1D1D1B"/>
<path d="M66.9478 54.3908C66.9428 54.5614 66.6909 61.6435 69.3922 64.7469C72.1225 67.8843 74.7945 67.5669 76.839 65.7461C76.8429 65.7417 76.8429 65.7417 76.8429 65.7417C77.3614 65.2852 77.7864 64.7758 78.0918 64.2188C78.2463 63.9464 78.3731 63.6557 78.4598 63.3605C78.5505 63.06 78.6087 62.7469 78.6279 62.4283C78.6615 61.7874 78.5552 61.1043 78.2588 60.3875C77.9705 59.67 77.499 58.9174 76.8134 58.1322C74.0834 54.9952 66.9471 54.3748 66.9471 54.3748L66.9478 54.3908Z" fill="#82AF2C"/>
<path d="M98.5051 46.8479C98.3451 46.9585 91.7131 51.586 90.8441 56.3654C89.9675 61.196 92.1895 63.5904 95.3341 64.3465C95.3341 64.3465 95.338 64.35 95.3458 64.3502C96.1267 64.5361 96.8979 64.6041 97.6244 64.5233C97.9916 64.4829 98.3396 64.4033 98.6811 64.2881C99.0181 64.1695 99.3363 64.0117 99.6464 63.8109C100.255 63.4047 100.798 62.8309 101.24 62.0503C101.683 61.2696 102.026 60.2896 102.243 59.0798C103.123 54.2451 98.5207 46.8393 98.5207 46.8393L98.5051 46.8479Z" fill="#82AF2C"/>
<path d="M46.3024 69.5983C46.3678 69.7948 49.114 78.1596 53.6116 80.8434C58.1572 83.5487 61.1502 82.2481 62.7725 79.408C62.7761 79.404 62.7798 79.3998 62.7798 79.3998C63.182 78.687 63.4612 77.9431 63.588 77.1927C63.6491 76.8119 63.6671 76.436 63.6468 76.0537C63.6257 75.6717 63.5583 75.2912 63.4396 74.9084C63.2145 74.1464 62.7907 73.3875 62.1396 72.6555C61.4877 71.9159 60.615 71.203 59.4726 70.5233C54.926 67.8096 46.2967 69.5785 46.2967 69.5785C46.2967 69.5785 46.3018 69.5903 46.3024 69.5983Z" fill="#82AF2C"/>
<path d="M72.6415 21.8618C72.5648 22.0382 69.3463 29.3088 70.8691 33.8065C72.4072 38.3618 75.3188 39.287 78.2171 38.3504L78.2249 38.3502C78.9522 38.1168 79.6084 37.7832 80.1552 37.3511C80.4319 37.1306 80.681 36.8927 80.9008 36.6213C81.1175 36.3541 81.3096 36.0574 81.461 35.7315C81.7684 35.084 81.9381 34.3198 81.9321 33.4336C81.9259 32.5464 81.748 31.5417 81.3659 30.4035C79.8245 25.8445 72.6484 21.8456 72.6484 21.8456L72.6415 21.8618Z" fill="#82AF2C"/>
<path d="M144 170H165.824L174.966 85.344C175.332 81.9584 172.721 79 169.367 79H154.252C151.262 79 148.792 81.3739 148.628 84.4069L144 170ZM156.688 89.9268C156.688 86.8538 159.14 84.3628 162.166 84.3628C165.192 84.3628 167.644 86.8538 167.644 89.9268C167.644 92.999 165.192 95.4899 162.166 95.4899C159.14 95.4899 156.688 92.999 156.688 89.9268Z" fill="#634E42"/>
<path d="M140 170H161.824L170.966 85.344C171.331 81.9584 168.721 79 165.368 79H150.252C147.262 79 144.792 81.3739 144.628 84.4069L140 170ZM152.688 89.9268C152.688 86.8538 155.14 84.3628 158.166 84.3628C161.192 84.3628 163.644 86.8538 163.644 89.9268C163.644 92.999 161.192 95.4899 158.166 95.4899C155.14 95.4899 152.688 92.999 152.688 89.9268Z" fill="#A86B10"/>
<path d="M93.3718 84.4069C93.2077 81.3739 90.7382 79 87.7481 79H72.6325C69.2788 79 66.6685 81.9584 67.0342 85.344L76.1757 170H98L93.3718 84.4069ZM79.8341 95.4899C76.8083 95.4899 74.3558 92.999 74.3558 89.9268C74.3558 86.8538 76.8083 84.3628 79.8341 84.3628C82.8598 84.3628 85.3125 86.8538 85.3125 89.9268C85.3125 92.999 82.8598 95.4899 79.8341 95.4899Z" fill="#634E42"/>
<path d="M192 99L190.388 110.263L188.928 120.491L184.928 148.51L183.468 158.738L181.856 170H56.1438L54.5317 158.738L53.0717 148.51L49.0721 120.491L47.6122 110.263L46 99H192Z" fill="#634E42"/>
<path d="M73 170H56.3319L54.6899 158.738L53.2029 148.51L49.1291 120.491L47.6421 110.263L46 99H65.3629L66.5717 110.263L67.6713 120.491L70.6915 148.51L71.7913 158.738L73 170Z" fill="#F0A772"/>
<path d="M118 170H96.6275L93 99H117.821L118 170Z" fill="#F0A772"/>
<path d="M140.578 170H120L120.104 99H144L140.578 170Z" fill="#F0A772"/>
<path d="M162.879 170H142L145.754 99H170L162.879 170Z" fill="#F0A772"/>
<path d="M192 99L190.385 110.263L188.922 120.491L184.915 148.51L183.452 158.738L181.837 170H165L166.188 158.738L167.254 148.51L170.195 120.491L171.262 110.263L172.45 99H192Z" fill="#F0A772"/>
<path d="M90.5211 84.4069C90.3623 81.3739 87.9732 79 85.0788 79H70.4508C67.2053 79 64.6792 81.9584 65.0331 85.344L73.8797 170H95L90.5211 84.4069ZM77.4201 95.4899C74.4927 95.4899 72.1193 92.999 72.1193 89.9268C72.1193 86.8538 74.4927 84.3628 77.4201 84.3628C80.3482 84.3628 82.7217 86.8538 82.7217 89.9268C82.7217 92.999 80.3482 95.4899 77.4201 95.4899Z" fill="#F0A772"/>
<path d="M191 111L189.538 121H49.4621L48 111H191Z" fill="#A86B10"/>
<path d="M185 149L183.538 159H54.4616L53 149H185Z" fill="#A86B10"/>
<path d="M162.577 43L162.197 39.7453C161.713 35.6138 162.125 31.3511 163.391 27.4175C163.625 26.6883 164.339 24.468 166.199 24.0587C168.044 23.6531 169.604 25.4219 169.912 27.117C170.197 28.6818 169.742 30.1631 169.251 31.5454C168.591 33.4096 167.393 35.0773 166.233 36.6895C165.389 37.8652 164.591 38.9753 164.021 40.1148L162.577 43ZM166.727 26.112C166.682 26.112 166.634 26.1172 166.587 26.1275C166.075 26.2404 165.618 26.9078 165.232 28.1117C164.373 30.78 163.941 33.6125 163.949 36.4401C164.196 36.0875 164.446 35.7386 164.695 35.3933C165.767 33.9023 166.875 32.3607 167.431 30.7888C167.819 29.6936 168.184 28.5396 167.999 27.5248C167.864 26.7852 167.259 26.112 166.727 26.112Z" fill="#877C6B"/>
<path d="M164.7 41H164.3C152.924 41 143.222 48.4173 141.379 58.5232L134 99H195L187.621 58.5232C185.779 48.4173 176.076 41 164.7 41Z" fill="#BBBFC2"/>
<path d="M148.073 96L152.053 58.5465C153.063 49.0444 158.364 41.8784 164.384 41.8784H164.616C170.636 41.8784 175.938 49.0444 176.948 58.5465L180.927 96H183L179.001 58.3658C177.869 47.7241 171.82 40 164.616 40H164.384C157.181 40 151.132 47.7241 150.001 58.3658L146 96H148.073Z" fill="#877C6B"/>
<path opacity="0.1" d="M134.893 94.1154L134 99H195L187.694 59C181.784 79.7162 162.315 89.9811 134.893 94.1154Z" fill="black"/>
<path d="M195.055 99H133.945L127 82.3016C141.793 82.4585 158.334 81.3769 162.754 88.8824C167.667 81.0081 185.015 81.7813 202 82.3016L195.055 99Z" fill="#919BA2"/>
<path opacity="0.2" d="M133 96.7823L133.884 99H195.022L201 84C191.242 94.5035 164.692 96.887 133 96.7823Z" fill="black"/>
<path d="M191.72 195H158.279C154.342 195 150.957 192.184 150.27 188.314C145.732 162.81 154.16 134.949 162.876 109.817C163.461 108.127 165.059 107 166.849 107H183.149C184.941 107 186.538 108.127 187.124 109.817C195.839 134.949 204.268 162.81 199.731 188.314C199.042 192.184 195.658 195 191.72 195Z" fill="#3C92E9"/>
<path d="M158.257 179.94C156.713 160.682 162.364 139.685 168.762 120.463C169.649 117.8 172.14 116 174.953 116H175.048C177.862 116 180.351 117.8 181.238 120.463C187.638 139.685 193.287 160.683 191.743 179.94C191.469 183.348 188.665 186 185.237 186H164.763C161.335 186 158.531 183.348 158.257 179.94Z" fill="#F9E0B3"/>
<path d="M185 104H165V97.503C165 92.2546 169.432 88 174.899 88H175.1C180.568 88 185 92.2546 185 97.503V104Z" fill="#375185"/>
<path d="M166 97.549V103H167.991C167.991 93.369 170.286 92.068 174 89C169.523 89.3854 166 93.07 166 97.549Z" fill="white"/>
<path d="M183 104H167V106H183V104Z" fill="#2079D1"/>
<path d="M187 164.5C187 174.165 181.404 182 174.5 182C167.596 182 162 174.165 162 164.5C162 154.835 167.596 147 174.5 147C181.404 147 187 154.835 187 164.5Z" fill="#F9B233"/>
<path opacity="0.2" d="M150 183.612C150.179 185.157 150.396 186.696 150.664 188.226C151.346 192.147 154.705 195 158.611 195H191.793C195.7 195 199.057 192.147 199.741 188.226C201.843 176.163 201.139 163.58 198.913 151C191.527 172.049 174.765 182.398 150 183.612Z" fill="#1D1D1B"/>
<path d="M152.3 183.296V192.33H135.717V172.729V172.708C134.359 171.257 133.11 169.692 132 168V174.826V183.771V197.738C132 200.631 134.356 203 137.237 203H150.763C153.644 203 156 200.631 156 197.738V184.466C154.748 184.12 153.513 183.727 152.3 183.292V183.296Z" fill="#4B3E53"/>
<path d="M156 160.41C156 157.471 153.644 155.067 150.763 155.067H149.22V151H138.78V155.067H137.237C134.356 155.067 132 157.471 132 160.41V168.282C133.11 170 134.359 171.589 135.717 173.063V165.529H152.3V183.807C153.513 184.25 154.748 184.648 156 185V174.22V161.663V160.41Z" fill="#675475"/>
<path d="M136 173V193H153V183.782C146.503 181.463 140.61 177.896 136 173Z" fill="#FFC36C"/>
<path d="M153 183V182.996V165H136V172.417V172.438C140.61 177.234 146.503 180.728 153 183Z" fill="#FFD797"/>
<path d="M148 125.244C148 122.9 146.209 121 144.001 121C141.791 121 140 122.9 140 125.244V143H148V125.244Z" fill="white"/>
<path d="M151 143H147.534H139.465H136V151H138.602H148.804H151V143Z" fill="#EEE3FF"/>
<path d="M88.5319 153.937C86.7872 148.998 83.5671 144.762 79.2199 141.687L79.2066 141.677C76.3645 139.695 73.3471 138.325 70.2392 137.605C68.4967 137.202 66.7144 137 64.9077 137C63.4248 137 61.9251 137.136 60.4179 137.408C58.0425 137.83 55.7439 138.616 53.6173 139.722L53.6149 139.722L53.5134 139.78C53.0399 140.03 52.5772 140.298 52.1222 140.579L30.0189 153.264H35.2804C35.2317 153.308 35.1772 153.344 35.1289 153.388C31.2171 156.978 26.6123 159.227 24.5707 164.532C22.2823 170.479 22.9901 178.757 26.8458 184.215L24.5961 184.332L1 197.874L54.0871 199L75.6716 186.612C76.0767 186.391 76.4878 186.184 76.8837 185.942L76.8934 185.936C76.9738 185.886 77.0447 185.829 77.1244 185.778L77.6831 185.457L77.6433 185.424C83.5386 181.53 87.5353 175.938 89.1854 169.16C90.461 164.023 90.235 158.759 88.5319 153.937Z" fill="#CF7EBC"/>
<path d="M66.5434 165.934C64.8125 160.996 61.618 156.76 57.3054 153.686L57.2921 153.677C54.4725 151.695 51.4793 150.325 48.3958 149.605C46.6669 149.202 44.899 149 43.1067 149C41.6356 149 40.1479 149.136 38.6524 149.408C34.8823 150.084 31.3073 151.688 28.3134 154.049C25.3675 156.373 22.9592 159.446 21.3484 162.936C20.0871 165.649 19.3992 168.576 19.304 171.636C19.2123 174.583 19.6723 177.495 20.6716 180.29C21.6434 183.008 23.0718 185.462 24.9174 187.583C26.8558 189.811 29.1665 191.566 31.7899 192.802C35.7861 194.674 40.3645 195.245 44.6819 194.409C49.1774 193.539 53.1218 191.268 56.0906 187.84C58.77 184.736 60.4124 180.958 60.8403 176.913C61.272 172.833 60.4338 168.779 58.417 165.193C55.9754 160.842 51.8249 157.679 47.0296 156.516C45.6775 156.188 44.3177 156.026 42.9701 156.026C39.663 156.026 36.4328 157.003 33.5963 158.901C30.5534 160.919 28.3234 163.802 27.1479 167.24C25.9963 170.607 25.9851 174.314 27.1159 177.679C28.3482 181.419 31.1229 184.561 34.7295 186.299C38.196 187.97 41.9978 188.167 45.4355 186.854C47.6831 186.009 49.6626 184.556 51.1606 182.653C52.7281 180.661 53.6442 178.325 53.8093 175.896L53.8103 175.884C54.0794 171.608 52.309 167.637 49.0743 165.26L49.0515 165.243C45.3741 162.607 40.6886 162.615 37.1151 165.266L37.1058 165.273C35.0964 166.778 33.8724 169.123 33.748 171.705C33.6188 174.386 34.6525 176.936 36.584 178.703L36.5974 178.715C37.568 179.59 38.7634 180.141 40.0545 180.31C41.3813 180.484 42.6815 180.236 43.8186 179.593C45.8937 178.507 47.047 176.103 46.6924 173.588L46.6841 173.533C46.4249 171.957 45.2262 170.793 43.7914 170.687C43.7871 170.686 43.7826 170.686 43.7781 170.685C43.1152 170.596 41.7363 170.411 40.6048 171.319C39.9614 171.835 39.5607 172.591 39.4762 173.448C39.406 174.159 39.6471 174.829 40.0873 175.319C39.9778 175.259 39.8735 175.187 39.778 175.102C38.9322 174.324 38.4623 173.143 38.5202 171.941C38.5521 171.281 38.7792 170.044 39.9416 169.17C41.8546 167.755 44.2819 167.762 46.2809 169.189C48.201 170.605 49.2072 172.931 49.0423 175.57C48.8399 178.497 46.7223 181.206 43.7707 182.314L43.7562 182.32C41.5434 183.167 39.0664 183.027 36.7816 181.926C34.34 180.749 32.468 178.64 31.6459 176.14L31.6406 176.124C29.9972 171.242 31.8786 165.825 36.2156 162.951L36.225 162.945C39.1028 161.018 42.5449 160.408 45.9173 161.226C49.4315 162.078 52.4738 164.397 54.2649 167.589C57.37 173.111 56.6753 179.809 52.4974 184.648C47.9557 189.892 40.2649 191.438 33.7992 188.408C29.8103 186.529 26.7435 183.06 25.1637 178.64C23.5517 174.13 23.7365 169.159 25.6703 165.001L25.6737 164.994C28.3394 159.213 33.3743 155.27 39.487 154.177L39.4945 154.175C44.8253 153.204 49.8951 154.374 54.563 157.652C61.6444 162.704 64.7066 171.261 62.5549 179.985L62.552 179.997C61.1509 185.8 57.78 190.751 52.5003 193.796C45.8131 197.653 36.4955 197.117 36.5046 197.127H2.38003C1.06552 197.127 0 198.207 0 199.539V199.588C0 200.92 1.06552 202 2.38003 202H38.9004C39.0386 202 39.1722 201.982 39.3039 201.959C41.5994 201.913 44.5513 201.761 45.9609 201.482C49.1515 200.85 52.1886 199.655 54.9878 197.931L54.9974 197.925C61.2677 194.02 65.4844 188.22 67.1918 181.153C68.4574 176.017 68.2331 170.754 66.5434 165.934Z" fill="#B2559C"/>
<path d="M108 182.708C108 187.569 108 192.431 108 197.292C108 200.382 105.047 203.774 101.355 204.516C90.5385 206.495 79.4613 206.495 68.6451 204.516C64.9528 203.774 61.9998 200.382 62 197.292C62 192.431 62 187.569 62 182.708C62.0001 179.618 64.9527 176.226 68.6451 175.484C79.4613 173.505 90.5385 173.505 101.355 175.484C105.047 176.225 108 179.617 108 182.708Z" fill="#FF5E4B"/>
<path opacity="0.1" d="M85 199C81.5079 199 75.8337 198.391 72.0116 197.92C69.7203 197.637 68 195.628 68 193.243V186.758C68 184.373 69.7202 182.364 72.0114 182.081C75.8337 181.609 81.5084 181 85 181C88.4923 181 94.1664 181.609 97.9884 182.08C100.28 182.363 102 184.372 102 186.757V193.242C102 195.627 100.28 197.636 97.9886 197.919C94.1663 198.391 88.4916 199 85 199Z" fill="black"/>
<path fill-rule="evenodd" clip-rule="evenodd" d="M65.106 180.793C64.7494 180.309 65.1676 178.861 68.3133 177.345C71.3898 175.797 76.5387 175.687 76.9671 176.497C77.4309 177.247 72.8845 178.207 69.7562 179.483C66.5769 180.762 65.5804 181.343 65.106 180.793Z" fill="white"/>
<path d="M95 190.5C95 191.881 93.921 193 92.5901 193H78.41C77.079 193 76 191.881 76 190.5C76 189.119 77.079 188 78.41 188H92.5901C93.921 188 95 189.119 95 190.5Z" fill="#FF5E4B"/>
</svg>
