<svg width="224" height="215" viewBox="0 0 224 215" fill="none" xmlns="http://www.w3.org/2000/svg">
<path d="M22.5419 57.355C23.1316 48.7756 30.2356 42 38.9123 42C46.9827 42 53.6923 47.8616 55.0654 55.5843C56.6728 54.3071 58.7029 53.5449 60.91 53.5449C66.1227 53.5449 70.3483 57.7966 70.3483 63.0413C70.3483 63.2558 70.3413 63.4685 70.3274 63.6795H71.4172C78.3665 63.6795 84 69.3477 84 76.3397C84 83.3318 78.3665 89 71.4172 89H17.5828C10.6335 89 5 83.3318 5 76.3397C5 71.9001 7.27125 67.9942 10.7084 65.7341C11.1122 60.8638 15.1689 57.0378 20.1137 57.0378C20.9532 57.0378 21.7671 57.1481 22.5419 57.355Z" fill="white"/>
<path opacity="0.6" d="M62.5849 27.8899L52 20L59.5862 28.9113L60.5288 40.6203C60.5813 41.2732 61.2846 41.6594 61.8637 41.3535L71.4557 36.2864L82 39.5298L71.4557 33.0133L63.6602 36.2864L62.5849 27.8899Z" fill="#332C30"/>
<path d="M94 51H90V65H94V51Z" fill="#707776"/>
<path d="M142 51H138V65H142V51Z" fill="#707776"/>
<path d="M174.437 166H74.5636C68.7284 166 64 161.642 64 156.264V75.7343C64 70.3593 68.7284 66 74.5636 66H174.437C180.272 66 185 70.3593 185 75.7343V156.264C185 161.642 180.272 166 174.437 166Z" fill="#EF8062"/>
<mask id="mask0_536_39013" style="mask-type:alpha" maskUnits="userSpaceOnUse" x="64" y="66" width="121" height="99">
<path d="M174.437 165H74.5636C68.7284 165 64 160.685 64 155.361V75.637C64 70.3157 68.7284 66 74.5636 66H174.437C180.272 66 185 70.3157 185 75.637V155.361C185 160.685 180.272 165 174.437 165Z" fill="#EF8062"/>
</mask>
<g mask="url(#mask0_536_39013)">
<path d="M98 66H89V166H98V66Z" fill="#D36041"/>
<path d="M160 66H151V166H160V66Z" fill="#D36041"/>
<g style="mix-blend-mode:multiply" opacity="0.4">
<path d="M216.998 110.566C210.95 120.083 180.146 111.479 148.192 91.3455C116.239 71.2134 95.2381 47.1771 101.286 37.6592C101.388 37.4992 101.497 37.3434 101.613 37.1924C96.8795 46.5209 86.2808 -62.5221 227.798 3.46892C259.214 23.2629 210.843 118.325 217.281 110.071C226.917 93.548 217.1 110.405 216.998 110.566Z" fill="#451D00"/>
</g>
</g>
<path d="M63.9592 164H64V77H63.9592C61.7732 77 60 83.5432 60 91.6233V149.371C60 157.447 61.7732 164 63.9592 164Z" fill="#D36041"/>
<path d="M186 164H186.041C188.227 164 190 158.652 190 152.061V104.934C190 98.3399 188.227 93 186.041 93H186V164Z" fill="#D36041"/>
<path d="M156 175V178.461C156 181.52 158.687 184 162 184C165.313 184 168 181.52 168 178.461V175H156Z" fill="#919B9A"/>
<path d="M168 175H156V179H168V175Z" fill="#626867"/>
<path d="M128 50.4551V55.6133C128 56.3781 127.371 57 126.596 57H88.4021C87.6275 57 87 56.3781 87 55.6133V50.4551C87 48.5409 88.7704 47 90.9673 47H124.031C126.228 47 128 48.5409 128 50.4551Z" fill="#919B9A"/>
<path d="M119 57H95C95.656 55.2339 97.5245 54 99.7204 54H114.28C116.475 54 118.343 55.2339 119 57Z" fill="#707776"/>
<path d="M119 47C118.343 48.7637 116.475 50 114.28 50H99.7204C97.5245 50 95.656 48.7637 95 47H119Z" fill="#707776"/>
<path d="M83.6393 81.5807L86.6787 82.8775L94.5385 65.3939L90.3479 65.4019L83.6393 81.5807Z" fill="white"/>
<path d="M70.5474 108.269L75.379 84.0536L88.1578 76.4749L97.0914 88.1794L92.2562 112.392L70.5474 108.269Z" fill="white"/>
<path d="M71.6122 105.475L75.1515 83.7139L88.1394 76.482L96.2782 86.0745L91.3225 109.537L71.6122 105.475Z" fill="#6BB0F6"/>
<path d="M138 166V169.461C138 172.52 140.687 175 144 175C147.313 175 150 172.52 150 169.461V166H138Z" fill="#919B9A"/>
<path d="M150 166H138V170H150V166Z" fill="#626867"/>
<path d="M202 158H143V190H202V158Z" fill="#3C92E9"/>
<path d="M202 165H143V158.268C143 156.463 144.491 155 146.331 155H198.669C200.509 155 202 156.463 202 158.268V165Z" fill="#25468F"/>
<path d="M198.669 193H146.331C144.491 193 143 191.537 143 189.732V188H202V189.732C202 191.537 200.509 193 198.669 193Z" fill="#25468F"/>
<path d="M172 186C177.523 186 182 181.747 182 176.5C182 171.253 177.523 167 172 167C166.477 167 162 171.253 162 176.5C162 181.747 166.477 186 172 186Z" fill="#1D3F59"/>
<path d="M172 184C175.866 184 179 180.866 179 177C179 173.134 175.866 170 172 170C168.134 170 165 173.134 165 177C165 180.866 168.134 184 172 184Z" fill="#7E8892"/>
<path d="M176.878 176.326C177.405 173.615 175.61 171.142 172.87 170.802C170.13 170.461 167.481 172.383 166.954 175.094C166.427 177.804 168.222 180.278 170.962 180.618C173.702 180.958 176.351 179.036 176.878 176.326Z" fill="#1D3F59"/>
<path d="M167.994 177H166C166 173.692 168.692 171 172 171V172.994C169.791 172.994 167.994 174.791 167.994 177Z" fill="white"/>
<path d="M174.726 181L174 179.339C175.329 178.759 176.187 177.449 176.187 176H178C178 178.169 176.715 180.132 174.726 181Z" fill="white"/>
<path d="M177.478 149H167.362C165.224 149 163.277 150.225 162.36 152.148L161 155H184L182.372 151.935C181.413 150.13 179.53 149 177.478 149Z" fill="#1D3F59"/>
<path d="M157 152H149V155H157V152Z" fill="#1D3F59"/>
<path d="M196 152H188V155H196V152Z" fill="#1D3F59"/>
<path d="M201.995 158.108C201.944 156.384 200.432 155 198.57 155H185V193H198.57C200.264 193 201.668 191.854 201.946 190.348H202V189.802V188.108V164.784V158.198V158.108H201.995Z" fill="#173685"/>
<path d="M143.005 158.108C143.056 156.384 144.568 155 146.43 155H160V193H146.43C144.736 193 143.332 191.854 143.054 190.348H143V189.802V188.108V164.784V158.198V158.108H143.005Z" fill="#173685"/>
<rect x="185" y="165" width="17" height="24" fill="#2571D9"/>
<rect width="17" height="24" transform="matrix(-1 0 0 1 160 165)" fill="#2571D9"/>
<path d="M96 168V171.461C96 174.52 98.6865 177 102 177C105.313 177 108 174.52 108 171.461V168H96Z" fill="#919B9A"/>
<path d="M108 166H96V170H108V166Z" fill="#626867"/>
<path d="M217.293 102.981C211.987 111.44 184.985 104.069 156.98 86.5171C128.976 68.9663 110.575 47.8811 115.881 39.4224C115.97 39.2801 116.066 39.1416 116.168 39.0072C112.014 47.2886 130.491 67.6001 158.022 84.855C185.556 102.111 211.893 109.886 217.542 102.542C217.465 102.692 217.382 102.839 217.293 102.981Z" fill="#E79B63"/>
<path d="M217.119 102.223C217.037 102.356 216.948 102.484 216.853 102.608C211.318 109.838 185.145 101.902 157.706 84.5589C130.268 67.217 111.778 46.9248 115.823 38.7536C115.893 38.613 115.969 38.4767 116.051 38.3441C120.803 30.7058 145.915 37.8896 172.852 54.3837C173.721 54.9153 174.592 55.4573 175.465 56.0085C176.337 56.5599 177.201 57.1146 178.054 57.6716C204.518 74.9292 221.87 94.5848 217.119 102.223Z" fill="#F7B686"/>
<path d="M185.435 80.543C185.435 80.543 183.144 84.2232 164.761 72.6114C162.477 71.1685 160.523 69.8359 158.851 68.6106C148.451 60.9867 148.99 57.5224 148.99 57.5224C148.99 57.5224 150.221 55.8989 152.181 53.5726C157.376 47.4128 167.694 36.3268 173.846 37.4459C178.36 38.2645 177.882 43.2121 181.552 45.9919C185.452 48.9433 191.308 46.5256 193.537 50.8874C194.522 52.8157 194.463 55.7162 193.832 58.9625C192.711 64.7195 189.792 71.5605 187.71 75.9722C186.408 78.7324 185.435 80.543 185.435 80.543Z" fill="#B2559C"/>
<path d="M187.146 75.9841C181.067 74.1268 174.506 71.1441 168.034 67.1109C161.612 63.1086 156.087 58.5742 151.772 53.9807C157.075 47.7202 167.593 36.4393 173.756 37.4773C178.279 38.2364 177.73 43.2131 181.378 45.9541C185.253 48.8643 191.169 46.3535 193.347 50.7038C196.016 56.0376 190.512 69.0089 187.146 75.9841Z" fill="#E69B63"/>
<path opacity="0.24" d="M192.036 61.8371C185.717 71.9438 171.404 74.5816 158.749 68.5079C148.432 60.9674 148.985 57.5166 148.985 57.5166C148.985 57.5166 150.217 55.8948 152.179 53.57C157.378 47.4145 167.699 36.3315 173.817 37.4169C178.307 38.2109 177.808 43.1379 181.448 45.8879C185.316 48.8076 191.157 46.3738 193.355 50.7051C194.326 52.62 194.254 55.5075 193.611 58.7417C193.182 59.8053 192.659 60.8404 192.036 61.8371Z" fill="white"/>
<path d="M176.513 43.5802C177.784 42.8296 179.383 46.5492 180.549 47.3516C182.307 48.5627 188.294 48.6344 187.917 50.3722C187.63 51.6985 180.563 51.3592 178.499 50.1051C175.123 48.0541 174.999 44.4744 176.513 43.5802Z" fill="#E69B63"/>
<path d="M82.0477 167.253C92.1339 157.839 91.3294 140.817 80.2508 129.234C69.1723 117.65 52.0148 115.891 41.9287 125.305C31.8425 134.718 32.647 151.74 43.7255 163.324C54.8041 174.907 71.9615 176.666 82.0477 167.253Z" fill="#D06145"/>
<path d="M97.6806 187.373L101.456 183.997C102.409 183.145 102.467 181.712 101.584 180.796L85.0616 163.646C84.534 163.098 80.6648 159.974 80.095 160.484L74.9311 165.101C74.3614 165.61 77.3068 169.56 77.8343 170.107L94.357 187.258C95.2396 188.174 96.7276 188.225 97.6806 187.373Z" fill="#D06145"/>
<path d="M89.2032 151.483L65.4314 173.122C57.6982 172.894 49.5906 169.377 43.3972 162.831C32.2748 151.075 31.5378 134.008 41.7512 124.71C51.9646 115.413 69.2606 117.406 80.3829 129.162C86.5764 135.708 89.5478 143.901 89.2032 151.483Z" fill="#699711"/>
<path d="M71.6445 181.512C78.9447 169.807 73.5592 153.464 59.6157 145.009C45.6722 136.555 28.4508 139.19 21.1507 150.895C13.8505 162.601 19.236 178.944 33.1795 187.398C47.123 195.853 64.3444 193.218 71.6445 181.512Z" fill="#FF9533"/>
<path d="M91.4903 197.274L94.2389 193.041C94.9327 191.972 94.6074 190.574 93.5124 189.919L73.0102 177.643C72.3555 177.251 67.7913 175.238 67.3765 175.877L63.6174 181.667C63.2027 182.305 67.0944 185.355 67.7491 185.747L88.2513 198.022C89.3464 198.678 90.7966 198.343 91.4903 197.274Z" fill="#F97352"/>
<path d="M73.9489 164.583L56.7468 191.609C49.2214 193.389 40.4614 192.091 32.7451 187.377C18.8877 178.91 13.6455 162.633 21.0362 151.021C28.427 139.41 45.6519 136.861 59.5092 145.328C67.2256 150.042 72.2689 157.179 73.9489 164.583Z" fill="#82AF2C"/>
<path d="M39.2037 174.106C42.4325 173.36 44.4411 170.139 43.69 166.912C42.939 163.685 39.7127 161.672 36.4839 162.418C33.2551 163.163 31.2465 166.384 31.9976 169.611C32.7486 172.839 35.9749 174.851 39.2037 174.106Z" fill="#EDEEEF"/>
</svg>
