<svg width="183" height="235" viewBox="0 0 183 235" fill="none" xmlns="http://www.w3.org/2000/svg">
<path d="M119.863 47.5C120.397 45.5665 119.321 44 117.463 44C115.606 44 113.669 45.5665 113.136 47.5C112.605 49.4335 113.678 51 115.536 51C117.393 51 119.33 49.4335 119.863 47.5Z" fill="#8FB1F5"/>
<path fill-rule="evenodd" clip-rule="evenodd" d="M32 77.9989H140.154C140.628 77.9989 141 77.8423 141 77.6432L137.77 74.3871C136.618 74.1 135.965 74.0185 135.483 74.0185L32 74.0059V77.9989Z" fill="#6597EF"/>
<path d="M122 78H0.815354C0.358154 78 0 77.8432 0 77.6439L3.1111 74.3839C4.2206 74.0964 4.85051 74.0148 5.3141 74.0148L122 74V78Z" fill="#6597EF"/>
<path d="M120 88H22V205H120V88Z" fill="#3C92E9"/>
<path d="M52.6187 205C44.9206 205 48.6404 205 52.6187 205H89.5524C94.9786 205 90.1611 205 89.5524 205L100 112.368C100 112.166 99.5014 112 98.8928 112H43.1014C42.4985 112 42 112.166 42 112.368L52.6187 205Z" fill="#6BB0F6"/>
<rect x="8" y="206" width="123" height="8" fill="#2079D1"/>
<path opacity="0.6" d="M22 99H120V184.118C120 189.936 112.127 191.742 109.591 186.505L97.0371 160.582C83.263 132.139 56.2685 112.389 24.9906 107.869C23.2739 107.621 22 106.15 22 104.416V99Z" fill="#0E68C1"/>
<rect x="11" y="77" width="119" height="22" rx="2" fill="#3C92E9"/>
<path d="M141 84.0519C141 84.585 140.7 85 140.31 85H0.69301C0.311432 85 0 84.585 0 84.0519V77.933C0 77.415 0.311432 77 0.69301 77H140.31C140.7 77 141 77.415 141 77.933V84.0519Z" fill="#2B7ED1"/>
<path d="M170.644 218.695L161.479 122.656L163.566 119.22L172.001 218.875C172.023 219.129 171.8 219.34 171.547 219.305L171.178 219.253C170.891 219.212 170.67 218.982 170.644 218.695Z" fill="#002822"/>
<path d="M170.644 218.695L161.479 122.656L163.566 119.22L172.001 218.875C172.023 219.129 171.8 219.34 171.547 219.305L171.178 219.253C170.891 219.212 170.67 218.982 170.644 218.695Z" stroke="black"/>
<path d="M77.7111 222C77.2731 222 76.9386 221.586 77.0095 221.13L83.3033 181H86L78.4937 221.322C78.4207 221.716 78.0923 222 77.7111 222Z" fill="#002822"/>
<path d="M137.712 222C137.272 222 136.937 221.586 137.01 221.13L143.303 181H146L138.494 221.322C138.421 221.716 138.093 222 137.712 222Z" fill="#002822"/>
<path d="M105 137.374L110.838 137L111 137.506L105.238 138L105 137.374Z" fill="#D4D5D6"/>
<path fill-rule="evenodd" clip-rule="evenodd" d="M156.082 197H76.5586L90.4757 110H169.999L156.082 197Z" fill="#9AB6CE"/>
<path fill-rule="evenodd" clip-rule="evenodd" d="M153.082 197H73.5586L87.4757 110H166.999L153.082 197Z" fill="#CEDDEA"/>
<path d="M159 197H68V200H159V197Z" fill="#002822"/>
<path d="M119.956 131.475C119.895 132.296 119.773 133.104 119.598 133.891C117.931 141.305 111.326 146.987 103.86 147C95.5981 147.015 89.4127 140.088 90.0444 131.527C90.674 122.966 97.8812 116.015 106.143 116C107.874 115.998 109.515 116.3 111.019 116.86C111.699 117.112 112.35 117.414 112.968 117.763C114.305 118.521 115.495 119.499 116.5 120.654C117.058 121.296 117.558 121.997 117.996 122.742C118.25 123.173 118.483 123.619 118.69 124.082C119.272 125.364 119.671 126.759 119.865 128.23C119.964 128.967 120.008 129.726 119.999 130.499C119.995 130.82 119.98 131.146 119.956 131.475Z" fill="#B2559C"/>
<path d="M119 124.439L105 132C105 132 110.776 121.867 113.149 118C114.516 118.773 115.733 119.768 116.76 120.945C117.331 121.602 117.842 122.313 118.29 123.073C118.55 123.512 118.788 123.967 119 124.439Z" fill="white"/>
<path d="M119 122.519L107 129C107 129 111.951 120.316 113.983 117C115.156 117.662 116.199 118.515 117.078 119.524C117.568 120.087 118.009 120.697 118.392 121.348C118.615 121.725 118.818 122.115 119 122.519Z" fill="#764678"/>
<path d="M82.5292 190.618L146.986 190.622L153.471 153.386L89.0143 153.382L82.5292 190.618Z" fill="white"/>
<path d="M144 186L86 185.996C86 185.996 96.2885 180.485 99.1108 180.772C101.933 181.061 105.99 183.294 108.598 183.38C111.206 183.467 114.03 175.644 116.934 176.013C119.838 176.381 120.931 183.3 122.433 182.626C123.937 181.949 128.45 181.656 131.052 182.626C133.651 183.596 137.44 179.545 139.725 179.674C142.011 179.8 144 186 144 186Z" fill="#F97352"/>
<path d="M89 166.996L147 167C147 167 138.649 161.487 135.724 161.776C132.801 162.063 127.96 164.294 125.322 164.382C122.683 164.467 122.606 156.644 119.574 157.013C116.542 157.381 113.019 164.3 111.752 163.624C110.486 162.947 106.073 162.654 103.133 163.624C100.195 164.591 97.8269 160.543 95.4976 160.669C93.166 160.796 89 166.996 89 166.996Z" fill="#F24438"/>
<path fill-rule="evenodd" clip-rule="evenodd" d="M122 145H125.744L129 127H125.256L122 145ZM127 145H130.586L133 131H129.414L127 145ZM137.113 145H133L135.887 130H140L137.113 145ZM138 145H141.911L144 134H140.089L138 145ZM146.815 145H143L145.185 133H149L146.815 145ZM148 145H152.155L154 136H149.845L148 145Z" fill="#518E62"/>
<path d="M139 68H47V75H138.184L139 68Z" fill="#375185"/>
<path d="M70 76H140.758C142.593 76 144.243 74.8794 144.92 73.1728L163.921 25.2447C164.918 22.729 163.064 20 160.358 20H97.511C94.3732 20 91.5523 21.9126 90.3908 24.8275L70 76Z" fill="#5F7DC4"/>
<path d="M126.805 45C127.567 42.2379 126.03 40 123.376 40C120.723 40 117.956 42.2379 117.194 45C116.435 47.7621 117.969 50 120.623 50C123.276 50 126.043 47.7621 126.805 45Z" fill="white"/>
<path d="M91.5276 57.5587L85.0545 75.7703L96.213 75.6178L91.5276 57.5587Z" fill="#D4D5D6"/>
<path d="M92.114 76.3047L123.88 75.611L121.292 57.6393L91.2539 57.7546L92.114 76.3047Z" fill="white"/>
<path d="M97.6412 62.2861L119.315 63.3759L119.541 64.6381L97.9796 64.0466L97.6412 62.2861Z" fill="#5F7DC3"/>
<path d="M102.677 68.0553L115.426 67.9682L115.617 69.4569L102.972 70.0454L102.677 68.0553Z" fill="#5F7DC3"/>
<path d="M37 76H16C16 70.4759 20.6997 66 26.5 66C32.3003 66 37 70.4759 37 76Z" fill="#25468F"/>
<path d="M26.8853 68C26.903 67.6888 29.0828 36.5692 55 8.27435L53.6037 7C27.2153 35.8116 25.0178 67.5713 25 67.8884L26.8853 68Z" fill="#25468F"/>
<path d="M49.923 12.0769C48.6923 10.8462 48.6923 8.83787 49.923 7.61328L54.6133 2.92306C55.8379 1.69231 57.8462 1.69231 59.0769 2.92306C60.3077 4.15377 60.3077 6.16213 59.0769 7.38672L54.3867 12.0769C53.1621 13.3077 51.1538 13.3077 49.923 12.0769Z" fill="#25468F"/>
</svg>
