<svg width="111" height="132" viewBox="0 0 111 132" fill="none" xmlns="http://www.w3.org/2000/svg">
<path d="M54.2215 49C51.789 28.944 46.2697 20.5408 47.0806 2.59368C57.2395 2.59365 66.7616 -1.29049 74.4908 0.447639C76.1124 22.6128 76.8594 26.9034 74.4908 38.4442L63.1398 22.6106C60.7072 34.2219 58.2753 36.3331 54.2215 49Z" fill="#EF8062"/>
<path opacity="0.07" d="M110 5C110 58.8168 101.926 95.8744 101 110" stroke="#333333"/>
<path d="M95.4341 111.053C98.3302 108.677 98.8374 107.697 101.371 104.265C102.639 102.548 102.038 109.625 102.038 112.481C102.038 114.766 108.013 115.338 111 115.338C109.899 116.925 101.371 119.464 101.371 119.464C101.371 119.464 102.038 127.43 102.038 132C99.47 124.738 95.3683 121.371 95.3991 121.072C94.8277 121.227 89.7325 122.209 86.0003 124.382L90.7172 115.338C90.7288 113.091 88.1949 111.053 86 107.696C89.9761 109.128 90.7172 109.658 95.4341 111.053Z" fill="#F8DA75"/>
<path opacity="0.07" d="M21.0003 5C25.4998 37.7273 21.0001 55.5785 21 65" stroke="#333333"/>
<path d="M22.3856 70.0662C21.8302 68.5809 21.4865 63.7271 20.5867 62.868C19.7099 62.8612 18.6485 65.9737 17.2651 68.557C14.2454 69.7804 12.9592 69.1531 7.24582 69.122C9.83424 70.9947 10.4691 70.9981 13.0575 72.8707C12.2121 74.4494 8.14589 81.5224 5.93259 85.6556C14.4435 79.9768 17.2593 79.4026 17.5687 79.1951C18.0312 79.8914 21.9384 84.3426 24.9428 86.9125C24.9428 86.9125 21.8441 78.0836 22.5375 75.8146C23.231 73.5456 31.9189 72.1566 33.9309 70.129C28.2176 70.0981 26.3231 70.4641 22.3856 70.0662Z" fill="#F8BF95"/>
<path opacity="0.07" d="M86.6479 5C84.62 22.52 88.0001 35.2619 88 46" stroke="#333333"/>
<path d="M83.5368 57.2859C83.6016 58.4844 82.7339 62.1052 83.1959 62.9147C83.8376 63.0959 86.141 60.6565 87.7519 59.0443C89.7519 59.0297 90.2422 59.8486 94.427 61.0197C93.7518 59.0007 92.7361 57.5333 92.2205 56.0624C93.2049 55.0771 96.6275 51.7649 99.205 49.1853C92.9165 51.2204 91.2718 51.4627 90.9467 51.539C90.6542 50.8527 88.7333 47.2748 87.1651 44.8571C87.1651 44.8571 86.0048 52.43 84.7515 53.049C83.4982 53.668 77.0245 53.8402 75.0804 54.9195C79.2652 56.0904 80.7396 56.2033 83.5368 57.2859Z" fill="#0066CC"/>
</svg>
