<svg width="139" height="141" viewBox="0 0 139 141" fill="none" xmlns="http://www.w3.org/2000/svg">
<path d="M34 57C34 38.3631 36.034 8.84019 42.5424 0C52.3051 0.00161973 59.4238 1.65282 70 3.54714C66.0949 21.7327 68.7797 34.2676 62.0678 57L52.3051 34.2676C42.5423 41.0259 41.322 46.351 34 57Z" fill="#F8BF95"/>
<path d="M135.928 55.7685C135.928 36.9651 142.839 12.4523 135.929 3.5332C125.666 -1.00807 110.535 1.56803 99.337 3.47449L99 3.53186C103.146 21.8798 99.4319 54.5325 110.662 66L122.323 32.5266C128 42.5278 128.154 45.0244 135.928 55.7685Z" fill="#F8DA75"/>
<path opacity="0.07" d="M83 5C83 62.6642 70.9634 102.865 70 118" stroke="#333333"/>
<path d="M63.0921 114.328C65.5 111.838 67.315 112.228 71.5379 104.348C72.8171 101.961 71.5379 112.509 71.5379 116.146C71.5379 119.056 79.1793 119.784 83 119.784C81.5924 121.804 76.4765 123.009 70.6852 123.978C70.6852 126.201 71.5379 135.181 71.5379 141C67.0072 132.491 62.8729 127.514 63.0403 127.088C62.276 127.29 55.7853 128.542 51.0268 131.3L57.0594 119.784C54.4815 116.834 49.9444 113.088 48 109.966C52.223 111.702 55.5527 114.328 63.0921 114.328Z" fill="#AAB9ED"/>
<path opacity="0.07" d="M28 5C16 50 19.8 51.2 19 64" stroke="#333333"/>
<path d="M20.6987 66.2374C20.2223 64.9346 20.6856 65.4801 19.0211 60.0359C18.9969 58.1021 17.4456 62.6508 16.2086 64.9202C13.5437 65.9984 12.4178 65.4497 7.39447 65.4307C9.65535 67.0706 10.2135 67.0727 12.4744 68.7126C11.7184 70.0994 8.08642 76.3135 6.1072 79.9445C13.6361 74.9478 16.1165 74.4397 16.3902 74.2571C16.7913 74.8676 20.1911 78.7688 22.8121 81.0202C22.8121 81.0202 20.1584 73.2753 20.7863 71.2828C21.4142 69.2902 29.0642 68.0585 30.8497 66.2758C25.8264 66.257 24.1576 66.581 20.6987 66.2374Z" fill="#EF8062"/>
</svg>
