<svg width="1110" height="657" viewBox="0 0 1110 657" fill="none" xmlns="http://www.w3.org/2000/svg">
<g opacity="0.1">
<path d="M1058 584.304C1057.33 587.8 1055.16 591.707 1052.32 594.129C1050.28 595.888 1043.77 599.453 1043.02 594.403C1042.82 593.009 1044.28 586.497 1044.84 585.149C1046.44 581.219 1048.15 583.778 1050.74 584.304C1053.38 584.829 1055.89 582.316 1058 584.304Z" fill="#3C92E9"/>
<path d="M1039.74 185.858C1040.67 189.153 1041.29 192.403 1042 195.496C1039.5 199.262 1034.56 197.872 1030.91 199.889C1029.19 200.853 1028.72 204.327 1027.06 204.843C1025.73 205.268 1024.69 203.431 1023.45 203.475C1020.2 203.543 1018.61 210.087 1014.62 208.429C1012.34 210.087 1014.71 216.43 1011.9 216.968C1009.91 217.349 1008.8 214.211 1007.61 212.284C1006.15 209.953 1004.05 208.675 1004 206.77C1003.93 204.82 1007.25 201.525 1008.29 200.158C1009.58 198.477 1012.1 195.362 1013.72 194.913C1016.73 194.106 1019.8 195.272 1022.08 194.084C1024.05 193.053 1024.18 189.265 1025.25 188.301C1026.15 187.495 1027.19 187.719 1027.97 187.203C1030.07 185.814 1032.33 181.062 1031.13 176.198C1030.38 173.127 1026.2 169.765 1028.88 166C1032.88 166.516 1038.17 171.334 1038.84 176.198C1039.1 178.103 1038.24 179.986 1038.37 181.981C1038.48 183.146 1039.34 184.357 1039.74 185.858Z" fill="#3C92E9"/>
<path d="M1041 155.403C1040.49 156.778 1039.46 156.494 1038.5 157.279C1037.57 158.043 1036.47 160.509 1035.32 160.771C1033.49 161.185 1031.44 158.654 1029.61 159.178C1027.47 159.767 1028.72 161.709 1028.03 164C1026.15 163.542 1023.08 161.076 1023.01 158.632C1022.97 157.105 1024.66 156.145 1025.06 154.355C1025.73 151.301 1023.99 149.751 1023.01 146.849C1022.94 146.413 1023.23 146.391 1023.23 146.042C1025.46 145.496 1029.83 150.428 1034.85 151.41C1038.08 152.021 1040.8 151.672 1041 155.403Z" fill="#3C92E9"/>
<path d="M1031.99 434.185C1032.19 436.651 1029.29 436.361 1029 434.765C1029.04 432.855 1031.62 432.251 1031.99 434.185Z" fill="#3C92E9"/>
<path d="M1016.17 133C1018.26 134.488 1023.32 137.884 1019.77 141C1017.6 139.907 1015.35 136.209 1016.17 133Z" fill="#3C92E9"/>
<path d="M1006.22 422.045C1008.76 420.347 1011.54 416.642 1016 418.516C1015.02 421.891 1011.67 421.825 1009.57 423.391C1007.41 424.978 1005.61 427.691 1002.89 428C1002.67 427.515 1002.39 427.162 1002 426.919C1001.98 423.898 1004.46 423.214 1006.22 422.045Z" fill="#3C92E9"/>
<path d="M999.952 371.092C1002.63 371.092 1005.15 370.13 1007 371.355C1006.64 378.067 997.81 372.973 991.967 374.044C990.718 374.263 990.361 375.4 989 374.853C989.067 372.579 991.164 370.283 993.327 370.021C995 369.824 997.498 371.092 999.952 371.092Z" fill="#3C92E9"/>
<path d="M1001.99 378.816C1002.25 382.665 998.015 383.095 996.829 386.06C998.695 389.592 999.42 394.527 1001.55 397.719C1001.46 399.847 1001.9 402.609 1000.87 403.56C996.346 404.624 993.931 394.573 992.109 391.064C988.662 391.856 991.801 405.552 987.169 403.854C984.908 403.017 987.191 399.1 986.708 396.067C986.291 393.395 984.183 392.852 984.007 390.769C983.876 389.049 985.522 387.238 986.027 385.494C986.73 382.982 986.291 378.114 988.728 378.001C989.935 377.933 991.538 381.125 992.328 381.329C995.007 382.031 998.19 377.933 1001.99 378.816Z" fill="#3C92E9"/>
<path d="M994 419.952C993.143 421.839 988.406 420.926 988 419.202C988.812 417.234 993.594 417.822 994 419.952Z" fill="#3C92E9"/>
<path d="M989 425.98C988.733 426.355 988.422 426.709 988.089 427C986.356 426.376 984.511 425.918 984 423.941C985.289 421.838 988.956 423.587 989 425.98Z" fill="#3C92E9"/>
<path d="M983 419.184C981.825 421.042 977.757 419.036 976.311 421C973.915 420.937 971.497 420.894 971 418.677C971.701 416.776 973.893 418.085 975.61 417.895C978.412 417.621 982.254 415.403 983 419.184Z" fill="#3C92E9"/>
<path d="M950.958 524.995C950.936 522.59 949.686 520.451 949.351 517.89C949.24 516.954 949.463 515.774 949.351 514.593C949.195 512.9 948.503 511.497 948.66 510.495C948.972 508.69 950.735 508.49 951.181 506.931C951.895 504.369 950.311 503.968 950.266 500.917C950.244 498.756 951.627 497.709 952.542 494.903C952.966 493.611 952.989 491.183 953.457 490.247C954.06 489.089 956.581 488.087 957.563 487.53C961.066 485.481 963.856 481.649 967.381 480.959C968.274 480.781 969.479 481.093 970.126 480.959C972.201 480.536 974.789 478.442 977.646 477.685C980.413 476.927 982.867 477.217 984.942 475.769C987.241 474.188 990.476 470.045 991.324 467.572C992.373 464.565 992.06 462.026 994.069 461.001C995.051 460.511 996.01 461.046 997.036 460.734C998.085 460.4 1000.36 459.108 1001.14 458.261C1002.73 456.546 1002.99 453.762 1004.78 451.958C1006.03 450.733 1008.37 448.817 1010.02 447.859C1011.01 447.28 1012.81 446.656 1013.66 446.768C1016.87 447.102 1018.37 452.492 1021.87 451.423C1023.12 451.045 1024.39 447.859 1025.53 445.944C1027.18 443.159 1028.37 439.395 1031.22 438.549C1033.52 437.88 1036.11 439.618 1037.38 437.19C1037.67 435.452 1036.31 434.428 1037.38 433.359C1040.04 433.559 1044.54 437.858 1048.56 438.014C1050.72 438.103 1054.74 435.185 1055.19 439.105C1055.39 440.843 1053.56 442.246 1053.13 444.028C1052.82 445.275 1053.58 445.966 1052.91 447.302C1051.06 448.171 1049.1 448.639 1049.03 451.134C1048.96 454.252 1052.71 455.722 1054.96 457.437C1056.5 458.596 1057.8 460.4 1058.62 460.979C1059.32 461.469 1060.43 461.714 1060.9 462.07C1062.37 463.229 1063.42 465.835 1065.47 465.902C1067.79 465.968 1070.12 462.427 1071.41 459.063C1072.93 455.121 1073.02 450.354 1073.69 446.211C1073.91 444.83 1074.73 443.471 1075.05 442.113C1075.92 438.37 1077.12 433.314 1079.82 432C1082.54 435.453 1083.48 442.179 1083.01 447.882C1084.84 449.53 1088.03 448.995 1088.48 452.804C1088.64 454.118 1087.94 455.811 1088.03 457.17C1088.19 459.486 1089.62 461.491 1089.86 463.474C1090.31 467.127 1089.35 470.134 1090.78 472.784C1092.56 476.125 1096.04 476.014 1098.3 479.622C1098.25 481.872 1098.99 482.763 1099.44 484.523C1099.66 485.369 1099.46 486.728 1099.66 487.263C1100.4 489.089 1102.36 489.267 1103.07 490.804C1103.43 491.561 1103.32 492.987 1103.76 494.368C1104.39 496.373 1105.88 497.887 1106.96 499.848C1107.98 501.741 1109.68 503.812 1109.92 505.327C1110.37 508.044 1108.74 509.916 1108.32 512.165C1107.83 514.883 1108.32 518.402 1107.4 521.186C1106.35 524.483 1103.74 527.713 1101.69 531.856C1100.02 535.264 1097.74 539.095 1095.31 541.434C1093.86 542.815 1092.16 543.617 1090.76 544.998C1088.57 547.136 1086.78 549.898 1084.82 552.393C1082.77 554.999 1080.27 556.981 1078.66 559.231C1076.32 562.483 1075.16 567.74 1071.14 568.252C1068.8 568.564 1066.68 568.319 1064.51 569.343C1061.14 570.947 1058.89 573.91 1057.22 573.999C1055.45 574.066 1053.83 571.526 1052.2 571.259C1050.37 570.969 1048.94 572.93 1046.26 572.907C1045.17 572.907 1044.63 572.128 1043.07 571.549C1039.81 570.323 1036.22 570.368 1035.77 566.091C1035.51 563.753 1037 562.706 1036.91 560.612C1036.82 558.518 1035.1 558.006 1034.39 556.246C1034.84 554.353 1034.9 551.992 1033.25 550.767C1033.19 549.074 1033.56 547.849 1034.17 546.935C1032.85 547.604 1031.09 548.027 1029.59 549.141C1027.94 550.343 1026.74 553.105 1024.82 552.682C1023.01 551.925 1024.39 549.764 1024.13 548.027C1023.92 546.69 1021.4 541.033 1020.24 540.097C1018.93 539.006 1014.11 536.845 1012.5 536.533C1005.45 535.219 1000.96 539.741 995.385 540.387C993.957 540.543 992.395 540.097 991.056 540.387C986.482 541.345 981.372 545.71 978.516 548.584C973.808 549.141 969.01 547.425 964.146 549.141C959.303 550.833 956.537 555.667 949.106 554.33C947.633 552.816 945 552.059 945 549.408C944.978 547.314 947.566 545.978 948.414 544.485C949.307 542.882 950.846 539.139 950.913 536.823C950.958 534.996 949.887 532.836 949.998 530.542C950.132 528.693 950.98 526.777 950.958 524.995Z" fill="#3C92E9"/>
<path d="M947.603 410.295C948.845 410.091 949.754 408.958 950.995 408.912C953.634 408.776 956.25 411.315 959.376 410.861C960.063 411.768 959.597 412.516 959.62 413.943C962.28 415.688 966.625 415.371 968 418.657C966.005 421.241 963.056 419.382 960.529 418.929C958.223 418.521 955.784 418.725 953.279 418.385C950.109 417.932 947.249 415.779 944.211 415.326C942.371 415.054 940.487 415.643 938.758 415.326C936.718 414.941 929.113 411.405 929.003 408.935C928.892 406.374 932.417 405.649 935.565 406.148C939.666 406.782 942.393 411.179 947.603 410.295Z" fill="#3C92E9"/>
<path d="M953.461 391.646C951.746 391.065 950.12 391.378 949.385 390.819C947.826 389.657 948.049 386.374 947.559 384.497C947.068 382.598 945.175 381.593 944.15 379.002C942.658 375.271 942.034 366.894 945.977 366.112C947.559 365.799 949.207 367.251 950.298 366.938C952.504 366.291 952.103 362.873 953.951 361.443C954.976 360.661 956.825 360.974 958.273 360.348C959.765 359.678 960.879 357.98 961.903 356.506C962.861 355.143 963.596 352.842 964.866 351.837C966.292 350.72 967.584 350.675 968.742 349.648C971.727 346.9 971.816 343.08 974.199 339.774C976.226 336.981 979.411 342.477 979.679 344.711C980.815 346.453 983.042 346.878 984 348.821C982.664 353.646 978.877 354.071 979.679 360.884C979.812 362.001 980.436 364.057 981.037 365.553C981.683 367.162 983.621 368.882 983.532 369.932C983.376 371.987 979.946 371.898 979.211 374.042C978.52 376.03 979.255 376.164 978.988 379.247C978.03 381.481 975.469 382.017 974.667 384.743C973.709 388.004 974.801 392.226 972.618 394.617C971.103 394.527 969.455 396.203 967.606 395.979C965.601 395.756 963.708 392.45 960.545 392.405C959.342 392.383 957.916 393.343 956.669 393.232C955.689 393.187 954.887 392.115 953.461 391.646Z" fill="#3C92E9"/>
<path d="M938.5 385C944.5 385 944.5 396 938.5 396C932.5 396 932.5 385 938.5 385Z" fill="#3C92E9"/>
<path d="M929.84 384.013C930.547 384.125 933.044 388.37 932.999 389.538C932.911 391.492 930.525 391.38 929.84 393.941C928.779 397.894 930.326 402.386 928.492 404.43C927.475 405.194 925.619 404.969 923.984 404.969C919.896 401.443 916.648 397.265 913.135 392.548C911.853 390.841 910.306 389.359 909.511 387.584C908.34 384.956 907.92 382.059 906.572 379.588C905.379 377.432 903.213 375.882 902.042 373.523C901.092 371.592 901.004 369.031 900.009 367.167C899.081 365.437 897.49 364.696 896.385 363.303C895.656 362.405 895.258 360.99 894.573 360.002C891.723 355.846 886.265 353.69 886 347.58C887.149 345.963 888.342 348.187 890.508 348.681C891.9 348.995 893.557 348.546 894.573 348.951C896.628 349.782 898.043 353.712 900.23 355.846C901.446 357.037 903.036 357.868 904.296 359.148C905.644 360.518 906.616 362.495 907.677 363.281C909.157 364.381 911.19 365.1 913.09 366.605C915.698 368.627 920.36 370.738 921.001 374.893C921.156 375.927 920.603 377.656 920.78 378.465C921.089 379.902 922.592 380.531 923.498 381.767C924.603 383.294 924.846 385.608 926.437 385.9C928.028 386.484 928.116 383.743 929.84 384.013Z" fill="#3C92E9"/>
<path d="M822.848 327C824.868 327.794 831.616 337.525 829.642 342.878C829.091 344.397 826.75 346.371 824.478 345.94C819.841 345.055 820.713 332.784 822.136 327.839C822.274 327.431 822.504 327.136 822.848 327Z" fill="#3C92E9"/>
<path d="M671.098 465.456C671.297 463.233 672.602 459.594 674.039 458.268C676.118 456.382 678.948 456.584 681.049 455.236C682.796 454.136 685.184 452.294 686.467 450.272C687.55 448.543 687.616 446.588 688.501 445.308C689.098 444.432 690.469 444.185 691.199 443.107C691.862 442.141 691.707 440.322 692.791 439.243C695.931 437.604 696.837 444.612 697.324 449.441C697.457 450.946 698.098 452.563 697.987 453.304C697.656 455.506 695.665 455.955 695.046 457.46C694.892 463.502 692.946 468.758 691.199 473.722C689.695 478.012 688.833 482.729 687.594 486.413C687.152 487.761 686.201 488.816 685.781 489.984C684.145 494.679 683.548 502.046 680.585 504.068C679.523 504.787 675.388 506.022 674.26 506C671.496 505.955 669.086 503.417 668.378 500.497C668.003 498.924 668.378 497.285 668.157 495.533C667.892 493.309 666.808 491.422 667.03 488.906C667.538 483.291 672.005 480.573 672.226 475.946C672.403 472.442 670.789 468.983 671.098 465.456Z" fill="#3C92E9"/>
<path d="M561.495 75.2003C561.763 79.7943 555.654 79.2145 554.874 83.1395C554.518 84.9236 555.588 87.2875 555.342 88.8932C554.874 91.7701 552.556 90.9226 549.635 92.4614C548.142 93.2419 546.693 96.0965 545.088 96.2972C543.594 96.4979 542.68 95.2491 541.677 95.4721C540.183 95.8066 540.674 98.0144 538.489 98.4827C536.728 98.8395 533.673 96.6094 533.473 99.3079C533.339 101.047 536.215 101.984 538.021 101.761C539.447 101.605 540.495 100.423 541.9 100.401C544.597 100.378 546.358 102.809 548.053 102.876C551.976 103.01 555.811 98.5273 559.912 99.0403C561.763 99.2633 562.855 100.847 564.237 100.691C566.444 100.445 568.295 97.39 569.944 96.2972C569.253 91.6809 570.011 85.5926 573.6 85.3473C576.053 85.1689 579.753 90.4097 580.199 85.3473C580.4 83.1395 578.26 81.1993 576.788 81.2439C575.473 81.2885 573.756 84.3661 572.686 81.8014C572.686 79.2814 575.027 79.9504 576.342 79.326C577.301 78.8577 577.992 77.5865 579.085 77.1405C584.502 74.8435 592.014 79.3929 594.132 73.8622C589.317 68.9336 581.135 75.6686 575.674 75.2226C573.333 75.0442 570.279 72.9702 569.521 70.294C569.276 69.4466 569.476 68.3092 569.298 66.7481C569.097 65.0086 568.339 63.1576 568.384 62.0872C568.607 57.1363 578.862 56.1997 578.862 50.0445C576.9 47.7921 571.17 48.1712 569.298 50.5798C568.629 51.4495 568.651 53.2113 567.715 54.9731C565.664 58.7197 559.065 59.1657 557.014 63.7375C556.546 64.7633 555.744 67.5287 556.1 69.2236C556.568 71.7659 561.339 72.4795 561.495 75.2003ZM507.278 343.082C500.702 341.923 493.992 345.112 489.511 347.453C486.925 348.814 484.272 350.888 481.998 351.022C479.836 351.155 477.696 349.639 475.622 349.394C472.902 349.059 469.425 349.371 466.727 349.929C464.119 350.486 461.734 352.739 459.437 352.939C455.023 353.341 450.81 348.145 448.046 345.535C446.351 343.952 444.613 342.636 443.03 341.164C441.335 339.559 439.106 338.6 437.791 337.061C435.985 334.965 435.985 331.352 435.049 328.564C433.934 325.308 430.568 322.9 427.982 319.8C426.042 317.481 421.628 314.024 421.138 311.036C420.893 309.519 421.673 307.757 421.584 306.107C421.472 303.698 419.956 302.338 420.001 300.621C420.046 298.212 422.409 296.361 422.966 294.31C423.256 293.261 423.122 291.812 423.412 290.474C424.058 287.686 425.574 286.058 425.24 281.977C425.106 280.349 423.947 278.877 423.88 276.781C423.835 275.331 424.66 274.551 424.571 273.213C424.393 270.871 421.874 270.425 421.606 267.727C421.339 264.961 423.813 262.664 425.262 259.52C425.909 258.115 426.265 255.952 426.845 254.859C428.116 252.517 430.211 251.402 431.17 249.105C431.883 247.41 432.106 244.89 432.775 243.619C433.622 241.991 435.294 241.099 436.877 238.958C438.17 237.219 438.705 235.1 439.619 234.297C440.756 233.294 442.472 233.048 443.721 232.379C447.934 230.06 451.033 227.094 453.062 222.232C452.437 217.816 453.374 215.965 454.89 212.933C456.272 210.123 457.297 207.424 459.683 205.818C462.536 203.878 465.211 203.7 467.195 200.065C468.199 198.236 469.692 195.114 469.715 193.218C469.737 190.497 467.396 187.041 465.39 186.639C463.339 186.238 460.173 188.513 459.014 185.814C458.635 184.945 459.148 182.937 459.014 181.978C458.746 180.194 457.476 178.923 457.431 177.607C457.32 175.043 459.527 172.367 460.173 169.401C461.02 165.364 460.195 162.264 459.95 157.626C463.138 151.582 470.227 154.57 477.272 155.15C478.32 155.239 479.546 154.838 480.683 154.882C484.874 154.994 488.151 156.51 489.578 152.139C490.113 150.489 490.581 144.379 490.269 142.818C489.89 140.989 486.903 136.239 485.476 135.146C483.224 133.406 479.925 134.165 478.632 131.042C479.68 125.623 484.718 130.128 487.75 128.857C489.288 128.21 489.11 124.999 490.492 124.464C491.428 124.107 492.61 125.601 493.903 125.556C495.017 125.534 499.008 123.103 500.055 122.256C501.505 121.074 501.95 118.621 503.243 117.595C504.113 116.904 505.25 116.993 506.208 116.502C508.148 115.499 510.6 113.469 511.915 111.574C513.788 108.853 514.635 105.508 516.931 104.995C519.986 104.326 526.896 105.731 527.409 101.694C527.9 97.8583 524.6 94.8699 525.804 90.7442C526.763 87.4882 529.193 88.0681 532.648 86.0833C534.32 87.5105 533.83 91.5471 534.008 94.0225C536.126 94.0448 540.428 93.2643 540.852 91.0118C541.365 88.1796 537.775 85.325 536.973 83.6078C536.126 81.7568 535.947 78.5232 534.231 78.1217C530.753 77.3189 527.387 83.8754 523.062 83.8754C520.231 83.8754 517.199 81.2439 516.463 78.6793C516.04 77.2074 516.419 75.8247 516.24 74.2859C515.973 72.0558 514.858 69.7142 515.326 66.6143C517.065 63.0238 521.1 62.444 523.976 60.593C525.068 59.9017 525.96 58.4075 527.164 57.8499C529.215 56.9356 532.224 57.8499 534.231 56.4896C535.502 55.6198 535.145 54.1256 536.059 52.3862C536.638 51.2934 538.021 50.6467 538.801 49.3755C539.336 48.5057 539.403 47.1677 539.938 46.3648C541.922 43.3988 545.533 42.306 547.005 39.2507C547.651 37.8904 545.89 37.3997 546.336 35.4149C547.072 33.497 549.925 34.902 551.575 34.5898C553.849 34.1661 555.944 30.8655 558.419 30.2188C561.005 29.5497 563.769 29.9511 566.177 28.8584C567.604 28.1893 568.919 26.6283 570.279 26.3829C570.747 26.2937 572.107 26.6952 572.776 26.6506C573.645 26.606 574.581 25.9592 575.741 25.8254C577.413 25.6247 579.486 26.316 581.671 26.3606C585.282 26.4498 588.693 25.0672 591.702 26.6283C593.263 27.4534 593.085 29.5943 595.113 30.4641C596.139 30.9101 597.476 30.2857 598.992 30.4641C601.222 30.7094 603.562 32.5827 606.505 32.9395C607.553 33.0733 608.645 32.7834 609.693 32.9395C612.948 33.4078 616.537 35.4818 619.725 36.7753C622.4 37.8681 628.062 39.2061 628.152 42.2614C628.285 45.8742 623.225 46.9224 621.085 46.9224C617.496 46.9224 612.747 44.4023 609.002 45.8296C609.069 52.0293 614.62 56.7126 619.703 55.9543C620.148 53.0329 616.827 54.6609 617.183 51.8509C619.457 49.7992 622.177 53.2336 625.387 52.6761C626.636 52.2746 626.435 50.0891 626.747 48.5726C629.467 46.5878 632.855 43.6887 637.002 45.8296C637.203 45.339 637.515 44.9821 637.916 44.7368C638.184 41.7262 635.174 40.1651 636.779 37.3328C637.582 35.3926 641.817 36.0617 642.486 37.6004C642.82 39.4514 641.438 39.2507 641.572 40.8787C642.375 43.0642 644.247 43.3988 645.228 43.3542C647.457 43.2204 647.903 40.8118 650.021 39.5184C650.868 39.0054 652.117 38.9385 653.209 38.4256C654.502 37.8012 655.594 36.5746 656.62 36.2401C657.378 35.9948 658.515 36.2401 659.585 35.9725C660.923 35.6379 662.349 34.3222 663.464 34.3445C664.846 34.3445 665.827 36.2624 667.566 36.53C668.524 36.6861 669.594 35.8833 670.977 35.7048C672.091 35.5487 673.251 35.861 674.165 35.7048C676.349 35.3257 677.843 33.9431 679.626 34.0546C680.897 34.1438 683.082 36.1955 683.951 35.1473C685.423 33.3855 681.989 32.0921 683.037 30.4864C686.537 30.7986 690.238 30.7094 693.738 31.3115C698.955 32.2036 703.837 35.3034 708.541 35.4149C708.095 31.6014 704.461 32.6942 702.834 31.0439C702.343 30.531 700.292 26.5168 700.337 25.2902C700.359 24.6658 702.923 19.4027 703.525 18.7113C705.531 16.4366 712.13 16.4589 714.002 19.5365C715.295 21.6328 714.872 24.7996 716.744 24.7327C718.349 24.6881 719.219 19.9156 721.069 19.8041C722.607 19.7149 723.388 22.8594 724.948 22.8148C726.843 22.7701 728.158 18.5329 730.655 18.4214C731.993 18.3545 732.461 19.2466 734.534 19.5142C735.961 18.4214 734.066 16.9718 734.757 15.4107C737.299 13.1806 743.117 14.8755 746.372 13.4928C747.286 12.1994 745.213 11.2627 746.149 9.92465C748.958 7.56073 753.684 7.36001 758.455 6.37876C761.375 5.77663 764.14 3.3458 766.413 3.07818C768.799 2.83287 771.095 4.77308 773.257 4.72847C774.573 4.70617 776.089 4.21555 777.359 3.63571C778.652 3.03358 779.522 1.5394 780.792 1.16028C782.799 0.580449 785.318 1.4502 787.636 1.16028C790.089 0.870365 792.251 -0.289298 794.012 0.0675215C795.662 0.379738 797 2.49835 798.56 2.81057C803.353 3.70262 808.324 1.94082 812.694 3.3458C813.474 3.61341 814.254 4.57236 815.213 4.99609C818.133 6.28956 820.14 5.88814 820.697 10.1923C822.993 11.1735 824.353 13.7159 827.073 14.5856C828.901 15.1654 830.729 14.318 832.78 14.318C835.477 14.318 838.911 14.4518 841.207 14.8532C842.522 15.0985 843.592 16.2582 844.863 16.5035C845.777 16.6819 847.003 16.392 848.051 16.5035C849.478 16.6596 850.771 17.3733 851.93 17.3287C854.315 17.2394 856.121 14.6748 858.083 14.318C859.13 14.1173 860.535 14.764 861.494 14.8532C865.328 15.2323 869.764 14.2511 872.885 15.1208C874.557 15.5892 877.411 17.797 879.261 19.4919C880.599 20.7184 881.424 22.6809 882.672 23.5953C883.876 24.465 886.908 26.0261 888.156 25.7808C889.605 25.5132 889.672 23.5507 891.121 22.7701C895.647 21.5659 903.672 24.5096 907.306 22.5025C908.71 21.722 908.443 19.9379 909.58 18.9343C916.424 18.5329 923.223 19.2689 929.643 19.4696C931.895 19.5365 934.214 18.7782 936.265 19.202C938.516 19.6703 940.166 22.391 942.417 23.3054C943.911 23.9075 946.542 23.5953 948.793 24.1305C950.309 24.4873 951.535 25.5801 952.672 25.7808C955.102 26.2045 957.443 25.4463 959.739 25.2456C964.956 24.7327 971.688 24.3981 976.838 26.8959C979.58 28.2116 980.717 30.8878 983.66 31.2669C987.873 31.8244 994.383 30.8432 998.708 31.2669C999.733 31.3784 1000.69 31.8913 1001.45 31.8021C1002.9 31.6683 1003.77 30.1964 1005.55 30.1741C1007.8 30.1072 1011.39 34.3891 1014.67 33.7423C1016.07 32.605 1013.53 30.9993 1014.89 29.9065C1016.19 28.6354 1017.92 29.8842 1019.91 29.9065C1020.98 29.9288 1022.32 29.2598 1023.32 29.349C1025.82 29.6166 1028.2 32.3151 1031.3 33.1848C1033.75 33.8761 1037.14 34.1215 1040.2 33.7423C1042.38 33.4524 1044.25 32.5604 1046.35 32.9172C1047.35 33.0733 1048.24 33.9654 1049.31 34.2776C1050.29 34.5675 1051.23 34.2999 1052.05 34.5452C1052.81 34.7905 1053.57 35.6602 1054.33 35.9056C1058.56 37.3551 1064.2 38.0911 1068.69 39.7414C1071.32 40.7226 1074.01 42.6851 1076.2 42.752C1077.27 42.7966 1078.23 42.1945 1079.61 42.1945C1086.5 42.2614 1094.59 45.6958 1093.97 53.4343C1085.92 55.5529 1079.16 46.7662 1070.71 49.3309C1069.38 49.7323 1067.86 51.5164 1067.99 53.1667C1068.31 57.9391 1078.32 57.5377 1079.16 62.1987C1077.51 63.6706 1075.73 62.2879 1074.39 62.4663C1072.34 62.7562 1068.86 65.3654 1067.55 66.8373C1066.01 68.5768 1064.65 73.0148 1063 73.4162C1060.97 73.8845 1057.85 71.0076 1054.8 71.7659C1053.68 72.0558 1052.59 73.7284 1051.61 73.9514C1049.09 74.5312 1045.9 72.3011 1044.32 75.8693C1045.14 78.367 1044.63 81.8683 1046.37 83.2733C1047.48 84.1877 1048.87 83.474 1050.25 84.0984C1051.85 84.8121 1052.75 87.1537 1054.11 88.4918C1055.24 89.5622 1056.45 89.5846 1057.07 90.9449C1057.2 92.9743 1056.4 93.175 1056.6 94.5131C1056.96 96.8101 1059.95 97.3231 1060.01 98.8842C1060.12 100.869 1058.14 100.445 1057.74 102.452C1057.61 103.724 1058.97 104.058 1059.1 105.731C1059.19 106.846 1058.34 108.028 1058.43 109.299C1058.52 111.128 1059.72 112.332 1059.57 113.96C1059.43 115.342 1058.43 116.413 1057.52 116.97C1053.15 113.603 1049.22 108.964 1044.52 104.638C1039.7 100.2 1032.1 94.7807 1031.3 85.4588C1031.28 84.0315 1033.82 82.9165 1034.27 80.7979C1034.44 79.9281 1033.98 78.7016 1034.04 77.5196C1034.2 74.3082 1036.41 71.2084 1036.32 69.3128C1036.2 67.2165 1032.95 63.3137 1031.3 62.7339C1029.98 63.5814 1031.28 65.2316 1031.08 66.5697C1030.81 68.22 1029.14 70.2494 1027.67 70.4055C1023.36 70.8515 1022.87 63.7375 1016.05 65.7446C1014.29 66.2798 1011.79 69.4689 1012.42 73.4162C1012.6 74.6204 1015.34 75.8916 1015.16 77.5196C1014.96 79.103 1008.94 79.5713 1007.65 79.4375C1003.97 79.0807 1002.07 75.7801 998.752 75.8693C997.125 75.9139 995.698 77.4973 994.427 77.7872C987.249 79.3706 976.593 73.55 974.163 81.0655C973.806 82.136 974.007 83.5186 973.695 84.6337C973.249 86.2171 972.201 87.4659 971.867 88.4695C971.599 89.3169 971.644 90.9895 971.176 92.3053C970.752 93.5096 966.449 98.1705 970.262 99.4194C971.176 99.7093 971.599 98.951 972.781 99.1518C974.742 99.464 977.997 103.255 980.293 103.255C981.676 103.255 983.57 101.404 984.618 101.337C986.736 101.203 988.252 102.854 989.857 103.79C991.395 104.705 993.736 106.6 994.873 106.533C997.036 106.4 995.988 104.616 998.061 103.79C1002.01 105.195 1003.86 110.213 1007.62 114.205C1009.01 115.632 1011.01 116.881 1012.86 118.866C1013.89 119.981 1017.05 122.947 1017.19 124.352C1017.3 125.668 1016.3 126.225 1016.05 127.363C1015.67 129.035 1016.54 130.262 1015.61 131.466C1011.97 129.838 1011.15 125.534 1008.54 121.877C1007.58 120.516 1006.6 118.888 1005.13 116.948C1004.46 116.078 1002.05 112.979 1000.56 113.67C997.682 114.986 1002.12 120.204 1002.83 121.341C1004.35 123.75 1006.35 127.006 1006.49 129.548C1006.58 131.176 1005.6 134.142 1005.57 136.952C1005.55 138.848 1005.98 140.565 1005.8 142.148C1005.62 143.754 1004.68 145.583 1004.19 147.367C1003.66 149.374 1003.55 151.783 1003.05 153.121C1002.16 155.596 999.198 158.495 997.125 158.607C995.23 158.696 994.427 156.845 992.577 156.956C989.768 157.113 989.255 160.212 987.561 162.71C987.695 165.409 988.408 166.345 988.007 168.196C987.383 171.095 984.039 171.608 984.128 174.508C984.217 177.184 987.204 177.697 988.676 178.901C990.704 180.529 994.271 184.142 996.211 187.108C997.481 189.048 999.309 192.705 999.176 194.779C998.997 197.5 992.51 201.269 989.813 200.265C987.271 199.306 988.141 196.385 987.539 193.687C987.07 191.613 985.711 190.721 985.042 189.026C984.685 188.134 984.841 186.729 984.351 185.747C982.969 182.96 980.583 184.476 977.73 182.737C975.879 181.599 976.414 179.168 975.679 176.983C974.698 174.039 970.574 172.657 967.252 173.437C964.822 173.995 964.064 176.47 961.768 176.983C958.424 174.597 962.459 168.732 958.357 168.219C955.214 167.817 953.14 173.638 951.29 175.333C950.042 176.47 947.79 176.715 947.656 178.343C947.389 181.376 950.309 180.752 952.672 181.912C954.812 182.96 955.058 185.859 956.997 186.015C958.625 186.149 959.717 183.986 961.322 183.829C964.131 183.54 966.405 185.056 968.166 186.305C967.029 189.628 960.898 192.059 960.876 196.43C960.876 198.972 963.328 199.396 965.201 201.091C966.784 202.518 968.879 206.51 971.131 209.297C972.09 210.502 973.672 211.305 974.096 212.04C975.144 213.847 974.988 216.055 976.147 217.259C976.348 218.753 975.567 219.132 975.701 220.537C976.258 222.5 978.778 222.143 979.357 224.105C978.889 228.833 980.516 233.271 977.306 235.055C975.812 243.53 974.141 250.153 969.325 254.77C965 258.918 959.271 260.144 954.054 262.174C952.695 262.709 951.625 264.404 950.421 264.917C947.389 266.165 941.994 265.407 941.771 269.845C941.637 272.031 944.089 273.369 944.268 275.599C944.558 279.033 941.994 282.49 940.166 282.713C938.851 282.891 935.997 281.776 935.841 278.877C935.663 275.621 939.207 274.283 939.497 272.298C939.987 268.819 937 265.407 933.567 265.719C930.558 265.987 923.714 273.257 923.535 277.227C923.401 280.193 928.417 286.37 930.134 288.177C936.532 294.956 943.331 299.015 942.217 315.563C940.612 319.755 936.532 320.647 933.344 322.967C930.914 324.728 929.688 330.17 925.586 330.638C923.936 329.969 924.895 326.869 924.449 325.442C923.825 323.48 920.57 322.521 918.519 320.514C916.847 318.863 916.156 316.276 914.863 314.76C913.258 312.864 910.895 312.485 908.933 311.192C907.707 310.389 906.749 307.557 905.522 307.646C903.516 307.735 904.207 310.077 903.694 313.935C903.182 317.748 900.863 320.67 901.643 325.174C901.955 327.026 903.873 328.497 904.831 330.371C906.414 333.471 906.637 337.106 908.242 338.867C909.312 340.027 911.14 340.295 912.344 341.321C914.752 343.395 919.01 347.899 919.857 350.353C920.838 353.229 919.879 356.642 920.548 359.674C921.306 363.176 925.118 365.696 922.822 369.264C920.637 368.773 918.742 367.056 916.892 365.696C913.771 363.376 912.322 361.347 910.293 357.489C909.691 356.352 908.799 355.259 908.465 354.211C907.662 351.758 907.841 348.97 907.105 346.004C906.459 343.439 903.984 339.38 902.089 337.239C900.484 335.433 897.653 334.363 897.541 331.753C897.385 328.074 898.567 323.747 898.455 319.421C898.433 318.484 897.898 317.547 897.787 316.41C897.541 314.314 897.965 311.727 897.541 309.831C897.162 308.092 896.115 306.508 895.491 304.903C894.889 303.319 894.264 301.736 893.662 299.684C892.726 296.517 891.701 290.407 889.561 290.095C887.287 289.76 885.013 295.246 882.048 295.313C880.51 295.335 878.481 293.864 878.169 292.013C877.879 290.34 878.882 288.645 878.86 286.816C878.771 283.137 876.608 281.732 874.981 279.145C874.334 278.097 874.156 276.625 873.599 275.867C872.573 274.372 870.589 273.547 869.274 272.031C868.025 270.581 866.666 268.485 866.086 267.102C865.216 264.961 864.927 262.174 863.589 261.884C862.296 261.616 860.825 263.824 859.487 264.359C858.105 264.917 854.694 265.608 853.334 265.719C848.764 266.099 845.041 264.627 845.599 271.206C844.885 274.149 842.299 274.194 840.583 275.577C838.398 277.361 836.815 280.929 834.43 283.783C833.27 285.188 831.598 286.058 830.551 287.352C829.681 288.422 829.414 290.162 828.5 291.187C826.07 293.953 822.414 294.176 820.764 298.034C820.675 302.583 822.547 306.04 822.124 310.344C821.923 312.307 820.697 314.068 820.519 316.098C820.385 317.837 821.121 319.711 820.764 321.584C820.563 322.588 819.649 323.1 818.936 324.327C818.312 325.42 818.044 326.869 817.576 327.605C816.796 328.787 815.547 329.612 814.834 330.616C813.675 332.266 813.43 333.448 812.337 333.627C807.344 334.496 806.117 323.078 803.91 318.283C802.885 316.076 800.812 314.091 799.809 311.437C798.649 308.359 798.293 304.524 796.621 301.022C795.216 298.056 793.254 295.068 792.296 291.99C791.493 289.381 790.78 286.125 790.022 283.226C789.219 280.171 788.328 276.313 788.194 273.926C787.993 270.38 788.773 268.173 786.366 266.812C784.159 267.437 783.2 270.09 780.659 270.09C778.229 270.09 771.697 265.028 773.592 260.501C772.009 257.78 767.996 256.308 764.92 253.097C763.159 251.268 761.576 246.897 758.544 246.518C757.697 246.407 756.604 246.986 755.802 247.053C753.862 247.254 750.452 246.853 748.289 247.053C745.547 247.321 742.181 248.057 738.725 247.589C736.496 247.299 733.732 246.786 731.436 246.496C728.515 246.139 724.636 245.314 723.009 243.485C722.006 242.37 721.582 238.78 719.821 238.289C717.703 237.709 716.544 239.672 714.582 240.207C710.413 241.367 706.913 239.181 704.104 236.929C702.098 235.323 700.27 234.498 698.865 233.36C695.41 230.573 694.786 222.188 689.525 222.121C687.697 222.098 684.776 223.481 684.509 225.956C684.33 227.696 686.247 230.93 687.028 232.268C689.591 236.594 694.273 238.222 695.677 244.043C696.614 244.489 698.553 243.039 699.556 244.31C700.448 246.808 699.534 251.447 701.607 252.517C711.082 254.39 713.779 248.168 718.015 243.753C720.467 245.693 719.665 247.366 720.512 249.506C721.381 251.692 722.764 253.409 724.391 254.167C725.528 254.703 726.999 254.212 728.716 254.993C729.786 255.483 734.289 260.59 734.423 262.397C734.534 264.002 731.48 269.488 730.544 270.893C729.63 272.254 728.248 272.945 727.802 274.172C727.49 275.108 727.579 277.138 727.356 277.74C726.932 278.833 724.881 280.26 723.7 281.576C722.451 282.981 721.002 284.051 719.821 285.144C718.372 286.482 717.48 288.288 715.942 288.98C712.91 290.318 710.034 289.738 707.515 291.723C705.865 293.016 705.865 295.915 703.881 297.476C701.808 299.104 698.241 299.104 695.209 300.777C693.27 301.825 692.111 303.899 690.439 304.613C689.747 304.903 688.9 304.657 688.165 304.88C686.649 305.349 685.244 306.642 683.84 307.066C682.725 307.4 681.521 307.244 680.429 307.623C676.929 308.85 673.696 313.132 670.174 310.634C668.502 306.018 668.235 300.219 666.295 296.116C665.314 294.02 663.352 293.373 662.661 291.187C662.572 289.426 664.333 289.916 664.489 288.444C663.91 285.478 661.591 284.096 660.165 281.598C659.473 280.371 659.139 278.632 658.337 277.227C655.617 272.477 650.266 270.001 649.219 264.069C648.929 262.464 649.263 261.192 648.996 259.966C648.55 257.936 647.413 255.818 646.254 254.212C645.384 252.985 643.601 252.16 642.62 250.376C641.951 249.194 641.817 247.522 641.26 246.273C638.986 241.188 635.709 236.706 632.142 233.115C630.292 233.45 628.285 233.583 627.371 235.033C628.308 238.623 629.712 241.612 631.25 244.623C632.633 247.366 634.617 250.309 635.575 253.387C635.932 254.524 635.865 256.018 636.266 257.223C637.693 261.571 642.196 262.91 643.11 267.905C643.712 271.25 642.977 273.592 643.801 276.937C644.582 280.171 648.55 282.066 650.177 285.144C651.515 287.664 651.515 291.232 652.451 293.641C653.811 297.164 657.623 298.681 660.432 301.045C662.951 303.163 664.735 306.441 666.808 308.716C668.034 310.054 669.706 310.277 669.996 311.727C670.375 313.578 669.349 314.202 669.082 315.83C670.843 318.016 672.537 322.075 675.458 322.409C676.661 322.543 678.177 321.093 680.005 320.759C680.942 320.603 681.967 320.937 682.747 320.759C683.951 320.491 685.021 319.198 686.404 318.841C688.722 318.239 691.419 318.484 694.384 318.016C697.171 317.57 699.088 314.76 701.228 315.563C703.569 318.663 701.897 322.164 701.228 325.152C701.005 326.2 701.006 327.293 700.783 328.163C699.556 333.047 696.324 336.66 694.853 341.031C694.407 342.369 694.474 344.019 693.939 345.402C692.244 349.795 688.7 354.121 685.958 357.734C684.419 359.764 683.037 361.592 681.41 363.22C679.783 364.848 677.776 365.718 675.926 367.324C672.27 370.535 668.48 375.129 665.894 379.389C664.891 381.039 664.423 382.935 663.375 384.317C661.881 386.302 659.585 387.283 658.359 389.246C657.378 390.785 656.731 393.595 655.617 396.36C654.368 399.482 651.738 401.601 652.206 405.949C652.384 407.6 653.61 408.648 654.034 410.343C654.747 413.264 654.19 415.717 653.811 418.84C655.104 422.586 656.018 426.779 658.359 429.254C658.649 434.807 657.98 440.182 658.359 444.865C658.604 447.853 659.563 450.061 658.582 452.804C657.712 455.235 654.413 459.495 652.429 461.011C650.266 462.684 646.989 463.107 644.671 465.137C643.066 466.542 641.728 468.973 640.123 470.623C637.448 473.321 633.747 475.841 633.524 478.562C633.391 480.123 634.55 482.509 634.884 484.026C635.776 488.062 636.645 493.883 635.107 498.276C633.457 503.027 625.097 502.023 624.161 507.041C623.871 508.557 624.719 509.784 624.607 511.434C624.518 512.839 623.002 517.857 622.333 519.373C621.33 521.648 619.034 522.652 617.562 524.592C615.69 527.023 614.753 530.524 612.769 533.089C610.094 536.568 606.46 540.225 602.96 543.213C599.929 545.845 594.489 548.566 589.741 548.967C586.976 549.212 584.011 548.187 581.091 548.699C580.021 548.878 578.862 550.06 577.435 550.35C576.61 550.506 575.763 550.171 574.938 550.35C573.511 550.64 572.174 552 570.836 552C567.893 551.955 564.081 547.718 563.992 543.503C563.948 541.875 565.151 540.336 565.129 538.842C565.107 537.103 563.323 534.895 561.941 531.728C560.604 528.673 560.091 525.216 558.753 522.696C557.349 520.02 555.476 518.771 554.428 516.653C552.333 512.438 552.177 507.465 551.463 502.402C551.24 500.752 550.304 498.968 550.104 496.916C549.858 494.396 550.349 491.608 549.881 489.512C549.502 487.906 548.03 486.278 547.139 484.316C545.533 480.77 544.396 476.131 543.037 473.366C541.744 470.779 539.158 468.081 538.935 465.159C538.779 463.174 539.135 459.45 539.381 457.488C539.626 455.57 540.807 454.031 541.209 452.024C541.476 450.686 541.164 449.125 541.431 447.63C542.591 441.364 548.342 439.089 547.584 431.462C547.272 428.228 545.355 426.645 545.065 422.965C544.932 421.248 545.779 419.754 545.756 418.037C545.712 415.717 544.084 412.283 543.237 410.098C540.919 404.054 539.514 398.523 536.17 393.929C534.342 391.431 531.979 389.67 530.463 387.35C529.237 385.477 527.744 381.953 527.721 380.504C527.699 378.943 528.724 377.961 529.081 376.4C529.549 374.371 529.594 370.557 530.218 367.368C530.508 365.896 531.823 362.351 531.578 359.964C531.355 357.667 528.501 353.274 526.094 352.56C522.906 351.601 519.629 353.787 515.616 353.385C512.005 350.843 512.272 343.952 507.278 343.082ZM633.279 441.141C634.327 439.134 635.664 433.469 633.279 432.109C633.123 432.109 632.967 432.109 632.833 432.109C631.808 434.361 630.738 439.87 633.279 441.141ZM630.091 383.894C630.871 381.998 632.677 379.991 632.365 377.605C631.719 372.319 623.492 374.928 622.578 378.697C621.954 381.24 622.957 383.247 622.11 385.811C623.002 387.841 625.254 388.242 628.04 387.997C629.578 387.194 629.378 385.633 630.091 383.894ZM616.203 412.105C617.117 410.097 614.753 408.782 614.375 406.618C613.929 404.098 614.887 401.132 612.992 399.772C612.769 399.772 612.546 399.772 612.324 399.772C610.674 404.255 613.015 411.681 616.203 412.105ZM771.608 140.119C770.761 138.045 768.286 140.721 769.334 142.595C770.872 142.706 771.429 141.636 771.608 140.119ZM718.506 151.337C722.206 150.489 718.55 143.375 715.764 144.222C712.152 145.315 715.986 151.939 718.506 151.337ZM701.652 186.684C702.789 177.184 696.636 176.47 695.499 169.713C696.034 169.802 695.744 168.932 696.19 168.888C697.684 168.018 699.958 170.27 700.738 168.062C700.76 164.807 697.327 162.398 693.894 163.959C692.913 163.134 692.779 161.305 692.534 159.566C689.948 157.715 683.55 153.678 683.639 149.976C683.706 146.943 686.983 145.226 690.706 145.315C692.267 143.888 691.263 139.495 689.792 138.469C683.907 136.93 680.763 137.956 677.018 141.212C675.235 142.773 673.228 143.843 672.225 144.78C671.311 145.627 670.063 147.991 670.174 149.151C670.308 150.846 672.337 151.85 673.139 154.08C673.54 155.239 673.451 156.689 673.83 157.648C674.833 160.279 677.375 161.997 679.292 164.227C680.652 165.788 684.464 169.2 684.531 171.073C684.598 172.634 683.372 172.991 682.948 174.641C682.525 176.269 682.012 180.083 682.257 181.488C682.747 184.498 685.356 184.61 687.719 185.881C690.082 187.13 692.333 189.36 694.786 189.427C697.416 189.494 700.203 188.49 701.652 186.684ZM648.104 166.947C654.279 165.609 651.47 159.343 648.327 157.09C645.964 155.395 643.11 153.901 640.346 151.872C638.741 150.69 632.633 148.482 632.61 146.118C632.566 143.553 637.158 142.706 635.352 138.179C632.231 137.265 624.808 138.714 625.32 142.84C625.61 145.226 627.973 143.91 628.508 146.408C626.279 147.367 623.559 149.865 621.219 149.419C618.432 148.883 617.719 144.78 616.203 142.305C614.04 142.394 612.613 139.785 610.05 140.119C607.374 140.476 605.948 145.137 604.588 147.523C603.852 148.772 602.715 149.419 602.314 150.534C602.069 151.203 602.336 152.296 602.091 153.277C601.311 156.31 599.126 157.425 599.349 160.123C599.572 162.487 601.712 163.558 601.868 165.609C601.712 167.706 598.903 166.613 599.126 169.178C603.206 173.214 603.429 167.26 605.502 166.434C607.174 165.765 610.451 166.992 612.569 166.434C614.285 165.988 615.623 164.026 617.585 163.156C618.789 162.621 620.26 162.13 621.91 162.063C629.155 161.707 633.836 167.371 640.145 167.55C642.196 167.55 645.942 167.438 648.104 166.947ZM633.502 199.284C633.636 196.34 632.566 194.133 632.365 189.985C628.152 186.929 625.008 192.817 620.75 192.17C618.12 191.769 616.247 188.111 613.46 188.624C611.922 188.892 611.164 191.278 609.582 191.635C606.327 192.348 604.833 188.513 601.378 190.007C596.495 185.547 594.311 178.254 593.174 170.003C590.521 165.81 586.464 169.222 584.524 171.921C583.32 171.898 581.827 171.118 581.559 172.746C580.667 177.808 587.511 178.343 587.489 181.778C587.467 184.008 584.814 183.807 583.61 185.324C582.339 186.952 583.186 188.401 581.559 189.427C577.056 190.074 575.585 187.13 575.629 182.313C573.69 178.767 571.237 176.202 569.476 173.281C568.83 172.211 567.849 170.516 567.648 168.888C567.492 167.616 568.161 165.988 567.871 164.517C567.381 161.907 563.323 159.923 560.804 158.495C558.107 156.956 554.74 155.485 552.823 153.567C551.463 152.206 550.839 149.82 549.635 148.906C548.61 148.148 547.361 148.304 546.447 147.545C545.199 146.497 545.4 144.735 543.705 144.245C542.858 143.866 541.521 145.271 540.963 146.163C539.849 152.139 543.906 152.541 545.734 155.195C547.005 157.023 547.629 159.744 548.922 160.948C550.304 162.22 552.177 161.997 553.938 162.866C555.164 163.468 555.944 165.297 557.126 166.145C559.311 167.728 562.788 168.018 563.056 171.073C561.696 172.188 558.642 169.467 557.594 172.166C557.326 173.95 558.775 174.864 558.731 176.537C558.664 179.235 556.19 182.179 553.938 181.755C553.715 180.15 555.119 178.834 555.075 177.094C554.986 173.615 549.145 168.285 546.18 166.68C544.798 165.922 543.103 165.877 541.855 165.03C539.626 163.513 535.702 159.789 534.342 157.626C532.715 155.039 531.31 150.222 527.744 150.511C526.272 150.623 525.068 152.229 523.865 152.987C522.772 153.656 521.568 154.28 520.454 155.172C519.116 156.221 518.046 157.313 516.798 157.358C513.944 157.514 511.514 154.816 509.062 155.44C508.237 155.663 507.546 156.555 506.543 157.626C506.498 159.231 506.944 160.257 506.766 161.997C506.03 163.535 503.823 163.446 502.218 164.472C499.855 165.966 497.759 169.044 495.842 171.318C494.616 172.79 493.479 173.995 493.323 175.154C493.212 176.069 493.969 177.786 493.791 178.99C493.59 180.306 491.517 183.049 490.135 184.186C489.333 184.855 488.262 184.945 487.393 185.547C485.587 186.818 484.785 188.49 483.291 188.825C479.301 189.717 472.078 187.866 472.122 192.928C472.167 196.318 475.957 196.34 478.275 196.207C481.508 196.051 484.227 197.032 486.011 196.474C487.237 196.095 488.597 194.445 489.89 193.731C490.715 193.285 491.562 193.285 492.164 192.906C493.524 192.081 494.304 190.743 495.352 190.163C497.425 189.026 501.304 188.134 503.555 187.977C506.632 187.754 509.842 188.357 513.81 187.977C515.215 187.844 516.619 186.751 518.135 186.617C520.61 186.372 523.887 187.799 525.871 187.71C527.253 187.665 528.814 186.037 530.419 186.06C532.247 186.104 534.186 187.665 534.521 189.07C534.721 189.873 534.142 191.144 534.298 192.348C534.565 194.333 535.992 195.158 535.903 196.452C535.791 198.169 532.224 200.466 532.715 202.473C533.027 203.767 535.591 205.127 536.817 206.041C538.11 207 540.295 208.294 541.833 208.495C543.126 208.673 544.263 208.071 545.489 208.227C547.451 208.472 550.639 209.922 551.865 210.97C554.005 212.776 553.715 215.676 556.189 216.724C557.237 217.17 559.154 216.924 560.514 217.281C563.836 218.151 566.288 221.452 568.718 221.117C572.53 220.582 570.791 216.255 571.237 213.178C572.218 206.175 583.565 206.51 585.817 211.26C587.489 211.795 588.938 211.349 590.833 212.085C591.925 212.509 592.75 213.958 593.798 214.271C594.601 214.516 595.738 214.137 596.763 214.271C601.132 214.873 605.101 218.775 608.846 218.106C611.231 217.683 612.948 214.984 615.222 214.828C619.591 214.494 622.378 218.731 627.082 216.746C630.537 215.296 629.779 210.97 630.961 206.621C631.83 203.633 633.413 201.559 633.502 199.284ZM879.172 105.887C880.086 102.408 878.682 98.8842 876.898 96.5871C874.267 97.1447 876.162 100.423 875.984 102.341C875.717 105.062 873.331 106.957 873.465 109.745C872.595 110.971 871.102 111.462 870.968 113.581C872.417 114.785 873.041 112.644 874.156 111.395C875.895 109.388 878.57 108.228 879.172 105.887ZM819.449 10.839C816.952 10.839 815.993 12.021 814.433 13.0245C813.563 13.5598 811.824 13.872 812.382 15.4777C814.589 15.1654 818.936 13.9835 819.449 10.839ZM723.299 44.5361C728.649 46.0303 731.168 38.7601 727.623 34.679C726.799 33.72 723.99 33.3409 722.853 31.1331C721.448 28.457 721.649 24.8888 718.283 25.647C718.238 25.9592 718.327 26.4275 718.06 26.4721C717.748 32.4712 724.993 33.9654 724.904 38.8047C724.837 41.3025 722.607 41.5701 723.299 44.5361Z" fill="#3C92E9"/>
<path d="M648.059 34.1226C647.46 31.0005 651.651 31.5169 650.912 34.4042C650.254 35.2728 648.478 35.2024 648.059 34.1226Z" fill="#3C92E9"/>
<path d="M620 198.46C620.106 195.969 624.191 195.032 625 197.251C624.723 199.693 620.83 201.37 620 198.46Z" fill="#3C92E9"/>
<path d="M542 183.179C544.397 181.027 549.707 182.496 553 182.413C552.373 184.358 552.283 186.883 550.939 188C547.175 187.255 543.658 186.241 542 183.179Z" fill="#3C92E9"/>
<path d="M525.257 168.92C528.525 165.041 531.98 167.091 530.743 174.606C529.949 176.854 526.541 179.851 525 176.501C525.537 173.879 525.327 171.939 525.257 168.92Z" fill="#3C92E9"/>
<path d="M529.95 159.81C530.209 162.178 529.43 163.226 528.412 164C525.467 163.362 527.697 156.735 529.95 159.81Z" fill="#3C92E9"/>
<path d="M485.459 104.547C485.729 102.993 484.696 101.063 483.394 100.175C482.631 99.6651 481.486 99.9091 480.633 99.3544C478.388 97.8899 477.579 94.85 476.277 94.1844C476.434 91.1889 475.581 89.0365 476.277 87.1061C476.704 85.9301 479.712 82.6017 481.329 81.936C483.327 81.0929 485.437 81.8473 486.604 80.0278C487.121 79.939 487.48 80.0722 487.749 80.2941C487.749 82.0248 486.515 82.2911 486.38 83.8443C486.672 86.3295 490.331 84.7762 490.735 87.1061C490.398 89.6578 488.468 90.146 488.445 92.0099C488.445 93.6297 491.229 96.6917 492.576 98.8219C493.586 100.397 495.338 101.573 496.258 103.193C497.044 104.613 497.223 106.277 497.852 107.01C499.064 108.363 501.781 108.585 501.983 110.56C502.252 113.156 499.266 114.177 499.693 117.106C496.55 120.035 491.274 118.526 486.155 119.28C483.821 119.635 481.261 122.387 478.814 120.101C478.253 118.282 480.857 118.015 481.104 116.285C480.924 114.665 479.218 114.909 478.814 113.555C479.488 111.425 481.553 111.004 481.351 107.831C482.608 106.166 485.055 106.788 485.459 104.547Z" fill="#3C92E9"/>
<path d="M469.105 98.0203C472.239 95.8116 477.684 97.4902 477.981 100.185C478.21 102.217 476.311 102.504 475.648 104.801C475.03 106.877 475.762 109.351 474.961 110.765C474.252 112.002 472.308 111.935 470.981 112.377C468.03 113.393 462.356 117.413 460 112.907C460.343 110.5 462.356 110.014 463.043 108.026C463.088 106.458 461.647 105.618 461.876 103.962C462.15 101.908 463.477 102.615 465.376 101.797C466.749 101.223 467.32 99.2793 469.105 98.0203Z" fill="#3C92E9"/>
<path d="M313.975 38.3126C314.466 40.6795 307.685 43.7848 307.03 40.723C306.539 38.2692 312.244 35.2073 313.975 38.3126Z" fill="#3C92E9"/>
<path d="M305 656.335C304 656.335 303 656.335 302 656.335C302.529 655.888 304.451 655.888 305 656.335Z" fill="#3C92E9"/>
<path d="M295 19.1992C295.213 18.9336 295.787 18.9336 296 19.1992C295.836 19.6521 295.705 20.1363 295 19.9645C295 19.7146 295 19.4491 295 19.1992Z" fill="#3C92E9"/>
<path d="M275 62.5446C275.044 64.0676 270.511 66.5759 270.025 63.642C269.937 63.1269 270.047 62.0967 270.932 61.4472C272.148 60.5513 274.955 61.0441 275 62.5446Z" fill="#3C92E9"/>
<path d="M181 316.959C180.857 317.341 180.572 317.617 180.43 318C177.323 317.894 180.116 314.345 181 316.959Z" fill="#3C92E9"/>
<path d="M88.0237 125.232C89.3403 124.222 90.5838 126.767 89.706 127.96C88.2615 128.323 87.8957 126.141 88.0237 125.232Z" fill="#3C92E9"/>
<path d="M336 135.542C334.931 135.23 333.483 135.297 332.125 135.007C330.967 134.761 329.586 134.337 328.495 134.181C325.689 133.78 322.639 134.761 320.991 132.82C323.707 128.492 327.293 124.208 330.789 120.481C331.813 119.366 334.04 118.607 333.528 116.376C331.591 114.323 329.208 116.51 327.382 117.737C325.467 119.031 323.173 120.905 321.013 121.307C317.249 121.976 312.261 119.968 309.188 122.4C308.765 124.475 312.684 123.672 312.15 126.796C310.636 127.086 309.21 127.242 308.052 125.97C307.006 124.832 307.607 123.092 306.917 122.4C305.759 121.24 301.372 120.928 299.412 121.307C297.029 121.776 294.914 123.494 294.624 125.97C297.497 127.599 302.24 124.297 303.264 128.447C301.683 131.861 297.987 133.735 298.477 138.309C298.677 140.072 300.414 142.437 301.661 142.705C302.93 142.972 303.621 141.455 304.846 141.611C306.137 141.767 305.848 143.53 307.362 143.262C309.544 142.124 310.769 138.421 313.286 138.599C316.292 142.995 310.569 145.137 307.362 146.542C303.71 148.126 298.989 148.974 296.205 150.38C294.758 151.116 289.235 157.52 288.478 152.567C287.921 148.997 291.195 150.023 291.885 147.078C288.367 146.252 285.071 148.907 281.864 150.38C277.299 152.455 269.527 153.794 268.436 159.974C268.213 161.201 268.881 163.522 268.213 164.348C267.656 165.017 264.405 165.128 262.98 165.709C260.775 166.623 258.86 168.542 257.524 168.989C256.5 169.323 254.985 169.234 254.34 169.546C252.536 170.394 251.868 173.339 249.797 175.303C248.951 176.106 247.058 176.686 246.39 177.49C245.209 178.895 245.053 182.443 242.982 182.978C241.669 183.112 240.577 181.773 239.33 182.711C239.174 186.214 240.355 190.966 239.108 194.492C236.413 197.124 233.451 199.021 230 201.341C228.084 202.636 226.392 202.97 224.076 204.354C222.45 205.335 220.958 207.678 219.066 209.017C214.723 212.096 209.468 215.733 209.512 223.542C209.512 225.238 210.247 227.045 210.425 229.031C210.537 230.191 210.314 231.329 210.425 232.601C210.692 235.457 212.429 239.116 210.425 241.102C207.352 239.585 203.455 239.072 201.317 236.439C200.738 233.739 202.497 231.508 202.23 229.031C202.008 227.045 199.692 223.52 198.355 223.274C196.975 223.007 195.683 224.792 194.258 224.635C192.566 224.479 190.984 221.646 188.802 221.356C185.595 220.909 183.235 222.226 179.694 221.623C176.265 223.832 175.263 227.759 171.054 227.38C169.562 227.246 168.203 225.885 166.511 225.461C164.662 224.992 161.834 224.212 159.897 224.368C156.022 224.68 153.216 228.027 149.876 230.124C146.936 231.954 142.772 234.252 141.904 238.068C141.436 240.12 141.837 243.021 141.213 244.917C140.812 246.167 139.922 247.283 139.387 248.465C136.826 254.065 134.711 261.495 136.648 269.573C136.938 270.777 139.476 277.516 140.523 278.877C141.703 280.394 145.155 282.67 147.115 282.715C148.785 282.759 150.744 281.688 152.348 281.353C154.218 280.952 156.557 280.907 158.271 280.26C163.193 278.364 162.213 270.353 167.157 267.654C169.317 266.493 171.789 266.248 175.574 266.003C176.777 267.23 177.334 269.349 177.178 271.201C177.044 272.607 175.953 273.857 175.352 275.865C174.839 277.605 174.728 279.658 174.216 281.086C173.548 282.938 172.034 284.276 171.477 286.017C171.12 287.155 171.321 288.56 171.031 289.564C170.519 291.372 168.493 292.643 169.428 294.495C174.305 296.838 180.206 293.826 184.46 294.763C186.263 295.165 189.96 297.731 189.915 301.078C189.893 303.577 188.312 305.205 188.089 307.927C187.822 311.364 186.62 315.558 186.508 318.325C186.308 322.877 192.053 330.708 196.062 330.664C200.382 330.597 202.921 325.487 208.132 328.209C209.868 329.102 211.695 332.493 213.587 332.315C215.169 332.181 217.551 328.856 218.598 326.558C219.89 323.747 219.979 321.404 222.228 319.976C224.677 318.459 226.615 319.195 229.732 317.79C231.135 317.165 232.338 316.094 233.607 315.045C234.721 314.13 235.879 311.743 237.259 313.394C239.085 315.581 235.032 316.808 236.569 319.151C239.731 321.159 241.335 315.402 243.628 315.313C244.363 315.291 246.88 317.031 248.171 318.057C249.953 319.463 250.554 321.426 252.491 321.895C253.738 322.185 255.743 321.315 257.502 321.627C259.818 322.029 261.198 324.439 262.958 324.372C265.095 324.305 266.12 321.493 267.968 321.092C271.977 320.199 273.491 321.627 275.25 324.662C277.232 325.086 277.299 321.895 279.125 323.033C278.123 325.42 279.459 326.514 280.261 328.522C280.773 329.794 280.684 330.708 281.174 331.266C282.265 332.516 284.358 332.516 285.939 333.721C287.609 334.992 288.567 337.357 290.482 340.035C292.464 342.757 295.804 345.591 298.454 345.792C300.949 345.992 302.997 344.944 305.068 345.256C309.767 345.948 312.707 348.781 316.002 351.838C317.851 353.534 319.499 354.716 320.1 356.769C320.523 358.197 320.323 360.094 320.79 361.7C321.792 365.114 325.934 366.765 324.442 372.656C325.133 374.374 326.669 374.998 328.317 376.226C329.631 377.207 330.744 379.238 332.192 379.505C333.127 379.684 334.129 379.171 334.931 379.238C337.514 379.461 339.296 380.666 341.545 381.714C342.926 382.361 344.707 382.607 345.642 383.366C346.8 384.303 346.956 387.449 348.381 388.297C349.317 388.832 351.388 388.096 352.924 388.297C355.374 388.631 358.692 390.439 360.897 390.505C362.233 390.528 363.346 389.836 364.526 389.948C370.094 390.461 373.256 398.493 378.645 400.903C380.315 401.662 382.965 401.126 384.101 401.729C386.127 402.777 387.82 410.207 387.976 413.509C388.443 423.461 382.074 426.674 378.422 433.256C377.665 434.639 377.242 436.804 376.151 438.745C373.968 442.605 371.541 443.408 371.831 450.526C371.92 452.489 372.744 454.386 372.744 456.55C372.744 459.205 372.543 462.664 372.053 465.051C371.675 466.858 370.428 468.331 370.227 469.982C370.027 471.655 370.628 472.95 370.45 474.378C370.25 475.962 368.936 478.193 367.934 480.402C365.84 485.087 365.373 490.576 361.097 492.451C358.581 493.566 355.196 492.941 352.457 494.102C351.343 494.57 349.94 495.797 348.582 496.556C344.618 498.787 338.984 501.777 337.893 506.686C336.913 511.081 339.251 514.562 338.583 519.56C337.87 521.055 336.913 522.528 335.844 524.223C334.864 525.785 334.374 527.615 333.328 529.154C331.969 531.207 329.831 532.122 329.007 534.911C328.718 535.848 328.896 536.964 328.562 538.459C328.428 539.016 327.582 539.864 327.204 540.913C326.847 541.895 326.847 543.144 326.513 543.925C325.467 546.446 322.371 552.203 320.144 552.962C315.423 554.546 310.435 550.552 307.162 551.31C307.629 554.055 309.299 553.765 310.346 555.706C310.97 556.844 311.304 558.339 312.172 559.544C313.196 560.972 314.087 561.485 314.221 563.114C314.488 566.483 312.306 569.897 310.814 571.057C309.455 572.128 306.627 572.753 304.2 573.244C302.507 573.578 298.165 573.601 297.363 574.895C296.183 576.791 297.987 581.499 297.141 583.396C295.448 587.412 290.861 583.284 288.5 584.489C288.3 586.564 288.923 588.728 290.326 589.688C291.751 590.692 293.934 589.375 294.869 591.339C294.401 594.061 291.974 594.418 291.462 597.095C291.529 599.706 292.197 600.398 291.907 602.026C291.306 605.552 286.763 605.396 286.897 609.144C287.097 614.767 295.849 612.469 296.005 617.913C296.094 621.215 293.488 621.26 292.598 624.473C292.108 626.191 292.887 626.592 292.598 628.043C292.219 629.984 290.326 630.542 290.326 632.706C290.326 635.339 293.511 638.217 295.092 640.381C296.651 642.501 298.655 645.536 300.793 646.964C303.999 649.083 308.743 648.615 310.123 652.452C309.678 654.75 307.852 655.375 306.026 656C305.87 656 305.714 656 305.58 656C304.957 655.554 302.775 655.554 302.173 656C301.104 656 300.035 656 298.989 656C295.938 654.304 292.241 653.211 288.522 651.627C287.186 651.047 285.65 649.686 284.202 648.905C283.111 648.302 281.864 648.057 281.018 647.521C279.058 646.294 276.854 642.278 274.872 640.671C273.669 639.69 271.776 639.177 270.997 638.195C270.24 637.258 269.839 635.227 269.171 634.089C268.436 632.84 267.077 631.903 266.209 630.519C264.316 627.485 261.911 623.424 261.889 621.193C261.867 619.006 263.626 617.511 263.025 615.458C262.468 613.517 258.972 613.941 258.482 611.621C258.17 610.215 259.484 607.872 259.395 605.864C259.35 604.704 257.546 603.142 258.259 601.469C259.083 599.55 260.619 601.625 261.911 600.643C260.953 596.694 261.978 590.312 258.727 589.13C257.056 590.826 260.441 594.663 257.591 595.712C254.829 594.239 255.475 589.866 254.852 586.676C254.451 584.556 253.582 582.659 253.493 580.361C253.449 579.156 253.894 577.773 253.716 576.523C253.226 572.82 249.819 569.807 249.619 566.104C249.529 564.319 250.532 562.801 250.754 560.905C250.91 559.611 250.598 558.16 250.754 556.799C250.955 555.059 251.756 553.452 251.89 551.868C252.157 548.856 251.89 543.702 251.445 541.181C250.888 538.012 248.795 535.335 248.483 531.876C248.372 530.627 248.839 528.552 248.706 526.945C248.594 525.45 247.926 523.978 247.793 522.282C247.681 520.72 248.104 519.225 248.238 517.351C248.483 513.915 247.681 510.077 247.793 506.663C247.815 505.659 248.26 504.901 248.238 503.919C248.216 501.085 247.436 498.229 247.325 495.418C247.147 490.219 247.793 486.515 247.102 481.718C246.568 478.081 245.922 472.503 244.831 470.205C243.606 467.662 238.818 463.311 236.413 461.704C234.81 460.633 232.917 460.276 231.18 459.25C227.461 457.063 220.29 452.445 218.665 448.027C218.197 446.755 218.264 445.059 217.752 443.631C216.772 440.82 214.679 438.388 213.209 435.688C210.403 430.512 208.132 424.041 205.237 418.708C203.767 415.986 202.52 412.929 200.916 410.765C199.981 409.493 196.975 408.311 196.596 406.37C196.084 403.848 194.525 400.368 194.77 398.426C195.104 395.793 199.335 393.674 199.313 391.309C199.313 389.278 197.064 388.096 196.574 386.378C195.416 382.183 197.242 379.729 198.623 376.226C199.068 375.088 199.513 373.236 199.981 372.388C200.805 370.871 202.52 370.447 203.611 368.818C204.234 367.903 204.613 366.007 205.437 364.712C207.174 361.946 209.958 360.897 210.67 358.398C211.249 356.368 211.583 346.193 210.893 342.779C210.492 340.816 208.978 339.165 208.399 337.29C207.374 333.988 207.129 330.374 204.301 330.441C202.564 330.485 201.317 332.806 200.204 334.278C199.937 336.22 200.07 338.339 198.378 338.942C195.795 339.856 194.792 335.662 191.786 334.568C190.584 334.122 188.668 334.144 187.911 333.743C185.707 332.56 184.994 328.678 182.678 327.161C180.741 325.911 179.071 326.335 177.89 324.416C177.4 323.1 177.779 320.712 177.668 318.927C175.173 317.165 173.058 310.627 170.163 309.065C168.248 308.039 165.286 308.128 162.881 307.147C161.745 306.678 160.877 306.098 159.697 305.785C158.227 305.384 156.735 305.362 155.599 304.692C151.101 301.992 148.651 293.268 143.084 293.469C140.701 293.536 138.407 296.214 136.247 296.214C134.109 296.191 130.502 294.161 127.83 292.644C125.046 291.082 121.951 290.234 119.635 288.806C117.764 287.668 116.472 285.57 114.847 284.678C113.6 284.009 111.774 283.897 110.749 283.317C109.302 282.491 107.788 280.706 105.962 279.189C104.247 277.761 102.376 275.575 102.309 273.723C102.243 271.581 103.957 269.751 104.135 267.698C104.714 261.183 100.728 256.475 98.2119 252.637C96.3413 249.781 94.159 247.349 92.2884 244.694C92.3997 242.932 92.3997 242.619 92.2884 240.857C90.8632 239.205 89.6829 236.751 88.1909 234.274C86.8325 232.043 84.2048 229.656 83.8707 227.157C83.4476 224.078 84.8506 221.378 83.8707 218.388C82.2451 213.435 76.522 215.666 77.2569 222.226C77.4573 224.033 79.5728 226.465 80.2186 228.25C80.8644 230.08 80.7531 232.356 81.3543 234.564C81.9333 236.684 83.7149 238.491 84.3161 240.879C85.2737 244.627 85.2514 248.666 86.1422 251.009C86.9216 253.084 89.7943 255.07 88.1909 257.591C86.0308 258.126 85.2069 255.538 83.8707 254.021C83.1136 253.173 80.419 251.589 79.9959 249.648C79.6396 248.041 80.8421 245.855 80.4413 243.891C79.6619 240.031 73.1816 239.919 73.1594 235.948C73.1371 233.449 75.8762 233.159 75.8985 230.727C75.9207 228.094 72.9144 225.84 72.2463 223.609C71.6451 221.556 71.556 218.276 71.3333 215.398C71.1106 212.676 71.4001 209.552 70.8657 207.455C70.398 205.581 68.0598 202.993 66.5455 201.966C64.5413 200.627 62.9602 201.185 62.0026 199.222C61.1564 197.504 60.5997 193.934 60.3993 192.104C60.0652 188.802 60.3324 185.21 60.1766 181.684C60.0207 178.159 59.7312 174.79 60.1766 170.997C61.3123 168.341 63.361 167.047 64.4967 164.414C65.2984 162.585 65.4098 160.331 66.3228 158.39C67.993 154.82 71.6228 151.496 74.0724 147.97C76.7001 144.177 79.1274 140.54 80.664 136.189C81.2207 134.65 82.6905 131.236 82.4901 129.339C82.2006 126.707 78.0585 124.52 78.3926 121.396C78.593 119.455 80.909 119.477 81.577 117.559C81.9333 116.577 82.2451 113.81 82.2674 112.628C82.3119 109.995 81.1317 107.228 81.577 104.417C81.9556 102.007 84.9396 101.025 83.4031 98.3922C81.8888 95.7817 79.1497 99.7979 77.4795 98.1245C75.943 96.5626 77.7913 94.6884 77.9249 91.8101C77.9917 90.6722 77.3682 89.378 77.4795 88.5302C77.6132 87.303 79.5951 85.2503 79.0829 84.4247C77.8581 82.5505 76.4774 77.7979 73.8497 76.2138C70.5094 74.1833 66.9018 75.5667 62.2476 74.5626C59.3971 73.9602 58.0387 70.7472 55.411 71.015C53.7854 71.1712 52.8501 73.4024 50.6232 74.5626C48.4185 75.7229 45.5236 75.3213 43.3412 75.9237C41.1589 76.5261 40.1122 78.3334 37.8631 78.1103C35.9925 77.9318 35.9702 75.9014 33.7656 75.656C32.8971 75.5444 31.2715 76.303 29.8908 76.4815C26.3723 76.9278 20.0256 77.1286 16.4626 76.2138C13.1445 75.232 11.1403 73.9825 7.53274 71.9744C4.81593 70.4572 -0.194585 68.6053 0.00583588 66.2178C0.13945 64.6783 4.77139 63.0495 6.59745 62.3801C9.55922 61.2868 11.3853 59.5464 13.6567 59.3679C14.5252 59.301 15.6832 60.015 16.8412 59.9258C17.9992 59.8142 19.4466 58.5201 20.9387 58.2746C24.1231 57.7391 28.5992 58.4754 28.2206 54.7047C25.8156 52.4065 15.9504 56.4004 15.7055 51.4247C15.5496 48.4126 19.4466 47.4978 22.3193 46.7615C24.9248 46.0921 28.8887 44.9765 31.2046 45.1104C33.8101 45.2665 37.2173 48.7696 38.7093 44.8426C39.4442 42.0536 37.8185 39.7108 37.3509 37.4349C39.2883 34.2219 42.8513 34.6236 45.5459 34.155C48.6412 33.5972 51.1576 32.9501 54.1862 31.4106C56.8585 30.0718 59.6866 29.1793 62.8266 28.6662C65.922 28.1753 68.9283 26.7696 71.7119 26.4795C74.0056 26.2341 76.0989 26.4572 78.3035 25.9441C80.2632 25.4978 82.3119 24.1814 84.4497 24.2929C85.8749 24.3599 87.0997 25.6317 88.5472 25.9441C89.9056 26.2341 91.4422 25.8548 92.8674 26.2118C93.9586 26.4795 94.9607 27.372 96.0519 27.5729C97.7666 27.8852 99.6372 27.2828 101.285 27.5729C102.822 27.8406 104.113 28.9785 105.605 29.224C109.101 29.7818 113.132 29.0008 116.539 29.7818C117.831 30.0718 118.989 30.8305 120.414 31.1428C121.75 31.4329 123.22 31.0982 124.512 31.4106C126.315 31.8568 127.83 33.9096 129.745 34.155C133.263 34.6012 137.227 32.3031 140.902 31.9684C143.552 31.7229 146.313 32.1023 149.096 31.4329C151.635 30.8081 154.107 29.6256 156.378 29.514C157.626 29.4471 158.65 29.9603 159.786 29.7818C160.966 29.581 162.369 27.8852 163.66 28.1307C165.353 28.4653 165.063 31.0313 166.845 31.7006C168.827 30.4511 170.809 31.7899 172.991 31.7006C175.129 31.6114 177.022 30.4288 179.36 30.8751C183.502 31.656 189.292 36.5424 192.566 33.8872C193.389 33.2179 193.189 32.0576 193.924 30.3173C194.926 27.9522 196.908 25.1854 196.44 21.8163C191.875 21.9055 187.51 24.583 182.322 24.8284C177.066 20.8791 183.725 18.4248 187.555 16.6175C190.717 15.1226 193.211 11.798 197.131 11.1287C200.315 10.5708 203.811 11.9765 207.597 12.4897C209.802 12.8021 212.006 12.3112 213.298 12.7575C215.525 13.5607 216.683 16.2382 218.531 16.8629C219.333 17.1307 220.647 17.1084 221.716 17.4207C223.764 17.9785 225.59 19.295 227.639 17.4207C229.242 17.7554 229.443 19.8305 231.046 20.1652C232.561 19.1834 233.719 16.6844 236.057 16.0597C237.059 15.7919 238.128 16.2605 239.241 16.0597C241.09 15.7027 243.561 12.6682 244.697 15.5019C244.229 17.4877 241.758 17.7777 240.377 19.3396C239.152 20.723 237.259 23.9136 237.415 25.3639C237.682 27.9745 240.934 26.9704 241.045 30.295C240.555 32.2138 238.707 31.3436 237.17 32.2138C235.767 32.9948 235.255 34.6236 233.763 34.9582C229.621 35.8954 226.192 33.7087 222.606 33.8649C222.45 35.7392 224.388 36.8102 225.345 37.4126C228.597 39.4653 231.247 39.1753 235.812 39.0637C238.15 38.9968 240.845 39.9116 242.871 38.2382C244.14 37.1895 244.074 34.869 245.143 33.5749C246.434 32.0353 249.396 30.4511 251.289 30.8305C252.313 31.0313 253.783 32.5262 253.805 33.5749C253.85 36.0739 250.888 35.2706 250.843 37.9704C252.758 39.3538 257.858 36.4532 258.125 34.1327C258.326 32.4369 256.477 31.4775 256.522 29.7595C256.633 26.8812 259.862 26.9258 259.484 24.0029C257.925 22.5303 256.277 24.3153 254.696 24.0029C252.469 23.5566 250.443 20.3213 249.463 18.2463C250.443 16.7737 252.514 17.7554 254.006 17.9785C255.676 15.1895 258.793 14.0962 263.114 13.583C264.65 13.4045 266.699 12.6682 267.434 14.4086C267.812 16.9968 264.249 18.5587 264.917 21.5262C267.99 22.441 268.993 17.4654 271.531 15.5019C272.645 14.6317 274.248 14.0516 275.851 13.3153C277.254 12.6682 278.791 11.084 279.949 11.1287C281.218 11.1733 281.441 12.4228 282.688 13.0475C283.801 13.6053 285.271 12.6682 285.65 14.4086C283.022 19.9197 273.179 16.7514 270.618 22.3518C271.197 26.1002 269.082 29.6925 270.841 32.2138C272.11 34.0211 274.961 32.7939 275.629 34.6682C276.519 37.1895 272.867 37.1895 273.803 40.157C276.208 41.8974 279.08 38.5059 281.307 37.1448C283.69 35.6945 286.719 33.9542 287.008 30.5627C285.806 27.7737 281.33 29.938 280.639 27.015C280.261 25.4309 282.02 21.8609 282.465 21.2585C284.848 18.0455 293.132 13.4938 299.078 14.1408C300.214 14.2747 301.349 15.1003 302.485 15.2341C306.404 15.725 311.014 13.2037 314.087 15.2341C316.559 13.4938 319.521 15.4796 322.973 14.9664C325.623 16.8406 324.888 20.8568 328.896 22.6418C329.987 23.1327 331.346 22.7757 332.771 23.1773C333.818 23.4897 334.976 24.9846 336.178 25.654C337.893 26.5911 339.229 26.3903 339.585 27.8406C339.941 29.2686 338.338 30.2057 338.449 31.6783C339.429 32.6601 338.605 34.1327 339.14 35.516C340.12 38.0597 342.591 37.8588 345.063 39.086C346.778 39.9339 350.475 42.5444 350.297 44.5749C350.185 45.9359 346.845 48.301 345.754 48.9704C344.974 49.4166 341.144 51.6702 339.83 51.4247C337.67 51.0454 336.846 45.802 333.907 45.9359C332.637 46.0029 331.435 46.9177 331.39 48.9481C331.346 52.5404 334.731 52.6742 334.797 55.798C334.886 59.5241 333.105 59.7696 330.477 62.09C328.584 61.1752 327.003 59.8811 324.554 59.6357C323.106 61.7107 326.936 62.4694 325.689 65.1245C322.037 66.0616 319.254 63.875 315.913 62.6702C314.867 62.2909 313.352 62.447 312.506 61.8446C311.215 60.9521 310.836 58.2746 309.767 56.9136C308.542 55.3294 306.093 53.0759 304.066 53.0759C301.26 53.0759 297.185 57.2929 294.958 53.3436C296.495 47.0738 303.799 51.7148 308.609 49.5059C310.413 48.6803 311.014 46.4045 312.484 45.4004C315.423 43.37 320.211 43.1022 319.766 39.1083C319.543 37.1002 317.205 37.1225 315.891 36.0962C314.11 34.6905 312.751 29.7595 310.19 29.514C308.876 29.3802 307.941 30.7189 306.538 30.8751C303.599 31.2098 300.325 29.4471 297.653 30.8751C296.428 31.7229 297.252 33.084 296.294 34.7128C295.493 36.0515 293.622 36.4085 292.887 37.725C292.019 39.2645 292.197 41.1834 291.061 42.3883C289.191 44.3741 285.249 44.7087 282.866 45.6682C281.819 46.1144 280.483 47.6093 279.459 47.587C277.588 47.5647 276.764 44.5525 274.671 45.6682C274.493 48.5911 277.254 49.7959 278.991 51.157C280.884 52.6296 282.866 54.0799 283.534 56.6458C281.686 61.3761 278.724 56.4004 275.807 56.3781C272.578 56.3558 267.857 63.7858 265.118 57.7391C265.808 54.5485 268.725 54.0353 269.438 50.8893C266.231 51.5363 263.425 54.8162 259.64 55.8203C258.059 56.2442 256.5 56.1327 255.097 56.6458C252.38 57.6053 250.465 60.0373 247.592 61.3091C246.456 61.8 245.12 61.6661 243.94 62.1347C241.201 63.2503 237.905 65.2138 235.055 67.0657C232.16 68.9622 228.886 70.948 227.082 72.8223C226.103 73.8263 223.586 77.4409 223.675 78.5789C223.787 80.2077 226.348 80.7432 226.414 82.4166C226.348 83.4206 224.945 85.6073 225.969 87.0799C226.904 88.4186 228.775 87.3253 230.757 87.6154C234.231 88.1286 236.502 91.587 239.174 93.3719C241.201 94.7107 244.185 96.3172 246.456 96.6519C249.574 97.1204 253.093 95.5586 253.516 98.5707C253.939 101.471 250.576 102.498 250.331 104.327C252.024 107.005 249.195 108.277 249.195 110.642C249.195 112.538 251.133 115.394 252.825 115.573C255.119 115.818 258.482 112.851 259.439 110.084C260.575 106.804 260.085 102.342 262.178 99.9541C272.778 100.311 281.753 94.1529 281.062 81.0555C280.996 79.7614 280.394 78.088 280.617 76.66C280.951 74.5403 283.98 72.7554 283.579 70.0779C286.54 68.9846 286.429 63.2503 289.502 62.4024C292.086 61.7107 295.003 64.589 298.388 64.3213C299.501 64.232 300.926 63.0495 302.04 63.228C304.267 63.6073 305.603 66.9095 307.273 68.4268C308.743 69.7878 310.301 69.3639 310.68 71.1712C310.235 74.2503 308.453 74.3172 308.631 77.1955C308.809 79.7168 310.97 81.6133 312.038 81.8588C313.709 82.2381 316.069 81.1671 317.739 80.2077C320.79 78.4673 323.396 73.2462 325.934 73.8933C327.939 74.4288 329.52 82.1042 329.809 84.8486C330.121 87.8162 329.475 90.0697 329.586 92.7918C329.876 97.4105 334.708 96.9419 337.091 99.374C337.804 100.11 338.093 101.985 338.694 102.944C339.852 104.796 341.255 104.796 341.434 106.782C341.857 111.512 337.87 111.914 338.249 117.202C337.425 119.254 335.354 119.12 335.51 121.865C335.777 126.193 340.944 122.869 342.346 126.26C343.104 128.068 342.213 129.429 341.656 132.017C343.415 134.561 343.415 138.599 340.298 138.599C338.427 138.554 337.915 136.1 336 135.542ZM89.9279 128.425C90.9968 127.086 89.4825 124.297 87.8791 125.412C87.7233 126.417 88.1686 128.826 89.9279 128.425ZM248.817 153.348C247.859 152.232 244.786 152.544 242.671 152.79C241.179 152.968 239.419 153.348 239.264 154.709C241.624 156.025 248.082 156.984 248.817 153.348ZM236.97 148.707C238.751 147.011 237.972 143.552 236.057 142.95C235.3 142.705 234.32 143.619 233.095 143.508C231.803 143.396 230.512 141.968 229.465 141.857C227.639 141.678 225.813 142.749 225.145 143.776C225.078 145.404 226.147 145.672 226.058 147.346C223.853 149.242 225.011 155.623 227.194 155.847C229.51 156.092 230.69 148.818 233.785 148.171C234.921 147.926 235.478 148.93 236.97 148.707ZM233.785 159.662C230.556 158.279 227.55 160.599 224.9 161.023C223.319 161.268 220.446 160.644 220.803 163.477C221.092 165.798 224.076 164.95 225.813 164.303C229.421 162.942 231.692 161.782 233.785 159.662ZM223.787 138.822C228.329 136.502 222.896 129.339 220.825 128.692C217.128 127.532 211.895 131.95 207.619 133.356C205.214 134.137 202.921 134.204 202.386 136.658C204.546 140.942 208.8 135.721 211.939 136.39C213.543 136.725 214.456 139.358 216.037 139.67C217.106 139.871 223.341 139.045 223.787 138.822ZM220.58 143.218C219.645 141.879 214.523 143.374 213.075 144.579C212.073 145.427 211.383 147.457 210.336 148.974C209.267 150.536 208.065 151.741 207.152 153.08C206.328 154.307 201.718 162.295 205.326 163.21C206.862 163.589 210.024 159.751 210.336 158.279C211.361 153.258 213.253 149.666 216.482 147.323C218.353 145.962 220.29 146.141 220.58 143.218ZM192.142 112.516C194.681 112.404 196.396 103.368 192.142 104.573C189.27 105.376 188.602 112.672 192.142 112.516ZM179.85 318.057C179.961 317.656 180.184 317.366 180.295 316.964C179.605 314.22 177.423 317.946 179.85 318.057ZM83.559 88.6864C83.6035 88.1732 83.2917 88.0839 83.3363 87.5931C82.6459 87.5931 81.8443 87.4369 81.9779 88.4186C82.2896 89.1996 83.1581 89.3334 83.559 88.6864ZM322.794 45.6682C323.908 45.8244 324.554 45.4004 324.398 44.0394C323.373 43.1692 321.904 44.2848 322.794 45.6682ZM296.628 18.8041C296.339 18.4248 295.559 18.4248 295.27 18.8041C295.27 19.1611 295.27 19.5404 295.27 19.8974C296.205 20.1428 296.383 19.4512 296.628 18.8041ZM210.113 39.9116C210.871 39.3315 212.029 38.5282 211.472 37.1672C208.955 35.7392 204.702 36.8325 201.005 36.3416C198.912 32.7716 195.394 32.2138 195.082 37.9927C199.335 42.1205 205.749 36.0515 210.113 39.9116ZM169.361 68.1367C170.653 67.6012 172.457 67.8689 172.768 66.2178C171.699 65.1915 170.608 63.8081 169.361 63.7635C167.713 63.6965 166.912 65.4592 165.264 66.5079C163.349 67.7351 160.676 68.0251 160.476 70.0779C164.017 70.8811 167.201 69.0292 169.361 68.1367ZM168.226 48.3903C169.673 48.1002 171.165 48.8811 172.1 47.297C171.009 41.2726 164.084 44.9542 160.031 45.3781C159.184 47.0962 158.049 48.4572 157.759 50.8669C160.899 51.8264 164.685 49.1266 168.226 48.3903ZM236.524 328.477C238.328 328.12 237.794 323.145 235.611 324.349C233.964 325.264 234.81 328.789 236.524 328.477Z" fill="#3C92E9"/>
<path d="M83.7201 88.0243C83.6652 88.6685 84.0495 88.7856 83.9946 89.4591C83.5279 90.3083 82.4299 90.1326 82.0181 89.1077C81.8534 87.8193 82.8417 87.995 83.7201 88.0243Z" fill="#3C92E9"/>
<path d="M76 104.374C75.5464 106.347 74.3299 107.235 73.0515 108C72.6392 107.556 72.2887 107.063 72 106.495C72.0825 103.609 74.9278 101.488 76 104.374Z" fill="#3C92E9"/>
</g>
</svg>
