<svg width="220" height="26" viewBox="0 0 220 26" fill="none" xmlns="http://www.w3.org/2000/svg">
<path fill-rule="evenodd" clip-rule="evenodd" d="M100 4C96.6863 4 94 6.68629 94 10C94 13.3137 96.6863 16 100 16C103.314 16 106 13.3137 106 10C106 6.68629 103.314 4 100 4ZM92 10C92 5.58172 95.5817 2 100 2C104.418 2 108 5.58172 108 10C108 14.4183 104.418 18 100 18C95.5817 18 92 14.4183 92 10Z" fill="#0066CC"/>
<path fill-rule="evenodd" clip-rule="evenodd" d="M99.722 18C98.1287 18 96.535 18.5581 95.0995 19.664C93.6597 20.7733 92.4321 22.3951 91.568 24.3927C91.4086 24.7611 91.0421 25 90.6364 25H81.013C80.4535 25 80 24.5523 80 24C80 23.4477 80.4535 23 81.013 23H89.9822C90.943 21.0053 92.2622 19.313 93.853 18.0873C95.6073 16.7357 97.632 16 99.722 16C101.812 16 103.837 16.7357 105.591 18.0873C107.182 19.313 108.501 21.0053 109.462 23H117.987C118.546 23 119 23.4477 119 24C119 24.5523 118.546 25 117.987 25H108.808C108.402 25 108.035 24.7611 107.876 24.3927C107.012 22.3951 105.784 20.7733 104.345 19.664C102.909 18.5581 101.315 18 99.722 18Z" fill="#0066CC"/>
<path fill-rule="evenodd" clip-rule="evenodd" d="M125.5 8.8C124.009 8.8 122.8 10.0088 122.8 11.5C122.8 12.9912 124.009 14.2 125.5 14.2C126.991 14.2 128.2 12.9912 128.2 11.5C128.2 10.0088 126.991 8.8 125.5 8.8ZM121 11.5C121 9.01472 123.015 7 125.5 7C127.985 7 130 9.01472 130 11.5C130 13.9853 127.985 16 125.5 16C123.015 16 121 13.9853 121 11.5Z" fill="#0066CC"/>
<path fill-rule="evenodd" clip-rule="evenodd" d="M125.5 3C123.387 3 121.354 3.86085 119.852 5.40173C118.349 6.94347 117.5 9.03978 117.5 11.2308C117.5 16.3124 121.197 20.7663 123.838 23.2751C124.134 23.5569 124.229 23.9909 124.077 24.3709C123.926 24.7508 123.558 25 123.149 25H116C115.448 25 115 24.5523 115 24C115 23.4477 115.448 23 116 23H120.781C118.289 20.2275 115.5 16.058 115.5 11.2308C115.5 8.52545 116.548 5.926 118.42 4.00553C120.293 2.0842 122.84 1 125.5 1C128.16 1 130.707 2.0842 132.58 4.00553C134.452 5.926 135.5 8.52545 135.5 11.2308C135.5 16.058 132.711 20.2275 130.219 23H144C144.552 23 145 23.4477 145 24C145 24.5523 144.552 25 144 25H127.851C127.442 25 127.074 24.7508 126.923 24.3709C126.771 23.9909 126.866 23.5569 127.162 23.2751C129.803 20.7663 133.5 16.3124 133.5 11.2308C133.5 9.03978 132.651 6.94347 131.148 5.40173C129.646 3.86085 127.613 3 125.5 3Z" fill="#0066CC"/>
<path d="M22.7985 12.1518H13.606C12.6597 12.1518 11.9162 12.9134 11.9162 13.8828C11.9162 14.8176 12.6597 15.6138 13.606 15.6138H20.9397C20.1624 19.4913 16.7828 22.4341 12.7273 22.4341C8.13099 22.4341 4.37962 18.5912 4.37962 13.8828C4.37962 9.13981 8.09719 5.33156 12.6935 5.29694C15.3634 5.29694 17.5601 6.26631 19.4865 8.58589C20.0948 9.31292 21.0073 9.69374 21.8522 9.20905C22.6633 8.72437 23.0351 7.61651 22.4606 6.82024C19.9259 3.35819 16.5124 1.73103 12.6935 1.83489C11.1388 1.83489 9.61802 2.14647 8.16479 2.76964C6.77915 3.39281 5.52869 4.25832 4.44721 5.36618C3.36573 6.47403 2.52083 7.75499 1.9125 9.17443C1.30417 10.6631 1 12.2557 1 13.8828C1 15.4754 1.30417 17.0679 1.9125 18.5566C2.52083 19.976 3.36573 21.257 4.44721 22.3648C5.52869 23.4727 6.77915 24.3382 8.16479 24.9614C9.61802 25.5846 11.1726 25.8961 12.7273 25.8961C14.3157 25.8961 15.8703 25.5846 17.3235 24.9614C18.7092 24.3382 19.9597 23.4727 21.0411 22.3648C22.1226 21.257 22.9675 19.976 23.5758 18.5566C24.1842 17.0679 24.4883 15.4754 24.4883 13.8828C24.4883 12.9134 23.711 12.1518 22.7985 12.1518Z" fill="#333333"/>
<path d="M38.546 8.62051C37.5997 8.62051 36.8561 9.38216 36.8561 10.3169V18.972C36.8561 20.9454 35.3015 22.5726 33.3414 22.5726C31.415 22.5726 29.8603 20.9454 29.8603 18.972V10.3169C29.8603 9.38216 29.1168 8.62051 28.1705 8.62051C27.258 8.62051 26.5145 9.38216 26.5145 10.3169V19.0067V19.0413C26.5483 22.8842 29.59 26 33.3414 26C37.1265 26 40.1682 22.8842 40.202 19.0413V19.0067V10.3169C40.202 9.38216 39.4585 8.62051 38.546 8.62051Z" fill="#333333"/>
<path d="M50.7205 8.58589C46.0228 8.58589 42.2377 12.4634 42.2377 17.2756C42.2377 22.0533 46.0228 25.9654 50.7205 25.9654C51.971 25.9654 53.6946 26 55.9251 24.4767C56.7024 23.9574 57.1418 23.0573 56.7362 22.1917C56.3307 21.3609 55.283 20.8762 54.5057 21.3955C52.8835 22.4687 51.4978 22.5379 50.7205 22.5379C48.4562 22.5379 46.5636 21.0493 45.8539 18.972H57.5135C58.4598 18.972 59.2033 18.2104 59.2033 17.2756C59.2033 11.6325 54.8098 8.58589 50.7205 8.58589ZM50.7205 12.0133C52.7483 12.0133 54.9112 13.1212 55.6209 15.5446H45.8539C46.5636 13.502 48.4562 12.0133 50.7205 12.0133Z" fill="#333333"/>
<path d="M71.0011 16.8948C68.196 14.6791 64.546 16.3063 64.546 13.8136C64.546 12.6365 65.6275 11.9095 66.878 11.9095C67.8243 11.9095 69.2437 12.221 69.7169 13.1904C70.1224 13.8136 70.4604 14.3675 71.2715 14.3675C72.184 14.3675 72.9275 13.5712 72.9951 12.7057C72.9951 10.5939 70.528 9.4514 70.19 9.27829C69.1761 8.75899 68.0608 8.48203 66.9456 8.48203C63.9715 8.48203 61.234 10.4554 61.234 13.779C61.234 17.5872 64.7826 18.7297 66.8442 18.972C68.4664 19.1451 69.6493 19.6298 69.6493 20.8069C69.6155 21.0839 69.4465 22.6072 67.2835 22.6072C65.8303 22.5379 65.0192 22.0879 64.2419 20.98C63.9377 20.5646 63.4308 20.3222 62.9576 20.3222C62.0113 20.3222 61.234 21.1531 61.234 22.0186C61.234 22.1917 61.234 22.3648 61.3016 22.5033C62.2141 24.9268 64.9854 26 67.3511 26C72.2854 26 72.9951 21.8109 72.9951 20.8069C72.9951 19.3875 72.2178 17.8988 71.0011 16.8948Z" fill="#333333"/>
<path d="M84.3102 8.62051H81.9107V1.69641C81.9107 0.761652 81.1671 0 80.2209 0C79.3084 0 78.5648 0.761652 78.5648 1.69641V8.62051H76.1315C75.219 8.62051 74.4755 9.38216 74.4755 10.3169C74.4755 11.2517 75.219 12.0479 76.1315 12.0479H78.5648V24.269C78.5648 25.2037 79.3084 26 80.2209 26C81.1671 26 81.9107 25.2037 81.9107 24.269V12.0479H84.3102C85.2565 12.0479 86 11.2517 86 10.3169C86 9.38216 85.2565 8.62051 84.3102 8.62051Z" fill="#333333"/>
<path d="M151.084 1.73333C148.533 1.73333 143.701 1.73333 143.701 1.73333C142.749 1.73333 142 2.496 142 3.46667V24.1973C142 25.168 142.749 25.9307 143.701 25.9307C144.62 25.9307 145.402 25.168 145.402 24.1973V15.6347C150.982 15.6347 151.118 15.6347 151.22 15.6C154.963 15.184 157.719 12.2373 157.719 8.632C157.719 4.92267 154.759 1.872 151.084 1.73333ZM145.402 12.168V5.2H150.812C152.751 5.2 154.317 6.69067 154.351 8.632C154.317 10.608 152.751 12.168 150.812 12.168H145.402Z" fill="#333333"/>
<path d="M161.477 26C162.396 26 163.144 25.2373 163.144 24.2667V1.69867C163.144 0.762665 162.396 0 161.477 0C160.525 0 159.776 0.762665 159.776 1.69867V24.2667C159.776 25.2373 160.525 26 161.477 26Z" fill="#333333"/>
<path d="M173.828 8.632C169.031 8.632 165.22 12.5147 165.22 17.4027C165.22 22.2907 169.031 25.9307 173.828 25.9307C175.768 25.9307 177.401 25.4453 178.864 24.1973C178.864 25.2027 179.816 25.9307 180.497 25.9307C181.484 25.9307 182.198 25.2027 182.198 24.1973V17.4027C182.198 12.5147 178.626 8.632 173.828 8.632ZM173.828 22.5333C170.97 22.5333 168.555 20.3147 168.555 17.4027C168.555 14.4907 170.97 12.0293 173.828 12.0293C176.686 12.0293 178.864 14.4907 178.864 17.4027C178.864 20.3147 176.686 22.5333 173.828 22.5333Z" fill="#333333"/>
<path d="M192.732 26C195.658 26 198.346 24.5093 199.911 22.0133C200.422 21.216 200.218 20.1413 199.435 19.6213C198.653 19.136 197.598 19.344 197.087 20.1413C196.135 21.6667 194.502 22.568 192.732 22.568C189.908 22.568 187.561 20.176 187.561 17.2987C187.561 14.3867 189.908 12.0293 192.732 12.0293C194.604 12.0293 196.305 13.0347 197.224 14.664C197.7 15.4613 198.721 15.7387 199.537 15.288C200.32 14.8027 200.626 13.7627 200.15 12.9307C198.619 10.2613 195.795 8.59733 192.732 8.59733C188.037 8.59733 184.227 12.48 184.227 17.2987C184.227 22.0827 188.037 26 192.732 26Z" fill="#333333"/>
<path d="M210.46 8.56267C205.731 8.56267 201.92 12.4453 201.92 17.264C201.92 22.048 205.731 25.9653 210.46 25.9653C211.719 25.9653 213.454 26 215.7 24.4747C216.482 23.9547 216.925 23.0533 216.516 22.1867C216.108 21.3547 215.053 20.8693 214.271 21.3893C212.638 22.464 211.243 22.5333 210.46 22.5333C208.18 22.5333 206.275 21.0427 205.561 18.9627H217.299C218.251 18.9627 219 18.2 219 17.264C219 11.6133 214.577 8.56267 210.46 8.56267ZM210.46 11.9947C212.501 11.9947 214.679 13.104 215.393 15.5307H205.561C206.275 13.4853 208.18 11.9947 210.46 11.9947Z" fill="#333333"/>
</svg>
