<svg width="45" height="45" viewBox="0 0 45 45" fill="none" xmlns="http://www.w3.org/2000/svg">
<path d="M35.0696 12.2441V12.1863C33.3649 7.17149 29.517 3.16215 24.557 1.23307C19.5976 -0.696536 14.033 -0.348065 9.35567 2.18442H9.27412C7.96466 2.90814 6.75284 3.79397 5.66726 4.82062H5.58571C1.80692 8.39678 -0.223955 13.4272 0.0196497 18.6075C0.262735 23.7881 2.75647 28.6084 6.85413 31.8195C7.11384 32.0219 7.27435 32.3249 7.29616 32.6522C7.31745 32.9831 7.19487 33.3072 6.95905 33.5421C5.45274 34.9399 3.74698 36.1087 1.89788 37.0109C6.16228 38.4155 10.7836 38.3216 14.9874 36.7451C15.6787 36.4782 16.3544 36.1737 17.0116 35.832C17.1944 35.7349 17.398 35.6833 17.6053 35.6812H18.0359C22.7782 35.6606 27.3205 33.7852 30.6822 30.462C34.0438 27.1382 35.9542 22.6333 36 17.921C36.0031 15.991 35.6893 14.0736 35.0696 12.2441Z" fill="#EF8062"/>
<rect x="16" y="9" width="3" height="17" rx="1.5" fill="white"/>
<rect x="9" y="19" width="3" height="17" rx="1.5" transform="rotate(-90 9 19)" fill="white"/>
<path d="M40.0946 40.9092C39.9409 40.7486 39.864 40.5326 39.8819 40.314C39.8998 40.0954 40.0114 39.8942 40.1889 39.7598C43.064 37.5486 44.8139 34.231 44.9861 30.6656C45.1577 27.1001 43.7349 23.6369 41.0851 21.1727C40.2962 20.4538 39.4163 19.8354 38.4663 19.3336H38.3958L37.9239 19C37.6091 23.2905 35.8935 27.3701 33.0283 30.6425C30.1632 33.9143 26.2986 36.2071 22 37.1847C24.3596 40.477 28.2237 42.4348 32.3447 42.4265H32.439C32.6396 42.4004 32.8434 42.4281 33.0288 42.5066C36.3105 44.1594 40.1376 44.4534 43.6447 43.323C42.3546 42.7324 41.1619 41.9574 40.1061 41.0241L40.0946 40.9092Z" fill="#EF8062"/>
</svg>
