<svg width="163" height="432" viewBox="0 0 163 432" fill="none" xmlns="http://www.w3.org/2000/svg">
<path fill-rule="evenodd" clip-rule="evenodd" d="M75.4362 61.1973C91.1889 46.5077 93.6808 23.6763 81.0021 10.202C68.3234 -3.27231 45.2751 -2.28708 29.5224 12.4026C13.7697 27.0922 11.2778 49.9236 23.9565 63.3979C31.845 71.7813 43.7477 74.5674 55.4098 71.9378L64.3496 82L65.6959 68.1297C69.1278 66.3262 72.4161 64.0136 75.4362 61.1973Z" fill="#EF8062"/>
<path d="M66.1692 52.1593L65.9404 51.7144C65.3 50.2465 57.4319 48.0225 56.7915 47.9781L56.2883 48.0225C55.3275 48.2002 54.2754 49.0454 52.217 50.7802C51.8054 51.1361 51.2562 51.2251 50.753 50.958C48.0541 49.4901 44.7605 46.5543 43.1136 44.7752C41.3296 42.8626 39.1796 39.7044 38.1732 37.1688C37.9904 36.6795 38.1732 36.1458 38.5392 35.79C40.8721 33.7437 41.8785 32.7655 41.9701 31.6978C42.0157 31.075 40.6436 23.2019 39.2252 22.4458L38.8136 22.1789C37.8988 21.6006 36.5264 20.7554 35.0168 21.0669C34.6508 21.156 34.2848 21.2894 33.9647 21.4672C32.9587 22.0905 30.4427 23.7809 29.299 25.9602C28.613 27.339 28.2927 39.8382 37.899 50.3801C47.4139 60.8331 59.1703 61.2779 60.9086 60.922H60.9542L61.0914 60.8777C63.4702 60.0324 65.4831 57.8531 66.2606 56.9189C67.6786 55.2732 66.7182 53.2713 66.1691 52.1593L66.1692 52.1593Z" fill="white"/>
<circle cx="50.5" cy="36.5" r="2.5" fill="white"/>
<circle cx="57.5" cy="36.5" r="2.5" fill="white"/>
<circle cx="64.5" cy="36.5" r="2.5" fill="white"/>
<path d="M85 287.618L59.5279 291L59 275.829L66.4145 267L83.5925 269.538L85 287.618Z" fill="#6E66B3"/>
<path d="M63.1245 267.419L91.9524 355.22L91.466 347.546L83.4616 396.735L79.3572 445L103.964 443.844L124.314 353.201L125 350.102L123.827 345.527L108.048 253.375L98.0887 235L56 247.8L63.1245 267.419Z" fill="#6E66B3"/>
<path d="M24.6569 264.149L26.2988 285.301L27.8277 306.46C28.8726 320.568 29.7284 334.68 30.6857 348.794C31.6387 362.91 32.4052 377.019 33.26 391.138L34.384 412.318L35.3611 433.503L35.9374 445.998L60.1978 446L64.1386 391.138V369.732L64.7706 359.098C64.9864 355.552 65.0132 352.011 65.1438 348.467C65.5919 334.294 65.9386 320.12 66.4742 305.941L67.2393 284.67L68.1173 263.392L69 242L23 242.801L24.6569 264.149Z" fill="#6E66B3"/>
<path d="M53.0256 253.466L95 252L95.3974 261.992L53.423 263.458L53.0256 253.466Z" fill="#312220"/>
<path d="M79.1157 165.434L79.1158 165.434C81.4905 161.396 85.4778 158.793 89.8587 158L96.8993 158.814C97.4511 158.921 98.0633 159.092 98.7178 159.316L98.6862 158.912L118.354 165.254L152.312 176.204C155.511 177.51 158.057 179.752 159.737 182.488L160.66 184.259C161.995 187.235 162.381 190.623 161.597 193.974C161.54 194.218 161.495 194.462 161.425 194.706C158.868 203.645 148.95 208.374 140.242 204.804L136.209 203.495L133.217 202.525L86.6554 187.419C77.9158 183.836 74.3714 173.501 79.1157 165.434Z" fill="#6E66B3"/>
<path d="M82.7486 150L55 151.002L59.2438 160L83 157.704L82.7486 150Z" fill="#CCB2F1"/>
<path d="M97 136.072L103.532 120.012C103.532 120.012 115.42 119.067 117.992 133.663C118.139 134.497 116.208 138.121 115.555 138.715L107.572 143.531C106.263 144.321 104.557 144.094 103.518 142.991L97 136.072Z" fill="#FFBB9C"/>
<path d="M116.644 134L126 147.803L115.499 156L107 143.706L116.644 134Z" fill="#FFBB9C"/>
<path d="M82 120.631L82.4193 118L100.077 119.582L114 130.197L113.505 133L95.3964 126.353L82 120.631Z" fill="black"/>
<path d="M104.937 137.71L113.191 130.7C114.166 130.079 114.28 128.746 113.424 127.98L93.3078 109.388C92.798 108.932 92.0291 108.871 91.4485 109.241L82.6729 116.584C81.8623 117.101 81.7673 118.209 82.4792 118.846L102.702 137.533C103.315 138.082 104.239 138.155 104.937 137.71Z" fill="black"/>
<path d="M104.937 140.71L113.191 133.7C114.166 133.079 114.28 131.746 113.424 130.98L93.3078 112.388C92.798 111.932 92.029 111.871 91.4487 112.241L82.6729 119.584C81.8622 120.101 81.7673 121.209 82.4793 121.846L102.702 140.533C103.315 141.082 104.239 141.155 104.937 140.71Z" fill="white"/>
<path d="M110.996 141.665C110.452 142.529 107.809 144.571 104.161 143.848C99.3613 142.896 95.9169 140.146 95.9169 140.146C94.431 139.203 93.7627 138.203 94.0754 136.908C94.414 135.507 96.0603 134.735 97.1199 135.083L100.367 136.861C100.367 136.861 104.812 135.613 111 139.593L110.996 141.665Z" fill="#FFBB9C"/>
<path d="M157 174L156 172C156.36 172.626 156.689 173.3 157 174Z" fill="#F66390"/>
<path d="M72.3149 153L89 158.099C89 158.099 85.581 163.108 71.6556 165.472C68.0283 166.087 64.3164 166.189 60.6776 165.65C56.3775 165.013 51.6061 163.437 51 159.604L62.7103 153.338L72.3149 153Z" fill="#D08864"/>
<path d="M88.039 157C78.3994 169.609 51 159.611 51 159.611L52.6729 254L92 252.673L88.039 157Z" fill="#CCB2F1"/>
<path d="M50.3207 156.043L61.216 196.41L62 286L31.3953 280.078C31.3953 280.078 31.7983 205.106 25.6728 182.924C21.9922 169.596 23.5673 156.845 38.7535 156.33L48.4691 156L50.3207 156.043Z" fill="#6E66B3"/>
<path d="M63 286L62.2161 202L61.1576 202.011L61.9296 284.725L32.2037 278.958L32 279.986L63 286Z" fill="#454584"/>
<path d="M32.4483 275C32.4521 274.306 32.7786 205.391 26.7543 183.364C24.9881 176.906 23.7482 168.036 27.8708 162.454C30.1991 159.302 34.0137 157.614 39.2095 157.436L48.8437 157.106L50.232 157.14L60.929 197.156L62 196.871L51.0896 156.053L48.8377 156L39.1716 156.329C33.62 156.521 29.5174 158.359 26.978 161.798C22.5922 167.735 23.8538 176.961 25.6844 183.656C31.6692 205.538 31.3432 274.301 31.3394 274.994L32.4483 275Z" fill="#4141AF"/>
<path d="M19 271.782L19.4778 299L35.7268 298.153L36 271L19 271.782Z" fill="#ECB6A2"/>
<path d="M17 281.378L17.3887 293L38 292.274L37.6229 281L17 281.378Z" fill="#CCB2F1"/>
<path d="M105 149.395L112.069 158L128 145.347L121.143 137L105 149.395Z" fill="#CCB2F1"/>
<path d="M41.0997 157L42.9991 277.068C43.0535 279.993 40.733 282.432 37.7568 282.578L18.9292 282.991C15.7935 283.146 13.5514 281.198 13.5266 278.117L13 182.546C13.1281 169.625 22.2558 159.228 35.2561 157.197L41.0997 157Z" fill="#6E66B3"/>
<path d="M37.0557 283C40.4504 282.838 43.0609 280.176 42.9989 276.941L41.6789 196L40.5686 196.017L41.8886 276.959C41.9397 279.621 39.7923 281.811 37 281.944L37.0557 283Z" fill="#454584"/>
<path d="M77.1054 136.012L78.9467 157.587C79.4916 163.786 75.816 163.497 69.9949 163.952C65.0259 164.341 59.3634 162.378 59.1115 156.893L58 129L77.1054 136.012Z" fill="#ECB6A2"/>
<path d="M79 151L61 141.021L77.8414 138L79 151Z" fill="#DDA290"/>
<path d="M81.0016 119.618C81.084 123.759 84.284 127.064 88.1491 126.999C92.0141 126.934 95.0805 123.524 94.9984 119.382C94.9161 115.241 91.7159 111.936 87.8511 112.001C83.986 112.066 80.9193 115.476 81.0016 119.618Z" fill="#DDA290"/>
<path d="M72.8603 141.997C82.8697 141.149 90.4213 132.379 89.9817 124.011L88.9666 106.509C88.4157 96.0205 79.8132 87.832 69.5251 88.0026C58.9927 88.1774 48.7856 97.0636 49.0034 107.812L49.9618 121.441C50.8104 133.712 60.8122 142.196 72.8603 141.997Z" fill="#ECB6A2"/>
<path d="M41.0016 121.618C41.084 125.759 44.284 129.064 48.1491 128.999C52.0142 128.934 55.0807 125.524 54.9984 121.382C54.916 117.241 51.716 113.936 47.8509 114.001C43.9858 114.066 40.9195 117.476 41.0016 121.618Z" fill="#ECB6A2"/>
<path d="M50.5942 123C50.6099 123 50.6261 122.999 50.6418 122.997C50.8645 122.97 51.0235 122.766 50.9972 122.541C50.9845 122.431 50.6656 119.855 48.7437 118.625C47.5613 117.869 46.0585 117.798 44.2747 118.415C44.0626 118.488 43.9498 118.722 44.0216 118.937C44.094 119.152 44.3269 119.266 44.5359 119.193C46.0752 118.661 47.3451 118.703 48.3114 119.32C49.9094 120.343 50.1898 122.614 50.1923 122.636C50.2166 122.846 50.3918 123 50.5942 123Z" fill="#312220"/>
<path d="M89.5832 119.878C89.5832 119.878 89.6967 126.124 86.2914 127.333C83.2377 128.418 81.4482 126.439 77.3583 126.724C72.0316 127.096 68.6792 127.628 63.2003 130.582C58.6178 133.052 51.6298 121.035 50.8528 113.167C50.7703 112.331 49 114.904 49 114.904L50.8282 127.19C50.8282 127.19 53.8512 145.438 73.9361 143.909C94.0208 142.38 89.5832 119.878 89.5832 119.878Z" fill="#332C30"/>
<path d="M48 104.219L49.0472 115.178L49.9348 119L52 104L48 104.219Z" fill="#332C30"/>
<path d="M74.4843 125C74.4922 125 74.4995 124.999 74.5068 124.999L77.537 124.873C77.6787 124.866 77.8101 124.804 77.8973 124.701C77.9839 124.598 78.0184 124.466 77.9906 124.338L77.1276 120.361C77.0749 120.118 76.8212 119.958 76.5572 120.01C76.2944 120.058 76.1242 120.294 76.1769 120.536L76.929 124.002L74.4632 124.105C74.1955 124.116 73.9884 124.326 74.0005 124.572C74.0126 124.813 74.227 125 74.4843 125Z" fill="#312220"/>
<path d="M79.0057 109.564C79.0057 109.564 78.7939 111.131 80.9581 110.991C82.6014 110.885 83.6401 110.795 84.6093 110.942C85.1597 111.025 85.7119 110.749 85.9181 110.29C86.0846 109.92 85.9942 109.505 85.6749 109.236C85.0277 108.69 83.7342 107.904 81.7328 108.01C79.1625 108.146 79.0057 109.564 79.0057 109.564Z" fill="#332C30"/>
<path d="M69.9664 110.668C69.9664 110.668 70.461 112.603 67.6534 112.648C65.5217 112.681 64.171 112.675 62.9432 112.956C62.246 113.116 61.4957 112.827 61.1652 112.275C60.8983 111.829 60.956 111.302 61.3292 110.934C62.0857 110.187 63.6407 109.074 66.2338 109.003C69.5638 108.913 69.9664 110.668 69.9664 110.668Z" fill="#332C30"/>
<path d="M66.7653 120C67.7289 120 68.8334 119.753 69.8224 118.919C70.0073 118.763 70.0559 118.45 69.9298 118.22C69.8036 117.99 69.5523 117.931 69.3664 118.087C67.3424 119.792 64.5756 118.546 64.5472 118.533C64.3365 118.437 64.1044 118.569 64.0259 118.829C63.9474 119.089 64.0533 119.379 64.263 119.476C64.338 119.511 65.4116 120 66.7653 120Z" fill="#312220"/>
<path d="M82.2774 119C83.1041 119 84.0511 118.77 84.8399 117.969C85.0197 117.787 85.053 117.447 84.9147 117.211C84.7764 116.975 84.5188 116.93 84.34 117.112C82.8833 118.591 80.5667 117.573 80.5426 117.563C80.3295 117.465 80.0955 117.618 80.0222 117.9C79.949 118.183 80.0627 118.49 80.2768 118.587C80.3393 118.615 81.2079 119 82.2774 119Z" fill="#312220"/>
<path d="M75.0061 131C76.2994 131 77.7042 130.727 78.8298 129.83C79.0087 129.687 79.054 129.403 78.9301 129.196C78.8056 128.991 78.5609 128.938 78.3804 129.08C75.8936 131.065 71.5596 129.494 71.5154 129.479C71.309 129.403 71.0854 129.533 71.0191 129.773C70.9523 130.013 71.0665 130.269 71.274 130.346C71.3893 130.389 73.0721 131 75.0061 131Z" fill="white"/>
<path d="M50.1479 116.214L46.7393 109.783C43.3361 100.126 52.2242 89.9329 62.3053 87.7997C66.2935 86.9557 68.2564 87.2113 71.4252 87.0286C80.4727 86.5072 88.4099 93.1631 88.8768 102.146L89 104.517C88.9191 103.248 87.5156 103.997 87.2066 101.903C86.804 99.1735 84.7638 96.9282 82.1463 96.0013C73.2523 92.8519 63.4685 95.7912 58.7501 99.5241C55.5181 102.081 55.5181 105.07 56.4788 106.942C56.9572 107.874 56.8334 109.813 56.5644 111.947C56.1792 115.004 54.7756 117.85 52.5525 120V120L50.1479 116.214Z" fill="#312220"/>
<path d="M130.277 143L158.458 176.307L159.768 177.816C161.762 180.403 162.942 183.614 162.991 187.064C162.994 187.315 163.001 187.564 163 187.818C162.948 199.119 154.197 207.268 144.978 205.837L144.756 205.792C143.122 205.461 141.577 204.789 140.222 203.821L139.169 203.07C138.244 202.409 137.436 201.598 136.781 200.669L114.582 169.242L108 159.403L130.277 143Z" fill="#716DC6"/>
<path d="M77 168.715L70.0677 164L63 170.031L71.4721 177L77 168.715Z" fill="#312220"/>
<path d="M72.1752 173L82 232.093L74.564 250L67 232.605L70.7861 174.125L72.1752 173Z" fill="#312220"/>
<path d="M41.0208 156.443L34 157.838L48.8043 180.637L55.5889 183.642L50.6528 193.335L62.2923 244L66 187.987L48.4645 155L41.0208 156.443Z" fill="#4E4AA0"/>
<path d="M89.6972 285C89.5147 268.508 88.7322 233.327 88 206.338L89.2685 243.085L99.5111 189.762L90.3806 181.587L100.548 175.308L99.2875 159C105.469 161.141 115.485 168.227 114.953 173.589L107.693 219.304L115 270.533L89.6972 285Z" fill="#6E66B3"/>
<path d="M88.7347 286L115 269.786L114.442 268.65L89.8337 283.751C89.7358 274.178 89.4957 258.521 89.1204 240L88 240.031C88.3906 259.281 88.634 275.321 88.7243 284.883L88.7347 286Z" fill="#454584"/>
<path d="M87.5828 194.604L87.6245 193C87.7459 197.464 87.8721 202.165 88 207L87.5828 194.604Z" fill="#4E4AA0"/>
<path d="M99 159L97 158C97.6729 158.259 98.3422 158.577 99 159Z" fill="#6E66B3"/>
<path d="M97.1526 158.36L90 157.323C92.1841 156.827 94.4605 156.894 96.6931 157.579L98.9679 158.485L99 159C98.3351 158.714 97.7132 158.497 97.1526 158.36Z" fill="#4E4AA0"/>
<path d="M89.7726 181.363L98.9573 189.556L88.6539 243L87.3778 206.169C87.2491 201.443 87.1221 196.849 87 192.487L87.5336 157L96.9096 158.218C97.4627 158.326 98.0764 158.498 98.7324 158.724L100 175.069L89.7726 181.363Z" fill="#4E4AA0"/>
<path d="M54.5629 151L43 157.128L64.1091 177L70 164.092L54.5629 151Z" fill="#F3E9FE"/>
<path d="M70 163.909L77.383 175L89 157.845L82.5776 150L70 163.909Z" fill="#F3E9FE"/>
<path d="M100.544 279L115 270.253L107.434 218.407L113.02 181.179L111.943 181L106.33 218.405L113.809 269.649L100 278.006L100.544 279Z" fill="#454584"/>
<path d="M37.9128 282.004L38 283L18.0012 283.215L17.914 282.219L37.9128 282.004Z" fill="#595996"/>
<path d="M65.514 266L86 265.283L85.4866 250L65 250.719L65.514 266ZM81.4186 260.915L69.7913 261.322L69.5814 255.085L81.2092 254.678L81.4186 260.915Z" fill="#AF6B64"/>
<path d="M76 345L74.9953 375.867C74.8201 381.249 70.3487 385.532 64.872 385.564L-9.95238 386C-13.6128 386.021 -16.7312 383.394 -17.2656 379.833C-18.4356 372.038 -19.9264 358.091 -18.2478 345H76Z" fill="#7F4B49"/>
<path d="M-6.56873 384C-6.56859 384 -6.56838 384 -6.56818 384L-6.02672 383.997C-5.97684 383.997 -5.93677 383.956 -5.93703 383.907C-5.9373 383.858 -5.97765 383.818 -6.02726 383.818C-6.02746 383.818 -6.0276 383.818 -6.02779 383.818L-6.56927 383.821C-6.61907 383.822 -6.65922 383.862 -6.65901 383.911C-6.65874 383.96 -6.61839 384 -6.56873 384ZM-7.83163 383.992C-7.78432 383.992 -7.74465 383.955 -7.74168 383.908C-7.73857 383.859 -7.77634 383.816 -7.82616 383.813C-8.00301 383.802 -8.18184 383.785 -8.35776 383.76C-8.40662 383.752 -8.45271 383.787 -8.45953 383.836C-8.46643 383.885 -8.43203 383.93 -8.38262 383.937C-8.20225 383.962 -8.01876 383.98 -7.8373 383.991C-7.83541 383.991 -7.83345 383.992 -7.83163 383.992ZM-4.76395 383.99C-4.76374 383.99 -4.76361 383.99 -4.7634 383.99L-4.22194 383.986C-4.17207 383.986 -4.13199 383.946 -4.13226 383.896C-4.13253 383.847 -4.17287 383.808 -4.22248 383.808C-4.22268 383.808 -4.22282 383.808 -4.22302 383.808L-4.76449 383.811C-4.81436 383.811 -4.85444 383.852 -4.85416 383.901C-4.8539 383.95 -4.81355 383.99 -4.76395 383.99ZM-2.9591 383.979C-2.9589 383.979 -2.95869 383.979 -2.95856 383.979L-2.41709 383.976C-2.36722 383.976 -2.32707 383.935 -2.32735 383.886C-2.32761 383.837 -2.36796 383.797 -2.41763 383.797C-2.41777 383.797 -2.41797 383.797 -2.41811 383.797L-2.95957 383.8C-3.00938 383.801 -3.04959 383.841 -3.04932 383.89C-3.04905 383.939 -3.00871 383.979 -2.9591 383.979ZM-1.15419 383.968C-1.15398 383.968 -1.15385 383.968 -1.15365 383.968L-0.612183 383.965C-0.562302 383.965 -0.522224 383.925 -0.522499 383.875C-0.522697 383.826 -0.570755 383.789 -0.613258 383.787L-1.15472 383.79C-1.20454 383.79 -1.24468 383.83 -1.24441 383.88C-1.24414 383.929 -1.20379 383.968 -1.15419 383.968ZM0.650658 383.958C0.650795 383.958 0.650993 383.958 0.651131 383.958L1.1926 383.955C1.24248 383.954 1.28262 383.914 1.28235 383.865C1.28207 383.816 1.24173 383.776 1.19205 383.776C1.19193 383.776 1.19172 383.776 1.19152 383.776L0.650116 383.779C0.600243 383.78 0.560097 383.82 0.560371 383.869C0.560638 383.918 0.600983 383.958 0.650658 383.958ZM2.45551 383.947C2.45564 383.947 2.45584 383.947 2.45605 383.947L2.99751 383.944C3.04739 383.944 3.08746 383.904 3.0872 383.854C3.08692 383.805 3.03928 383.764 2.99643 383.766L2.45496 383.769C2.40509 383.769 2.36501 383.809 2.36528 383.859C2.36549 383.908 2.4059 383.947 2.45551 383.947ZM4.26041 383.937C4.26055 383.937 4.26076 383.937 4.26089 383.937L4.80229 383.934C4.8521 383.933 4.89224 383.893 4.89204 383.844C4.89177 383.795 4.85136 383.755 4.80175 383.755C4.80161 383.755 4.80141 383.755 4.80121 383.755L4.25988 383.758C4.21 383.759 4.16986 383.799 4.17013 383.848C4.17039 383.897 4.21075 383.937 4.26041 383.937ZM6.06519 383.926C6.06533 383.926 6.06554 383.926 6.06573 383.926L6.6072 383.923C6.65694 383.923 6.69715 383.883 6.69688 383.833C6.69662 383.784 6.65627 383.745 6.60666 383.745C6.60646 383.745 6.60625 383.745 6.60612 383.745L6.06465 383.748C6.01478 383.748 5.9747 383.788 5.97498 383.838C5.97517 383.887 6.01559 383.926 6.06519 383.926ZM7.87004 383.916C7.87025 383.916 7.87038 383.916 7.87058 383.916L8.41205 383.913C8.46185 383.912 8.502 383.872 8.5018 383.823C8.50153 383.774 8.46118 383.734 8.41151 383.734C8.41137 383.734 8.41117 383.734 8.41096 383.734L7.8695 383.737C7.81963 383.738 7.77955 383.778 7.77982 383.827C7.78009 383.876 7.82043 383.916 7.87004 383.916ZM9.67489 383.905C9.67502 383.905 9.67522 383.905 9.67536 383.905L10.2168 383.902C10.2666 383.902 10.3068 383.862 10.3066 383.812C10.3063 383.763 10.266 383.724 10.2164 383.724C10.2162 383.724 10.216 383.724 10.2158 383.724L9.67435 383.727C9.62447 383.727 9.58433 383.767 9.58459 383.817C9.58487 383.866 9.62521 383.905 9.67489 383.905ZM11.4797 383.895C11.4799 383.895 11.4801 383.895 11.4803 383.895L12.0217 383.892C12.0715 383.891 12.1117 383.851 12.1114 383.802C12.1112 383.753 12.0708 383.713 12.0212 383.713C12.021 383.713 12.0209 383.713 12.0207 383.713L11.4792 383.716C11.4293 383.716 11.3892 383.757 11.3895 383.806C11.3898 383.855 11.4301 383.895 11.4797 383.895ZM13.2846 383.884C13.2848 383.884 13.285 383.884 13.2851 383.884L13.8265 383.881C13.8764 383.881 13.9165 383.84 13.9163 383.791C13.916 383.742 13.8756 383.702 13.826 383.702C13.8258 383.702 13.8256 383.702 13.8255 383.702L13.2841 383.706C13.2342 383.706 13.1941 383.746 13.1944 383.795C13.1946 383.845 13.235 383.884 13.2846 383.884ZM15.0894 383.874C15.0896 383.874 15.0898 383.874 15.09 383.874L15.6314 383.871C15.6813 383.87 15.7214 383.83 15.7211 383.781C15.7208 383.732 15.6805 383.692 15.6309 383.692C15.6307 383.692 15.6306 383.692 15.6303 383.692L15.0889 383.695C15.039 383.695 14.9989 383.736 14.9992 383.785C14.9995 383.834 15.0398 383.874 15.0894 383.874ZM16.8943 383.863C16.8945 383.863 16.8947 383.863 16.8948 383.863L17.4363 383.86C17.4862 383.86 17.5263 383.819 17.526 383.77C17.5258 383.721 17.4854 383.681 17.4358 383.681C17.4356 383.681 17.4354 383.681 17.4353 383.681L16.8938 383.685C16.8439 383.685 16.8038 383.725 16.804 383.774C16.8043 383.824 16.8447 383.863 16.8943 383.863ZM18.6992 383.853C18.6994 383.853 18.6995 383.853 18.6997 383.853L19.2411 383.85C19.291 383.849 19.3311 383.809 19.3308 383.76C19.3305 383.71 19.2902 383.671 19.2406 383.671C19.2404 383.671 19.2402 383.671 19.24 383.671L18.6986 383.674C18.6488 383.674 18.6087 383.715 18.609 383.764C18.6092 383.813 18.6496 383.853 18.6992 383.853ZM20.504 383.842C20.5042 383.842 20.5044 383.842 20.5045 383.842L21.046 383.839C21.0958 383.839 21.136 383.799 21.1357 383.749C21.1354 383.7 21.0891 383.666 21.045 383.66L20.5035 383.664C20.4537 383.664 20.4135 383.704 20.4137 383.753C20.414 383.803 20.4544 383.842 20.504 383.842ZM22.3089 383.832C22.3091 383.832 22.3092 383.832 22.3094 383.832L22.8509 383.828C22.9008 383.828 22.9408 383.788 22.9406 383.739C22.9403 383.69 22.8999 383.65 22.8503 383.65C22.8501 383.65 22.85 383.65 22.8498 383.65L22.3083 383.653C22.2585 383.653 22.2184 383.694 22.2187 383.743C22.2189 383.792 22.2593 383.832 22.3089 383.832ZM24.1137 383.821C24.1139 383.821 24.114 383.821 24.1142 383.821L24.6557 383.818C24.7055 383.818 24.7456 383.777 24.7453 383.728C24.7451 383.679 24.6991 383.641 24.6546 383.639L24.1131 383.642C24.0632 383.643 24.0232 383.683 24.0234 383.732C24.0237 383.781 24.064 383.821 24.1137 383.821ZM25.9186 383.811C25.9187 383.811 25.9189 383.811 25.919 383.811L26.4605 383.807C26.5104 383.807 26.5505 383.767 26.5503 383.718C26.55 383.669 26.5096 383.629 26.46 383.629C26.4598 383.629 26.4597 383.629 26.4595 383.629L25.918 383.632C25.8681 383.632 25.828 383.672 25.8283 383.722C25.8285 383.771 25.869 383.811 25.9186 383.811ZM27.7234 383.8C27.7236 383.8 27.7238 383.8 27.7239 383.8L28.2654 383.797C28.3153 383.797 28.3554 383.756 28.3551 383.707C28.3549 383.658 28.309 383.617 28.2643 383.618L27.7229 383.621C27.673 383.622 27.6329 383.662 27.6332 383.711C27.6335 383.76 27.6738 383.8 27.7234 383.8ZM29.5282 383.789C29.5284 383.789 29.5286 383.789 29.5287 383.789L30.0702 383.786C30.1201 383.786 30.1602 383.746 30.1599 383.697C30.1597 383.647 30.1193 383.608 30.0697 383.608C30.0695 383.608 30.0693 383.608 30.0692 383.608L29.5277 383.611C29.4778 383.611 29.4377 383.651 29.438 383.701C29.4382 383.75 29.4786 383.789 29.5282 383.789ZM31.3331 383.779C31.3333 383.779 31.3334 383.779 31.3336 383.779L31.8751 383.776C31.925 383.776 31.9651 383.735 31.9648 383.686C31.9646 383.637 31.9242 383.597 31.8746 383.597C31.8744 383.597 31.8742 383.597 31.874 383.597L31.3326 383.6C31.2827 383.601 31.2426 383.641 31.2429 383.69C31.2431 383.739 31.2835 383.779 31.3331 383.779ZM33.138 383.768C33.1381 383.768 33.1384 383.768 33.1386 383.768L33.6799 383.765C33.7297 383.765 33.7699 383.725 33.7696 383.676C33.7694 383.626 33.729 383.587 33.6793 383.587C33.6792 383.587 33.679 383.587 33.6788 383.587L33.1375 383.59C33.0876 383.59 33.0475 383.63 33.0477 383.68C33.048 383.729 33.0883 383.768 33.138 383.768ZM34.9428 383.758C34.9429 383.758 34.9431 383.758 34.9433 383.758L35.4848 383.755C35.5345 383.754 35.5748 383.714 35.5745 383.665C35.5742 383.616 35.5339 383.576 35.4843 383.576C35.4841 383.576 35.4839 383.576 35.4837 383.576L34.9423 383.579C34.8924 383.58 34.8523 383.62 34.8525 383.669C34.8528 383.718 34.8932 383.758 34.9428 383.758ZM36.7476 383.747C36.7478 383.747 36.748 383.747 36.7482 383.747L37.2896 383.744C37.3395 383.744 37.3797 383.704 37.3794 383.654C37.3791 383.605 37.3387 383.566 37.2891 383.566C37.289 383.566 37.2888 383.566 37.2886 383.566L36.7472 383.569C36.6972 383.569 36.6571 383.609 36.6574 383.659C36.6577 383.708 36.698 383.747 36.7476 383.747ZM38.5526 383.737C38.5528 383.737 38.5529 383.737 38.5531 383.737L39.0945 383.734C39.1443 383.733 39.1844 383.693 39.1842 383.644C39.1839 383.595 39.1436 383.555 39.094 383.555C39.0938 383.555 39.0935 383.555 39.0934 383.555L38.552 383.558C38.5021 383.559 38.4621 383.599 38.4623 383.648C38.4626 383.697 38.5029 383.737 38.5526 383.737ZM40.3573 383.726C40.3575 383.726 40.3577 383.726 40.3579 383.726L40.8993 383.723C40.9492 383.723 40.9893 383.683 40.989 383.633C40.9888 383.584 40.9485 383.545 40.8988 383.545C40.8987 383.545 40.8985 383.545 40.8983 383.545L40.3568 383.548C40.3069 383.548 40.2668 383.588 40.2671 383.638C40.2674 383.687 40.3077 383.726 40.3573 383.726ZM42.1622 383.716C42.1624 383.716 42.1626 383.716 42.1628 383.716L42.7043 383.713C42.7541 383.712 42.7942 383.672 42.7939 383.623C42.7937 383.574 42.7533 383.534 42.7037 383.534C42.7035 383.534 42.7034 383.534 42.7032 383.534L42.1617 383.537C42.1118 383.537 42.0718 383.578 42.072 383.627C42.0722 383.676 42.1126 383.716 42.1622 383.716ZM43.967 383.705C43.9672 383.705 43.9674 383.705 43.9676 383.705L44.509 383.702C44.5589 383.702 44.599 383.662 44.5987 383.612C44.5984 383.563 44.5581 383.524 44.5085 383.524C44.5083 383.524 44.5082 383.524 44.5079 383.524L43.9665 383.527C43.9166 383.527 43.8765 383.567 43.8768 383.617C43.8771 383.666 43.9174 383.705 43.967 383.705ZM45.7719 383.695C45.7721 383.695 45.7723 383.695 45.7724 383.695L46.3139 383.692C46.3638 383.691 46.4039 383.651 46.4036 383.602C46.4033 383.553 46.359 383.518 46.3129 383.513L45.7714 383.516C45.7216 383.516 45.6814 383.557 45.6816 383.606C45.6819 383.655 45.7223 383.695 45.7719 383.695ZM47.5768 383.684C47.577 383.684 47.5771 383.684 47.5773 383.684L48.1188 383.681C48.1687 383.681 48.2087 383.641 48.2085 383.591C48.2083 383.542 48.1679 383.503 48.1182 383.503C48.1181 383.503 48.1179 383.503 48.1177 383.503L47.5762 383.506C47.5265 383.506 47.4863 383.546 47.4866 383.595C47.4868 383.645 47.5272 383.684 47.5768 383.684ZM49.3816 383.674C49.3818 383.674 49.382 383.674 49.3821 383.674L49.9236 383.671C49.9734 383.67 50.0136 383.63 50.0133 383.581C50.0129 383.531 49.9689 383.493 49.9225 383.492L49.3811 383.495C49.3312 383.495 49.2911 383.536 49.2913 383.585C49.2916 383.634 49.332 383.674 49.3816 383.674ZM51.1865 383.663C51.1866 383.663 51.1868 383.663 51.187 383.663L51.7285 383.66C51.7784 383.66 51.8184 383.62 51.8182 383.57C51.8179 383.521 51.7775 383.482 51.7279 383.482C51.7277 383.482 51.7276 383.482 51.7274 383.482L51.1859 383.485C51.1361 383.485 51.096 383.525 51.0962 383.574C51.0965 383.624 51.1369 383.663 51.1865 383.663ZM-9.59843 383.654C-9.56065 383.654 -9.52537 383.63 -9.5128 383.593C-9.49712 383.546 -9.52267 383.495 -9.56998 383.48C-9.73839 383.424 -9.9066 383.362 -10.0701 383.293C-10.116 383.275 -10.169 383.296 -10.1884 383.341C-10.2077 383.387 -10.1862 383.439 -10.1403 383.458C-9.9725 383.528 -9.79975 383.592 -9.62688 383.649C-9.61749 383.652 -9.60789 383.654 -9.59843 383.654ZM52.9914 383.653C52.9915 383.653 52.9917 383.653 52.9919 383.653L53.5333 383.65C53.5833 383.649 53.6233 383.609 53.6231 383.56C53.6227 383.51 53.5788 383.469 53.5323 383.471L52.9908 383.474C52.941 383.474 52.9008 383.515 52.9011 383.564C52.9014 383.613 52.9417 383.653 52.9914 383.653ZM54.7962 383.642C54.7964 383.642 54.7965 383.642 54.7967 383.642L55.3382 383.639C55.388 383.639 55.4281 383.599 55.4279 383.549C55.4276 383.5 55.3872 383.46 55.3376 383.46C55.3374 383.46 55.3372 383.46 55.3371 383.46L54.7956 383.464C54.7457 383.464 54.7057 383.504 54.7059 383.553C54.7061 383.602 54.7466 383.642 54.7962 383.642ZM56.601 383.632C56.6012 383.632 56.6013 383.632 56.6015 383.632L57.143 383.629C57.1929 383.628 57.233 383.588 57.2328 383.539C57.2325 383.49 57.1921 383.45 57.1425 383.45C57.1423 383.45 57.1421 383.45 57.142 383.45L56.6005 383.453C56.5507 383.453 56.5105 383.494 56.5108 383.543C56.5111 383.592 56.5514 383.632 56.601 383.632ZM58.4059 383.621C58.4061 383.621 58.4063 383.621 58.4065 383.621L58.9479 383.618C58.9978 383.618 59.0379 383.577 59.0376 383.528C59.0373 383.479 58.997 383.439 58.9474 383.439C58.9472 383.439 58.9471 383.439 58.9468 383.439L58.4054 383.443C58.3555 383.443 58.3154 383.483 58.3157 383.532C58.3159 383.581 58.3563 383.621 58.4059 383.621ZM60.2107 383.611C60.2109 383.611 60.211 383.611 60.2112 383.611L60.7527 383.607C60.8025 383.607 60.8427 383.567 60.8424 383.518C60.8422 383.468 60.8018 383.429 60.7522 383.429C60.752 383.429 60.7518 383.429 60.7516 383.429L60.2102 383.432C60.1603 383.432 60.1202 383.472 60.1205 383.522C60.1207 383.571 60.1611 383.611 60.2107 383.611ZM62.0156 383.6C62.0157 383.6 62.0159 383.6 62.0161 383.6L62.5576 383.597C62.6075 383.597 62.6476 383.556 62.6473 383.507C62.647 383.458 62.6067 383.418 62.5571 383.418C62.5569 383.418 62.5567 383.418 62.5565 383.418L62.0151 383.421C61.9652 383.422 61.9251 383.462 61.9253 383.511C61.9256 383.56 61.966 383.6 62.0156 383.6ZM63.8201 383.58C63.8216 383.58 63.8231 383.58 63.8247 383.58C64.0052 383.571 64.1884 383.557 64.3692 383.538C64.4188 383.533 64.4548 383.489 64.4494 383.44C64.4442 383.391 64.4008 383.354 64.3502 383.36C64.1728 383.379 63.9929 383.393 63.8157 383.402C63.7659 383.404 63.7276 383.446 63.73 383.495C63.7325 383.543 63.7723 383.58 63.8201 383.58ZM65.6035 383.326C65.6106 383.326 65.6176 383.325 65.6248 383.323C65.8008 383.282 65.9782 383.234 66.152 383.182C66.1997 383.168 66.2268 383.118 66.2123 383.071C66.1979 383.024 66.1475 382.997 66.0999 383.011C65.9294 383.062 65.7553 383.109 65.5825 383.15C65.5341 383.161 65.5042 383.21 65.5158 383.258C65.5258 383.298 65.5628 383.326 65.6035 383.326ZM-11.2187 382.878C-11.1892 382.878 -11.1604 382.864 -11.1432 382.838C-11.1158 382.797 -11.1275 382.741 -11.1691 382.714C-11.318 382.617 -11.4644 382.514 -11.6043 382.407C-11.6435 382.377 -11.7003 382.384 -11.7308 382.423C-11.7613 382.462 -11.7541 382.518 -11.7146 382.549C-11.5711 382.658 -11.4208 382.764 -11.2681 382.863C-11.2528 382.873 -11.2357 382.878 -11.2187 382.878ZM67.3078 382.747C67.3202 382.747 67.3328 382.745 67.3448 382.739C67.5093 382.666 67.6744 382.586 67.8354 382.503C67.8796 382.48 67.8967 382.427 67.8737 382.383C67.8506 382.339 67.7965 382.322 67.7519 382.345C67.5939 382.427 67.4319 382.505 67.2705 382.577C67.2251 382.597 67.2049 382.65 67.2254 382.695C67.2405 382.728 67.2733 382.747 67.3078 382.747ZM68.8721 381.865C68.89 381.865 68.9081 381.86 68.9238 381.849C69.0721 381.746 69.2195 381.638 69.3618 381.526C69.401 381.496 69.4077 381.44 69.3768 381.401C69.3459 381.362 69.2893 381.356 69.2501 381.386C69.1104 381.495 68.9657 381.602 68.8202 381.703C68.7794 381.731 68.7696 381.787 68.7982 381.827C68.8157 381.852 68.8436 381.865 68.8721 381.865ZM-12.5835 381.717C-12.562 381.717 -12.5405 381.71 -12.5232 381.695C-12.4861 381.662 -12.483 381.605 -12.5163 381.569C-12.6345 381.438 -12.7492 381.301 -12.8572 381.162C-12.8875 381.122 -12.944 381.115 -12.9837 381.145C-13.0232 381.175 -13.0308 381.231 -13.0005 381.27C-12.8897 381.413 -12.7719 381.554 -12.6506 381.688C-12.6328 381.707 -12.6081 381.717 -12.5835 381.717ZM70.2439 380.71C70.2673 380.71 70.2908 380.701 70.3085 380.683C70.4351 380.555 70.5597 380.421 70.6787 380.286C70.7116 380.248 70.7076 380.192 70.67 380.16C70.6325 380.127 70.5755 380.131 70.5427 380.168C70.4259 380.301 70.3035 380.432 70.1793 380.558C70.1444 380.594 70.1451 380.65 70.1808 380.685C70.1984 380.702 70.2212 380.71 70.2439 380.71ZM-13.6001 380.249C-13.5864 380.249 -13.5724 380.246 -13.5594 380.239C-13.515 380.217 -13.4972 380.163 -13.5197 380.119C-13.5998 379.963 -13.6747 379.801 -13.7421 379.639C-13.7612 379.593 -13.8141 379.572 -13.86 379.59C-13.9061 379.609 -13.9281 379.661 -13.9091 379.707C-13.8397 379.874 -13.7629 380.039 -13.6806 380.2C-13.6648 380.231 -13.6331 380.249 -13.6001 380.249ZM71.3757 379.323C71.405 379.323 71.4337 379.308 71.451 379.282C71.5515 379.132 71.6488 378.978 71.74 378.823C71.7651 378.781 71.7507 378.726 71.7077 378.701C71.6643 378.676 71.6092 378.691 71.5842 378.733C71.4946 378.885 71.3992 379.037 71.3005 379.184C71.273 379.225 71.2844 379.28 71.326 379.308C71.3413 379.318 71.3586 379.323 71.3757 379.323ZM-14.1968 378.57C-14.1907 378.57 -14.1845 378.569 -14.1783 378.568C-14.1294 378.558 -14.0982 378.51 -14.1084 378.462C-14.1362 378.331 -14.1606 378.197 -14.1807 378.062L-14.1991 377.94C-14.2064 377.891 -14.252 377.856 -14.3015 377.864C-14.3507 377.871 -14.3849 377.917 -14.3777 377.965L-14.3592 378.089C-14.3386 378.226 -14.3136 378.364 -14.285 378.499C-14.2762 378.541 -14.2386 378.57 -14.1968 378.57ZM72.2253 377.749C72.2605 377.749 72.294 377.729 72.3086 377.694C72.3784 377.529 72.4446 377.359 72.5053 377.189C72.5218 377.142 72.4971 377.091 72.4501 377.075C72.4033 377.059 72.3517 377.083 72.335 377.13C72.2756 377.296 72.2106 377.463 72.142 377.625C72.1228 377.671 72.1445 377.723 72.1904 377.742C72.2018 377.747 72.2136 377.749 72.2253 377.749ZM-14.4676 376.804C-14.4635 376.804 -14.4594 376.804 -14.4551 376.803C-14.4058 376.796 -14.3713 376.751 -14.3782 376.702C-14.4027 376.528 -14.4272 376.351 -14.4518 376.172C-14.4586 376.123 -14.5035 376.089 -14.5534 376.095C-14.6027 376.102 -14.6374 376.147 -14.6307 376.196C-14.6061 376.375 -14.5815 376.552 -14.5569 376.727C-14.5507 376.772 -14.512 376.804 -14.4676 376.804ZM72.76 376.045C72.8019 376.045 72.8394 376.016 72.8483 375.974C72.8854 375.797 72.9179 375.619 72.9446 375.442C72.9521 375.393 72.9181 375.347 72.8687 375.34C72.8187 375.334 72.7735 375.366 72.7661 375.415C72.7399 375.589 72.708 375.764 72.6716 375.937C72.6614 375.985 72.6927 376.033 72.7415 376.043C72.7477 376.044 72.7539 376.045 72.76 376.045ZM-14.7061 375.033C-14.7023 375.033 -14.6984 375.033 -14.6946 375.033C-14.6451 375.026 -14.6102 374.982 -14.6164 374.933L-14.6839 374.401C-14.69 374.352 -14.7354 374.317 -14.7846 374.324C-14.834 374.33 -14.8691 374.374 -14.863 374.423L-14.7955 374.955C-14.7897 375 -14.7508 375.033 -14.7061 375.033ZM72.9615 374.273C73.0099 374.273 73.0501 374.235 73.0516 374.187L73.0689 373.651C73.0706 373.602 73.0315 373.561 72.9817 373.559C72.9317 373.555 72.8902 373.596 72.8886 373.646L72.8712 374.181C72.8696 374.23 72.9087 374.272 72.9585 374.273C72.9594 374.273 72.9605 374.273 72.9615 374.273ZM-14.924 373.26C-14.9206 373.26 -14.9171 373.26 -14.9135 373.26C-14.8639 373.254 -14.8285 373.21 -14.8343 373.161C-14.8549 372.985 -14.8754 372.807 -14.8956 372.628C-14.9013 372.579 -14.9464 372.545 -14.9954 372.55C-15.0449 372.555 -15.0806 372.599 -15.0751 372.648C-15.0546 372.828 -15.0342 373.005 -15.0135 373.181C-15.0082 373.227 -14.9692 373.26 -14.924 373.26ZM73.0195 372.488C73.068 372.488 73.1081 372.45 73.1095 372.402L73.1271 371.866C73.1287 371.817 73.0895 371.776 73.0397 371.774C72.9905 371.771 72.9482 371.811 72.9467 371.861L72.9292 372.396C72.9275 372.445 72.9667 372.487 73.0165 372.488C73.0174 372.488 73.0185 372.488 73.0195 372.488ZM-15.1214 371.485C-15.1183 371.485 -15.1152 371.484 -15.112 371.484C-15.0624 371.479 -15.0264 371.435 -15.0315 371.386C-15.0501 371.21 -15.0685 371.032 -15.0868 370.853C-15.0917 370.804 -15.136 370.769 -15.1856 370.773C-15.2352 370.778 -15.2714 370.822 -15.2664 370.871C-15.2481 371.05 -15.2297 371.228 -15.211 371.404C-15.2062 371.45 -15.1671 371.485 -15.1214 371.485ZM73.0775 370.703C73.126 370.703 73.166 370.665 73.1675 370.617L73.185 370.082C73.1867 370.032 73.1475 369.991 73.0977 369.989C73.055 369.983 73.0061 370.026 73.0047 370.076L72.9872 370.611C72.9855 370.66 73.0247 370.702 73.0745 370.703C73.0754 370.703 73.0765 370.703 73.0775 370.703ZM-15.2983 369.707C-15.2955 369.707 -15.2928 369.707 -15.2898 369.707C-15.2402 369.702 -15.2038 369.659 -15.2083 369.609C-15.2248 369.433 -15.2412 369.255 -15.2573 369.076C-15.2618 369.027 -15.3044 368.99 -15.3552 368.995C-15.4048 368.999 -15.4415 369.043 -15.4371 369.092C-15.421 369.271 -15.4047 369.449 -15.388 369.626C-15.3837 369.672 -15.3444 369.707 -15.2983 369.707ZM73.1355 368.918C73.1839 368.918 73.224 368.88 73.2255 368.832L73.243 368.296C73.2446 368.247 73.2055 368.206 73.1558 368.204C73.1127 368.198 73.0643 368.241 73.0626 368.291L73.0451 368.826C73.0435 368.876 73.0826 368.917 73.1324 368.918C73.1334 368.918 73.1344 368.918 73.1355 368.918ZM-15.4543 367.927C-15.4518 367.927 -15.4494 367.927 -15.447 367.927C-15.3972 367.923 -15.3602 367.88 -15.3642 367.831L-15.4068 367.297C-15.4108 367.248 -15.452 367.211 -15.5038 367.215C-15.5535 367.219 -15.5907 367.262 -15.5868 367.311L-15.5442 367.845C-15.5403 367.892 -15.5008 367.927 -15.4543 367.927ZM73.1935 367.133C73.242 367.133 73.2821 367.095 73.2837 367.047L73.3011 366.512C73.3026 366.462 73.2635 366.421 73.2138 366.419C73.1654 366.417 73.1222 366.457 73.1206 366.506L73.1033 367.041C73.1016 367.091 73.1408 367.132 73.1905 367.133C73.1915 367.133 73.1926 367.133 73.1935 367.133ZM-15.5887 366.146C-15.5866 366.146 -15.5845 366.146 -15.5824 366.146C-15.5327 366.143 -15.4952 366.1 -15.4985 366.051L-15.5346 365.516C-15.5377 365.467 -15.5797 365.431 -15.6305 365.433C-15.6802 365.436 -15.718 365.479 -15.7147 365.528L-15.6786 366.063C-15.6754 366.11 -15.6357 366.146 -15.5887 366.146ZM73.2515 365.349C73.3 365.349 73.3401 365.31 73.3416 365.262L73.3589 364.727C73.3606 364.677 73.3215 364.636 73.2717 364.635C73.2238 364.629 73.1802 364.672 73.1785 364.721L73.1612 365.256C73.1596 365.306 73.1987 365.347 73.2486 365.349C73.2495 365.349 73.2504 365.349 73.2515 365.349ZM-15.7008 364.363C-15.6992 364.363 -15.6974 364.363 -15.6957 364.363C-15.6459 364.361 -15.6079 364.318 -15.6107 364.269C-15.6207 364.092 -15.6305 363.913 -15.6399 363.735C-15.6425 363.685 -15.6853 363.647 -15.7347 363.65C-15.7845 363.653 -15.8227 363.694 -15.8202 363.744C-15.8108 363.923 -15.8008 364.101 -15.7908 364.279C-15.7882 364.327 -15.7483 364.363 -15.7008 364.363ZM73.3095 363.564C73.358 363.564 73.398 363.525 73.3996 363.477L73.417 362.942C73.4186 362.892 73.3795 362.851 73.3297 362.85C73.2823 362.846 73.2381 362.887 73.2367 362.936L73.2193 363.471C73.2176 363.521 73.2567 363.562 73.3065 363.563C73.3075 363.564 73.3086 363.564 73.3095 363.564ZM-15.79 362.58C-15.7887 362.58 -15.7874 362.58 -15.7861 362.579C-15.7363 362.577 -15.6977 362.536 -15.6998 362.486C-15.7076 362.309 -15.7149 362.13 -15.722 361.951C-15.7239 361.902 -15.7668 361.862 -15.8157 361.866C-15.8655 361.868 -15.9042 361.909 -15.9023 361.958C-15.8952 362.137 -15.8879 362.316 -15.8801 362.494C-15.878 362.542 -15.8381 362.58 -15.79 362.58ZM73.3675 361.779C73.416 361.779 73.4561 361.741 73.4576 361.692L73.475 361.157C73.4767 361.107 73.4376 361.066 73.3878 361.065C73.3438 361.059 73.2963 361.102 73.2947 361.151L73.2773 361.686C73.2756 361.736 73.3147 361.777 73.3645 361.779C73.3655 361.779 73.3666 361.779 73.3675 361.779ZM-15.8553 360.794C-15.8544 360.794 -15.8535 360.794 -15.8526 360.794C-15.8028 360.793 -15.7636 360.752 -15.765 360.702C-15.7703 360.524 -15.7752 360.346 -15.7798 360.167C-15.781 360.118 -15.821 360.08 -15.8723 360.08C-15.9221 360.081 -15.9615 360.122 -15.9603 360.172C-15.9557 360.351 -15.9508 360.529 -15.9455 360.708C-15.944 360.756 -15.9039 360.794 -15.8553 360.794ZM73.4255 359.994C73.4739 359.994 73.5141 359.956 73.5156 359.907L73.533 359.372C73.5347 359.322 73.4956 359.281 73.4458 359.28C73.4017 359.275 73.3543 359.317 73.3527 359.366L73.3351 359.902C73.3336 359.951 73.3727 359.992 73.4225 359.994C73.4235 359.994 73.4244 359.994 73.4255 359.994ZM-15.8955 359.009C-15.8951 359.009 -15.8946 359.009 -15.8942 359.009C-15.8444 359.008 -15.8046 358.967 -15.8053 358.918C-15.808 358.74 -15.8104 358.561 -15.8123 358.383C-15.8129 358.333 -15.8598 358.296 -15.9036 358.294C-15.9534 358.295 -15.9934 358.335 -15.9928 358.385C-15.9909 358.564 -15.9885 358.742 -15.9858 358.921C-15.985 358.97 -15.9448 359.009 -15.8955 359.009ZM73.4835 358.209C73.5319 358.209 73.5721 358.171 73.5736 358.122L73.5911 357.587C73.5927 357.538 73.5536 357.496 73.5037 357.495C73.4594 357.49 73.4122 357.532 73.4107 357.581L73.3932 358.117C73.3916 358.166 73.4307 358.207 73.4805 358.209C73.4814 358.209 73.4825 358.209 73.4835 358.209ZM-15.9097 357.223C-15.8599 357.223 -15.8195 357.183 -15.8195 357.134V357.09C-15.8195 356.927 -15.8191 356.763 -15.8184 356.599C-15.8182 356.549 -15.8584 356.509 -15.9083 356.509H-15.9086C-15.9584 356.509 -15.9987 356.549 -15.9989 356.598C-15.9996 356.762 -16 356.926 -16 357.09V357.134C-16 357.183 -15.9596 357.223 -15.9097 357.223ZM73.5415 356.424C73.59 356.424 73.6301 356.386 73.6316 356.337L73.649 355.802C73.6507 355.753 73.6115 355.711 73.5617 355.71C73.5115 355.704 73.4702 355.747 73.4686 355.796L73.4512 356.332C73.4496 356.381 73.4887 356.422 73.5385 356.424C73.5395 356.424 73.5405 356.424 73.5415 356.424ZM-15.8964 355.438C-15.8471 355.438 -15.807 355.399 -15.8062 355.35C-15.8034 355.172 -15.8002 354.993 -15.7966 354.815C-15.7956 354.766 -15.8352 354.725 -15.885 354.724C-15.9279 354.72 -15.9759 354.762 -15.977 354.811C-15.9807 354.99 -15.9839 355.169 -15.9866 355.347C-15.9874 355.396 -15.9476 355.437 -15.8978 355.438C-15.8973 355.438 -15.8969 355.438 -15.8964 355.438ZM73.5994 354.639C73.648 354.639 73.6881 354.601 73.6897 354.552L73.707 354.017C73.7087 353.968 73.6695 353.926 73.6197 353.925C73.575 353.92 73.5282 353.962 73.5267 354.011L73.5093 354.547C73.5077 354.596 73.5467 354.637 73.5965 354.639C73.5975 354.639 73.5985 354.639 73.5994 354.639ZM-15.8541 353.653C-15.8056 353.653 -15.7656 353.615 -15.764 353.566C-15.7583 353.388 -15.7521 353.21 -15.7454 353.031C-15.7436 352.982 -15.7825 352.941 -15.8323 352.939C-15.8827 352.935 -15.924 352.976 -15.9257 353.025C-15.9325 353.204 -15.9386 353.382 -15.9444 353.561C-15.9459 353.61 -15.9069 353.651 -15.8571 353.653C-15.856 353.653 -15.8551 353.653 -15.8541 353.653ZM73.6576 352.854C73.706 352.854 73.7461 352.816 73.7476 352.767L73.7649 352.232C73.7666 352.183 73.7275 352.141 73.6777 352.14C73.6284 352.137 73.5863 352.177 73.5846 352.226L73.5673 352.762C73.5657 352.811 73.6048 352.852 73.6545 352.854C73.6555 352.854 73.6565 352.854 73.6576 352.854ZM-15.7812 351.869C-15.7334 351.869 -15.6934 351.831 -15.6911 351.784C-15.6822 351.606 -15.6728 351.427 -15.663 351.249C-15.6603 351.2 -15.6984 351.158 -15.7482 351.155C-15.7968 351.153 -15.8406 351.19 -15.8431 351.239C-15.8531 351.418 -15.8625 351.597 -15.8714 351.775C-15.8738 351.824 -15.8354 351.866 -15.7857 351.869C-15.7841 351.869 -15.7827 351.869 -15.7812 351.869ZM73.7154 351.069C73.764 351.069 73.8041 351.031 73.8056 350.982L73.8231 350.447C73.8247 350.398 73.7856 350.356 73.7358 350.355C73.6839 350.355 73.6442 350.392 73.6428 350.441L73.6252 350.977C73.6236 351.026 73.6627 351.067 73.7125 351.069C73.7135 351.069 73.7145 351.069 73.7154 351.069ZM-15.6758 350.086C-15.6288 350.086 -15.5891 350.05 -15.5859 350.003C-15.5737 349.825 -15.5609 349.647 -15.5477 349.469C-15.544 349.42 -15.5813 349.377 -15.6311 349.373C-15.6831 349.37 -15.7241 349.407 -15.7276 349.456C-15.7409 349.634 -15.7537 349.812 -15.766 349.99C-15.7693 350.04 -15.7318 350.082 -15.682 350.086C-15.6799 350.086 -15.6778 350.086 -15.6758 350.086ZM73.7735 349.284C73.822 349.284 73.8621 349.246 73.8637 349.198L73.8811 348.662C73.8827 348.613 73.8435 348.572 73.7938 348.57C73.7484 348.562 73.7023 348.607 73.7007 348.656L73.6832 349.192C73.6816 349.241 73.7208 349.282 73.7705 349.284C73.7715 349.284 73.7725 349.284 73.7735 349.284ZM-15.5358 348.305C-15.4896 348.305 -15.4502 348.27 -15.4461 348.224C-15.4303 348.046 -15.4139 347.869 -15.397 347.691C-15.3924 347.642 -15.4288 347.598 -15.4784 347.594C-15.5285 347.59 -15.5721 347.625 -15.5767 347.674C-15.5937 347.852 -15.61 348.03 -15.6259 348.208C-15.6303 348.258 -15.5935 348.301 -15.5438 348.305C-15.5412 348.305 -15.5385 348.305 -15.5358 348.305ZM73.8315 347.499C73.88 347.499 73.9201 347.461 73.9215 347.413L73.939 346.877C73.9407 346.828 73.9015 346.787 73.8518 346.785C73.8061 346.782 73.7603 346.822 73.7586 346.871L73.7412 347.407C73.7396 347.456 73.7787 347.497 73.8285 347.499C73.8295 347.499 73.8304 347.499 73.8315 347.499ZM-15.3592 346.528C-15.3137 346.528 -15.2746 346.494 -15.2696 346.448C-15.2499 346.271 -15.2298 346.094 -15.209 345.917C-15.2033 345.868 -15.2387 345.823 -15.2882 345.818C-15.3389 345.811 -15.3825 345.847 -15.3882 345.896C-15.4091 346.073 -15.4293 346.251 -15.449 346.429C-15.4543 346.478 -15.4187 346.522 -15.369 346.528C-15.3658 346.528 -15.3624 346.528 -15.3592 346.528ZM73.8895 345.714C73.938 345.714 73.9782 345.676 73.9797 345.628L74 345H73.6725C73.6226 345 73.5823 345.04 73.5823 345.089C73.5823 345.138 73.6226 345.179 73.6725 345.179H73.8137L73.7993 345.622C73.7977 345.671 73.8368 345.712 73.8866 345.714C73.8875 345.714 73.8885 345.714 73.8895 345.714ZM-14.7668 345.179H-14.2253C-14.1754 345.179 -14.1351 345.138 -14.1351 345.089C-14.1351 345.04 -14.1754 345 -14.2253 345H-14.7668C-14.8166 345 -14.857 345.04 -14.857 345.089C-14.857 345.138 -14.8166 345.179 -14.7668 345.179ZM-12.9619 345.179H-12.4204C-12.3706 345.179 -12.3302 345.138 -12.3302 345.089C-12.3302 345.04 -12.3706 345 -12.4204 345H-12.9619C-13.0118 345 -13.0521 345.04 -13.0521 345.089C-13.0521 345.138 -13.0118 345.179 -12.9619 345.179ZM-11.157 345.179H-10.6155C-10.5657 345.179 -10.5253 345.138 -10.5253 345.089C-10.5253 345.04 -10.5657 345 -10.6155 345H-11.157C-11.2069 345 -11.2472 345.04 -11.2472 345.089C-11.2472 345.138 -11.2069 345.179 -11.157 345.179ZM-9.35216 345.179H-8.81069C-8.76075 345.179 -8.7204 345.138 -8.7204 345.089C-8.7204 345.04 -8.76075 345 -8.81069 345H-9.35216C-9.40203 345 -9.44238 345.04 -9.44238 345.089C-9.44238 345.138 -9.40203 345.179 -9.35216 345.179ZM-7.54724 345.179H-7.00578C-6.9559 345.179 -6.91556 345.138 -6.91556 345.089C-6.91556 345.04 -6.9559 345 -7.00578 345H-7.54724C-7.59712 345 -7.63747 345.04 -7.63747 345.089C-7.63747 345.138 -7.59712 345.179 -7.54724 345.179ZM-5.74233 345.179H-5.20093C-5.15099 345.179 -5.11064 345.138 -5.11064 345.089C-5.11064 345.04 -5.15099 345 -5.20093 345H-5.74233C-5.79221 345 -5.83262 345.04 -5.83262 345.089C-5.83262 345.138 -5.79221 345.179 -5.74233 345.179ZM-3.93748 345.179H-3.39602C-3.34615 345.179 -3.30579 345.138 -3.30579 345.089C-3.30579 345.04 -3.34615 345 -3.39602 345H-3.93748C-3.98736 345 -4.02771 345.04 -4.02771 345.089C-4.02771 345.138 -3.98736 345.179 -3.93748 345.179ZM-2.13257 345.179H-1.5911C-1.54123 345.179 -1.50089 345.138 -1.50089 345.089C-1.50089 345.04 -1.54123 345 -1.5911 345H-2.13257C-2.18245 345 -2.22286 345.04 -2.22286 345.089C-2.22286 345.138 -2.18245 345.179 -2.13257 345.179ZM-0.327728 345.179H0.213737C0.263618 345.179 0.303963 345.138 0.303963 345.089C0.303963 345.04 0.263618 345 0.213737 345H-0.327728C-0.377602 345 -0.417946 345.04 -0.417946 345.089C-0.417946 345.138 -0.377602 345.179 -0.327728 345.179ZM1.47719 345.179H2.01865C2.06853 345.179 2.10888 345.138 2.10888 345.089C2.10888 345.04 2.06853 345 2.01865 345H1.47719C1.42731 345 1.38689 345.04 1.38689 345.089C1.38689 345.138 1.42731 345.179 1.47719 345.179ZM3.28204 345.179H3.8235C3.87337 345.179 3.91379 345.138 3.91379 345.089C3.91379 345.04 3.87337 345 3.8235 345H3.28204C3.23215 345 3.19181 345.04 3.19181 345.089C3.19181 345.138 3.23215 345.179 3.28204 345.179ZM5.08694 345.179H5.62841C5.67829 345.179 5.71864 345.138 5.71864 345.089C5.71864 345.04 5.67829 345 5.62841 345H5.08694C5.03707 345 4.99673 345.04 4.99673 345.089C4.99673 345.138 5.03707 345.179 5.08694 345.179ZM6.89179 345.179H7.43326C7.4832 345.179 7.52354 345.138 7.52354 345.089C7.52354 345.04 7.4832 345 7.43326 345H6.89179C6.84198 345 6.80157 345.04 6.80157 345.089C6.80157 345.138 6.84198 345.179 6.89179 345.179ZM8.6967 345.179H9.23817C9.28805 345.179 9.32839 345.138 9.32839 345.089C9.32839 345.04 9.28805 345 9.23817 345H8.6967C8.64683 345 8.60648 345.04 8.60648 345.089C8.60648 345.138 8.64683 345.179 8.6967 345.179ZM10.5016 345.179H11.0431C11.093 345.179 11.1333 345.138 11.1333 345.089C11.1333 345.04 11.093 345 11.0431 345H10.5016C10.4517 345 10.4113 345.04 10.4113 345.089C10.4113 345.138 10.4517 345.179 10.5016 345.179ZM12.3065 345.179H12.8479C12.8978 345.179 12.9382 345.138 12.9382 345.089C12.9382 345.04 12.8978 345 12.8479 345H12.3065C12.2566 345 12.2162 345.04 12.2162 345.089C12.2162 345.138 12.2566 345.179 12.3065 345.179ZM14.1114 345.179H14.6528C14.7027 345.179 14.7431 345.138 14.7431 345.089C14.7431 345.04 14.7027 345 14.6528 345H14.1114C14.0615 345 14.0211 345.04 14.0211 345.089C14.0211 345.138 14.0615 345.179 14.1114 345.179ZM15.9162 345.179H16.4577C16.5076 345.179 16.548 345.138 16.548 345.089C16.548 345.04 16.5076 345 16.4577 345H15.9162C15.8663 345 15.826 345.04 15.826 345.089C15.826 345.138 15.8663 345.179 15.9162 345.179ZM17.7211 345.179H18.2626C18.3125 345.179 18.3528 345.138 18.3528 345.089C18.3528 345.04 18.3125 345 18.2626 345H17.7211C17.6713 345 17.6308 345.04 17.6308 345.089C17.6308 345.138 17.6713 345.179 17.7211 345.179ZM19.526 345.179H20.0674C20.1174 345.179 20.1577 345.138 20.1577 345.089C20.1577 345.04 20.1174 345 20.0674 345H19.526C19.4761 345 19.4358 345.04 19.4358 345.089C19.4358 345.138 19.4761 345.179 19.526 345.179ZM21.3309 345.179H21.8724C21.9222 345.179 21.9626 345.138 21.9626 345.089C21.9626 345.04 21.9222 345 21.8724 345H21.3309C21.281 345 21.2407 345.04 21.2407 345.089C21.2407 345.138 21.281 345.179 21.3309 345.179ZM23.1358 345.179H23.6772C23.7271 345.179 23.7675 345.138 23.7675 345.089C23.7675 345.04 23.7271 345 23.6772 345H23.1358C23.0859 345 23.0455 345.04 23.0455 345.089C23.0455 345.138 23.0859 345.179 23.1358 345.179ZM24.9407 345.179H25.4821C25.532 345.179 25.5723 345.138 25.5723 345.089C25.5723 345.04 25.532 345 25.4821 345H24.9407C24.8908 345 24.8504 345.04 24.8504 345.089C24.8504 345.138 24.8908 345.179 24.9407 345.179ZM26.7456 345.179H27.287C27.3369 345.179 27.3773 345.138 27.3773 345.089C27.3773 345.04 27.3369 345 27.287 345H26.7456C26.6957 345 26.6553 345.04 26.6553 345.089C26.6553 345.138 26.6957 345.179 26.7456 345.179ZM28.5504 345.179H29.0919C29.1418 345.179 29.1821 345.138 29.1821 345.089C29.1821 345.04 29.1418 345 29.0919 345H28.5504C28.5005 345 28.4602 345.04 28.4602 345.089C28.4602 345.138 28.5005 345.179 28.5504 345.179ZM30.3553 345.179H30.8968C30.9467 345.179 30.987 345.138 30.987 345.089C30.987 345.04 30.9467 345 30.8968 345H30.3553C30.3055 345 30.265 345.04 30.265 345.089C30.265 345.138 30.3055 345.179 30.3553 345.179ZM32.1602 345.179H32.7016C32.7515 345.179 32.7919 345.138 32.7919 345.089C32.7919 345.04 32.7515 345 32.7016 345H32.1602C32.1103 345 32.0699 345.04 32.0699 345.089C32.0699 345.138 32.1103 345.179 32.1602 345.179ZM33.9651 345.179H34.5065C34.5564 345.179 34.5968 345.138 34.5968 345.089C34.5968 345.04 34.5564 345 34.5065 345H33.9651C33.9152 345 33.8749 345.04 33.8749 345.089C33.8749 345.138 33.9152 345.179 33.9651 345.179ZM35.7699 345.179H36.3114C36.3613 345.179 36.4017 345.138 36.4017 345.089C36.4017 345.04 36.3613 345 36.3114 345H35.7699C35.7201 345 35.6797 345.04 35.6797 345.089C35.6797 345.138 35.7201 345.179 35.7699 345.179ZM37.5748 345.179H38.1163C38.1662 345.179 38.2065 345.138 38.2065 345.089C38.2065 345.04 38.1662 345 38.1163 345H37.5748C37.525 345 37.4846 345.04 37.4846 345.089C37.4846 345.138 37.525 345.179 37.5748 345.179ZM39.3798 345.179H39.9212C39.9711 345.179 40.0114 345.138 40.0114 345.089C40.0114 345.04 39.9711 345 39.9212 345H39.3798C39.3299 345 39.2895 345.04 39.2895 345.089C39.2895 345.138 39.3299 345.179 39.3798 345.179ZM41.1846 345.179H41.7261C41.7759 345.179 41.8163 345.138 41.8163 345.089C41.8163 345.04 41.7759 345 41.7261 345H41.1846C41.1347 345 41.0944 345.04 41.0944 345.089C41.0944 345.138 41.1347 345.179 41.1846 345.179ZM42.9895 345.179H43.531C43.5809 345.179 43.6212 345.138 43.6212 345.089C43.6212 345.04 43.5809 345 43.531 345H42.9895C42.9396 345 42.8992 345.04 42.8992 345.089C42.8992 345.138 42.9396 345.179 42.9895 345.179ZM44.7944 345.179H45.3358C45.3857 345.179 45.4261 345.138 45.4261 345.089C45.4261 345.04 45.3857 345 45.3358 345H44.7944C44.7445 345 44.7041 345.04 44.7041 345.089C44.7041 345.138 44.7445 345.179 44.7944 345.179ZM46.5993 345.179H47.1407C47.1906 345.179 47.231 345.138 47.231 345.089C47.231 345.04 47.1906 345 47.1407 345H46.5993C46.5494 345 46.509 345.04 46.509 345.089C46.509 345.138 46.5494 345.179 46.5993 345.179ZM48.4041 345.179H48.9456C48.9955 345.179 49.0359 345.138 49.0359 345.089C49.0359 345.04 48.9955 345 48.9456 345H48.4041C48.3542 345 48.3139 345.04 48.3139 345.089C48.3139 345.138 48.3542 345.179 48.4041 345.179ZM50.209 345.179H50.7505C50.8004 345.179 50.8407 345.138 50.8407 345.089C50.8407 345.04 50.8004 345 50.7505 345H50.209C50.1592 345 50.1188 345.04 50.1188 345.089C50.1188 345.138 50.1592 345.179 50.209 345.179ZM52.0139 345.179H52.5553C52.6053 345.179 52.6456 345.138 52.6456 345.089C52.6456 345.04 52.6053 345 52.5553 345H52.0139C51.9641 345 51.9237 345.04 51.9237 345.089C51.9237 345.138 51.9641 345.179 52.0139 345.179ZM53.8188 345.179H54.3603C54.4101 345.179 54.4505 345.138 54.4505 345.089C54.4505 345.04 54.4101 345 54.3603 345H53.8188C53.7689 345 53.7286 345.04 53.7286 345.089C53.7286 345.138 53.7689 345.179 53.8188 345.179ZM55.6237 345.179H56.1652C56.215 345.179 56.2554 345.138 56.2554 345.089C56.2554 345.04 56.215 345 56.1652 345H55.6237C55.5738 345 55.5334 345.04 55.5334 345.089C55.5334 345.138 55.5738 345.179 55.6237 345.179ZM57.4285 345.179H57.97C58.0199 345.179 58.0602 345.138 58.0602 345.089C58.0602 345.04 58.0199 345 57.97 345H57.4285C57.3787 345 57.3383 345.04 57.3383 345.089C57.3383 345.138 57.3787 345.179 57.4285 345.179ZM59.2335 345.179H59.7749C59.8248 345.179 59.8652 345.138 59.8652 345.089C59.8652 345.04 59.8248 345 59.7749 345H59.2335C59.1836 345 59.1432 345.04 59.1432 345.089C59.1432 345.138 59.1836 345.179 59.2335 345.179ZM61.0383 345.179H61.5798C61.6297 345.179 61.6701 345.138 61.6701 345.089C61.6701 345.04 61.6297 345 61.5798 345H61.0383C60.9884 345 60.9481 345.04 60.9481 345.089C60.9481 345.138 60.9884 345.179 61.0383 345.179ZM62.8432 345.179H63.3847C63.4346 345.179 63.4749 345.138 63.4749 345.089C63.4749 345.04 63.4346 345 63.3847 345H62.8432C62.7933 345 62.7529 345.04 62.7529 345.089C62.7529 345.138 62.7933 345.179 62.8432 345.179ZM64.6481 345.179H65.1895C65.2395 345.179 65.2798 345.138 65.2798 345.089C65.2798 345.04 65.2395 345 65.1895 345H64.6481C64.5982 345 64.5578 345.04 64.5578 345.089C64.5578 345.138 64.5982 345.179 64.6481 345.179ZM66.453 345.179H66.9944C67.0443 345.179 67.0847 345.138 67.0847 345.089C67.0847 345.04 67.0443 345 66.9944 345H66.453C66.4031 345 66.3628 345.04 66.3628 345.089C66.3628 345.138 66.4031 345.179 66.453 345.179ZM68.2578 345.179H68.7993C68.8492 345.179 68.8896 345.138 68.8896 345.089C68.8896 345.04 68.8492 345 68.7993 345H68.2578C68.208 345 68.1676 345.04 68.1676 345.089C68.1676 345.138 68.208 345.179 68.2578 345.179ZM70.0627 345.179H70.6042C70.6541 345.179 70.6944 345.138 70.6944 345.089C70.6944 345.04 70.6541 345 70.6042 345H70.0627C70.0129 345 69.9725 345.04 69.9725 345.089C69.9725 345.138 70.0129 345.179 70.0627 345.179ZM71.8677 345.179H72.4091C72.459 345.179 72.4993 345.138 72.4993 345.089C72.4993 345.04 72.459 345 72.4091 345H71.8677C71.8178 345 71.7774 345.04 71.7774 345.089C71.7774 345.138 71.8178 345.179 71.8677 345.179Z" fill="white"/>
<path d="M54 322.656L53.7739 320.391C53.5186 319.85 52.9887 319.467 52.3624 319.374C50.0209 319.025 44.2138 318.411 41.4177 320.367L41 323L54 322.656Z" fill="#512D2B"/>
<path d="M46.8715 320.903C47.2909 321.033 47.7109 321.033 48.1317 320.901C48.6408 320.742 49 320.162 49 319.498V312H46V319.493C46 320.16 46.3599 320.744 46.8715 320.903Z" fill="#512D2B"/>
<path d="M18 322.656L17.7739 320.391C17.5187 319.85 16.9887 319.467 16.3624 319.374C14.0209 319.025 8.21377 318.411 5.41771 320.367L5 323L18 322.656Z" fill="#512D2B"/>
<path d="M9.87156 320.901C10.2909 321.034 10.7109 321.033 11.1317 320.899C11.6408 320.736 12 320.144 12 319.466L11.9999 311H9V319.46C9 320.142 9.35989 320.739 9.87156 320.901Z" fill="#512D2B"/>
<path d="M50.0252 312.999L9.15765 311.668C8.22588 311.638 7.43535 310.977 7.27533 310.077C7.05143 308.818 6.85411 306.934 7.14837 304.981C7.48308 302.759 9.42518 301.109 11.7175 301.056C19.3414 300.877 38.7498 300.883 49.4468 305.045C50.5781 305.486 51.4173 306.437 51.7037 307.596C51.9769 308.701 52.1585 310.176 51.8016 311.678C51.612 312.476 50.8614 313.026 50.0252 312.999Z" fill="#7F4B49"/>
<path d="M50.7884 312C50.8798 312 50.9581 311.926 50.9675 311.828C50.9741 311.759 51.1232 310.121 50.7222 308.544C50.4173 307.346 49.5257 306.382 48.3952 306.029C46.1121 305.317 41.7497 304.106 38.1852 304C38.0854 303.997 38.0028 304.08 38.0001 304.186C37.9972 304.292 38.0757 304.38 38.1753 304.383C41.699 304.488 46.0273 305.69 48.2936 306.397C49.3047 306.713 50.1018 307.574 50.3741 308.644C50.7574 310.15 50.6103 311.773 50.6087 311.789C50.5987 311.894 50.671 311.988 50.7701 311.999C50.7762 312 50.7823 312 50.7884 312Z" fill="#91B3FA"/>
<path d="M73.5748 322.216C60.2257 322.047 2.47826 321.447 -14.2962 323.45C-15.7404 323.622 -16.919 324.668 -17.2318 326.067C-18.2229 330.501 -20.2171 340.801 -19.9807 351.011C-19.9485 352.4 -18.9189 353.573 -17.5326 353.832L20.7578 361H34.3592L75.158 352.975C76.5961 352.693 77.6561 351.487 77.7306 350.045C77.9958 344.908 78.4103 332.856 77.0064 325.098C76.7081 323.449 75.2748 322.238 73.5748 322.216Z" fill="#AF6B64"/>
<path d="M20.6227 358H21.1646C21.2144 358 21.255 357.959 21.255 357.909C21.255 357.859 21.2144 357.818 21.1646 357.818H20.6227C20.5728 357.818 20.5325 357.859 20.5325 357.909C20.5325 357.959 20.5728 358 20.6227 358ZM22.429 358H22.9708C23.0207 358 23.0611 357.959 23.0611 357.909C23.0611 357.859 23.0207 357.818 22.9708 357.818H22.429C22.3791 357.818 22.3387 357.859 22.3387 357.909C22.3387 357.959 22.3791 358 22.429 358ZM24.2351 358H24.777C24.8268 358 24.8673 357.959 24.8673 357.909C24.8673 357.859 24.8268 357.818 24.777 357.818H24.2351C24.1853 357.818 24.1448 357.859 24.1448 357.909C24.1448 357.959 24.1853 358 24.2351 358ZM26.0413 358H26.5832C26.633 358 26.6735 357.959 26.6735 357.909C26.6735 357.859 26.633 357.818 26.5832 357.818H26.0413C25.9914 357.818 25.9511 357.859 25.9511 357.909C25.9511 357.959 25.9914 358 26.0413 358ZM27.8476 358H28.3894C28.4392 358 28.4797 357.959 28.4797 357.909C28.4797 357.859 28.4392 357.818 28.3894 357.818H27.8476C27.7977 357.818 27.7572 357.859 27.7572 357.909C27.7572 357.959 27.7977 358 27.8476 358ZM29.6537 358H30.1956C30.2454 358 30.2859 357.959 30.2859 357.909C30.2859 357.859 30.2454 357.818 30.1956 357.818H29.6537C29.6038 357.818 29.5634 357.859 29.5634 357.909C29.5634 357.959 29.6038 358 29.6537 358ZM31.4599 358H32.0018C32.0516 358 32.0921 357.959 32.0921 357.909C32.0921 357.859 32.0516 357.818 32.0018 357.818H31.4599C31.41 357.818 31.3696 357.859 31.3696 357.909C31.3696 357.959 31.41 358 31.4599 358ZM33.2661 358H33.5021L34.0512 357.892C34.1001 357.882 34.1319 357.834 34.1221 357.785C34.1124 357.736 34.0654 357.703 34.0159 357.714L33.4845 357.82L33.2661 357.818C33.2162 357.818 33.1758 357.859 33.1758 357.909C33.1758 357.959 33.2162 358 33.2661 358ZM19.3805 357.764C19.4231 357.764 19.4609 357.734 19.4691 357.69C19.4784 357.641 19.4462 357.594 19.3971 357.584L18.8647 357.483C18.8158 357.474 18.7685 357.506 18.7592 357.555C18.75 357.605 18.7822 357.652 18.8312 357.661L19.3637 357.763C19.3693 357.764 19.375 357.764 19.3805 357.764ZM35.2736 357.646C35.2794 357.646 35.2853 357.645 35.2913 357.644L35.8228 357.537C35.8716 357.528 35.9034 357.48 35.8936 357.431C35.884 357.381 35.8373 357.349 35.7874 357.359L35.256 357.466C35.2072 357.475 35.1753 357.523 35.1851 357.572C35.1936 357.616 35.2313 357.646 35.2736 357.646ZM17.6058 357.427C17.6484 357.427 17.6862 357.396 17.6945 357.352C17.7037 357.303 17.6715 357.256 17.6224 357.246L17.09 357.145C17.0411 357.136 16.9938 357.168 16.9845 357.217C16.9753 357.267 17.0075 357.314 17.0565 357.324L17.589 357.425C17.5946 357.426 17.6002 357.427 17.6058 357.427ZM37.0451 357.291C37.0509 357.291 37.0568 357.291 37.0628 357.289L37.5943 357.183C37.6431 357.173 37.675 357.126 37.6652 357.076C37.6556 357.027 37.6085 356.995 37.559 357.005L37.0275 357.111C36.9787 357.121 36.9468 357.169 36.9567 357.218C36.9651 357.261 37.0028 357.291 37.0451 357.291ZM15.8311 357.089C15.8737 357.089 15.9115 357.058 15.9197 357.015C15.9289 356.965 15.8968 356.918 15.8477 356.908L15.3153 356.807C15.2663 356.798 15.2191 356.83 15.2098 356.879C15.2006 356.929 15.2328 356.976 15.2818 356.986L15.8142 357.087C15.8199 357.088 15.8255 357.089 15.8311 357.089ZM38.8166 356.937C38.8225 356.937 38.8283 356.936 38.8344 356.935L39.3658 356.829C39.4147 356.819 39.4465 356.771 39.4368 356.722C39.427 356.673 39.3803 356.64 39.3305 356.65L38.7991 356.757C38.7502 356.767 38.7184 356.814 38.7282 356.864C38.7367 356.907 38.7744 356.937 38.8166 356.937ZM14.0564 356.751C14.099 356.751 14.1368 356.72 14.145 356.677C14.1542 356.627 14.1221 356.58 14.073 356.57L13.5406 356.469C13.4915 356.46 13.4444 356.492 13.4351 356.542C13.4259 356.591 13.458 356.638 13.5071 356.648L14.0395 356.749C14.0452 356.75 14.0508 356.751 14.0564 356.751ZM40.5882 356.582C40.594 356.582 40.5999 356.582 40.6059 356.581L41.1373 356.474C41.1862 356.464 41.218 356.417 41.2083 356.367C41.1985 356.318 41.1515 356.286 41.102 356.296L40.5707 356.402C40.5218 356.412 40.4899 356.46 40.4997 356.509C40.5082 356.552 40.5459 356.582 40.5882 356.582ZM12.2817 356.413C12.3243 356.413 12.3621 356.382 12.3703 356.339C12.3795 356.289 12.3473 356.242 12.2983 356.233L11.7659 356.131C11.7167 356.122 11.6697 356.154 11.6604 356.204C11.6511 356.253 11.6833 356.3 11.7324 356.31L12.2648 356.411C12.2704 356.412 12.2761 356.413 12.2817 356.413ZM42.3597 356.228C42.3655 356.228 42.3715 356.227 42.3774 356.226L42.9089 356.12C42.9578 356.11 42.9895 356.062 42.9798 356.013C42.97 355.964 42.9233 355.931 42.8736 355.942L42.3422 356.048C42.2933 356.058 42.2614 356.105 42.2712 356.155C42.2798 356.198 42.3174 356.228 42.3597 356.228ZM10.507 356.075C10.5496 356.075 10.5874 356.044 10.5956 356.001C10.6048 355.952 10.5726 355.904 10.5236 355.895L9.99121 355.793C9.94191 355.784 9.89497 355.816 9.88571 355.866C9.87644 355.915 9.90864 355.963 9.95767 355.972L10.4901 356.073C10.4957 356.074 10.5014 356.075 10.507 356.075ZM44.1312 355.874C44.137 355.874 44.143 355.873 44.1489 355.872L44.6804 355.765C44.7293 355.756 44.7611 355.708 44.7513 355.658C44.7417 355.609 44.6945 355.577 44.6452 355.587L44.1137 355.693C44.0648 355.703 44.033 355.751 44.0428 355.8C44.0514 355.844 44.089 355.874 44.1312 355.874ZM8.73212 355.737C8.77473 355.737 8.81261 355.707 8.82079 355.663C8.83006 355.614 8.79787 355.566 8.74883 355.557L8.21651 355.455C8.16714 355.447 8.1202 355.478 8.111 355.528C8.10174 355.577 8.13393 355.625 8.18296 355.634L8.71529 355.735C8.72097 355.736 8.72658 355.737 8.73212 355.737ZM45.9028 355.519C45.9086 355.519 45.9145 355.519 45.9205 355.517L46.452 355.411C46.5008 355.401 46.5326 355.353 46.5229 355.304C46.5131 355.255 46.4655 355.222 46.4167 355.233L45.8853 355.339C45.8363 355.349 45.8046 355.397 45.8143 355.446C45.8228 355.489 45.8606 355.519 45.9028 355.519ZM6.95742 355.399C7.00003 355.399 7.0379 355.369 7.04608 355.325C7.05535 355.276 7.02316 355.228 6.97413 355.219L6.4418 355.117C6.3923 355.109 6.3455 355.141 6.3363 355.19C6.32703 355.239 6.35922 355.287 6.40826 355.296L6.94058 355.397C6.94626 355.398 6.95187 355.399 6.95742 355.399ZM47.6743 355.165C47.6801 355.165 47.686 355.164 47.692 355.163L48.2235 355.057C48.2723 355.047 48.3042 354.999 48.2944 354.95C48.2847 354.901 48.2374 354.868 48.1882 354.878L47.6568 354.985C47.6079 354.994 47.5761 355.042 47.5858 355.092C47.5944 355.135 47.6321 355.165 47.6743 355.165ZM5.18272 355.061C5.22532 355.061 5.2632 355.031 5.27138 354.987C5.28065 354.938 5.24845 354.89 5.19942 354.881L4.66696 354.779C4.61752 354.77 4.57066 354.803 4.56152 354.852C4.55226 354.901 4.58445 354.949 4.63348 354.958L5.16587 355.059C5.17155 355.06 5.17717 355.061 5.18272 355.061ZM49.4458 354.81C49.4516 354.81 49.4576 354.81 49.4635 354.808L49.995 354.702C50.0439 354.692 50.0757 354.645 50.0659 354.595C50.0563 354.546 50.0093 354.514 49.9597 354.524L49.4283 354.63C49.3795 354.64 49.3476 354.688 49.3573 354.737C49.3659 354.78 49.4036 354.81 49.4458 354.81ZM3.408 354.723C3.45061 354.723 3.48849 354.693 3.49667 354.649C3.50594 354.6 3.47375 354.552 3.42471 354.543L2.89226 354.442C2.84349 354.433 2.79608 354.465 2.78682 354.514C2.77755 354.563 2.80975 354.611 2.85878 354.62L3.39117 354.721C3.39685 354.723 3.40247 354.723 3.408 354.723ZM51.2174 354.456C51.2232 354.456 51.2291 354.455 51.2351 354.454L51.7666 354.348C51.8154 354.338 51.8472 354.29 51.8374 354.241C51.8278 354.192 51.7811 354.16 51.7313 354.169L51.1998 354.276C51.151 354.286 51.1191 354.333 51.1289 354.383C51.1374 354.426 51.1751 354.456 51.2174 354.456ZM1.6333 354.385C1.67591 354.385 1.71378 354.355 1.72197 354.311C1.73123 354.262 1.69904 354.214 1.65001 354.205L1.11755 354.104C1.06872 354.095 1.02138 354.127 1.01211 354.176C1.00285 354.225 1.03503 354.273 1.08407 354.282L1.61646 354.384C1.62215 354.385 1.62775 354.385 1.6333 354.385ZM52.9889 354.101C52.9947 354.101 53.0006 354.101 53.0066 354.1L53.5381 353.993C53.5869 353.983 53.6188 353.936 53.609 353.886C53.5993 353.837 53.5523 353.805 53.5028 353.815L52.9713 353.921C52.9225 353.931 52.8907 353.979 52.9005 354.028C52.909 354.072 52.9467 354.101 52.9889 354.101ZM-0.141403 354.047C-0.098793 354.047 -0.0609207 354.017 -0.052742 353.973C-0.0434723 353.924 -0.0756683 353.876 -0.124702 353.867L-0.657158 353.766C-0.706055 353.756 -0.753326 353.789 -0.762596 353.838C-0.771858 353.887 -0.73967 353.935 -0.690636 353.944L-0.158241 354.046C-0.152565 354.047 -0.14695 354.047 -0.141403 354.047ZM54.7605 353.747C54.7663 353.747 54.7722 353.746 54.7782 353.745L55.3096 353.639C55.3585 353.629 55.3903 353.581 55.3805 353.532C55.3708 353.483 55.3241 353.45 55.2743 353.461L54.7429 353.567C54.694 353.577 54.6622 353.625 54.672 353.674C54.6805 353.717 54.7182 353.747 54.7605 353.747ZM-1.91611 353.709C-1.8735 353.709 -1.83563 353.679 -1.82745 353.635C-1.81818 353.586 -1.85037 353.538 -1.89941 353.529L-2.43186 353.428C-2.4809 353.419 -2.52804 353.451 -2.5373 353.5C-2.54657 353.549 -2.51437 353.597 -2.46534 353.606L-1.93295 353.708C-1.92727 353.709 -1.92165 353.709 -1.91611 353.709ZM56.532 353.393C56.5378 353.393 56.5437 353.392 56.5497 353.391L57.0812 353.284C57.13 353.275 57.1618 353.227 57.152 353.178C57.1424 353.128 57.0952 353.096 57.0458 353.106L56.5144 353.213C56.4656 353.222 56.4337 353.27 56.4435 353.319C56.452 353.363 56.4897 353.393 56.532 353.393ZM-3.69082 353.371C-3.64821 353.371 -3.61034 353.341 -3.60215 353.297C-3.59289 353.248 -3.62508 353.201 -3.67411 353.191L-4.20657 353.09C-4.25567 353.081 -4.30274 353.113 -4.312 353.162C-4.32127 353.212 -4.28908 353.259 -4.24005 353.268L-3.70766 353.37C-3.70197 353.371 -3.69637 353.371 -3.69082 353.371ZM58.3035 353.038C58.3093 353.038 58.3152 353.038 58.3212 353.036L58.8527 352.93C58.9015 352.92 58.9334 352.872 58.9236 352.823C58.9138 352.774 58.8671 352.741 58.8174 352.752L58.2859 352.858C58.2371 352.868 58.2052 352.916 58.2151 352.965C58.2236 353.008 58.2612 353.038 58.3035 353.038ZM-5.46552 353.033C-5.42291 353.033 -5.38504 353.003 -5.37686 352.959C-5.36759 352.91 -5.39979 352.863 -5.44881 352.853L-5.98128 352.752C-6.03044 352.743 -6.07745 352.775 -6.08672 352.824C-6.09598 352.874 -6.06379 352.921 -6.01476 352.931L-5.48236 353.032C-5.47668 353.033 -5.47107 353.033 -5.46552 353.033ZM-7.24023 352.696C-7.19762 352.696 -7.15974 352.665 -7.15157 352.621C-7.1423 352.572 -7.17449 352.525 -7.22353 352.515L-7.75598 352.414C-7.80528 352.405 -7.85216 352.437 -7.86142 352.486C-7.87068 352.536 -7.83849 352.583 -7.78946 352.593L-7.25706 352.694C-7.25139 352.695 -7.24577 352.696 -7.24023 352.696ZM60.075 352.684C60.0809 352.684 60.0867 352.683 60.0928 352.682L60.6242 352.576C60.673 352.566 60.7049 352.518 60.6951 352.469C60.6855 352.42 60.6382 352.387 60.5889 352.397L60.0575 352.504C60.0086 352.513 59.9768 352.561 59.9866 352.611C59.9951 352.654 60.0328 352.684 60.075 352.684ZM-9.01493 352.358C-8.97233 352.358 -8.93452 352.327 -8.92627 352.284C-8.91701 352.234 -8.9492 352.187 -8.99823 352.177L-9.53069 352.076C-9.58006 352.067 -9.627 352.099 -9.63612 352.148C-9.64539 352.198 -9.6132 352.245 -9.56416 352.255L-9.03178 352.356C-9.02609 352.357 -9.02048 352.358 -9.01493 352.358ZM61.8466 352.329C61.8524 352.329 61.8583 352.329 61.8643 352.327L62.3957 352.221C62.4446 352.211 62.4764 352.164 62.4667 352.114C62.4569 352.065 62.4101 352.032 62.3604 352.043L61.829 352.149C61.7802 352.159 61.7483 352.207 61.7581 352.256C61.7666 352.299 61.8043 352.329 61.8466 352.329ZM-10.7896 352.02C-10.747 352.02 -10.7092 351.989 -10.701 351.946C-10.6917 351.896 -10.7239 351.849 -10.7729 351.839L-11.3054 351.738C-11.3548 351.729 -11.4017 351.761 -11.4108 351.811C-11.4201 351.86 -11.3879 351.907 -11.3389 351.917L-10.8065 352.018C-10.8008 352.019 -10.7952 352.02 -10.7896 352.02ZM63.6181 351.975C63.6239 351.975 63.6298 351.974 63.6358 351.973L64.1673 351.867C64.2162 351.857 64.2479 351.809 64.2382 351.76C64.2285 351.711 64.1812 351.678 64.132 351.689L63.6005 351.795C63.5517 351.805 63.5198 351.852 63.5296 351.902C63.5382 351.945 63.5758 351.975 63.6181 351.975ZM-12.5643 351.682C-12.5217 351.682 -12.4839 351.651 -12.4757 351.608C-12.4664 351.558 -12.4986 351.511 -12.5476 351.502L-13.0801 351.4C-13.1289 351.392 -13.1763 351.423 -13.1855 351.473C-13.1948 351.522 -13.1626 351.569 -13.1136 351.579L-12.5812 351.68C-12.5755 351.681 -12.5699 351.682 -12.5643 351.682ZM65.3896 351.62C65.3954 351.62 65.4013 351.62 65.4073 351.619L65.9388 351.512C65.9877 351.503 66.0195 351.455 66.0097 351.405C66.0001 351.356 65.9531 351.324 65.9036 351.334L65.372 351.44C65.3232 351.45 65.2914 351.498 65.3012 351.547C65.3096 351.59 65.3474 351.62 65.3896 351.62ZM-14.3391 351.344C-14.2964 351.344 -14.2586 351.313 -14.2504 351.27C-14.2411 351.221 -14.2733 351.173 -14.3223 351.164L-14.8548 351.062C-14.9036 351.053 -14.951 351.085 -14.9602 351.135C-14.9695 351.184 -14.9373 351.231 -14.8883 351.241L-14.3559 351.342C-14.3503 351.343 -14.3446 351.344 -14.3391 351.344ZM67.1611 351.266C67.167 351.266 67.1728 351.266 67.1789 351.264L67.7103 351.158C67.7592 351.148 67.791 351.1 67.7813 351.051C67.7715 351.002 67.7249 350.97 67.6751 350.98L67.1436 351.086C67.0947 351.096 67.0629 351.144 67.0727 351.193C67.0813 351.236 67.1189 351.266 67.1611 351.266ZM-16.1138 351.006C-16.0712 351.006 -16.0333 350.976 -16.0251 350.932C-16.0158 350.883 -16.048 350.835 -16.0971 350.826L-16.6295 350.724C-16.6785 350.715 -16.7257 350.747 -16.7349 350.797C-16.7442 350.846 -16.712 350.894 -16.663 350.903L-16.1306 351.004C-16.125 351.005 -16.1193 351.006 -16.1138 351.006ZM68.9327 350.912C68.9385 350.912 68.9444 350.911 68.9504 350.91L69.4818 350.803C69.5307 350.794 69.5626 350.746 69.5528 350.697C69.543 350.647 69.496 350.615 69.4466 350.625L68.9152 350.732C68.8663 350.741 68.8345 350.789 68.8442 350.838C68.8528 350.882 68.8904 350.912 68.9327 350.912ZM70.7042 350.557C70.71 350.557 70.716 350.557 70.722 350.555L71.2534 350.449C71.3023 350.439 71.3341 350.391 71.3243 350.342C71.3146 350.293 71.268 350.261 71.2181 350.271L70.6867 350.377C70.6378 350.387 70.606 350.435 70.6157 350.484C70.6243 350.527 70.662 350.557 70.7042 350.557ZM72.4757 350.203C72.4815 350.203 72.4875 350.202 72.4935 350.201L73.0249 350.095C73.0738 350.085 73.1056 350.037 73.0958 349.988C73.0862 349.939 73.039 349.906 72.9897 349.916L72.4582 350.023C72.4093 350.033 72.3775 350.08 72.3873 350.13C72.3959 350.173 72.4335 350.203 72.4757 350.203ZM-16.909 349.841C-16.909 349.841 -16.9087 349.841 -16.9086 349.841C-16.8587 349.841 -16.8185 349.8 -16.8187 349.75L-16.8194 349.421L-16.819 349.205C-16.8189 349.155 -16.8593 349.114 -16.9091 349.114H-16.9093C-16.9591 349.114 -16.9995 349.155 -16.9997 349.205L-17 349.421L-16.9993 349.751C-16.9991 349.801 -16.9587 349.841 -16.909 349.841ZM73.6804 349.356C73.7283 349.356 73.7682 349.318 73.7705 349.269C73.7788 349.094 73.7872 348.912 73.7955 348.724C73.7977 348.674 73.759 348.631 73.7092 348.629C73.6586 348.627 73.6171 348.666 73.615 348.716C73.6067 348.904 73.5984 349.086 73.5901 349.26C73.5877 349.311 73.6261 349.353 73.676 349.356C73.6775 349.356 73.679 349.356 73.6804 349.356ZM-16.8952 348.023C-16.846 348.023 -16.8058 347.984 -16.8048 347.934C-16.8013 347.753 -16.7972 347.571 -16.7925 347.39C-16.7912 347.34 -16.8306 347.298 -16.8804 347.297C-16.9349 347.293 -16.9717 347.335 -16.9731 347.385C-16.9777 347.567 -16.9819 347.749 -16.9855 347.931C-16.9864 347.981 -16.9468 348.022 -16.8969 348.023C-16.8963 348.023 -16.8956 348.023 -16.8952 348.023ZM73.7581 347.539C73.8063 347.539 73.8463 347.501 73.8482 347.452L73.8686 346.906C73.8704 346.856 73.8315 346.814 73.7816 346.812C73.7341 346.81 73.6899 346.849 73.6882 346.9L73.6678 347.445C73.6658 347.495 73.7047 347.537 73.7544 347.539C73.7557 347.539 73.7569 347.539 73.7581 347.539ZM-16.8401 346.208C-16.792 346.208 -16.7519 346.169 -16.75 346.12C-16.7426 345.939 -16.7345 345.758 -16.726 345.578C-16.7236 345.527 -16.7621 345.485 -16.8119 345.482C-16.8616 345.478 -16.904 345.519 -16.9064 345.569C-16.915 345.75 -16.923 345.931 -16.9304 346.113C-16.9324 346.163 -16.8937 346.206 -16.8439 346.208C-16.8427 346.208 -16.8413 346.208 -16.8401 346.208ZM73.8202 345.722C73.8689 345.722 73.909 345.683 73.9105 345.634L73.9261 345.088C73.9275 345.038 73.8883 344.996 73.8384 344.995C73.7873 344.996 73.747 345.033 73.7456 345.083L73.7299 345.628C73.7284 345.678 73.7676 345.72 73.8174 345.722C73.8184 345.722 73.8193 345.722 73.8202 345.722ZM-16.7473 344.393C-16.7 344.393 -16.6602 344.356 -16.6573 344.308C-16.6461 344.126 -16.6345 343.945 -16.6224 343.764C-16.6191 343.714 -16.6568 343.67 -16.7065 343.667C-16.7583 343.666 -16.7993 343.702 -16.8027 343.752C-16.8148 343.933 -16.8265 344.114 -16.8375 344.297C-16.8407 344.347 -16.8027 344.39 -16.7529 344.393C-16.751 344.393 -16.7492 344.393 -16.7473 344.393ZM73.8668 343.904C73.9158 343.904 73.956 343.865 73.9571 343.815L73.9679 343.27C73.9688 343.219 73.9292 343.178 73.8793 343.177C73.8317 343.173 73.7882 343.216 73.7873 343.266L73.7764 343.811C73.7753 343.862 73.815 343.903 73.8648 343.904C73.8655 343.904 73.8661 343.904 73.8668 343.904ZM-16.6194 342.579C-16.5728 342.579 -16.5332 342.543 -16.5294 342.495C-16.5148 342.314 -16.4999 342.133 -16.4846 341.952C-16.4804 341.902 -16.5171 341.858 -16.5669 341.854C-16.6154 341.848 -16.6603 341.887 -16.6645 341.937C-16.6798 342.118 -16.6949 342.299 -16.7095 342.481C-16.7134 342.531 -16.6764 342.575 -16.6267 342.579C-16.6242 342.579 -16.6217 342.579 -16.6194 342.579ZM73.8968 342.086C73.9462 342.086 73.9865 342.046 73.9872 341.996L73.9928 341.451C73.9933 341.4 73.9533 341.359 73.9034 341.359C73.9031 341.359 73.9028 341.359 73.9025 341.359C73.853 341.359 73.8127 341.399 73.8123 341.449L73.8065 341.994C73.8059 342.044 73.8459 342.086 73.8957 342.086C73.8961 342.086 73.8965 342.086 73.8968 342.086ZM-16.4587 340.768C-16.4128 340.768 -16.3735 340.733 -16.369 340.686C-16.3513 340.504 -16.3333 340.323 -16.3148 340.143C-16.3097 340.093 -16.3459 340.049 -16.3954 340.044C-16.4454 340.038 -16.4894 340.075 -16.4945 340.125C-16.513 340.305 -16.5311 340.486 -16.5487 340.668C-16.5536 340.718 -16.5173 340.762 -16.4677 340.767C-16.4647 340.767 -16.4617 340.768 -16.4587 340.768ZM73.9094 340.268C73.9592 340.268 73.9997 340.227 73.9997 340.177L74 339.865L73.9998 339.632C73.9997 339.582 73.9594 339.541 73.9095 339.541H73.9094C73.8595 339.541 73.8191 339.582 73.8192 339.632L73.8194 339.865L73.8191 340.177C73.819 340.227 73.8594 340.268 73.9092 340.268C73.9092 340.268 73.9093 340.268 73.9094 340.268ZM-16.2679 338.959C-16.2226 338.959 -16.1836 338.925 -16.1783 338.879C-16.1576 338.697 -16.1366 338.517 -16.1152 338.337C-16.1094 338.287 -16.1447 338.242 -16.1942 338.236C-16.2451 338.229 -16.2887 338.266 -16.2946 338.316C-16.316 338.495 -16.3369 338.676 -16.3577 338.858C-16.3634 338.908 -16.3279 338.953 -16.2783 338.958C-16.2748 338.959 -16.2713 338.959 -16.2679 338.959ZM73.9028 338.451C73.9031 338.451 73.9034 338.451 73.9037 338.451C73.9535 338.45 73.9936 338.409 73.9931 338.359C73.9914 338.178 73.9894 337.996 73.9872 337.814C73.9865 337.764 73.9462 337.724 73.8968 337.724C73.8965 337.724 73.8961 337.724 73.8956 337.724C73.8459 337.725 73.8059 337.766 73.8065 337.816C73.8088 337.998 73.8108 338.18 73.8125 338.361C73.8129 338.411 73.8533 338.451 73.9028 338.451ZM-16.048 337.154C-16.0033 337.154 -15.9644 337.12 -15.9585 337.075C-15.935 336.893 -15.9112 336.713 -15.8872 336.534C-15.8806 336.485 -15.9152 336.439 -15.9646 336.432C-16.0154 336.425 -16.0595 336.46 -16.0662 336.51C-16.0902 336.689 -16.114 336.87 -16.1376 337.051C-16.1441 337.101 -16.1092 337.147 -16.0598 337.153C-16.0558 337.154 -16.0518 337.154 -16.048 337.154ZM73.875 336.634C73.8756 336.634 73.8762 336.634 73.877 336.634C73.9268 336.632 73.9663 336.591 73.9652 336.541C73.9612 336.359 73.957 336.177 73.9524 335.995C73.9511 335.945 73.9113 335.902 73.8597 335.907C73.81 335.908 73.7705 335.95 73.7717 336C73.7763 336.182 73.7807 336.363 73.7846 336.545C73.7858 336.594 73.826 336.634 73.875 336.634ZM-15.8006 335.352C-15.7565 335.352 -15.7179 335.32 -15.7114 335.275C-15.6851 335.093 -15.6587 334.913 -15.632 334.735C-15.6246 334.686 -15.6587 334.639 -15.708 334.632C-15.7577 334.625 -15.8032 334.659 -15.8107 334.708C-15.8373 334.887 -15.8638 335.067 -15.8901 335.248C-15.8973 335.298 -15.8631 335.344 -15.8138 335.351C-15.8094 335.352 -15.805 335.352 -15.8006 335.352ZM73.8227 334.816C73.8239 334.816 73.8249 334.816 73.8261 334.816C73.8759 334.814 73.9149 334.772 73.913 334.722C73.9065 334.54 73.8996 334.358 73.8921 334.176C73.89 334.126 73.844 334.087 73.7982 334.089C73.7484 334.091 73.7097 334.133 73.7117 334.183C73.7191 334.365 73.7261 334.547 73.7326 334.728C73.7343 334.778 73.7744 334.816 73.8227 334.816ZM-15.527 333.555C-15.4834 333.555 -15.4451 333.523 -15.4379 333.478C-15.4089 333.297 -15.3798 333.117 -15.3508 332.94C-15.3427 332.89 -15.3759 332.844 -15.4251 332.836C-15.4751 332.827 -15.5208 332.861 -15.529 332.91C-15.5581 333.088 -15.5872 333.268 -15.6163 333.449C-15.6242 333.499 -15.5906 333.545 -15.5415 333.553C-15.5366 333.554 -15.5318 333.555 -15.527 333.555ZM73.7427 332.998C73.7442 332.998 73.7459 332.998 73.7475 332.998C73.7973 332.996 73.8356 332.953 73.833 332.903C73.8233 332.72 73.8132 332.538 73.8026 332.356C73.7997 332.306 73.7578 332.268 73.7072 332.271C73.6574 332.274 73.6194 332.317 73.6223 332.367C73.633 332.548 73.643 332.73 73.6525 332.912C73.6551 332.961 73.6949 332.998 73.7427 332.998ZM-15.2273 331.761C-15.1843 331.761 -15.1461 331.73 -15.1384 331.686C-15.1069 331.504 -15.0751 331.325 -15.0437 331.149C-15.0349 331.099 -15.0675 331.052 -15.1166 331.043C-15.1658 331.034 -15.2127 331.067 -15.2215 331.117C-15.253 331.293 -15.2847 331.472 -15.3164 331.654C-15.325 331.704 -15.2921 331.751 -15.243 331.76C-15.2377 331.76 -15.2324 331.761 -15.2273 331.761ZM73.6293 331.182C73.6315 331.182 73.6337 331.182 73.636 331.182C73.6858 331.179 73.7232 331.135 73.7195 331.085C73.7062 330.903 73.6925 330.721 73.6781 330.54C73.6742 330.49 73.6318 330.454 73.5808 330.457C73.531 330.461 73.4941 330.505 73.498 330.555C73.5124 330.735 73.5261 330.916 73.5394 331.098C73.5428 331.146 73.5824 331.182 73.6293 331.182ZM-14.9022 329.972C-14.8597 329.972 -14.8218 329.941 -14.8136 329.898C-14.7791 329.715 -14.7449 329.537 -14.7111 329.362C-14.7016 329.313 -14.7335 329.265 -14.7824 329.256C-14.8307 329.245 -14.8789 329.278 -14.8884 329.328C-14.9222 329.502 -14.9565 329.681 -14.991 329.864C-15.0004 329.913 -14.9682 329.961 -14.9193 329.97C-14.9135 329.971 -14.9078 329.972 -14.9022 329.972ZM73.4762 329.371C73.4791 329.371 73.4821 329.371 73.4851 329.37C73.5348 329.365 73.571 329.321 73.5661 329.271C73.5484 329.089 73.53 328.907 73.5109 328.727C73.5056 328.678 73.4622 328.641 73.4115 328.647C73.3619 328.652 73.326 328.697 73.3313 328.747C73.3503 328.926 73.3687 329.107 73.3865 329.289C73.3911 329.336 73.4303 329.371 73.4762 329.371ZM-14.5509 328.187C-14.5089 328.187 -14.4713 328.158 -14.4625 328.115C-14.4246 327.93 -14.3876 327.752 -14.3518 327.581C-14.3414 327.532 -14.3727 327.484 -14.4214 327.473C-14.4705 327.463 -14.5181 327.494 -14.5285 327.543C-14.5644 327.714 -14.6014 327.893 -14.6394 328.078C-14.6495 328.127 -14.6181 328.175 -14.5692 328.186C-14.563 328.187 -14.557 328.187 -14.5509 328.187ZM73.2727 327.564C73.2766 327.564 73.2804 327.564 73.2844 327.563C73.3339 327.557 73.3687 327.511 73.3622 327.461C73.3387 327.279 73.3143 327.099 73.2891 326.92C73.2821 326.87 73.2363 326.836 73.187 326.843C73.1376 326.85 73.1033 326.896 73.1103 326.945C73.1355 327.123 73.1597 327.303 73.1832 327.485C73.1892 327.531 73.228 327.564 73.2727 327.564ZM-13.9717 326.604C-13.9683 326.604 -13.9646 326.604 -13.9611 326.604C-13.787 326.583 -13.6078 326.563 -13.4234 326.542C-13.3738 326.537 -13.338 326.492 -13.3434 326.442C-13.3488 326.392 -13.3922 326.356 -13.443 326.362C-13.6279 326.382 -13.8077 326.402 -13.9821 326.423C-14.0317 326.429 -14.0671 326.474 -14.0613 326.524C-14.0559 326.57 -14.017 326.604 -13.9717 326.604ZM-12.1752 326.416C-12.1724 326.416 -12.1697 326.416 -12.1669 326.415C-11.9907 326.399 -11.811 326.383 -11.6275 326.367C-11.5778 326.362 -11.5411 326.318 -11.5454 326.268C-11.5499 326.218 -11.5941 326.182 -11.6433 326.186C-11.827 326.202 -12.0071 326.218 -12.1834 326.234C-12.2332 326.239 -12.2697 326.283 -12.2651 326.333C-12.2607 326.38 -12.2213 326.416 -12.1752 326.416ZM-10.3753 326.263C-10.373 326.263 -10.3706 326.263 -10.3683 326.263C-10.191 326.249 -10.0111 326.236 -9.82819 326.222C-9.77849 326.219 -9.74109 326.175 -9.74474 326.125C-9.74832 326.075 -9.79242 326.038 -9.84132 326.041C-10.0245 326.055 -10.2046 326.068 -10.3821 326.082C-10.4318 326.086 -10.4691 326.129 -10.4653 326.179C-10.4616 326.227 -10.422 326.263 -10.3753 326.263ZM-8.57337 326.135C-8.57134 326.135 -8.56938 326.135 -8.56735 326.135L-8.02678 326.1C-7.97707 326.097 -7.93919 326.054 -7.94231 326.004C-7.94542 325.954 -7.98586 325.917 -8.03807 325.919L-8.57919 325.954C-8.6289 325.957 -8.66663 326 -8.66339 326.05C-8.66021 326.098 -8.62051 326.135 -8.57337 326.135ZM-6.77032 326.025C-6.76857 326.025 -6.76688 326.025 -6.76512 326.025L-6.22421 325.994C-6.17436 325.992 -6.13628 325.949 -6.13906 325.899C-6.14156 325.848 -6.18437 325.811 -6.23408 325.813L-6.77533 325.843C-6.82511 325.846 -6.86318 325.889 -6.86034 325.939C-6.8577 325.987 -6.81787 326.025 -6.77032 326.025ZM-4.96641 325.928C-4.96492 325.928 -4.96336 325.928 -4.96181 325.928L-4.42076 325.902C-4.37091 325.899 -4.3325 325.857 -4.33487 325.806C-4.33723 325.756 -4.38038 325.717 -4.42941 325.72L-4.9708 325.747C-5.02065 325.749 -5.05906 325.792 -5.05656 325.842C-5.05405 325.89 -5.01422 325.928 -4.96641 325.928ZM-3.16215 325.843C-3.16086 325.843 -3.15944 325.843 -3.15809 325.843L-2.61691 325.819C-2.56706 325.817 -2.52844 325.775 -2.53054 325.725C-2.53263 325.674 -2.57706 325.636 -2.62461 325.638L-3.16607 325.661C-3.21591 325.664 -3.25453 325.706 -3.2523 325.756C-3.2502 325.805 -3.21023 325.843 -3.16215 325.843ZM-1.35754 325.767C-1.35633 325.767 -1.35518 325.767 -1.35396 325.767L-0.812508 325.746C-0.762665 325.744 -0.723778 325.702 -0.725739 325.652C-0.727631 325.601 -0.773216 325.56 -0.819405 325.564L-1.36099 325.585C-1.41084 325.587 -1.44966 325.63 -1.4477 325.68C-1.44574 325.729 -1.40583 325.767 -1.35754 325.767ZM73.0033 325.766C73.0083 325.766 73.0135 325.766 73.0187 325.765C73.0678 325.756 73.1008 325.709 73.0923 325.66L73.0622 325.488C73.0346 325.332 72.9061 325.221 72.75 325.218L72.7031 325.218C72.6481 325.211 72.6122 325.257 72.6113 325.307C72.6105 325.357 72.6503 325.399 72.7001 325.4L72.7472 325.4C72.8169 325.401 72.8719 325.449 72.8844 325.52L72.9143 325.691C72.922 325.735 72.9601 325.766 73.0033 325.766ZM0.447594 325.699C0.448746 325.699 0.44976 325.699 0.450844 325.699L0.992226 325.68C1.04214 325.679 1.08116 325.637 1.07941 325.586C1.07764 325.536 1.03558 325.495 0.986076 325.499L0.444481 325.518C0.394638 325.519 0.355682 325.562 0.357445 325.612C0.359131 325.661 0.399239 325.699 0.447594 325.699ZM2.2528 325.638C2.25375 325.638 2.25483 325.638 2.25578 325.638L2.7973 325.621C2.84715 325.62 2.8863 325.578 2.88481 325.528C2.88319 325.477 2.84261 325.441 2.79169 325.439L2.24996 325.457C2.20012 325.458 2.16096 325.5 2.16265 325.55C2.16414 325.6 2.20431 325.638 2.2528 325.638ZM4.05835 325.583C4.05923 325.583 4.06024 325.583 4.06112 325.583L4.60258 325.568C4.65256 325.566 4.69178 325.525 4.69043 325.474C4.68907 325.424 4.64775 325.382 4.59764 325.386L4.05585 325.401C4.006 325.403 3.96671 325.445 3.96813 325.495C3.96968 325.544 4.00979 325.583 4.05835 325.583ZM5.86403 325.534C5.86484 325.534 5.86559 325.534 5.86639 325.534L6.40799 325.52C6.45783 325.518 6.49726 325.477 6.49604 325.426C6.49469 325.376 6.46121 325.339 6.40346 325.338L5.86166 325.352C5.81182 325.353 5.77239 325.395 5.77374 325.445C5.77502 325.495 5.81527 325.534 5.86403 325.534ZM7.66985 325.489C7.67059 325.489 7.67126 325.489 7.67201 325.489L8.2136 325.476C8.26351 325.475 8.30301 325.433 8.30186 325.383C8.3007 325.333 8.26675 325.294 8.20954 325.294L7.66775 325.307C7.6179 325.308 7.57841 325.35 7.57956 325.4C7.58071 325.449 7.62095 325.489 7.66985 325.489ZM9.47559 325.448C9.47627 325.448 9.47688 325.448 9.47755 325.448L10.0193 325.437C10.0691 325.436 10.1087 325.394 10.1077 325.344C10.1067 325.294 10.0604 325.254 10.0156 325.255L9.4737 325.266C9.42386 325.267 9.38429 325.309 9.38531 325.359C9.38639 325.409 9.42663 325.448 9.47559 325.448ZM11.2815 325.411C11.2821 325.411 11.2827 325.411 11.2833 325.411L11.825 325.401C11.8748 325.4 11.9145 325.359 11.9136 325.309C11.9127 325.258 11.8747 325.214 11.8216 325.219L11.2798 325.23C11.2299 325.231 11.1902 325.272 11.1913 325.322C11.1922 325.372 11.2324 325.411 11.2815 325.411ZM71.4365 325.384C71.4859 325.384 71.5262 325.344 71.5268 325.294C71.5274 325.244 71.4874 325.203 71.4375 325.202L70.8954 325.195C70.8527 325.194 70.8047 325.235 70.8041 325.285C70.8034 325.335 70.8434 325.376 70.8933 325.377L71.4354 325.384C71.4358 325.384 71.4362 325.384 71.4365 325.384ZM13.0875 325.378C13.088 325.378 13.0885 325.378 13.0891 325.378L13.6308 325.369C13.6806 325.368 13.7203 325.327 13.7196 325.277C13.7188 325.227 13.6785 325.187 13.6292 325.187C13.6288 325.187 13.6283 325.187 13.6277 325.187L13.0859 325.197C13.036 325.197 12.9963 325.239 12.9971 325.289C12.998 325.339 13.0383 325.378 13.0875 325.378ZM69.6293 325.362C69.6786 325.362 69.719 325.322 69.7196 325.272C69.7201 325.222 69.6801 325.181 69.6303 325.18L69.0882 325.174C69.0372 325.169 68.9973 325.214 68.9968 325.264C68.9963 325.314 69.0362 325.355 69.0861 325.356L69.6282 325.362C69.6285 325.362 69.6289 325.362 69.6293 325.362ZM14.8934 325.349C14.8939 325.349 14.8943 325.349 14.8948 325.349L15.4366 325.34C15.4865 325.34 15.5263 325.298 15.5256 325.248C15.5248 325.198 15.4894 325.156 15.434 325.159L14.892 325.167C14.8422 325.168 14.8024 325.209 14.8031 325.259C14.8039 325.309 14.8441 325.349 14.8934 325.349ZM67.8222 325.342C67.8716 325.342 67.9119 325.302 67.9125 325.252C67.913 325.202 67.873 325.161 67.8231 325.161L67.2811 325.155C67.2258 325.156 67.1904 325.195 67.1899 325.245C67.1894 325.295 67.2294 325.336 67.2794 325.337L67.8212 325.342C67.8216 325.342 67.8218 325.342 67.8222 325.342ZM66.0152 325.323C66.0646 325.323 66.105 325.283 66.1055 325.233C66.106 325.183 66.066 325.142 66.0161 325.142L65.4741 325.136C65.4186 325.14 65.3835 325.176 65.3829 325.226C65.3824 325.276 65.4224 325.317 65.4723 325.318L66.0143 325.323C66.0145 325.323 66.0149 325.323 66.0152 325.323ZM16.6996 325.322C16.6999 325.322 16.7004 325.322 16.7008 325.322L17.2427 325.315C17.2925 325.314 17.3325 325.273 17.3318 325.222C17.3311 325.173 17.2908 325.133 17.2415 325.133C17.2411 325.133 17.2407 325.133 17.2402 325.133L16.6984 325.14C16.6485 325.141 16.6086 325.182 16.6092 325.232C16.61 325.282 16.6503 325.322 16.6996 325.322ZM64.2082 325.306C64.2577 325.306 64.2981 325.266 64.2985 325.216C64.2989 325.165 64.2589 325.124 64.2091 325.124L63.6669 325.119C63.6113 325.123 63.5763 325.159 63.5758 325.209C63.5754 325.259 63.6155 325.3 63.6654 325.301L64.2073 325.306C64.2077 325.306 64.2079 325.306 64.2082 325.306ZM18.5056 325.298C18.506 325.298 18.5063 325.298 18.5068 325.298L19.0486 325.292C19.0985 325.291 19.1384 325.25 19.1378 325.2C19.1372 325.149 19.0983 325.105 19.0464 325.11L18.5045 325.116C18.4546 325.117 18.4147 325.158 18.4153 325.208C18.4159 325.258 18.4563 325.298 18.5056 325.298ZM62.4013 325.289C62.4509 325.289 62.4912 325.249 62.4916 325.199C62.492 325.149 62.452 325.108 62.4021 325.107L61.86 325.103C61.8598 325.103 61.8596 325.103 61.8593 325.103C61.8097 325.103 61.7694 325.143 61.7689 325.193C61.7685 325.243 61.8086 325.284 61.8585 325.284L62.4005 325.289C62.4007 325.289 62.401 325.289 62.4013 325.289ZM20.3118 325.277C20.312 325.277 20.3125 325.277 20.3128 325.277L20.8547 325.271C20.9044 325.271 20.9445 325.229 20.944 325.179C20.9434 325.129 20.8999 325.087 20.8527 325.089L20.3108 325.095C20.2609 325.096 20.2209 325.137 20.2215 325.187C20.222 325.237 20.2623 325.277 20.3118 325.277ZM60.5946 325.274C60.6442 325.274 60.6845 325.233 60.6849 325.184C60.6853 325.133 60.6452 325.092 60.5953 325.092L60.0533 325.087C60.0531 325.087 60.0529 325.087 60.0527 325.087C60.0031 325.087 59.9626 325.128 59.9623 325.178C59.962 325.228 60.002 325.269 60.0519 325.269L60.5938 325.274C60.594 325.274 60.5943 325.274 60.5946 325.274ZM58.7878 325.259C58.8373 325.259 58.8777 325.219 58.878 325.169C58.8784 325.119 58.8383 325.078 58.7884 325.078L58.2465 325.074C58.2462 325.074 58.2461 325.074 58.2458 325.074C58.1962 325.074 58.1559 325.114 58.1555 325.164C58.1551 325.214 58.1953 325.255 58.2451 325.255L58.7871 325.259C58.7873 325.259 58.7876 325.259 58.7878 325.259ZM22.1179 325.258C22.1182 325.258 22.1185 325.258 22.1188 325.258L22.6605 325.253C22.7104 325.253 22.7505 325.212 22.7501 325.161C22.7496 325.111 22.7092 325.071 22.6598 325.071C22.6595 325.071 22.6593 325.071 22.6589 325.071L22.1171 325.077C22.0671 325.077 22.0272 325.118 22.0276 325.168C22.0281 325.218 22.0684 325.258 22.1179 325.258ZM56.9809 325.246C57.0305 325.246 57.0709 325.206 57.0713 325.156C57.0716 325.106 57.0315 325.065 56.9816 325.065L56.4396 325.061C56.3906 325.056 56.349 325.101 56.3487 325.151C56.3484 325.201 56.3885 325.242 56.4384 325.243L56.9803 325.246C56.9805 325.246 56.9808 325.246 56.9809 325.246ZM23.9242 325.242C23.9244 325.242 23.9247 325.242 23.925 325.242L24.4668 325.238C24.5167 325.237 24.5567 325.196 24.5564 325.146C24.556 325.096 24.5156 325.056 24.4661 325.056C24.4658 325.056 24.4656 325.056 24.4653 325.056L23.9235 325.06C23.8736 325.061 23.8335 325.102 23.8339 325.152C23.8343 325.202 23.8746 325.242 23.9242 325.242ZM55.1742 325.234C55.2239 325.234 55.2642 325.194 55.2645 325.144C55.2649 325.094 55.2247 325.053 55.1748 325.052L54.6328 325.049C54.6326 325.049 54.6325 325.049 54.6323 325.049C54.5827 325.049 54.5422 325.09 54.542 325.139C54.5417 325.19 54.5818 325.231 54.6318 325.231L55.1736 325.234C55.1739 325.234 55.1741 325.234 55.1742 325.234ZM25.7303 325.228C25.7305 325.228 25.7307 325.228 25.7309 325.228L26.2728 325.224C26.3226 325.224 26.3628 325.183 26.3625 325.133C26.3621 325.082 26.3187 325.036 26.2716 325.042L25.7297 325.046C25.6798 325.046 25.6396 325.087 25.64 325.138C25.6404 325.188 25.6807 325.228 25.7303 325.228ZM53.3676 325.223C53.4172 325.223 53.4577 325.183 53.4579 325.133C53.4582 325.083 53.418 325.042 53.3681 325.042L52.8261 325.039C52.8259 325.039 52.8257 325.039 52.8256 325.039C52.7759 325.039 52.7355 325.079 52.7352 325.129C52.735 325.179 52.7752 325.22 52.8251 325.22L53.3671 325.223C53.3673 325.223 53.3675 325.223 53.3676 325.223ZM27.5365 325.216C27.5367 325.216 27.5369 325.216 27.537 325.216L28.0789 325.213C28.1287 325.212 28.1689 325.171 28.1687 325.121C28.1683 325.071 28.1276 325.033 28.0779 325.031L27.536 325.034C27.4861 325.034 27.4459 325.075 27.4462 325.125C27.4464 325.175 27.4868 325.216 27.5365 325.216ZM51.5609 325.214C51.6105 325.214 51.6509 325.173 51.6512 325.123C51.6515 325.073 51.6112 325.032 51.5613 325.032L51.0193 325.029C51.0191 325.029 51.0189 325.029 51.0188 325.029C50.9692 325.029 50.9288 325.07 50.9286 325.12C50.9283 325.17 50.9685 325.211 51.0184 325.211L51.5604 325.214C51.5606 325.214 51.5607 325.214 51.5609 325.214ZM29.3428 325.206C29.343 325.206 29.343 325.206 29.3432 325.206L29.8851 325.203C29.9349 325.203 29.9752 325.162 29.975 325.112C29.9747 325.062 29.9343 325.021 29.8846 325.021C29.8845 325.021 29.8843 325.021 29.8842 325.021L29.3423 325.024C29.2924 325.024 29.2522 325.065 29.2525 325.115C29.2527 325.165 29.2931 325.206 29.3428 325.206ZM49.7541 325.205C49.8038 325.205 49.8443 325.165 49.8445 325.115C49.8447 325.065 49.8045 325.024 49.7546 325.023L49.2125 325.021C49.2124 325.021 49.2123 325.021 49.2123 325.021C49.1624 325.021 49.1221 325.062 49.1219 325.112C49.1217 325.162 49.162 325.203 49.2119 325.203L49.7537 325.205C49.7539 325.205 49.7541 325.205 49.7541 325.205ZM47.9474 325.198C47.9972 325.198 48.0376 325.158 48.0377 325.107C48.0379 325.057 47.9976 325.017 47.9478 325.016L47.4059 325.014C47.4056 325.014 47.4056 325.014 47.4056 325.014C47.3557 325.014 47.3154 325.055 47.3152 325.105C47.315 325.155 47.3553 325.196 47.4051 325.196L47.9471 325.198C47.9472 325.198 47.9474 325.198 47.9474 325.198ZM31.149 325.198H31.1492L31.6912 325.195C31.7411 325.195 31.7813 325.154 31.7811 325.104C31.781 325.054 31.7405 325.014 31.6908 325.014C31.6908 325.014 31.6906 325.014 31.6905 325.014L31.1486 325.016C31.0987 325.016 31.0585 325.057 31.0587 325.107C31.0588 325.157 31.0992 325.198 31.149 325.198ZM46.1408 325.192C46.1905 325.192 46.2309 325.152 46.2311 325.101C46.2313 325.051 46.191 325.01 46.1411 325.01L45.599 325.009H45.5988C45.549 325.009 45.5085 325.049 45.5085 325.099C45.5083 325.15 45.5487 325.191 45.5985 325.191L46.1405 325.192H46.1408ZM32.9551 325.191H32.9554L33.4973 325.19C33.5472 325.189 33.5875 325.149 33.5873 325.098C33.5871 325.048 33.5468 325.008 33.497 325.008H33.4967L32.9549 325.009C32.9049 325.01 32.8646 325.05 32.8648 325.101C32.865 325.151 32.9054 325.191 32.9551 325.191ZM44.3342 325.187C44.384 325.187 44.4244 325.147 44.4245 325.097C44.4245 325.046 44.3842 325.006 44.3343 325.006L43.7924 325.005H43.7923C43.7424 325.005 43.702 325.045 43.7019 325.095C43.7018 325.145 43.7422 325.186 43.7921 325.186L44.334 325.187C44.3341 325.187 44.3341 325.187 44.3342 325.187ZM34.7614 325.187C34.7614 325.187 34.7615 325.187 34.7616 325.187L35.3035 325.185C35.3534 325.185 35.3937 325.145 35.3936 325.094C35.3935 325.044 35.3531 325.004 35.3033 325.004H35.3032L34.7613 325.005C34.7114 325.005 34.6711 325.046 34.6711 325.096C34.6712 325.146 34.7116 325.187 34.7614 325.187ZM42.5274 325.184C42.5773 325.184 42.6176 325.144 42.6178 325.093C42.6178 325.043 42.5775 325.003 42.5276 325.002L41.9856 325.002C41.9357 325.002 41.8953 325.042 41.8952 325.093C41.8951 325.143 41.9355 325.184 41.9854 325.184L42.5274 325.184H42.5274ZM36.5676 325.184H36.5678L37.1096 325.183C37.1595 325.183 37.1999 325.142 37.1998 325.092C37.1997 325.042 37.1593 325.001 37.1095 325.001H37.1094L36.5674 325.002C36.5176 325.002 36.4772 325.043 36.4774 325.093C36.4774 325.143 36.5178 325.184 36.5676 325.184ZM40.7208 325.182C40.7707 325.182 40.8112 325.142 40.8112 325.091C40.8112 325.041 40.7708 325.001 40.7209 325.001L40.1803 325C40.1304 325 40.0899 325.041 40.0899 325.091C40.0899 325.141 40.1303 325.182 40.1802 325.182L40.7208 325.182ZM38.3739 325.182C38.3739 325.182 38.3739 325.182 38.374 325.182L38.9158 325.182C38.9657 325.182 39.0061 325.141 39.0061 325.091C39.0061 325.041 38.9657 325 38.9158 325L38.3739 325C38.324 325 38.2836 325.041 38.2836 325.091C38.2836 325.141 38.3241 325.182 38.3739 325.182Z" fill="white"/>
<path d="M21.2099 367H33.4267C35.0276 367 36.3758 365.812 36.5658 364.234L37.9772 352.51C38.2021 350.643 36.7329 349 34.8381 349H20.1617C18.3054 349 16.8486 350.58 17.0126 352.415L18.0608 364.139C18.2055 365.759 19.5721 367 21.2099 367Z" fill="#7C4846"/>
<path d="M21.3511 369H33.2941C35.9891 369 38.2622 366.999 38.5826 364.344L39.9623 352.912C40.1429 351.417 39.6692 349.911 38.6628 348.783C37.6526 347.65 36.1987 347 34.6738 347H20.3261C18.8324 347 17.3981 347.628 16.3917 348.723C15.3886 349.813 14.8892 351.282 15.0207 352.752L16.0457 364.183C16.2913 366.929 18.572 369 21.3511 369ZM34.6738 351.447C35.0122 351.447 35.2228 351.626 35.3183 351.734C35.4117 351.838 35.5617 352.062 35.523 352.382L34.1433 363.814C34.0925 364.236 33.7274 364.553 33.2941 364.553H21.3511C20.9041 364.553 20.5379 364.225 20.4991 363.788L19.4742 352.357C19.4458 352.042 19.5975 351.825 19.6903 351.724C19.7853 351.621 19.9948 351.447 20.3261 351.447H34.6738Z" fill="#512D2B"/>
<path d="M54 322.656L53.7739 320.391C53.5186 319.85 52.9887 319.467 52.3624 319.374C50.0209 319.025 44.2138 318.411 41.4177 320.367L41 323L54 322.656Z" fill="#512D2B"/>
<path d="M46.8715 320.903C47.2909 321.033 47.7109 321.033 48.1317 320.901C48.6408 320.742 49 320.162 49 319.498V312H46V319.493C46 320.16 46.3599 320.744 46.8715 320.903Z" fill="#512D2B"/>
<path d="M18 322.656L17.7739 320.391C17.5187 319.85 16.9887 319.467 16.3624 319.374C14.0209 319.025 8.21377 318.411 5.41771 320.367L5 323L18 322.656Z" fill="#512D2B"/>
<path d="M10.8716 320.901C11.2909 321.034 11.7109 321.033 12.1317 320.899C12.6408 320.736 13 320.144 13 319.466L12.9999 311H10V319.46C10 320.142 10.3599 320.739 10.8716 320.901Z" fill="#512D2B"/>
<path d="M50.0252 312.999L9.15765 311.668C8.22588 311.638 7.43535 310.976 7.27533 310.077C7.05143 308.818 6.85411 306.934 7.14837 304.981C7.48308 302.759 9.42518 301.109 11.7175 301.056C19.3414 300.877 38.7498 300.883 49.4468 305.045C50.5781 305.486 51.4173 306.437 51.7037 307.596C51.9769 308.701 52.1585 310.176 51.8016 311.678C51.612 312.476 50.8614 313.026 50.0252 312.999Z" fill="#7F4B49"/>
<path d="M50.7884 311C50.8798 311 50.9581 310.936 50.9675 310.849C50.9741 310.789 51.1232 309.355 50.7222 307.976C50.4173 306.927 49.5257 306.084 48.3952 305.776C46.1121 305.153 41.7497 304.093 38.1852 304C38.0854 303.997 38.0028 304.07 38.0001 304.163C37.9972 304.256 38.0757 304.333 38.1753 304.335C41.699 304.427 46.0273 305.479 48.2936 306.098C49.3047 306.374 50.1018 307.127 50.3741 308.064C50.7574 309.382 50.6103 310.801 50.6087 310.815C50.5987 310.908 50.671 310.99 50.7701 310.999C50.7762 311 50.7823 311 50.7884 311Z" fill="#91B3FA"/>
<path d="M22.0094 366H33.6444C35.1691 366 36.4532 364.878 36.6341 363.388L37.9783 352.315C38.1925 350.552 36.7933 349 34.9887 349H21.0112C19.2432 349 17.8558 350.492 18.012 352.226L19.0102 363.298C19.1481 364.827 20.4496 366 22.0094 366Z" fill="#7C4846" stroke="#512D2B" stroke-width="4" stroke-miterlimit="10"/>
<path d="M20.5764 316.403C14.4758 313.814 11.6296 306.769 14.2191 300.669C16.8087 294.568 23.8534 291.722 29.9539 294.311C36.0545 296.901 38.9008 303.945 36.3112 310.046C33.7217 316.147 26.677 318.993 20.5764 316.403Z" fill="#ECB6A2"/>
<path d="M33.6861 313.722C33.6861 313.722 38.9568 315.64 39.8368 309.408C40.7168 303.177 38.3051 294.656 26 293L33.6861 313.722Z" fill="#ECB6A2"/>
</svg>
