<svg width="45" height="45" viewBox="0 0 45 45" fill="none" xmlns="http://www.w3.org/2000/svg">
<path fill-rule="evenodd" clip-rule="evenodd" d="M34.0901 32.4036C42.5723 24.4938 44.1361 12.3226 37.5829 5.21859C31.0297 -1.88546 18.8411 -1.23226 10.3588 6.67755C1.87662 14.5873 0.312835 26.7585 6.86604 33.8625C11.3589 38.7331 18.5007 39.9573 25.2809 37.6966L24 38.4286L29.1 44L29.9463 35.537C31.3926 34.6655 32.7852 33.6204 34.0901 32.4036Z" fill="#EF8062"/>
<path fill-rule="evenodd" clip-rule="evenodd" d="M14.7308 16.0766C15.2668 14.3066 17.5695 10.6682 22.2957 10.5782C25.7048 10.5132 27.1338 13.2969 26.9286 14.9562C26.9059 15.1397 26.7909 15.4642 26.2774 16.0764C26.0279 16.3739 25.7322 16.6846 25.3704 17.0554C25.3117 17.1156 25.2507 17.1778 25.188 17.2418L25.1875 17.2423L25.1874 17.2424C24.8847 17.5515 24.5415 17.9019 24.2136 18.2606C23.4198 19.1292 22.5085 20.2616 21.9617 21.7132C21.3889 23.2339 21.2753 24.9416 21.811 26.8437L26.6127 25.4699C26.3593 24.5701 26.4448 23.9631 26.6283 23.4758C26.8379 22.9194 27.2401 22.3504 27.8862 21.6435C28.1503 21.3547 28.4205 21.0786 28.7208 20.7718C28.789 20.7021 28.8587 20.6309 28.9303 20.5576C29.2978 20.181 29.7092 19.7534 30.0905 19.2988C30.8388 18.4069 31.6811 17.1726 31.8803 15.562C32.4129 11.2564 29.0208 5.43922 22.213 5.56887C14.5379 5.71504 10.8609 11.645 9.95709 14.6296L14.7308 16.0766ZM26.5735 33.7103C28.0084 32.8818 28.5055 31.0439 27.6839 29.6051C26.8622 28.1664 25.033 27.6716 23.5981 28.5C22.1632 29.3284 21.6661 31.1664 22.4877 32.6051C23.3094 34.0439 25.1386 34.5387 26.5735 33.7103Z" fill="white"/>
</svg>
