<svg width="231" height="406" viewBox="0 0 231 406" fill="none" xmlns="http://www.w3.org/2000/svg">
<path fill-rule="evenodd" clip-rule="evenodd" d="M87.4355 61.198C103.188 46.5084 105.68 23.6768 93.0018 10.2023C80.3233 -3.27226 57.2753 -2.28722 41.5226 12.4024C25.7699 27.0921 23.2777 49.9236 35.9562 63.3981C43.8448 71.782 55.7479 74.5681 67.4102 71.9382L76.3498 82L77.696 68.1299C81.1276 66.3265 84.4156 64.0141 87.4355 61.198Z" fill="#EF8062"/>
<path fill-rule="evenodd" clip-rule="evenodd" d="M53.4056 35.7556C54.2896 32.5527 58.2019 26.1706 66.496 26.1419C72.4778 26.1211 75.2522 31.1985 74.9529 34.2494C74.9292 34.4915 74.7893 35.0056 73.9119 36.083C73.4823 36.6104 72.9669 37.1661 72.3193 37.8453C72.2153 37.9545 72.1068 38.0678 71.9948 38.1848L71.9946 38.185L71.9945 38.1851C71.4518 38.7522 70.8275 39.4044 70.2329 40.0721C68.7897 41.6926 67.1136 43.8376 66.1442 46.6106C65.1295 49.5129 65.0088 52.7443 66.0841 56.3196L75.6787 53.4703C75.1773 51.8029 75.3185 50.728 75.6039 49.9116C75.9346 48.9658 76.5969 47.9796 77.7301 46.7072C78.1947 46.1854 78.6702 45.6883 79.2079 45.1262L79.2079 45.1262L79.2091 45.1249C79.3316 44.9969 79.4572 44.8655 79.5868 44.7296C80.2463 44.0379 80.9976 43.2386 81.6941 42.3834C83.0688 40.6955 84.6187 38.3335 84.9222 35.2398C85.7109 27.2 79.2349 16.1144 66.4418 16.1588C51.947 16.209 45.2962 27.478 43.7471 33.0908L53.4056 35.7556ZM74.3002 67.7549C76.9308 66.2361 77.8238 62.8771 76.2949 60.2524C74.7659 57.6277 71.3939 56.7312 68.7633 58.25C66.1327 59.7688 65.2396 63.1277 66.7686 65.7524C68.2976 68.3771 71.6696 69.2736 74.3002 67.7549Z" fill="white"/>
<g clip-path="url(#clip0_1256_12114)">
<path d="M57.0038 160.964C44.7743 153.59 34.5806 176.641 28.8611 186.964L11.9628 217.465C10.5559 220.536 10.2434 223.845 10.8801 226.935L11.4106 228.825C12.4557 231.857 14.4554 234.554 17.2651 236.445C17.4697 236.583 17.6666 236.728 17.8798 236.857C25.7092 241.592 35.9677 238.392 39.7889 230.023L41.7904 226.395L43.2751 223.703L66.3831 181.817C70.2183 173.417 65.809 163.613 57.0038 160.964Z" fill="#6E66B3"/>
<path d="M138.843 268.183L147.408 292.997L162.61 287.199L154.778 262.213L138.843 268.183Z" fill="#ECB6A2"/>
<path d="M159.878 271.434L162.801 281.686L142.992 287.422L140.157 277.477L159.878 271.434Z" fill="#CCB2F1"/>
<path d="M100.326 166.346L133.916 275.668C134.727 278.333 137.578 279.849 140.357 279.093L157.788 273.843C160.716 273.046 162.205 270.612 161.32 267.813L133.678 181.091C129.757 169.426 118.306 162.736 105.756 164.779L100.326 166.346Z" fill="#6E66B3"/>
<path d="M140.192 278.522L140.417 279.496L159.504 273.521L159.279 272.547L140.192 278.522Z" fill="#595996"/>
<path d="M124.387 349.895L134.628 378.231C136.414 383.172 141.868 385.793 146.977 384.166L216.772 361.935C220.186 360.848 222.298 357.466 221.722 354.001C220.461 346.414 217.644 333.022 212.135 321.384L124.387 349.895Z" fill="#7F4B49"/>
<path d="M213.805 360.797C213.805 360.797 213.805 360.797 213.805 360.797L213.294 360.96C213.247 360.975 213.197 360.949 213.182 360.902C213.167 360.855 213.193 360.805 213.24 360.79C213.24 360.79 213.24 360.789 213.24 360.789L213.751 360.627C213.797 360.612 213.848 360.638 213.863 360.685C213.878 360.732 213.852 360.782 213.805 360.797ZM214.99 360.403C214.946 360.417 214.897 360.395 214.88 360.351C214.862 360.305 214.884 360.253 214.93 360.235C215.093 360.171 215.256 360.099 215.414 360.022C215.457 360 215.511 360.019 215.533 360.064C215.554 360.108 215.536 360.161 215.492 360.183C215.33 360.262 215.163 360.335 214.996 360.401C214.994 360.402 214.992 360.402 214.99 360.403ZM212.105 361.338C212.104 361.339 212.104 361.339 212.104 361.339L211.594 361.501C211.547 361.516 211.497 361.49 211.482 361.443C211.467 361.396 211.492 361.346 211.539 361.331C211.539 361.331 211.539 361.331 211.54 361.331L212.05 361.168C212.097 361.153 212.147 361.18 212.162 361.226C212.177 361.273 212.151 361.323 212.105 361.338ZM210.404 361.88C210.404 361.88 210.403 361.88 210.403 361.88L209.893 362.043C209.846 362.058 209.796 362.032 209.781 361.985C209.766 361.938 209.792 361.888 209.838 361.873C209.839 361.873 209.839 361.872 209.839 361.872L210.349 361.71C210.396 361.695 210.446 361.721 210.461 361.768C210.476 361.815 210.451 361.865 210.404 361.88ZM208.703 362.421C208.703 362.422 208.703 362.422 208.703 362.422L208.192 362.584C208.145 362.599 208.095 362.573 208.08 362.526C208.065 362.479 208.099 362.429 208.138 362.414L208.648 362.252C208.695 362.236 208.746 362.263 208.761 362.31C208.775 362.356 208.75 362.406 208.703 362.421ZM207.002 362.963C207.002 362.963 207.002 362.963 207.002 362.963L206.492 363.126C206.445 363.141 206.395 363.115 206.38 363.068C206.365 363.021 206.39 362.971 206.437 362.956C206.437 362.956 206.437 362.956 206.438 362.955L206.948 362.793C206.995 362.778 207.045 362.804 207.06 362.851C207.075 362.898 207.049 362.948 207.002 362.963ZM205.302 363.505C205.302 363.505 205.301 363.505 205.301 363.505L204.791 363.667C204.744 363.682 204.694 363.656 204.679 363.609C204.664 363.562 204.696 363.509 204.737 363.497L205.247 363.335C205.294 363.32 205.344 363.346 205.359 363.393C205.374 363.439 205.348 363.489 205.302 363.505ZM203.601 364.046C203.601 364.046 203.601 364.046 203.601 364.046L203.09 364.209C203.043 364.224 202.993 364.198 202.978 364.151C202.963 364.104 202.989 364.054 203.036 364.039C203.036 364.039 203.036 364.039 203.036 364.038L203.546 363.876C203.593 363.861 203.643 363.887 203.658 363.934C203.673 363.981 203.648 364.031 203.601 364.046ZM201.9 364.588C201.9 364.588 201.9 364.588 201.9 364.588L201.39 364.75C201.343 364.765 201.293 364.739 201.278 364.692C201.263 364.645 201.288 364.595 201.335 364.58C201.335 364.58 201.335 364.58 201.335 364.58L201.846 364.418C201.893 364.403 201.943 364.429 201.958 364.476C201.973 364.522 201.947 364.572 201.9 364.588ZM200.2 365.129C200.199 365.129 200.199 365.129 200.199 365.129L199.689 365.292C199.642 365.307 199.592 365.281 199.577 365.234C199.562 365.187 199.588 365.137 199.634 365.122C199.634 365.122 199.635 365.122 199.635 365.122L200.145 364.959C200.192 364.944 200.242 364.97 200.257 365.017C200.272 365.064 200.246 365.114 200.2 365.129ZM198.499 365.671C198.499 365.671 198.499 365.671 198.499 365.671L197.988 365.833C197.941 365.848 197.891 365.822 197.876 365.775C197.861 365.728 197.887 365.678 197.934 365.663C197.934 365.663 197.934 365.663 197.934 365.663L198.444 365.501C198.491 365.486 198.541 365.512 198.556 365.559C198.571 365.605 198.546 365.655 198.499 365.671ZM196.798 366.212C196.798 366.212 196.798 366.212 196.798 366.212L196.288 366.375C196.241 366.39 196.19 366.364 196.175 366.317C196.16 366.27 196.186 366.22 196.233 366.205C196.233 366.205 196.233 366.205 196.233 366.205L196.744 366.042C196.791 366.027 196.841 366.053 196.856 366.1C196.871 366.147 196.845 366.197 196.798 366.212ZM195.098 366.754C195.097 366.754 195.097 366.754 195.097 366.754L194.587 366.916C194.54 366.931 194.49 366.905 194.475 366.858C194.46 366.811 194.486 366.761 194.532 366.746C194.532 366.746 194.533 366.746 194.533 366.746L195.043 366.584C195.09 366.569 195.14 366.595 195.155 366.642C195.17 366.689 195.144 366.739 195.098 366.754ZM193.397 367.295C193.397 367.295 193.397 367.295 193.396 367.295L192.886 367.458C192.839 367.473 192.789 367.447 192.774 367.4C192.759 367.353 192.785 367.303 192.831 367.288C192.832 367.288 192.832 367.288 192.832 367.288L193.342 367.125C193.389 367.11 193.439 367.136 193.454 367.183C193.469 367.23 193.444 367.28 193.397 367.295ZM191.696 367.837C191.696 367.837 191.696 367.837 191.696 367.837L191.185 367.999C191.138 368.014 191.088 367.988 191.073 367.941C191.058 367.895 191.084 367.845 191.131 367.829C191.131 367.829 191.131 367.829 191.131 367.829L191.641 367.667C191.688 367.652 191.739 367.678 191.754 367.725C191.769 367.771 191.743 367.822 191.696 367.837ZM189.995 368.378C189.995 368.378 189.995 368.378 189.995 368.378L189.485 368.541C189.438 368.556 189.388 368.53 189.373 368.483C189.358 368.436 189.383 368.386 189.43 368.371C189.43 368.371 189.43 368.371 189.431 368.371L189.941 368.208C189.988 368.193 190.038 368.219 190.053 368.266C190.068 368.313 190.042 368.363 189.995 368.378ZM188.295 368.92C188.295 368.92 188.294 368.92 188.294 368.92L187.784 369.082C187.737 369.097 187.687 369.071 187.672 369.024C187.657 368.978 187.69 368.931 187.73 368.912L188.24 368.75C188.287 368.735 188.337 368.761 188.352 368.808C188.367 368.855 188.341 368.905 188.295 368.92ZM186.594 369.461C186.594 369.461 186.594 369.461 186.594 369.461L186.083 369.624C186.036 369.639 185.986 369.613 185.971 369.566C185.956 369.519 185.982 369.469 186.029 369.454C186.029 369.454 186.029 369.454 186.029 369.454L186.539 369.291C186.586 369.276 186.637 369.302 186.651 369.349C186.666 369.396 186.641 369.446 186.594 369.461ZM184.893 370.003C184.893 370.003 184.893 370.003 184.893 370.003L184.383 370.165C184.336 370.18 184.286 370.154 184.271 370.107C184.256 370.06 184.287 370.011 184.329 369.995L184.839 369.833C184.886 369.818 184.936 369.844 184.951 369.891C184.966 369.938 184.94 369.988 184.893 370.003ZM183.193 370.544C183.193 370.544 183.192 370.544 183.192 370.545L182.682 370.707C182.635 370.722 182.585 370.696 182.57 370.649C182.555 370.602 182.581 370.552 182.627 370.537C182.627 370.537 182.628 370.537 182.628 370.537L183.138 370.374C183.185 370.359 183.235 370.385 183.25 370.432C183.265 370.479 183.239 370.529 183.193 370.544ZM181.492 371.086C181.492 371.086 181.492 371.086 181.491 371.086L180.981 371.248C180.934 371.263 180.884 371.238 180.869 371.19C180.854 371.144 180.885 371.09 180.927 371.078L181.437 370.916C181.484 370.901 181.534 370.927 181.549 370.974C181.564 371.021 181.539 371.071 181.492 371.086ZM179.791 371.627C179.791 371.627 179.791 371.627 179.791 371.627L179.281 371.79C179.234 371.805 179.183 371.779 179.168 371.732C179.154 371.685 179.179 371.635 179.226 371.62C179.226 371.62 179.226 371.62 179.226 371.62L179.737 371.457C179.784 371.442 179.834 371.468 179.849 371.515C179.864 371.562 179.838 371.612 179.791 371.627ZM178.091 372.169C178.09 372.169 178.09 372.169 178.09 372.169L177.58 372.332C177.533 372.347 177.483 372.32 177.468 372.273C177.453 372.227 177.479 372.177 177.525 372.161C177.525 372.161 177.526 372.161 177.526 372.161L178.036 371.999C178.083 371.984 178.133 372.01 178.148 372.057C178.163 372.104 178.137 372.154 178.091 372.169ZM176.39 372.71C176.39 372.71 176.39 372.711 176.389 372.711L175.879 372.873C175.832 372.888 175.782 372.862 175.767 372.815C175.752 372.768 175.778 372.718 175.825 372.703C175.825 372.703 175.825 372.703 175.825 372.703L176.335 372.54C176.382 372.525 176.432 372.552 176.447 372.598C176.462 372.645 176.437 372.695 176.39 372.71ZM174.689 373.252C174.689 373.252 174.689 373.252 174.689 373.252L174.179 373.415C174.132 373.43 174.081 373.404 174.066 373.357C174.051 373.31 174.077 373.26 174.124 373.245C174.124 373.245 174.124 373.244 174.124 373.244L174.635 373.082C174.682 373.067 174.732 373.093 174.747 373.14C174.762 373.187 174.736 373.237 174.689 373.252ZM172.989 373.793C172.988 373.794 172.988 373.794 172.988 373.794L172.478 373.956C172.431 373.971 172.381 373.945 172.366 373.898C172.351 373.851 172.376 373.801 172.423 373.786C172.423 373.786 172.423 373.786 172.424 373.786L172.934 373.623C172.981 373.608 173.031 373.634 173.046 373.681C173.061 373.728 173.035 373.778 172.989 373.793ZM171.288 374.335C171.288 374.335 171.287 374.335 171.287 374.335L170.777 374.498C170.73 374.513 170.68 374.487 170.665 374.44C170.65 374.393 170.676 374.343 170.722 374.328C170.723 374.328 170.723 374.327 170.723 374.327L171.233 374.165C171.28 374.15 171.33 374.176 171.345 374.223C171.36 374.27 171.334 374.32 171.288 374.335ZM169.587 374.876C169.587 374.877 169.587 374.877 169.587 374.877L169.076 375.039C169.029 375.054 168.979 375.028 168.964 374.981C168.949 374.934 168.975 374.884 169.022 374.869C169.022 374.869 169.022 374.869 169.022 374.869L169.532 374.707C169.579 374.692 169.63 374.718 169.645 374.765C169.66 374.811 169.634 374.861 169.587 374.876ZM167.886 375.418C167.886 375.418 167.886 375.418 167.886 375.418L167.376 375.581C167.329 375.596 167.279 375.57 167.264 375.523C167.249 375.476 167.274 375.426 167.321 375.411C167.321 375.411 167.321 375.411 167.322 375.41L167.832 375.248C167.879 375.233 167.929 375.259 167.944 375.306C167.959 375.353 167.933 375.403 167.886 375.418ZM166.186 375.96C166.186 375.96 166.185 375.96 166.185 375.96L165.675 376.122C165.628 376.137 165.578 376.111 165.563 376.064C165.548 376.017 165.574 375.967 165.62 375.952C165.621 375.952 165.621 375.952 165.621 375.952L166.131 375.79C166.178 375.775 166.228 375.801 166.243 375.848C166.258 375.894 166.232 375.944 166.186 375.96ZM164.485 376.501C164.485 376.501 164.485 376.501 164.485 376.501L163.974 376.664C163.927 376.679 163.877 376.653 163.862 376.606C163.847 376.559 163.878 376.512 163.92 376.494L164.43 376.331C164.477 376.316 164.528 376.342 164.543 376.389C164.557 376.436 164.532 376.486 164.485 376.501ZM162.784 377.043C162.784 377.043 162.784 377.043 162.784 377.043L162.274 377.205C162.227 377.22 162.177 377.194 162.161 377.147C162.147 377.1 162.172 377.05 162.219 377.035C162.219 377.035 162.219 377.035 162.219 377.035L162.73 376.873C162.777 376.858 162.827 376.884 162.842 376.931C162.857 376.977 162.831 377.027 162.784 377.043ZM161.084 377.584C161.084 377.584 161.083 377.584 161.083 377.584L160.573 377.747C160.526 377.762 160.476 377.736 160.461 377.689C160.446 377.642 160.476 377.592 160.519 377.577L161.029 377.414C161.076 377.399 161.126 377.425 161.141 377.472C161.156 377.519 161.13 377.569 161.084 377.584ZM159.383 378.126C159.383 378.126 159.383 378.126 159.382 378.126L158.872 378.288C158.825 378.303 158.775 378.277 158.76 378.23C158.745 378.184 158.771 378.133 158.818 378.118C158.818 378.118 158.818 378.118 158.818 378.118L159.328 377.956C159.375 377.941 159.425 377.967 159.44 378.014C159.455 378.06 159.43 378.111 159.383 378.126ZM216.548 359.542C216.512 359.553 216.472 359.542 216.448 359.51C216.419 359.47 216.427 359.414 216.467 359.385C216.608 359.281 216.747 359.17 216.88 359.055C216.917 359.023 216.974 359.027 217.006 359.064C217.038 359.101 217.034 359.158 216.997 359.19C216.861 359.308 216.718 359.422 216.573 359.529C216.565 359.535 216.556 359.539 216.548 359.542ZM157.682 378.667C157.682 378.667 157.682 378.667 157.682 378.667L157.172 378.83C157.125 378.845 157.074 378.819 157.059 378.772C157.044 378.725 157.073 378.672 157.117 378.66L157.628 378.497C157.675 378.482 157.725 378.508 157.74 378.555C157.755 378.602 157.729 378.652 157.682 378.667ZM155.982 379.209C155.981 379.209 155.981 379.209 155.981 379.209L155.471 379.371C155.424 379.386 155.374 379.36 155.359 379.313C155.344 379.266 155.37 379.216 155.416 379.201C155.416 379.201 155.417 379.201 155.417 379.201L155.927 379.039C155.974 379.024 156.024 379.05 156.039 379.097C156.054 379.143 156.028 379.193 155.982 379.209ZM154.281 379.75C154.281 379.75 154.281 379.75 154.28 379.75L153.77 379.913C153.723 379.928 153.673 379.902 153.658 379.855C153.643 379.808 153.669 379.758 153.715 379.743C153.716 379.743 153.716 379.743 153.716 379.743L154.226 379.58C154.273 379.565 154.323 379.591 154.338 379.638C154.353 379.685 154.328 379.735 154.281 379.75ZM152.58 380.292C152.58 380.292 152.58 380.292 152.58 380.292L152.069 380.454C152.022 380.469 151.972 380.443 151.957 380.396C151.942 380.35 151.968 380.3 152.015 380.284C152.015 380.284 152.015 380.284 152.015 380.284L152.525 380.122C152.572 380.107 152.623 380.133 152.638 380.18C152.653 380.227 152.627 380.277 152.58 380.292ZM150.88 380.833C150.879 380.833 150.879 380.833 150.879 380.833L150.369 380.996C150.322 381.011 150.272 380.985 150.257 380.938C150.242 380.891 150.267 380.841 150.314 380.826C150.314 380.826 150.314 380.826 150.315 380.826L150.825 380.663C150.872 380.648 150.922 380.674 150.937 380.721C150.952 380.768 150.926 380.818 150.88 380.833ZM149.179 381.375C149.179 381.375 149.178 381.375 149.178 381.375L148.668 381.537C148.621 381.552 148.571 381.526 148.556 381.479C148.541 381.433 148.567 381.383 148.613 381.367C148.614 381.367 148.614 381.367 148.614 381.367L149.124 381.205C149.171 381.19 149.221 381.216 149.236 381.263C149.251 381.31 149.225 381.36 149.179 381.375ZM147.475 381.907C147.474 381.908 147.473 381.908 147.471 381.909C147.299 381.955 147.122 381.998 146.946 382.035C146.898 382.045 146.85 382.014 146.84 381.966C146.83 381.918 146.86 381.87 146.909 381.86C147.082 381.824 147.255 381.782 147.424 381.736C147.472 381.723 147.521 381.751 147.534 381.799C147.546 381.845 147.52 381.893 147.475 381.907ZM145.72 382.21C145.713 382.213 145.706 382.214 145.699 382.215C145.52 382.229 145.339 382.237 145.159 382.241C145.11 382.242 145.069 382.203 145.068 382.154C145.067 382.105 145.106 382.064 145.156 382.063C145.332 382.059 145.51 382.05 145.685 382.037C145.734 382.033 145.777 382.069 145.781 382.119C145.784 382.161 145.758 382.198 145.72 382.21ZM217.832 358.309C217.804 358.318 217.773 358.313 217.748 358.294C217.71 358.263 217.704 358.207 217.734 358.168C217.845 358.031 217.95 357.888 218.049 357.743C218.076 357.703 218.132 357.692 218.173 357.72C218.214 357.748 218.224 357.803 218.196 357.844C218.095 357.992 217.987 358.139 217.874 358.28C217.862 358.294 217.848 358.304 217.832 358.309ZM143.938 382.181C143.926 382.185 143.914 382.186 143.901 382.185C143.723 382.165 143.544 382.14 143.366 382.11C143.318 382.102 143.285 382.056 143.293 382.007C143.301 381.959 143.347 381.926 143.396 381.934C143.57 381.963 143.746 381.988 143.92 382.007C143.969 382.013 144.005 382.057 143.999 382.106C143.995 382.142 143.97 382.17 143.938 382.181ZM142.194 381.82C142.177 381.825 142.159 381.826 142.14 381.82C141.969 381.768 141.797 381.71 141.629 381.648C141.583 381.631 141.559 381.579 141.576 381.533C141.593 381.487 141.644 381.463 141.691 381.48C141.856 381.541 142.025 381.598 142.193 381.65C142.24 381.664 142.266 381.714 142.252 381.761C142.243 381.79 142.221 381.811 142.194 381.82ZM218.757 356.788C218.736 356.795 218.714 356.794 218.693 356.785C218.648 356.765 218.627 356.712 218.647 356.667C218.718 356.507 218.784 356.342 218.842 356.176C218.859 356.129 218.91 356.105 218.956 356.121C219.003 356.138 219.027 356.189 219.011 356.235C218.951 356.405 218.883 356.575 218.811 356.739C218.8 356.764 218.78 356.781 218.757 356.788ZM140.547 381.141C140.525 381.148 140.5 381.147 140.478 381.135C140.319 381.051 140.161 380.962 140.007 380.87C139.965 380.845 139.951 380.79 139.976 380.747C140.002 380.705 140.056 380.691 140.099 380.717C140.25 380.807 140.405 380.895 140.561 380.977C140.605 381 140.622 381.054 140.599 381.097C140.587 381.119 140.569 381.134 140.547 381.141ZM219.259 355.081C219.246 355.085 219.232 355.086 219.218 355.084C219.169 355.076 219.136 355.031 219.143 354.982C219.17 354.809 219.191 354.632 219.204 354.457C219.208 354.408 219.251 354.372 219.3 354.375C219.349 354.379 219.386 354.422 219.382 354.471C219.368 354.651 219.347 354.832 219.32 355.01C219.314 355.044 219.29 355.071 219.259 355.081ZM139.054 380.167C139.026 380.176 138.995 380.171 138.971 380.152C138.83 380.04 138.691 379.923 138.557 379.803C138.52 379.771 138.517 379.714 138.55 379.677C138.583 379.641 138.639 379.638 138.676 379.67C138.807 379.787 138.943 379.902 139.082 380.012C139.12 380.043 139.127 380.099 139.096 380.138C139.085 380.152 139.07 380.162 139.054 380.167ZM219.301 353.301C219.295 353.303 219.289 353.304 219.283 353.305C219.234 353.31 219.19 353.275 219.185 353.226C219.17 353.093 219.152 352.958 219.129 352.824L219.109 352.701C219.1 352.653 219.133 352.606 219.182 352.598C219.23 352.59 219.276 352.623 219.285 352.671L219.305 352.794C219.328 352.932 219.348 353.07 219.362 353.207C219.367 353.25 219.341 353.288 219.301 353.301ZM137.769 378.93C137.736 378.941 137.698 378.932 137.673 378.904C137.557 378.768 137.442 378.626 137.332 378.483C137.302 378.444 137.31 378.388 137.349 378.358C137.388 378.328 137.444 378.335 137.474 378.374C137.581 378.515 137.694 378.654 137.809 378.787C137.841 378.824 137.837 378.881 137.799 378.913C137.79 378.921 137.78 378.927 137.769 378.93ZM219.01 351.539C219.006 351.541 219.002 351.542 218.998 351.542C218.95 351.551 218.903 351.519 218.895 351.47C218.864 351.297 218.832 351.121 218.8 350.943C218.791 350.894 218.823 350.848 218.872 350.839C218.92 350.83 218.967 350.862 218.976 350.911C219.008 351.089 219.04 351.265 219.07 351.439C219.078 351.483 219.052 351.526 219.01 351.539ZM136.739 377.473C136.7 377.485 136.655 377.469 136.634 377.432C136.545 377.276 136.459 377.115 136.379 376.955C136.357 376.911 136.375 376.858 136.419 376.836C136.464 376.814 136.517 376.832 136.539 376.876C136.617 377.033 136.701 377.19 136.789 377.343C136.813 377.386 136.799 377.441 136.756 377.465C136.75 377.468 136.745 377.471 136.739 377.473ZM218.687 349.782C218.684 349.784 218.68 349.785 218.676 349.785C218.628 349.794 218.581 349.763 218.572 349.714L218.471 349.188C218.462 349.14 218.494 349.093 218.542 349.084C218.59 349.074 218.637 349.106 218.646 349.154L218.747 349.681C218.756 349.726 218.729 349.769 218.687 349.782ZM136.002 375.849C135.957 375.864 135.907 375.84 135.891 375.795L135.709 375.291C135.692 375.244 135.716 375.193 135.763 375.177C135.808 375.157 135.86 375.184 135.877 375.23L136.059 375.734C136.075 375.781 136.051 375.832 136.005 375.848C136.004 375.849 136.003 375.849 136.002 375.849ZM218.344 348.029C218.341 348.031 218.338 348.031 218.334 348.032C218.286 348.042 218.239 348.011 218.229 347.962C218.194 347.789 218.159 347.614 218.123 347.437C218.113 347.389 218.145 347.343 218.192 347.332C218.24 347.322 218.288 347.353 218.297 347.401C218.334 347.578 218.369 347.753 218.404 347.927C218.413 347.972 218.387 348.016 218.344 348.029ZM135.396 374.169C135.35 374.184 135.301 374.16 135.285 374.115L135.103 373.611C135.086 373.565 135.11 373.513 135.156 373.497C135.202 373.479 135.254 373.504 135.271 373.55L135.452 374.054C135.469 374.101 135.445 374.152 135.399 374.169C135.398 374.169 135.397 374.169 135.396 374.169ZM217.981 346.28C217.978 346.281 217.975 346.282 217.972 346.283C217.924 346.293 217.877 346.262 217.866 346.214C217.829 346.041 217.792 345.866 217.754 345.691C217.743 345.643 217.774 345.595 217.822 345.584C217.87 345.574 217.918 345.605 217.928 345.653C217.966 345.829 218.004 346.003 218.041 346.177C218.051 346.222 218.024 346.266 217.981 346.28ZM134.79 372.49C134.744 372.504 134.695 372.48 134.679 372.435L134.497 371.931C134.48 371.885 134.504 371.834 134.55 371.817C134.588 371.797 134.648 371.824 134.664 371.87L134.846 372.374C134.863 372.421 134.839 372.472 134.793 372.489C134.792 372.489 134.791 372.489 134.79 372.49ZM217.598 344.536C217.596 344.537 217.593 344.538 217.59 344.538C217.542 344.549 217.495 344.519 217.484 344.471C217.445 344.298 217.405 344.123 217.365 343.948C217.354 343.9 217.383 343.853 217.432 343.841C217.48 343.83 217.528 343.861 217.539 343.909C217.579 344.084 217.619 344.258 217.658 344.431C217.668 344.477 217.642 344.522 217.598 344.536ZM134.184 370.81C134.138 370.825 134.089 370.801 134.072 370.755L133.89 370.251C133.874 370.205 133.898 370.154 133.944 370.137C133.983 370.118 134.042 370.144 134.058 370.191L134.24 370.694C134.257 370.741 134.233 370.792 134.187 370.809C134.186 370.809 134.185 370.809 134.184 370.81ZM217.195 342.796C217.193 342.796 217.191 342.797 217.188 342.798C217.14 342.809 217.092 342.779 217.081 342.731L216.956 342.211C216.944 342.163 216.972 342.115 217.022 342.103C217.07 342.091 217.118 342.121 217.129 342.169L217.254 342.69C217.265 342.736 217.239 342.781 217.195 342.796ZM133.578 369.13C133.532 369.145 133.482 369.121 133.466 369.075L133.284 368.571C133.268 368.525 133.292 368.474 133.338 368.457C133.383 368.44 133.436 368.464 133.452 368.511L133.634 369.015C133.651 369.061 133.627 369.112 133.58 369.129C133.579 369.129 133.578 369.13 133.578 369.13ZM216.771 341.061C216.769 341.061 216.767 341.062 216.765 341.062C216.717 341.074 216.669 341.045 216.657 340.997L216.526 340.478C216.514 340.43 216.542 340.383 216.59 340.37C216.638 340.358 216.687 340.386 216.699 340.434L216.83 340.954C216.842 341 216.815 341.046 216.771 341.061ZM132.972 367.45C132.926 367.465 132.876 367.441 132.86 367.395L132.678 366.891C132.661 366.845 132.686 366.794 132.732 366.777C132.775 366.757 132.829 366.785 132.846 366.831L133.028 367.335C133.045 367.381 133.021 367.432 132.974 367.449C132.973 367.449 132.972 367.45 132.972 367.45ZM216.326 339.331C216.324 339.331 216.323 339.332 216.321 339.332C216.273 339.345 216.224 339.316 216.212 339.269C216.166 339.097 216.121 338.924 216.074 338.751C216.061 338.704 216.09 338.654 216.137 338.642C216.185 338.629 216.234 338.657 216.247 338.705C216.293 338.878 216.339 339.051 216.384 339.223C216.397 339.269 216.37 339.316 216.326 339.331ZM132.365 365.77C132.32 365.785 132.27 365.761 132.254 365.716L132.072 365.212C132.055 365.165 132.079 365.114 132.126 365.097C132.169 365.079 132.223 365.105 132.24 365.151L132.422 365.655C132.439 365.701 132.414 365.752 132.368 365.769C132.367 365.77 132.366 365.77 132.365 365.77ZM215.858 337.607C215.857 337.607 215.856 337.608 215.855 337.608C215.807 337.621 215.758 337.593 215.745 337.546C215.697 337.374 215.649 337.203 215.6 337.03C215.587 336.983 215.615 336.931 215.662 336.92C215.709 336.907 215.759 336.934 215.772 336.982C215.821 337.154 215.869 337.326 215.917 337.498C215.93 337.544 215.904 337.592 215.858 337.607ZM131.759 364.09C131.714 364.105 131.664 364.081 131.648 364.036L131.466 363.532C131.449 363.485 131.473 363.434 131.52 363.417C131.559 363.399 131.617 363.425 131.634 363.471L131.816 363.975C131.832 364.021 131.808 364.073 131.762 364.089C131.761 364.09 131.76 364.09 131.759 364.09ZM215.368 335.889C215.367 335.89 215.366 335.89 215.366 335.89C215.318 335.904 215.269 335.877 215.255 335.829C215.205 335.659 215.154 335.487 215.103 335.316C215.089 335.269 215.115 335.221 215.163 335.205C215.211 335.191 215.26 335.218 215.275 335.265C215.326 335.437 215.376 335.608 215.426 335.779C215.44 335.826 215.414 335.874 215.368 335.889ZM131.153 362.41C131.108 362.425 131.058 362.401 131.042 362.356L130.86 361.852C130.843 361.805 130.867 361.754 130.913 361.738C130.953 361.719 131.011 361.745 131.028 361.791L131.21 362.295C131.226 362.342 131.202 362.393 131.156 362.409C131.155 362.41 131.154 362.41 131.153 362.41ZM214.854 334.179C214.854 334.179 214.853 334.179 214.853 334.179C214.806 334.194 214.756 334.167 214.741 334.12C214.689 333.95 214.636 333.779 214.582 333.609C214.568 333.562 214.6 333.511 214.641 333.497C214.688 333.482 214.738 333.508 214.753 333.555C214.806 333.726 214.859 333.897 214.912 334.067C214.926 334.114 214.901 334.164 214.854 334.179ZM130.547 360.731C130.501 360.745 130.452 360.721 130.436 360.676L130.254 360.172C130.237 360.126 130.261 360.074 130.307 360.058C130.348 360.04 130.405 360.065 130.421 360.111L130.603 360.615C130.62 360.662 130.596 360.713 130.55 360.73C130.549 360.73 130.548 360.73 130.547 360.731ZM214.316 332.476C214.269 332.491 214.218 332.466 214.203 332.419L214.19 332.378C214.139 332.222 214.088 332.066 214.037 331.91C214.021 331.863 214.047 331.813 214.094 331.797L214.094 331.797C214.141 331.782 214.191 331.808 214.206 331.854C214.258 332.01 214.309 332.166 214.36 332.322L214.373 332.363C214.388 332.41 214.363 332.461 214.316 332.476ZM129.941 359.051C129.895 359.066 129.846 359.042 129.829 358.996L129.648 358.492C129.631 358.446 129.655 358.395 129.701 358.378C129.746 358.357 129.799 358.385 129.815 358.432L129.997 358.935C130.014 358.982 129.99 359.033 129.944 359.05C129.943 359.05 129.942 359.05 129.941 359.051ZM213.751 330.782C213.705 330.797 213.655 330.772 213.639 330.726C213.582 330.557 213.524 330.389 213.465 330.22C213.449 330.174 213.474 330.123 213.52 330.107C213.559 330.09 213.617 330.115 213.634 330.162C213.692 330.331 213.751 330.5 213.808 330.668C213.824 330.715 213.799 330.766 213.753 330.782C213.752 330.782 213.752 330.782 213.751 330.782ZM129.335 357.371C129.289 357.386 129.24 357.362 129.223 357.316L129.041 356.812C129.025 356.766 129.049 356.715 129.095 356.698C129.136 356.68 129.193 356.705 129.209 356.752L129.391 357.256C129.408 357.302 129.384 357.353 129.338 357.37C129.337 357.37 129.336 357.371 129.335 357.371ZM213.16 329.098C213.115 329.112 213.065 329.088 213.049 329.043C212.988 328.875 212.927 328.707 212.866 328.54C212.849 328.494 212.873 328.442 212.919 328.425C212.965 328.406 213.017 328.432 213.033 328.478C213.095 328.646 213.156 328.814 213.217 328.982C213.233 329.029 213.209 329.08 213.163 329.097C213.162 329.097 213.161 329.097 213.16 329.098ZM128.729 355.691C128.683 355.706 128.634 355.682 128.617 355.636L128.435 355.132C128.419 355.086 128.443 355.035 128.489 355.018C128.534 355 128.586 355.025 128.603 355.072L128.785 355.576C128.802 355.622 128.778 355.673 128.731 355.69C128.73 355.69 128.73 355.691 128.729 355.691ZM212.54 327.423C212.495 327.438 212.446 327.414 212.429 327.37C212.366 327.203 212.302 327.037 212.238 326.87C212.22 326.824 212.243 326.772 212.289 326.755C212.334 326.738 212.386 326.76 212.404 326.806C212.469 326.972 212.533 327.139 212.596 327.306C212.614 327.352 212.59 327.404 212.544 327.422C212.543 327.422 212.542 327.422 212.54 327.423ZM128.123 354.011C128.077 354.026 128.027 354.002 128.011 353.956L127.829 353.453C127.812 353.406 127.836 353.355 127.883 353.338C127.932 353.323 127.98 353.346 127.997 353.392L128.179 353.896C128.196 353.942 128.172 353.993 128.125 354.01C128.124 354.01 128.123 354.011 128.123 354.011ZM211.89 325.76C211.846 325.774 211.798 325.752 211.78 325.708C211.713 325.542 211.646 325.377 211.579 325.212C211.56 325.166 211.582 325.114 211.628 325.096C211.676 325.076 211.726 325.099 211.744 325.145C211.812 325.31 211.879 325.476 211.946 325.641C211.964 325.687 211.942 325.739 211.896 325.758C211.894 325.758 211.892 325.759 211.89 325.76ZM127.516 352.331C127.471 352.346 127.421 352.322 127.405 352.277L127.223 351.773C127.206 351.726 127.23 351.675 127.277 351.658C127.317 351.637 127.374 351.666 127.391 351.712L127.573 352.216C127.59 352.262 127.565 352.314 127.519 352.33C127.518 352.331 127.517 352.331 127.516 352.331ZM211.208 324.109C211.165 324.123 211.117 324.102 211.099 324.059C211.029 323.895 210.959 323.731 210.888 323.567C210.869 323.522 210.889 323.469 210.934 323.45C210.98 323.431 211.032 323.451 211.052 323.496C211.123 323.66 211.193 323.825 211.263 323.989C211.282 324.035 211.261 324.087 211.216 324.106C211.213 324.107 211.211 324.108 211.208 324.109ZM126.91 350.651C126.865 350.666 126.815 350.642 126.799 350.597L126.617 350.093C126.6 350.046 126.624 349.995 126.67 349.978C126.712 349.962 126.768 349.986 126.785 350.032L126.967 350.536C126.983 350.582 126.959 350.634 126.913 350.65C126.912 350.651 126.911 350.651 126.91 350.651ZM210.493 322.473C210.45 322.487 210.403 322.466 210.384 322.424C210.311 322.262 210.237 322.099 210.163 321.937C210.142 321.892 210.162 321.839 210.207 321.819C210.253 321.797 210.305 321.818 210.325 321.863C210.399 322.025 210.473 322.188 210.547 322.351C210.567 322.396 210.547 322.449 210.502 322.469C210.499 322.471 210.496 322.472 210.493 322.473ZM126.304 348.972C126.258 348.986 126.209 348.962 126.193 348.917L125.979 348.326L126.288 348.226C126.334 348.211 126.385 348.236 126.4 348.283C126.415 348.33 126.39 348.381 126.343 348.396L126.21 348.439L126.36 348.856C126.377 348.903 126.353 348.954 126.307 348.971C126.306 348.971 126.305 348.971 126.304 348.972ZM209.519 321.37L209.01 321.536C208.963 321.551 208.912 321.525 208.897 321.478C208.882 321.432 208.908 321.381 208.954 321.366L209.464 321.201C209.511 321.185 209.561 321.211 209.576 321.258C209.591 321.305 209.566 321.355 209.519 321.37ZM207.821 321.922L207.312 322.087C207.265 322.103 207.215 322.077 207.2 322.03C207.184 321.983 207.21 321.933 207.257 321.918L207.766 321.752C207.813 321.737 207.863 321.762 207.879 321.809C207.894 321.856 207.868 321.907 207.821 321.922ZM206.124 322.473L205.615 322.639C205.568 322.654 205.517 322.628 205.502 322.582C205.487 322.535 205.513 322.484 205.559 322.469L206.069 322.304C206.116 322.288 206.166 322.314 206.181 322.361C206.196 322.408 206.171 322.458 206.124 322.473ZM204.426 323.025L203.917 323.19C203.87 323.206 203.82 323.18 203.805 323.133C203.789 323.086 203.815 323.036 203.862 323.021L204.371 322.855C204.418 322.84 204.468 322.866 204.484 322.912C204.499 322.959 204.473 323.01 204.426 323.025ZM202.729 323.576L202.22 323.742C202.173 323.757 202.122 323.731 202.107 323.685C202.092 323.638 202.118 323.587 202.165 323.572L202.674 323.407C202.721 323.391 202.771 323.417 202.786 323.464C202.801 323.511 202.776 323.561 202.729 323.576ZM201.031 324.128L200.522 324.293C200.475 324.309 200.425 324.283 200.41 324.236C200.395 324.189 200.42 324.139 200.467 324.124L200.976 323.958C201.023 323.943 201.074 323.969 201.089 324.016C201.104 324.062 201.078 324.113 201.031 324.128ZM199.334 324.68L198.825 324.845C198.778 324.86 198.728 324.835 198.712 324.788C198.697 324.741 198.723 324.69 198.77 324.675L199.279 324.51C199.326 324.495 199.376 324.52 199.391 324.567C199.407 324.614 199.381 324.664 199.334 324.68ZM197.637 325.231L197.127 325.397C197.08 325.412 197.03 325.386 197.015 325.339C197 325.292 197.025 325.242 197.072 325.227L197.581 325.061C197.628 325.046 197.679 325.072 197.694 325.119C197.709 325.165 197.683 325.216 197.637 325.231ZM195.939 325.783L195.43 325.948C195.383 325.963 195.333 325.938 195.317 325.891C195.302 325.844 195.328 325.794 195.375 325.778L195.884 325.613C195.931 325.598 195.981 325.623 195.996 325.67C196.012 325.717 195.986 325.767 195.939 325.783ZM194.242 326.334L193.732 326.5C193.685 326.515 193.635 326.489 193.62 326.442C193.605 326.395 193.63 326.345 193.677 326.33L194.186 326.164C194.233 326.149 194.284 326.175 194.299 326.222C194.314 326.269 194.288 326.319 194.242 326.334ZM192.544 326.886L192.035 327.051C191.988 327.066 191.938 327.041 191.922 326.994C191.907 326.947 191.933 326.897 191.98 326.881L192.489 326.716C192.536 326.701 192.586 326.726 192.601 326.773C192.617 326.82 192.591 326.87 192.544 326.886ZM190.847 327.437L190.337 327.603C190.29 327.618 190.24 327.592 190.225 327.545C190.21 327.498 190.235 327.448 190.282 327.433L190.791 327.267C190.838 327.252 190.889 327.278 190.904 327.325C190.919 327.372 190.894 327.422 190.847 327.437ZM189.149 327.989L188.64 328.154C188.593 328.17 188.543 328.144 188.527 328.097C188.512 328.05 188.538 328 188.585 327.984L189.094 327.819C189.141 327.804 189.191 327.829 189.206 327.876C189.222 327.923 189.196 327.974 189.149 327.989ZM187.452 328.54L186.942 328.706C186.896 328.721 186.845 328.695 186.83 328.649C186.815 328.602 186.84 328.551 186.887 328.536L187.397 328.371C187.443 328.355 187.494 328.381 187.509 328.428C187.524 328.475 187.499 328.525 187.452 328.54ZM185.754 329.092L185.245 329.257C185.198 329.273 185.148 329.247 185.133 329.2C185.117 329.153 185.143 329.103 185.19 329.088L185.699 328.922C185.746 328.907 185.796 328.932 185.812 328.979C185.827 329.026 185.801 329.077 185.754 329.092ZM184.057 329.643L183.548 329.809C183.501 329.824 183.45 329.798 183.435 329.752C183.42 329.705 183.445 329.654 183.492 329.639L184.002 329.474C184.049 329.458 184.099 329.484 184.114 329.531C184.129 329.578 184.104 329.628 184.057 329.643ZM182.359 330.195L181.85 330.36C181.803 330.376 181.753 330.35 181.738 330.303C181.722 330.256 181.748 330.206 181.795 330.191L182.304 330.025C182.351 330.01 182.401 330.036 182.417 330.083C182.432 330.129 182.406 330.18 182.359 330.195ZM180.662 330.747L180.153 330.912C180.106 330.927 180.055 330.901 180.04 330.855C180.025 330.808 180.051 330.757 180.097 330.742L180.607 330.577C180.654 330.561 180.704 330.587 180.719 330.634C180.734 330.681 180.709 330.731 180.662 330.747ZM178.964 331.298L178.455 331.464C178.408 331.479 178.358 331.453 178.343 331.406C178.327 331.359 178.353 331.309 178.4 331.294L178.909 331.128C178.956 331.113 179.006 331.139 179.022 331.186C179.037 331.232 179.011 331.283 178.964 331.298ZM177.267 331.85L176.758 332.015C176.711 332.03 176.66 332.005 176.645 331.958C176.63 331.911 176.656 331.861 176.702 331.845L177.212 331.68C177.259 331.665 177.309 331.69 177.324 331.737C177.339 331.784 177.314 331.834 177.267 331.85ZM175.569 332.401L175.06 332.567C175.013 332.582 174.963 332.556 174.948 332.509C174.932 332.462 174.958 332.412 175.005 332.397L175.514 332.231C175.561 332.216 175.611 332.242 175.627 332.289C175.642 332.336 175.616 332.386 175.569 332.401ZM173.872 332.953L173.363 333.118C173.316 333.133 173.265 333.108 173.25 333.061C173.235 333.014 173.261 332.964 173.308 332.948L173.817 332.783C173.864 332.768 173.914 332.793 173.929 332.84C173.944 332.887 173.919 332.937 173.872 332.953ZM172.174 333.504L171.665 333.67C171.618 333.685 171.568 333.659 171.553 333.612C171.538 333.565 171.563 333.515 171.61 333.5L172.119 333.334C172.166 333.319 172.216 333.345 172.232 333.392C172.247 333.439 172.221 333.489 172.174 333.504ZM170.477 334.056L169.968 334.221C169.921 334.237 169.87 334.211 169.855 334.164C169.84 334.117 169.866 334.067 169.913 334.051L170.422 333.886C170.469 333.871 170.519 333.896 170.534 333.943C170.549 333.99 170.524 334.041 170.477 334.056ZM168.78 334.607L168.27 334.773C168.223 334.788 168.173 334.762 168.158 334.715C168.143 334.669 168.168 334.618 168.215 334.603L168.724 334.438C168.771 334.422 168.822 334.448 168.837 334.495C168.852 334.542 168.826 334.592 168.78 334.607ZM167.082 335.159L166.573 335.324C166.526 335.34 166.476 335.314 166.46 335.267C166.445 335.22 166.471 335.17 166.518 335.155L167.027 334.989C167.074 334.974 167.124 334.999 167.139 335.046C167.155 335.093 167.129 335.144 167.082 335.159ZM165.385 335.71L164.875 335.876C164.828 335.891 164.778 335.865 164.763 335.819C164.748 335.772 164.773 335.721 164.82 335.706L165.329 335.541C165.376 335.525 165.427 335.551 165.442 335.598C165.457 335.645 165.431 335.695 165.385 335.71ZM163.687 336.262L163.178 336.427C163.131 336.443 163.081 336.417 163.065 336.37C163.05 336.323 163.076 336.273 163.123 336.258L163.632 336.092C163.679 336.077 163.729 336.103 163.744 336.149C163.76 336.196 163.734 336.247 163.687 336.262ZM161.99 336.813L161.48 336.979C161.433 336.994 161.383 336.968 161.368 336.922C161.353 336.875 161.378 336.824 161.425 336.809L161.934 336.644C161.981 336.628 162.032 336.654 162.047 336.701C162.062 336.748 162.037 336.798 161.99 336.813ZM160.292 337.365L159.783 337.531C159.736 337.546 159.686 337.52 159.67 337.473C159.655 337.426 159.681 337.376 159.728 337.361L160.237 337.195C160.284 337.18 160.334 337.206 160.349 337.253C160.365 337.299 160.339 337.35 160.292 337.365ZM158.595 337.917L158.085 338.082C158.038 338.097 157.988 338.072 157.973 338.025C157.958 337.978 157.983 337.928 158.03 337.912L158.539 337.747C158.586 337.732 158.637 337.757 158.652 337.804C158.667 337.851 158.642 337.901 158.595 337.917ZM156.897 338.468L156.388 338.634C156.341 338.649 156.291 338.623 156.276 338.576C156.26 338.529 156.286 338.479 156.333 338.464L156.842 338.298C156.889 338.283 156.939 338.309 156.954 338.356C156.97 338.402 156.944 338.453 156.897 338.468ZM155.2 339.02L154.69 339.185C154.644 339.2 154.593 339.175 154.578 339.128C154.563 339.081 154.588 339.031 154.635 339.015L155.145 338.85C155.191 338.835 155.242 338.86 155.257 338.907C155.272 338.954 155.247 339.004 155.2 339.02ZM153.502 339.571L152.993 339.737C152.946 339.752 152.896 339.726 152.881 339.679C152.865 339.632 152.891 339.582 152.938 339.567L153.447 339.401C153.494 339.386 153.544 339.412 153.56 339.459C153.575 339.506 153.549 339.556 153.502 339.571ZM151.805 340.123L151.296 340.288C151.249 340.303 151.198 340.278 151.183 340.231C151.168 340.184 151.193 340.134 151.24 340.118L151.75 339.953C151.796 339.938 151.847 339.963 151.862 340.01C151.877 340.057 151.852 340.108 151.805 340.123ZM150.107 340.674L149.598 340.84C149.551 340.855 149.501 340.829 149.486 340.782C149.47 340.736 149.496 340.685 149.543 340.67L150.052 340.504C150.099 340.489 150.149 340.515 150.165 340.562C150.18 340.609 150.154 340.659 150.107 340.674ZM148.41 341.226L147.901 341.391C147.854 341.407 147.803 341.381 147.788 341.334C147.773 341.287 147.798 341.237 147.845 341.222L148.355 341.056C148.402 341.041 148.452 341.066 148.467 341.113C148.482 341.16 148.457 341.211 148.41 341.226ZM146.712 341.777L146.203 341.943C146.156 341.958 146.106 341.932 146.091 341.886C146.075 341.839 146.101 341.788 146.148 341.773L146.657 341.608C146.704 341.592 146.754 341.618 146.77 341.665C146.785 341.712 146.759 341.762 146.712 341.777ZM145.015 342.329L144.506 342.494C144.459 342.51 144.408 342.484 144.393 342.437C144.378 342.39 144.404 342.34 144.45 342.325L144.96 342.159C145.007 342.144 145.057 342.17 145.072 342.216C145.087 342.263 145.062 342.314 145.015 342.329ZM143.317 342.88L142.808 343.046C142.761 343.061 142.711 343.035 142.696 342.989C142.68 342.942 142.706 342.891 142.753 342.876L143.262 342.711C143.309 342.695 143.359 342.721 143.375 342.768C143.39 342.815 143.364 342.865 143.317 342.88ZM141.62 343.432L141.111 343.597C141.064 343.613 141.013 343.587 140.998 343.54C140.983 343.493 141.009 343.443 141.056 343.428L141.565 343.262C141.612 343.247 141.662 343.273 141.677 343.32C141.692 343.366 141.667 343.417 141.62 343.432ZM139.922 343.984L139.413 344.149C139.366 344.164 139.316 344.139 139.301 344.092C139.286 344.045 139.311 343.994 139.358 343.979L139.867 343.814C139.914 343.799 139.965 343.824 139.98 343.871C139.995 343.918 139.969 343.968 139.922 343.984ZM138.225 344.535L137.716 344.701C137.669 344.716 137.618 344.69 137.603 344.643C137.588 344.596 137.614 344.546 137.661 344.531L138.17 344.365C138.217 344.35 138.267 344.376 138.282 344.423C138.297 344.469 138.272 344.52 138.225 344.535ZM136.527 345.087L136.018 345.252C135.971 345.267 135.921 345.242 135.906 345.195C135.891 345.148 135.916 345.098 135.963 345.082L136.472 344.917C136.519 344.902 136.57 344.927 136.585 344.974C136.6 345.021 136.574 345.071 136.527 345.087ZM134.83 345.638L134.321 345.804C134.274 345.819 134.224 345.793 134.208 345.746C134.193 345.699 134.219 345.649 134.266 345.634L134.775 345.468C134.822 345.453 134.872 345.479 134.887 345.526C134.903 345.573 134.877 345.623 134.83 345.638ZM133.133 346.19L132.623 346.355C132.576 346.37 132.526 346.345 132.511 346.298C132.496 346.251 132.521 346.201 132.568 346.185L133.077 346.02C133.124 346.005 133.175 346.03 133.19 346.077C133.205 346.124 133.179 346.174 133.133 346.19ZM131.435 346.741L130.926 346.907C130.879 346.922 130.829 346.896 130.813 346.849C130.798 346.802 130.824 346.752 130.871 346.737L131.38 346.571C131.427 346.556 131.477 346.582 131.492 346.629C131.508 346.676 131.482 346.726 131.435 346.741ZM129.738 347.293L129.228 347.458C129.181 347.474 129.131 347.448 129.116 347.401C129.101 347.354 129.126 347.304 129.173 347.288L129.682 347.123C129.729 347.108 129.78 347.133 129.795 347.18C129.81 347.227 129.785 347.278 129.738 347.293ZM128.04 347.844L127.531 348.01C127.484 348.025 127.434 347.999 127.418 347.952C127.403 347.906 127.429 347.855 127.476 347.84L127.985 347.675C128.032 347.659 128.082 347.685 128.097 347.732C128.113 347.779 128.087 347.829 128.04 347.844Z" fill="white"/>
<path d="M171.692 311.032L171.207 308.807C171.283 308.214 171.669 307.686 172.235 307.404C174.355 306.348 179.688 303.971 182.951 304.967L184.162 307.342L171.692 311.032Z" fill="#512D2B"/>
<path d="M177.929 307.159C177.572 307.415 177.172 307.544 176.73 307.546C176.196 307.549 175.671 307.097 175.462 306.452L172.846 298.4L175.699 297.473L178.313 305.52C178.524 306.168 178.366 306.847 177.929 307.159Z" fill="#512D2B"/>
<path d="M138.25 311.743L176.706 297.848C177.583 297.532 178.13 296.658 178.005 295.754C177.829 294.487 177.434 292.634 176.551 290.867C175.546 288.858 173.189 287.889 170.992 288.546C163.686 290.732 145.229 296.735 136.342 304C135.403 304.768 134.898 305.932 134.984 307.123C135.066 308.258 135.349 309.718 136.153 311.036C136.579 311.736 137.463 312.027 138.25 311.743Z" fill="#7F4B49"/>
<path d="M136.907 310.078C136.82 310.107 136.726 310.07 136.69 309.99C136.665 309.935 136.081 308.618 136.036 307.182C136.002 306.09 136.589 305.013 137.569 304.37C139.548 303.072 143.369 300.716 146.731 299.526C146.825 299.493 146.926 299.537 146.957 299.624C146.988 299.711 146.938 299.809 146.844 299.842C143.521 301.019 139.729 303.356 137.765 304.645C136.889 305.22 136.364 306.183 136.394 307.158C136.437 308.53 137.015 309.834 137.021 309.847C137.059 309.932 137.016 310.032 136.925 310.072C136.919 310.074 136.913 310.076 136.907 310.078Z" fill="#91B3FA"/>
<path d="M119.256 326.548C131.642 322.351 185.261 304.314 201.492 301.092C202.89 300.814 204.303 301.426 205.015 302.629C207.274 306.437 212.233 315.378 215.087 324.911C215.475 326.209 214.869 327.607 213.655 328.267L180.141 346.5L167.469 350.617L127.043 355.531C125.618 355.704 124.267 354.909 123.764 353.594C121.97 348.915 117.955 337.871 116.927 330.257C116.708 328.64 117.679 327.083 119.256 326.548Z" fill="#AF6B64"/>
<path d="M178.944 343.734L178.434 343.899C178.388 343.915 178.337 343.89 178.322 343.843C178.307 343.797 178.333 343.747 178.38 343.732L178.89 343.566C178.937 343.551 178.987 343.576 179.002 343.622C179.017 343.669 178.991 343.719 178.944 343.734ZM177.245 344.286L176.735 344.451C176.689 344.467 176.638 344.442 176.623 344.395C176.608 344.349 176.634 344.299 176.681 344.284L177.191 344.118C177.238 344.103 177.288 344.128 177.303 344.174C177.318 344.221 177.292 344.271 177.245 344.286ZM175.546 344.838L175.037 345.003C174.99 345.019 174.939 344.994 174.924 344.947C174.909 344.901 174.935 344.851 174.982 344.836L175.492 344.67C175.539 344.655 175.589 344.68 175.604 344.726C175.619 344.773 175.593 344.823 175.546 344.838ZM173.847 345.39L173.338 345.556C173.291 345.571 173.241 345.546 173.226 345.499C173.21 345.453 173.236 345.403 173.283 345.388L173.793 345.222C173.84 345.207 173.89 345.232 173.905 345.279C173.92 345.325 173.894 345.375 173.847 345.39ZM172.148 345.942L171.639 346.108C171.592 346.123 171.542 346.098 171.527 346.051C171.512 346.005 171.537 345.955 171.584 345.94L172.094 345.774C172.141 345.759 172.191 345.784 172.206 345.831C172.221 345.877 172.195 345.927 172.148 345.942ZM170.45 346.494L169.94 346.66C169.893 346.675 169.843 346.65 169.828 346.603C169.813 346.557 169.839 346.507 169.885 346.492L170.395 346.326C170.442 346.311 170.492 346.336 170.507 346.383C170.522 346.429 170.496 346.479 170.45 346.494ZM168.751 347.046L168.241 347.212C168.194 347.227 168.144 347.202 168.129 347.155C168.114 347.109 168.14 347.059 168.186 347.044L168.696 346.878C168.743 346.863 168.793 346.888 168.808 346.935C168.823 346.981 168.798 347.031 168.751 347.046ZM167.052 347.598L166.83 347.67L166.281 347.738C166.232 347.744 166.188 347.71 166.182 347.661C166.177 347.613 166.211 347.569 166.261 347.563L166.792 347.499L166.997 347.43C167.044 347.415 167.094 347.44 167.109 347.487C167.124 347.533 167.099 347.583 167.052 347.598ZM180.042 343.137C180.002 343.15 179.957 343.134 179.936 343.096C179.913 343.053 179.929 342.999 179.972 342.976L180.443 342.72C180.486 342.696 180.54 342.712 180.564 342.754C180.587 342.797 180.571 342.851 180.528 342.874L180.057 343.13C180.052 343.133 180.047 343.135 180.042 343.137ZM165.057 347.885C165.052 347.886 165.046 347.888 165.04 347.888L164.508 347.953C164.459 347.959 164.415 347.924 164.41 347.876C164.404 347.828 164.438 347.783 164.488 347.778L165.02 347.713C165.069 347.707 165.113 347.742 165.119 347.79C165.123 347.833 165.097 347.872 165.057 347.885ZM181.61 342.283C181.57 342.296 181.525 342.28 181.504 342.242C181.481 342.199 181.497 342.145 181.54 342.122L182.011 341.866C182.054 341.842 182.108 341.858 182.132 341.9C182.155 341.943 182.139 341.997 182.096 342.02L181.625 342.276C181.62 342.279 181.615 342.281 181.61 342.283ZM163.285 348.099C163.279 348.101 163.274 348.102 163.268 348.103L162.736 348.167C162.687 348.173 162.643 348.139 162.637 348.091C162.631 348.042 162.666 347.998 162.716 347.992L163.247 347.928C163.296 347.922 163.34 347.956 163.346 348.005C163.351 348.047 163.324 348.086 163.285 348.099ZM183.178 341.429C183.138 341.442 183.093 341.426 183.073 341.388C183.049 341.345 183.065 341.291 183.108 341.268L183.579 341.012C183.622 340.988 183.676 341.003 183.7 341.046C183.723 341.089 183.707 341.142 183.664 341.166L183.193 341.422C183.188 341.425 183.183 341.427 183.178 341.429ZM161.512 348.314C161.507 348.316 161.501 348.317 161.495 348.318L160.963 348.382C160.914 348.388 160.87 348.353 160.865 348.305C160.859 348.257 160.893 348.212 160.943 348.207L161.475 348.142C161.524 348.137 161.568 348.171 161.574 348.219C161.578 348.262 161.552 348.301 161.512 348.314ZM184.746 340.575C184.706 340.588 184.661 340.571 184.641 340.534C184.617 340.491 184.633 340.437 184.676 340.414L185.147 340.158C185.19 340.135 185.244 340.15 185.268 340.192C185.291 340.235 185.275 340.288 185.232 340.312L184.761 340.568C184.756 340.571 184.751 340.573 184.746 340.575ZM159.74 348.528C159.734 348.53 159.728 348.531 159.723 348.532L159.191 348.596C159.142 348.602 159.098 348.568 159.092 348.52C159.086 348.471 159.121 348.427 159.171 348.421L159.702 348.357C159.751 348.351 159.795 348.385 159.801 348.434C159.806 348.476 159.779 348.515 159.74 348.528ZM186.314 339.721C186.274 339.734 186.229 339.717 186.209 339.68C186.185 339.637 186.201 339.583 186.244 339.56L186.715 339.304C186.758 339.28 186.812 339.295 186.836 339.338C186.859 339.381 186.843 339.434 186.8 339.458L186.329 339.714C186.325 339.717 186.319 339.719 186.314 339.721ZM157.967 348.743C157.962 348.745 157.956 348.746 157.95 348.747L157.418 348.811C157.369 348.817 157.325 348.783 157.319 348.734C157.314 348.686 157.348 348.641 157.398 348.636L157.93 348.571C157.979 348.566 158.023 348.6 158.028 348.648C158.033 348.691 158.007 348.73 157.967 348.743ZM187.882 338.867C187.842 338.88 187.797 338.863 187.777 338.826C187.753 338.783 187.769 338.729 187.813 338.706L188.283 338.45C188.327 338.426 188.38 338.441 188.404 338.484C188.427 338.527 188.411 338.58 188.368 338.604L187.898 338.86C187.893 338.863 187.887 338.865 187.882 338.867ZM156.195 348.957C156.189 348.959 156.183 348.961 156.177 348.961L155.646 349.026C155.597 349.031 155.553 348.997 155.547 348.949C155.541 348.9 155.576 348.856 155.625 348.85L156.157 348.786C156.206 348.78 156.25 348.814 156.256 348.863C156.261 348.905 156.234 348.945 156.195 348.957ZM189.45 338.013C189.41 338.026 189.366 338.009 189.345 337.972C189.321 337.929 189.337 337.875 189.381 337.852L189.851 337.595C189.895 337.572 189.948 337.587 189.972 337.63C189.995 337.673 189.979 337.726 189.936 337.75L189.466 338.006C189.461 338.009 189.456 338.011 189.45 338.013ZM154.422 349.172C154.417 349.174 154.411 349.175 154.405 349.176L153.873 349.24C153.824 349.246 153.78 349.212 153.775 349.163C153.769 349.115 153.804 349.07 153.853 349.065L154.385 349.001C154.434 348.995 154.478 349.029 154.483 349.077C154.488 349.12 154.462 349.159 154.422 349.172ZM191.018 337.159C190.978 337.172 190.934 337.155 190.913 337.118C190.889 337.075 190.905 337.021 190.949 336.998L191.419 336.741C191.463 336.718 191.517 336.733 191.54 336.776C191.563 336.819 191.547 336.872 191.504 336.896L191.034 337.152C191.029 337.155 191.024 337.157 191.018 337.159ZM152.65 349.387C152.644 349.388 152.638 349.39 152.632 349.39L152.101 349.455C152.052 349.461 152.008 349.426 152.002 349.378C151.996 349.329 152.031 349.285 152.08 349.28L152.612 349.215C152.661 349.209 152.705 349.244 152.711 349.292C152.716 349.335 152.689 349.374 152.65 349.387ZM192.586 336.305C192.546 336.318 192.502 336.301 192.481 336.263C192.457 336.221 192.473 336.167 192.517 336.144L192.987 335.887C193.031 335.864 193.085 335.879 193.108 335.922C193.132 335.965 193.115 336.018 193.072 336.042L192.602 336.298C192.597 336.301 192.592 336.303 192.586 336.305ZM150.877 349.601C150.872 349.603 150.866 349.604 150.86 349.605L150.328 349.669C150.279 349.675 150.235 349.641 150.229 349.592C150.224 349.544 150.258 349.5 150.308 349.494L150.84 349.43C150.889 349.424 150.933 349.458 150.938 349.507C150.943 349.549 150.917 349.588 150.877 349.601ZM194.154 335.451C194.114 335.464 194.07 335.447 194.049 335.409C194.025 335.367 194.041 335.313 194.085 335.29L194.555 335.033C194.598 335.01 194.653 335.025 194.676 335.068C194.7 335.11 194.684 335.164 194.64 335.188L194.17 335.444C194.165 335.447 194.16 335.449 194.154 335.451ZM149.105 349.816C149.099 349.817 149.093 349.819 149.087 349.819L148.556 349.884C148.507 349.89 148.462 349.855 148.457 349.807C148.451 349.759 148.486 349.715 148.535 349.709L149.067 349.644C149.116 349.638 149.16 349.673 149.166 349.721C149.171 349.764 149.144 349.803 149.105 349.816ZM195.722 334.597C195.682 334.61 195.638 334.593 195.617 334.555C195.593 334.513 195.609 334.459 195.653 334.435L196.123 334.179C196.167 334.156 196.221 334.171 196.244 334.214C196.268 334.256 196.252 334.31 196.208 334.334L195.738 334.59C195.733 334.593 195.728 334.595 195.722 334.597ZM147.332 350.03C147.327 350.032 147.321 350.033 147.315 350.034L146.783 350.098C146.734 350.104 146.69 350.07 146.684 350.021C146.679 349.973 146.713 349.929 146.763 349.923L147.295 349.859C147.344 349.853 147.388 349.887 147.393 349.936C147.398 349.978 147.372 350.017 147.332 350.03ZM197.291 333.743C197.25 333.756 197.206 333.739 197.185 333.701C197.161 333.659 197.177 333.605 197.221 333.581L197.691 333.325C197.734 333.302 197.789 333.317 197.812 333.36C197.836 333.402 197.82 333.456 197.776 333.48L197.306 333.736C197.301 333.739 197.296 333.741 197.291 333.743ZM145.56 350.245C145.554 350.247 145.548 350.248 145.542 350.249L145.011 350.313C144.962 350.319 144.917 350.284 144.912 350.236C144.906 350.188 144.94 350.143 144.99 350.138L145.522 350.073C145.571 350.067 145.615 350.102 145.621 350.15C145.626 350.193 145.599 350.232 145.56 350.245ZM198.859 332.888C198.818 332.902 198.774 332.885 198.753 332.847C198.729 332.805 198.746 332.751 198.789 332.727L199.259 332.471C199.303 332.448 199.357 332.463 199.38 332.506C199.404 332.548 199.388 332.602 199.344 332.626L198.874 332.882C198.869 332.885 198.864 332.887 198.859 332.888ZM143.787 350.459C143.782 350.461 143.776 350.462 143.77 350.463L143.238 350.528C143.189 350.533 143.145 350.499 143.139 350.451C143.134 350.402 143.168 350.358 143.218 350.352L143.75 350.288C143.799 350.282 143.843 350.316 143.848 350.365C143.853 350.407 143.827 350.446 143.787 350.459ZM200.427 332.034C200.387 332.047 200.342 332.031 200.321 331.993C200.298 331.951 200.314 331.897 200.357 331.873L200.827 331.617C200.871 331.594 200.925 331.609 200.948 331.652C200.972 331.694 200.956 331.748 200.912 331.772L200.442 332.028C200.437 332.031 200.432 332.033 200.427 332.034ZM142.015 350.674C142.009 350.676 142.003 350.677 141.997 350.678L141.466 350.742C141.417 350.748 141.372 350.714 141.367 350.665C141.361 350.617 141.395 350.572 141.445 350.567L141.977 350.503C142.026 350.497 142.07 350.531 142.076 350.579C142.081 350.622 142.054 350.661 142.015 350.674ZM201.995 331.18C201.955 331.193 201.91 331.177 201.889 331.139C201.866 331.097 201.882 331.043 201.925 331.019L202.395 330.763C202.439 330.74 202.493 330.755 202.516 330.798C202.54 330.84 202.524 330.894 202.48 330.918L202.01 331.174C202.005 331.176 202 331.179 201.995 331.18ZM203.563 330.326C203.523 330.339 203.478 330.323 203.457 330.285C203.434 330.243 203.45 330.189 203.493 330.165L203.963 329.909C204.007 329.886 204.061 329.901 204.084 329.944C204.108 329.986 204.092 330.04 204.048 330.064L203.578 330.32C203.573 330.322 203.568 330.325 203.563 330.326ZM140.242 350.888C140.237 350.89 140.231 350.892 140.225 350.892L139.693 350.957C139.644 350.963 139.6 350.928 139.594 350.88C139.589 350.831 139.623 350.787 139.673 350.781L140.205 350.717C140.253 350.711 140.298 350.746 140.303 350.794C140.308 350.836 140.282 350.876 140.242 350.888ZM205.131 329.472C205.091 329.485 205.046 329.469 205.025 329.431C205.002 329.389 205.018 329.335 205.061 329.311L205.531 329.055C205.575 329.032 205.629 329.047 205.652 329.09C205.676 329.132 205.66 329.186 205.616 329.21L205.146 329.466C205.141 329.468 205.136 329.471 205.131 329.472ZM138.47 351.103C138.464 351.105 138.458 351.106 138.452 351.107L137.921 351.171C137.872 351.177 137.827 351.143 137.822 351.094C137.816 351.046 137.85 351.001 137.9 350.996L138.432 350.932C138.481 350.926 138.525 350.96 138.531 351.009C138.536 351.051 138.509 351.09 138.47 351.103ZM206.699 328.618C206.659 328.631 206.614 328.615 206.593 328.577C206.57 328.535 206.586 328.481 206.629 328.457L207.099 328.201C207.143 328.178 207.197 328.193 207.22 328.236C207.244 328.278 207.228 328.332 207.184 328.355L206.714 328.612C206.709 328.614 206.704 328.617 206.699 328.618ZM136.697 351.318C136.692 351.319 136.686 351.321 136.68 351.321L136.148 351.386C136.099 351.392 136.055 351.357 136.049 351.309C136.044 351.26 136.079 351.216 136.128 351.211L136.66 351.146C136.708 351.14 136.753 351.175 136.758 351.223C136.763 351.266 136.737 351.305 136.697 351.318ZM208.267 327.764C208.227 327.777 208.182 327.761 208.161 327.723C208.138 327.68 208.154 327.627 208.197 327.603L208.668 327.347C208.711 327.324 208.765 327.339 208.788 327.382C208.812 327.424 208.796 327.478 208.753 327.501L208.282 327.758C208.277 327.76 208.272 327.763 208.267 327.764ZM134.924 351.532C134.919 351.534 134.913 351.535 134.907 351.536L134.376 351.6C134.327 351.606 134.282 351.572 134.277 351.523C134.271 351.475 134.306 351.431 134.355 351.425L134.887 351.361C134.936 351.355 134.98 351.389 134.986 351.437C134.991 351.48 134.964 351.519 134.924 351.532ZM209.835 326.91C209.795 326.923 209.75 326.907 209.729 326.869C209.706 326.826 209.722 326.773 209.765 326.749L210.236 326.493C210.279 326.469 210.333 326.485 210.356 326.527C210.38 326.57 210.364 326.624 210.321 326.647L209.85 326.904C209.845 326.906 209.84 326.909 209.835 326.91ZM133.152 351.747C133.147 351.749 133.141 351.75 133.135 351.751L132.603 351.815C132.554 351.821 132.51 351.786 132.504 351.738C132.499 351.69 132.533 351.646 132.583 351.64L133.115 351.575C133.163 351.569 133.208 351.604 133.213 351.652C133.218 351.695 133.192 351.734 133.152 351.747ZM211.403 326.056C211.363 326.069 211.318 326.053 211.297 326.015C211.274 325.972 211.29 325.919 211.333 325.895L211.804 325.639C211.847 325.616 211.901 325.631 211.924 325.673C211.948 325.716 211.932 325.77 211.889 325.793L211.418 326.05C211.413 326.052 211.408 326.055 211.403 326.056ZM131.379 351.961C131.374 351.963 131.368 351.964 131.362 351.965L130.831 352.029C130.782 352.035 130.737 352.001 130.732 351.952C130.726 351.904 130.761 351.86 130.81 351.854L131.342 351.79C131.391 351.784 131.435 351.818 131.441 351.867C131.446 351.909 131.419 351.948 131.379 351.961ZM129.607 352.176C129.601 352.178 129.596 352.179 129.59 352.18L129.058 352.244C129.009 352.25 128.965 352.215 128.959 352.167C128.954 352.119 128.988 352.075 129.038 352.069L129.569 352.004C129.618 351.999 129.663 352.033 129.668 352.081C129.673 352.124 129.647 352.163 129.607 352.176ZM127.834 352.39C127.829 352.392 127.823 352.393 127.817 352.394L127.285 352.458C127.237 352.464 127.192 352.43 127.187 352.382C127.181 352.333 127.216 352.289 127.265 352.283L127.797 352.219C127.846 352.213 127.89 352.247 127.896 352.296C127.901 352.338 127.874 352.377 127.834 352.39ZM211.802 324.739C211.802 324.739 211.802 324.739 211.802 324.739C211.755 324.754 211.704 324.729 211.69 324.683L211.592 324.379L211.527 324.18C211.512 324.134 211.537 324.084 211.584 324.068L211.584 324.068C211.631 324.053 211.681 324.078 211.696 324.124L211.761 324.323L211.86 324.628C211.875 324.674 211.849 324.724 211.802 324.739ZM126.448 351.977C126.403 351.992 126.354 351.969 126.337 351.925C126.277 351.766 126.214 351.601 126.15 351.43C126.133 351.384 126.156 351.333 126.203 351.316C126.25 351.299 126.3 351.322 126.317 351.367C126.381 351.538 126.444 351.703 126.504 351.862C126.521 351.907 126.498 351.958 126.452 351.976C126.45 351.976 126.449 351.977 126.448 351.977ZM211.244 323.067C211.198 323.082 211.148 323.058 211.132 323.012C211.075 322.846 211.016 322.68 210.958 322.514C210.942 322.468 210.966 322.418 211.013 322.401C211.063 322.381 211.11 322.409 211.126 322.455C211.185 322.621 211.243 322.787 211.301 322.954C211.317 323 211.292 323.05 211.246 323.066C211.245 323.066 211.245 323.067 211.244 323.067ZM125.83 350.326C125.785 350.34 125.736 350.317 125.719 350.273L125.537 349.776C125.52 349.73 125.544 349.679 125.59 349.663C125.634 349.646 125.688 349.669 125.704 349.715L125.887 350.211C125.904 350.257 125.88 350.307 125.833 350.324C125.832 350.325 125.831 350.325 125.83 350.326ZM210.648 321.409C210.603 321.424 210.554 321.401 210.537 321.356C210.476 321.191 210.414 321.027 210.352 320.863C210.335 320.817 210.358 320.766 210.404 320.749C210.45 320.73 210.502 320.754 210.519 320.8C210.582 320.964 210.643 321.129 210.705 321.294C210.722 321.34 210.698 321.391 210.652 321.408C210.651 321.408 210.649 321.409 210.648 321.409ZM125.227 348.669C125.181 348.684 125.132 348.66 125.116 348.615L124.938 348.117C124.921 348.071 124.946 348.02 124.992 348.004C125.04 347.989 125.089 348.011 125.106 348.057L125.284 348.555C125.3 348.601 125.276 348.651 125.23 348.668C125.229 348.668 125.228 348.668 125.227 348.669ZM210.017 319.764C209.973 319.778 209.924 319.756 209.907 319.713C209.842 319.549 209.777 319.385 209.711 319.222C209.693 319.177 209.716 319.125 209.761 319.107C209.81 319.09 209.859 319.11 209.877 319.156C209.943 319.319 210.008 319.483 210.073 319.647C210.091 319.693 210.068 319.744 210.022 319.762C210.021 319.763 210.019 319.763 210.017 319.764ZM124.639 347.007C124.593 347.022 124.543 346.998 124.527 346.952L124.353 346.452C124.338 346.406 124.362 346.356 124.409 346.34C124.453 346.322 124.506 346.348 124.522 346.394L124.696 346.893C124.712 346.939 124.687 346.99 124.64 347.006C124.64 347.006 124.639 347.006 124.639 347.007ZM209.353 318.13C209.309 318.144 209.261 318.123 209.244 318.081C209.175 317.917 209.107 317.755 209.039 317.593C209.02 317.548 209.041 317.497 209.087 317.477C209.13 317.457 209.184 317.479 209.203 317.524C209.272 317.686 209.34 317.849 209.409 318.012C209.427 318.057 209.406 318.109 209.36 318.128C209.358 318.129 209.356 318.129 209.353 318.13ZM124.066 345.339C124.019 345.354 123.969 345.33 123.954 345.284L123.785 344.782C123.769 344.736 123.795 344.686 123.842 344.671C123.842 344.67 123.842 344.67 123.842 344.67C123.889 344.655 123.939 344.68 123.954 344.726L124.123 345.227C124.139 345.273 124.113 345.323 124.067 345.339C124.066 345.339 124.066 345.339 124.066 345.339ZM208.659 316.509C208.616 316.523 208.569 316.502 208.55 316.46C208.479 316.298 208.408 316.137 208.337 315.977C208.317 315.932 208.338 315.88 208.383 315.86C208.428 315.84 208.481 315.86 208.5 315.905C208.572 316.065 208.643 316.227 208.714 316.389C208.734 316.434 208.713 316.486 208.668 316.505C208.665 316.507 208.662 316.508 208.659 316.509ZM123.509 343.666C123.462 343.681 123.412 343.656 123.397 343.61L123.303 343.322L123.233 343.107C123.218 343.061 123.244 343.011 123.291 342.996L123.291 342.996C123.338 342.981 123.388 343.006 123.403 343.052L123.473 343.267L123.567 343.555C123.582 343.601 123.556 343.651 123.509 343.666C123.509 343.666 123.509 343.666 123.509 343.666ZM207.938 314.899C207.895 314.913 207.848 314.893 207.83 314.852C207.756 314.691 207.682 314.531 207.608 314.372C207.588 314.328 207.607 314.275 207.652 314.255C207.698 314.233 207.75 314.253 207.77 314.297C207.844 314.457 207.918 314.617 207.992 314.778C208.012 314.822 207.993 314.875 207.948 314.895C207.944 314.897 207.941 314.898 207.938 314.899ZM122.971 341.988C122.97 341.988 122.97 341.988 122.97 341.989C122.923 342.003 122.873 341.978 122.858 341.931C122.805 341.764 122.753 341.595 122.7 341.427C122.686 341.381 122.712 341.332 122.759 341.316C122.759 341.316 122.759 341.316 122.76 341.316C122.807 341.301 122.857 341.327 122.871 341.374C122.923 341.542 122.976 341.71 123.029 341.878C123.043 341.924 123.017 341.973 122.971 341.988ZM207.19 313.301C207.148 313.315 207.102 313.296 207.082 313.256C207.006 313.096 206.929 312.937 206.853 312.779C206.832 312.735 206.851 312.683 206.895 312.661C206.941 312.64 206.993 312.658 207.014 312.702C207.091 312.86 207.167 313.019 207.244 313.179C207.265 313.223 207.246 313.276 207.201 313.297C207.197 313.299 207.194 313.3 207.19 313.301ZM122.452 340.304C122.452 340.304 122.451 340.304 122.45 340.305C122.403 340.319 122.354 340.293 122.34 340.246C122.289 340.077 122.238 339.908 122.188 339.739C122.174 339.692 122.199 339.641 122.249 339.629C122.296 339.615 122.346 339.641 122.359 339.688C122.41 339.857 122.46 340.026 122.511 340.194C122.524 340.24 122.498 340.289 122.452 340.304ZM206.418 311.716C206.376 311.729 206.33 311.711 206.31 311.671C206.231 311.512 206.153 311.354 206.074 311.198C206.052 311.155 206.071 311.102 206.115 311.079C206.159 311.058 206.212 311.075 206.234 311.119C206.313 311.275 206.392 311.433 206.471 311.592C206.492 311.636 206.474 311.689 206.43 311.711C206.426 311.713 206.422 311.714 206.418 311.716ZM121.957 338.612C121.956 338.612 121.955 338.612 121.954 338.613C121.906 338.626 121.857 338.599 121.844 338.553C121.795 338.383 121.747 338.213 121.7 338.043C121.687 337.996 121.718 337.946 121.762 337.934C121.809 337.92 121.859 337.947 121.872 337.994C121.919 338.164 121.967 338.334 122.015 338.503C122.028 338.549 122.002 338.597 121.957 338.612ZM205.622 310.141C205.581 310.155 205.535 310.137 205.515 310.098C205.433 309.94 205.352 309.783 205.272 309.628C205.249 309.585 205.266 309.532 205.31 309.509C205.355 309.486 205.408 309.503 205.43 309.547C205.511 309.701 205.592 309.858 205.674 310.017C205.696 310.06 205.679 310.113 205.635 310.136C205.631 310.138 205.626 310.14 205.622 310.141ZM121.487 336.911C121.486 336.911 121.484 336.912 121.483 336.912C121.435 336.925 121.386 336.897 121.374 336.85C121.328 336.679 121.283 336.508 121.239 336.337C121.226 336.29 121.254 336.242 121.303 336.229C121.351 336.217 121.399 336.245 121.411 336.292C121.456 336.462 121.501 336.633 121.546 336.804C121.559 336.849 121.532 336.896 121.487 336.911ZM204.802 308.579C204.762 308.592 204.717 308.575 204.696 308.536C204.612 308.378 204.528 308.223 204.446 308.07C204.423 308.027 204.44 307.974 204.483 307.951C204.527 307.927 204.581 307.943 204.604 307.986C204.686 308.139 204.77 308.295 204.854 308.453C204.877 308.496 204.86 308.55 204.817 308.573C204.812 308.575 204.807 308.577 204.802 308.579ZM121.05 335.202C121.048 335.202 121.046 335.203 121.044 335.204C120.996 335.215 120.947 335.187 120.936 335.139C120.894 334.967 120.852 334.795 120.812 334.624C120.8 334.577 120.829 334.531 120.878 334.518C120.926 334.506 120.974 334.535 120.985 334.583C121.026 334.753 121.067 334.925 121.109 335.097C121.12 335.142 121.094 335.187 121.05 335.202ZM203.96 307.028C203.92 307.041 203.876 307.025 203.855 306.987C203.768 306.829 203.682 306.675 203.598 306.524C203.574 306.482 203.59 306.428 203.633 306.404C203.675 306.38 203.731 306.396 203.754 306.438C203.838 306.589 203.924 306.743 204.011 306.901C204.035 306.944 204.019 306.998 203.976 307.021C203.971 307.024 203.966 307.026 203.96 307.028ZM120.651 333.484C120.648 333.485 120.645 333.486 120.642 333.486C120.594 333.497 120.547 333.467 120.537 333.42C120.499 333.246 120.462 333.073 120.426 332.901C120.416 332.854 120.446 332.807 120.495 332.797C120.543 332.786 120.59 332.817 120.6 332.864C120.636 333.036 120.673 333.208 120.711 333.381C120.721 333.426 120.694 333.47 120.651 333.484ZM203.095 305.49C203.056 305.503 203.011 305.487 202.99 305.45C202.899 305.291 202.811 305.138 202.726 304.991C202.702 304.949 202.717 304.895 202.759 304.871C202.803 304.846 202.857 304.861 202.881 304.903C202.966 305.049 203.054 305.203 203.146 305.362C203.17 305.404 203.155 305.458 203.112 305.482C203.106 305.485 203.101 305.488 203.095 305.49ZM120.301 331.756C120.297 331.757 120.294 331.758 120.29 331.758C120.241 331.768 120.195 331.736 120.186 331.688C120.154 331.513 120.122 331.339 120.093 331.166C120.084 331.119 120.117 331.073 120.165 331.064C120.214 331.055 120.26 331.087 120.268 331.135C120.298 331.307 120.329 331.481 120.362 331.655C120.37 331.699 120.343 331.742 120.301 331.756ZM202.076 304.207C202.073 304.208 202.069 304.209 202.066 304.209C201.896 304.244 201.721 304.28 201.542 304.317C201.493 304.327 201.446 304.297 201.436 304.249C201.427 304.202 201.457 304.155 201.506 304.145C201.686 304.107 201.861 304.071 202.031 304.036C202.08 304.027 202.127 304.058 202.136 304.105C202.145 304.15 202.119 304.193 202.076 304.207ZM200.33 304.582C200.327 304.583 200.324 304.584 200.322 304.584C200.151 304.623 199.977 304.663 199.8 304.704C199.752 304.715 199.704 304.686 199.693 304.638C199.682 304.591 199.713 304.544 199.76 304.532C199.938 304.491 200.112 304.451 200.283 304.412C200.331 304.401 200.379 304.431 200.39 304.478C200.4 304.523 200.373 304.568 200.33 304.582ZM198.591 304.991C198.589 304.992 198.587 304.993 198.584 304.993C198.414 305.035 198.24 305.077 198.064 305.121C198.016 305.133 197.968 305.104 197.957 305.057C197.945 305.01 197.975 304.962 198.022 304.95C198.198 304.906 198.372 304.864 198.543 304.822C198.591 304.81 198.639 304.839 198.651 304.887C198.661 304.932 198.635 304.977 198.591 304.991ZM196.858 305.424C196.856 305.425 196.854 305.425 196.852 305.426L196.333 305.559C196.285 305.571 196.237 305.543 196.225 305.496C196.213 305.449 196.24 305.402 196.289 305.388L196.809 305.255C196.857 305.243 196.905 305.271 196.917 305.318C196.928 305.363 196.902 305.41 196.858 305.424ZM195.129 305.873C195.127 305.874 195.125 305.874 195.124 305.875L194.606 306.012C194.558 306.025 194.51 305.997 194.497 305.95C194.484 305.903 194.513 305.855 194.561 305.842L195.079 305.704C195.127 305.691 195.175 305.719 195.188 305.767C195.2 305.812 195.173 305.859 195.129 305.873ZM193.403 306.336C193.402 306.336 193.4 306.336 193.399 306.337L192.882 306.478C192.834 306.491 192.785 306.463 192.772 306.416C192.76 306.369 192.789 306.32 192.835 306.308L193.353 306.167C193.4 306.154 193.449 306.181 193.462 306.228C193.474 306.274 193.448 306.321 193.403 306.336ZM191.68 306.808C191.679 306.809 191.678 306.809 191.677 306.809L191.16 306.953C191.113 306.966 191.064 306.939 191.051 306.892C191.038 306.845 191.068 306.796 191.113 306.783L191.63 306.64C191.677 306.626 191.726 306.654 191.739 306.701C191.752 306.746 191.726 306.794 191.68 306.808ZM189.96 307.29C189.959 307.29 189.958 307.291 189.957 307.291L189.441 307.437C189.394 307.45 189.345 307.423 189.331 307.377C189.318 307.33 189.349 307.278 189.393 307.267L189.909 307.121C189.956 307.108 190.006 307.135 190.019 307.182C190.032 307.228 190.006 307.275 189.96 307.29ZM120.016 330.015C120.011 330.017 120.006 330.018 120.001 330.019C119.952 330.026 119.907 329.992 119.9 329.944L119.877 329.777C119.856 329.624 119.944 329.482 120.09 329.433L120.134 329.418C120.183 329.394 120.231 329.426 120.247 329.472C120.263 329.518 120.238 329.568 120.191 329.585L120.147 329.599C120.082 329.622 120.044 329.683 120.054 329.752L120.077 329.919C120.083 329.962 120.056 330.002 120.016 330.015ZM188.242 307.779C188.241 307.779 188.24 307.78 188.239 307.78L187.724 307.928C187.677 307.942 187.627 307.915 187.614 307.868C187.6 307.821 187.628 307.771 187.675 307.759L188.19 307.611C188.238 307.597 188.287 307.624 188.301 307.671C188.314 307.716 188.287 307.764 188.242 307.779ZM186.526 308.275C186.525 308.275 186.524 308.275 186.523 308.275L186.008 308.425C185.961 308.439 185.912 308.412 185.898 308.365C185.885 308.319 185.912 308.272 185.959 308.256L186.474 308.106C186.521 308.092 186.571 308.119 186.584 308.166C186.598 308.212 186.571 308.26 186.526 308.275ZM184.811 308.776C184.81 308.776 184.809 308.776 184.808 308.776L184.294 308.928C184.247 308.942 184.198 308.915 184.184 308.868C184.17 308.822 184.196 308.77 184.245 308.758L184.759 308.607C184.806 308.593 184.856 308.62 184.869 308.667C184.883 308.712 184.857 308.761 184.811 308.776ZM183.098 309.282C183.097 309.282 183.096 309.282 183.095 309.282L182.582 309.435C182.534 309.449 182.485 309.423 182.471 309.376C182.457 309.329 182.478 309.285 182.532 309.266L183.045 309.113C183.093 309.099 183.142 309.126 183.156 309.172C183.17 309.218 183.143 309.267 183.098 309.282ZM181.386 309.792C181.385 309.792 181.384 309.793 181.384 309.793L180.87 309.947C180.823 309.961 180.773 309.935 180.759 309.888C180.746 309.841 180.766 309.795 180.82 309.778L181.333 309.624C181.38 309.61 181.43 309.636 181.444 309.683C181.458 309.729 181.432 309.777 181.386 309.792ZM179.675 310.307C179.674 310.307 179.674 310.307 179.673 310.307L179.16 310.462C179.113 310.476 179.063 310.45 179.049 310.404C179.035 310.357 179.067 310.306 179.109 310.293L179.622 310.138C179.669 310.124 179.719 310.15 179.733 310.197C179.747 310.243 179.721 310.292 179.675 310.307ZM177.965 310.825C177.965 310.825 177.964 310.825 177.964 310.825L177.451 310.981C177.404 310.996 177.354 310.97 177.34 310.923C177.326 310.876 177.348 310.824 177.4 310.813L177.912 310.656C177.96 310.642 178.009 310.668 178.023 310.715C178.037 310.761 178.011 310.81 177.965 310.825ZM121.375 329.184C121.328 329.199 121.278 329.174 121.263 329.128C121.247 329.082 121.273 329.032 121.319 329.016L121.827 328.845C121.867 328.83 121.925 328.853 121.94 328.9C121.956 328.946 121.931 328.996 121.884 329.012L121.376 329.183C121.376 329.183 121.375 329.184 121.375 329.184ZM176.257 311.346C176.256 311.346 176.256 311.346 176.255 311.347L175.743 311.504C175.696 311.518 175.646 311.492 175.632 311.446C175.618 311.399 175.644 311.351 175.69 311.336C175.69 311.335 175.691 311.335 175.691 311.335L176.204 311.178C176.251 311.164 176.301 311.19 176.315 311.236C176.329 311.282 176.303 311.331 176.257 311.346ZM123.068 328.612C123.022 328.627 122.972 328.602 122.956 328.556C122.941 328.51 122.966 328.46 123.013 328.444L123.521 328.273C123.567 328.252 123.618 328.282 123.634 328.328C123.649 328.374 123.624 328.424 123.577 328.44L123.069 328.611C123.069 328.611 123.069 328.611 123.068 328.612ZM174.549 311.871C174.549 311.871 174.548 311.871 174.548 311.871L174.036 312.029C173.988 312.044 173.939 312.018 173.924 311.971C173.91 311.925 173.931 311.875 173.984 311.861L174.496 311.703C174.543 311.688 174.593 311.714 174.607 311.76C174.621 311.807 174.595 311.856 174.549 311.871ZM124.762 328.041C124.716 328.056 124.666 328.031 124.65 327.986C124.635 327.939 124.66 327.889 124.707 327.874L125.215 327.703C125.267 327.687 125.312 327.712 125.328 327.758C125.343 327.804 125.318 327.854 125.271 327.87L124.763 328.041C124.763 328.041 124.762 328.041 124.762 328.041ZM126.456 327.471C126.41 327.486 126.36 327.462 126.344 327.416C126.329 327.37 126.354 327.32 126.401 327.304L126.909 327.133C126.962 327.12 127.006 327.142 127.022 327.188C127.037 327.234 127.012 327.285 126.965 327.3L126.457 327.471C126.457 327.471 126.456 327.471 126.456 327.471ZM172.842 312.398C172.842 312.398 172.841 312.398 172.841 312.398L172.329 312.557C172.282 312.572 172.232 312.546 172.218 312.499C172.203 312.453 172.229 312.404 172.276 312.389C172.276 312.389 172.277 312.389 172.277 312.389L172.789 312.23C172.836 312.215 172.886 312.241 172.9 312.288C172.915 312.334 172.889 312.383 172.842 312.398ZM128.15 326.903C128.104 326.918 128.054 326.893 128.038 326.847C128.023 326.801 128.048 326.751 128.095 326.735L128.604 326.565C128.657 326.552 128.701 326.574 128.716 326.62C128.732 326.666 128.706 326.716 128.659 326.732L128.151 326.902C128.151 326.902 128.151 326.902 128.15 326.903ZM171.136 312.928C171.136 312.928 171.136 312.928 171.135 312.928L170.624 313.088C170.576 313.103 170.527 313.077 170.512 313.03C170.498 312.984 170.521 312.931 170.571 312.92L171.083 312.76C171.13 312.745 171.18 312.771 171.194 312.818C171.209 312.864 171.183 312.913 171.136 312.928ZM129.845 326.335C129.798 326.35 129.748 326.325 129.733 326.28C129.718 326.233 129.743 326.183 129.79 326.168L130.298 325.998C130.299 325.998 130.299 325.997 130.299 325.997C130.346 325.982 130.396 326.007 130.411 326.053C130.426 326.099 130.401 326.149 130.354 326.165L129.846 326.335C129.846 326.335 129.845 326.335 129.845 326.335ZM169.431 313.46C169.431 313.46 169.43 313.461 169.43 313.461L168.919 313.621C168.872 313.636 168.822 313.61 168.807 313.564C168.793 313.517 168.821 313.465 168.866 313.453L169.377 313.292C169.425 313.278 169.475 313.304 169.489 313.35C169.503 313.396 169.478 313.445 169.431 313.46ZM131.54 325.769C131.493 325.784 131.443 325.759 131.428 325.713C131.412 325.667 131.438 325.617 131.485 325.601L131.993 325.432C131.993 325.431 131.994 325.431 131.994 325.431C132.04 325.416 132.09 325.441 132.106 325.487C132.121 325.533 132.096 325.583 132.049 325.599L131.541 325.768C131.54 325.768 131.54 325.769 131.54 325.769ZM133.235 325.203C133.188 325.218 133.138 325.194 133.123 325.148C133.108 325.101 133.133 325.051 133.18 325.036L133.688 324.866C133.689 324.866 133.689 324.866 133.689 324.866C133.736 324.851 133.786 324.876 133.801 324.922C133.817 324.968 133.791 325.018 133.744 325.034L133.236 325.203C133.235 325.203 133.235 325.203 133.235 325.203ZM167.727 313.995C167.726 313.995 167.726 313.995 167.726 313.996L167.215 314.156C167.168 314.171 167.118 314.146 167.103 314.099C167.088 314.053 167.114 314.004 167.161 313.988C167.161 313.988 167.161 313.988 167.162 313.988L167.673 313.827C167.72 313.813 167.77 313.838 167.785 313.885C167.799 313.931 167.773 313.98 167.727 313.995ZM134.931 324.639C134.884 324.654 134.834 324.629 134.819 324.583C134.803 324.537 134.829 324.487 134.876 324.472L135.384 324.303C135.429 324.283 135.481 324.312 135.497 324.358C135.512 324.404 135.487 324.454 135.44 324.47L134.931 324.639C134.931 324.639 134.931 324.639 134.931 324.639ZM166.023 314.532C166.022 314.532 166.022 314.532 166.022 314.532L165.511 314.694C165.464 314.709 165.414 314.683 165.399 314.637C165.385 314.591 165.411 314.541 165.457 314.526C165.457 314.526 165.458 314.526 165.458 314.526L165.969 314.364C166.016 314.35 166.066 314.375 166.081 314.422C166.095 314.468 166.069 314.517 166.023 314.532ZM136.626 324.076C136.58 324.091 136.53 324.066 136.514 324.02C136.499 323.974 136.525 323.924 136.571 323.908L137.08 323.74C137.08 323.739 137.081 323.739 137.081 323.739C137.127 323.724 137.178 323.749 137.193 323.795C137.208 323.841 137.183 323.891 137.136 323.907L136.627 324.076C136.627 324.076 136.627 324.076 136.626 324.076ZM164.32 315.071C164.319 315.071 164.319 315.071 164.319 315.071L163.808 315.233C163.761 315.248 163.711 315.223 163.696 315.176C163.682 315.13 163.709 315.074 163.755 315.065L164.266 314.903C164.313 314.888 164.363 314.914 164.378 314.96C164.392 315.006 164.366 315.056 164.32 315.071ZM138.323 323.514C138.276 323.529 138.226 323.504 138.211 323.458C138.195 323.412 138.221 323.362 138.268 323.346L138.776 323.178C138.777 323.178 138.777 323.178 138.777 323.177C138.824 323.162 138.874 323.187 138.889 323.233C138.904 323.279 138.879 323.329 138.832 323.345L138.323 323.513C138.323 323.514 138.323 323.514 138.323 323.514ZM162.617 315.612C162.617 315.612 162.617 315.612 162.617 315.612L162.106 315.775C162.059 315.79 162.009 315.764 161.994 315.718C161.979 315.672 162.006 315.624 162.052 315.607L162.563 315.444C162.61 315.429 162.66 315.455 162.675 315.501C162.69 315.547 162.664 315.597 162.617 315.612ZM140.019 322.953C139.972 322.968 139.922 322.943 139.907 322.897C139.892 322.85 139.917 322.8 139.964 322.785L140.473 322.617C140.473 322.617 140.474 322.617 140.474 322.617C140.52 322.602 140.57 322.627 140.586 322.673C140.601 322.719 140.575 322.769 140.528 322.784L140.019 322.952C140.019 322.952 140.019 322.952 140.019 322.953ZM160.915 316.155C160.915 316.155 160.915 316.155 160.915 316.155L160.404 316.318C160.357 316.333 160.307 316.308 160.292 316.261C160.278 316.215 160.303 316.166 160.35 316.15C160.35 316.15 160.35 316.15 160.351 316.15L160.861 315.987C160.908 315.972 160.958 315.997 160.973 316.044C160.988 316.09 160.962 316.14 160.915 316.155ZM141.716 322.393C141.669 322.408 141.619 322.383 141.604 322.337C141.589 322.29 141.614 322.24 141.661 322.225L142.17 322.057C142.17 322.057 142.17 322.057 142.17 322.057C142.217 322.042 142.267 322.067 142.283 322.113C142.298 322.159 142.272 322.209 142.225 322.225L141.716 322.392C141.716 322.392 141.716 322.392 141.716 322.393ZM143.413 321.834C143.366 321.849 143.316 321.824 143.301 321.778C143.286 321.732 143.312 321.682 143.358 321.666L143.868 321.499C143.868 321.499 143.868 321.499 143.868 321.499C143.915 321.484 143.965 321.509 143.98 321.555C143.995 321.601 143.97 321.651 143.923 321.666L143.413 321.834C143.413 321.834 143.413 321.834 143.413 321.834ZM159.214 316.699L159.213 316.699L158.703 316.863C158.656 316.878 158.606 316.853 158.591 316.806C158.576 316.76 158.602 316.711 158.649 316.695C158.649 316.695 158.649 316.695 158.649 316.695L159.16 316.532C159.207 316.516 159.257 316.542 159.272 316.588C159.286 316.634 159.261 316.684 159.214 316.699ZM145.111 321.276C145.064 321.291 145.014 321.266 144.999 321.22C144.983 321.174 145.009 321.124 145.056 321.108L145.565 320.941L145.566 320.941C145.612 320.926 145.663 320.951 145.678 320.997C145.693 321.044 145.667 321.094 145.62 321.109L145.111 321.276L145.111 321.276ZM157.513 317.245L157.513 317.246L157.003 317.41C156.956 317.425 156.905 317.399 156.89 317.353C156.876 317.307 156.902 317.257 156.948 317.242L156.949 317.242L157.459 317.078C157.506 317.063 157.556 317.088 157.571 317.134C157.586 317.18 157.56 317.23 157.513 317.245ZM146.809 320.72C146.762 320.735 146.712 320.71 146.696 320.664C146.681 320.617 146.707 320.567 146.754 320.552L147.263 320.385L147.263 320.385C147.31 320.37 147.361 320.395 147.376 320.441C147.391 320.488 147.365 320.538 147.318 320.553L146.809 320.72C146.809 320.72 146.809 320.72 146.809 320.72ZM155.813 317.793C155.813 317.793 155.812 317.793 155.812 317.793L155.302 317.958C155.255 317.973 155.205 317.948 155.19 317.901C155.175 317.855 155.201 317.805 155.248 317.79L155.248 317.79L155.758 317.625C155.805 317.61 155.855 317.636 155.87 317.682C155.885 317.728 155.859 317.778 155.813 317.793ZM148.507 320.164C148.46 320.18 148.41 320.155 148.395 320.108C148.38 320.062 148.406 320.012 148.452 319.997L148.962 319.831C149.009 319.815 149.059 319.84 149.074 319.887C149.089 319.933 149.064 319.983 149.017 319.998L148.507 320.164L148.507 320.164ZM154.113 318.342L154.113 318.342L153.603 318.507C153.556 318.523 153.506 318.497 153.491 318.451C153.476 318.405 153.502 318.355 153.548 318.34L153.548 318.34L154.058 318.175C154.105 318.159 154.156 318.185 154.17 318.231C154.185 318.277 154.16 318.327 154.113 318.342ZM150.206 319.611C150.159 319.626 150.109 319.601 150.094 319.554C150.079 319.508 150.104 319.458 150.151 319.443L150.66 319.278C150.707 319.262 150.757 319.287 150.772 319.334C150.787 319.38 150.761 319.43 150.714 319.445L150.206 319.611ZM152.413 318.893C152.413 318.893 152.413 318.893 152.413 318.893L151.904 319.058C151.857 319.074 151.806 319.049 151.791 319.002C151.776 318.956 151.802 318.906 151.849 318.891L152.359 318.725C152.406 318.71 152.456 318.735 152.471 318.782C152.486 318.828 152.46 318.878 152.413 318.893Z" fill="white"/>
<path d="M180.964 352.541L169.899 356.136C168.449 356.608 166.881 355.937 166.248 354.576L161.548 344.461C160.799 342.85 161.651 340.942 163.367 340.384L176.66 336.065C178.342 335.518 180.122 336.509 180.509 338.206L182.982 349.045C183.323 350.542 182.448 352.059 180.964 352.541Z" fill="#7C4846"/>
<path d="M181.499 354.471L170.594 358.014C168.134 358.814 165.468 357.671 164.393 355.356L159.761 345.387C159.155 344.083 159.143 342.576 159.729 341.253C160.317 339.925 161.453 338.904 162.845 338.451L175.945 334.195C177.309 333.752 178.803 333.896 180.045 334.592C181.283 335.284 182.172 336.47 182.486 337.843L184.922 348.525C185.507 351.09 184.036 353.647 181.499 354.471ZM164.157 342.489C163.848 342.589 163.709 342.814 163.653 342.94C163.599 343.062 163.528 343.31 163.658 343.589L168.289 353.558C168.46 353.926 168.887 354.105 169.283 353.977L180.187 350.434C180.595 350.301 180.832 349.895 180.739 349.487L178.303 338.806C178.236 338.511 178.033 338.359 177.919 338.295C177.802 338.23 177.559 338.134 177.257 338.232L164.157 342.489V342.489Z" fill="#512D2B"/>
<path d="M137.455 322.155L136.97 319.93C137.046 319.337 137.431 318.809 137.998 318.527C140.117 317.472 145.451 315.094 148.714 316.09L149.925 318.465L137.455 322.155Z" fill="#512D2B"/>
<path d="M143.383 317.333C143.024 317.586 142.625 317.716 142.184 317.72C141.65 317.726 141.13 317.286 140.925 316.655L138.607 309.523L141.461 308.596L143.776 315.722C143.982 316.357 143.82 317.024 143.383 317.333Z" fill="#512D2B"/>
<path d="M171.692 311.03L171.207 308.805C171.283 308.212 171.669 307.684 172.235 307.402C174.355 306.347 179.688 303.969 182.951 304.965L184.162 307.34L171.692 311.03Z" fill="#512D2B"/>
<path d="M177.929 307.157C177.572 307.413 177.172 307.542 176.73 307.544C176.196 307.547 175.671 307.095 175.462 306.45L172.846 298.398L175.699 297.471L178.313 305.518C178.524 306.166 178.366 306.845 177.929 307.157Z" fill="#512D2B"/>
<path d="M138.25 311.741L176.706 297.846C177.583 297.53 178.13 296.656 178.005 295.752C177.829 294.485 177.434 292.632 176.551 290.865C175.546 288.856 173.189 287.887 170.992 288.544C163.686 290.73 145.229 296.733 136.342 303.998C135.403 304.766 134.898 305.93 134.984 307.121C135.066 308.256 135.349 309.716 136.153 311.034C136.579 311.734 137.463 312.025 138.25 311.741Z" fill="#7F4B49"/>
<path d="M136.907 310.076C136.82 310.105 136.726 310.068 136.69 309.988C136.665 309.933 136.081 308.616 136.036 307.18C136.002 306.088 136.589 305.011 137.569 304.368C139.548 303.07 143.369 300.714 146.731 299.524C146.825 299.491 146.926 299.535 146.957 299.622C146.988 299.709 146.938 299.807 146.844 299.84C143.521 301.017 139.729 303.354 137.765 304.643C136.889 305.218 136.364 306.181 136.394 307.156C136.437 308.528 137.015 309.832 137.021 309.845C137.059 309.93 137.016 310.03 136.925 310.07C136.919 310.072 136.913 310.074 136.907 310.076Z" fill="#91B3FA"/>
<path d="M180.964 352.541L169.899 356.136C168.449 356.608 166.881 355.937 166.248 354.576L161.548 344.461C160.799 342.85 161.651 340.942 163.367 340.384L176.66 336.065C178.342 335.518 180.122 336.509 180.509 338.206L182.982 349.045C183.323 350.542 182.448 352.059 180.964 352.541Z" fill="#7C4846" stroke="#512D2B" stroke-width="4" stroke-miterlimit="10"/>
<path d="M162.809 305.966C167.811 301.618 168.215 294.152 163.711 289.29C159.207 284.428 151.502 284.012 146.5 288.36C141.498 292.708 141.094 300.174 145.598 305.036C150.102 309.898 157.808 310.314 162.809 305.966Z" fill="#ECB6A2"/>
<path d="M149.258 308.924C149.258 308.924 144.838 312.377 142.075 306.723C139.313 301.068 138.973 292.219 150.164 286.842L149.258 308.924Z" fill="#ECB6A2"/>
<path d="M101 266.928L107.221 282.988C107.221 282.988 118.543 283.933 120.992 269.337C121.132 268.503 119.294 264.879 118.671 264.285L111.069 259.469C109.822 258.679 108.197 258.906 107.208 260.009L101 266.928Z" fill="#FFBB9C"/>
<path d="M101 286.759L76.5076 290L76 275.461L83.1293 267L99.6466 269.432L101 286.759Z" fill="#6E66B3"/>
<path d="M79.918 267.956L107.91 354.503L107.438 346.938L99.6656 395.424L95.6802 443L119.574 441.86L139.334 352.513L140 349.457L138.861 344.948L123.54 254.113L113.869 236L73 248.617L79.918 267.956Z" fill="#6E66B3"/>
<path d="M52.9147 249.906L48 285.664L49.468 306.513C50.4713 320.412 51.293 334.318 52.2122 348.224C53.1272 362.131 53.8632 376.033 54.6839 389.945L55.7631 410.813L56.7013 431.687L57.2546 443.999L80.5485 444L84.3323 389.945V368.853L84.9391 358.376C85.1463 354.882 85.1721 351.393 85.2974 347.902C85.7276 333.937 86.0605 319.971 86.5748 306L87.3094 285.042L88.1525 264.077L89 243L61.6233 244.736L52.9147 249.906Z" fill="#6E66B3"/>
<path d="M70.025 253.431L111 252L111.406 260.991L70.431 262.422L70.025 253.431Z" fill="#312220"/>
<path d="M99.7486 152L72 152.902L76.2438 161L100 158.933L99.7486 152Z" fill="#CCB2F1"/>
<path d="M172 175L171 174C171.36 174.313 171.689 174.65 172 175Z" fill="#F66390"/>
<path d="M89.3149 155L106 160.099C106 160.099 102.581 165.108 88.6556 167.472C85.0283 168.087 81.3164 168.189 77.6776 167.65C73.3775 167.013 68.6061 165.437 68 161.604L79.7103 155.338L89.3149 155Z" fill="#D08864"/>
<path d="M104.136 159C94.7311 171.479 68 161.584 68 161.584L69.6321 255L108 253.687L104.136 159Z" fill="#CCB2F1"/>
<path d="M67.628 158.042L78.2366 197.789L79 286L49.2007 280.169C49.2007 280.169 49.5931 206.35 43.6288 184.51C40.0451 171.387 41.5786 158.832 56.3652 158.324L65.8251 158L67.628 158.042Z" fill="#6E66B3"/>
<path d="M79 286L78.2414 203L77.217 203.011L77.9641 284.74L49.1971 279.042L49 280.058L79 286Z" fill="#454584"/>
<path d="M94.1054 137.811L95.9467 158.771C96.4916 164.792 92.816 164.511 86.9949 164.954C82.0259 165.332 76.3634 163.424 76.1115 158.096L75 131L94.1054 137.811Z" fill="#ECB6A2"/>
<path d="M95 154L78 144.021L93.9057 141L95 154Z" fill="#DDA290"/>
<path d="M95.8355 119.379C97.1225 123.316 101.147 125.542 104.824 124.35C108.501 123.158 110.439 118.999 109.152 115.062C107.865 111.124 103.841 108.899 100.164 110.091C96.4864 111.283 94.5487 115.442 95.8355 119.379Z" fill="#DDA290"/>
<path d="M94.4696 142.58C103.565 138.929 108.1 128.542 105.294 120.812L99.3354 104.671C95.8183 94.9815 85.4478 89.748 75.8981 92.8427C66.1216 96.0111 59.1429 107.265 62.4238 117.294L67.2202 129.815C71.5254 141.092 83.2862 146.204 94.4696 142.58Z" fill="#ECB6A2"/>
<path d="M57.6874 132.893C58.8938 136.567 62.8539 138.581 66.5324 137.393C70.2109 136.205 72.215 132.264 71.0085 128.591C69.8021 124.918 65.8421 122.903 62.1635 124.091C58.4849 125.279 56.4811 129.22 57.6874 132.893Z" fill="#ECB6A2"/>
<path d="M68.0706 131.901C68.0856 131.897 68.1008 131.891 68.1152 131.884C68.3204 131.794 68.4129 131.552 68.322 131.344C68.2779 131.243 67.2212 128.872 65.0246 128.257C63.6734 127.88 62.2156 128.252 60.6896 129.363C60.5082 129.495 60.4685 129.752 60.5998 129.936C60.732 130.121 60.9879 130.162 61.1665 130.031C62.4832 129.072 63.7101 128.741 64.8141 129.049C66.6406 129.56 67.5712 131.65 67.5802 131.671C67.6646 131.864 67.877 131.96 68.0706 131.901Z" fill="#312220"/>
<path d="M103.618 117.697C103.618 117.697 105.546 123.639 102.721 125.768C100.189 127.677 97.9418 126.294 94.2094 127.733C89.3481 129.608 86.3755 131.073 82.1255 135.461C78.5709 139.132 68.5454 129.63 65.5252 122.326C65.2042 121.55 64.3032 124.516 64.3032 124.516L69.593 135.746C69.593 135.746 77.7369 152.338 96.0297 145.147C114.322 137.955 103.618 117.697 103.618 117.697Z" fill="#332C30"/>
<path d="M65 106.204L66.0472 116.433L66.9348 120L69 106L65 106.204Z" fill="#332C30"/>
<path d="M91.0966 127.81C91.1042 127.808 91.1109 127.805 91.1179 127.803L93.9787 126.796C94.1124 126.749 94.2198 126.65 94.2732 126.526C94.326 126.403 94.3203 126.266 94.2563 126.152L92.271 122.6C92.1499 122.384 91.8604 122.304 91.6231 122.431C91.386 122.555 91.2921 122.83 91.4131 123.046L93.1433 126.141L90.8152 126.96C90.5625 127.049 90.4256 127.31 90.5092 127.543C90.5909 127.769 90.8505 127.886 91.0966 127.81Z" fill="#312220"/>
<path d="M90.7677 111.541C90.7677 111.541 91.0222 113.102 93.051 112.335C94.5914 111.753 95.5587 111.364 96.5283 111.221C97.079 111.139 97.5264 110.714 97.5898 110.215C97.641 109.812 97.4335 109.441 97.0496 109.277C96.2716 108.944 94.8051 108.57 92.922 109.257C90.5038 110.138 90.7677 111.541 90.7677 111.541Z" fill="#332C30"/>
<path d="M81.3329 115.207C81.3329 115.207 82.2292 116.45 79.554 117.303C77.5228 117.95 76.2297 118.341 75.1171 118.901C74.4854 119.22 73.7046 119.232 73.2678 118.932C72.9151 118.691 72.8549 118.296 73.1312 117.922C73.6912 117.165 74.9348 115.912 77.3991 115.104C80.5638 114.065 81.3329 115.207 81.3329 115.207Z" fill="#332C30"/>
<path d="M92.7641 132.081C94.0008 131.703 95.2646 131.031 96.0794 129.844C96.2087 129.654 96.1691 129.369 95.9902 129.208C95.8113 129.048 95.562 129.069 95.4309 129.258C93.6318 131.884 89.0288 131.648 88.982 131.646C88.7626 131.634 88.5868 131.824 88.5934 132.073C88.5993 132.322 88.7835 132.534 89.0042 132.546C89.127 132.554 90.9146 132.646 92.7641 132.081Z" fill="white"/>
<path d="M66.2322 126.038L61.1722 120.86C55.1762 112.596 60.5047 100.307 69.2987 95.3882C72.7777 93.4419 74.6858 93.1259 77.5924 92.0463C85.8912 88.9638 95.2467 93.0635 98.3035 101.522L99.1102 103.755C98.6644 102.564 97.5719 103.681 96.6724 101.767C95.5002 99.271 92.9394 97.706 90.2241 97.567C80.9978 97.0944 72.7165 102.7 69.3983 107.618C67.1254 110.987 67.9974 113.846 69.4408 115.362C70.1595 116.117 70.6095 118.006 70.9808 120.125C71.5128 123.158 71.0321 126.282 69.5827 128.973L69.5827 128.973L66.2322 126.038Z" fill="#312220"/>
<path d="M94 170.715L87.0677 166L80 172.031L88.4721 179L94 170.715Z" fill="#312220"/>
<path d="M88.1752 175L98 233.326L90.564 251L83 233.831L86.7861 176.11L88.1752 175Z" fill="#312220"/>
<path d="M57.8014 158.411L51 159.774L65.3417 182.061L71.9143 184.998L67.1324 194.474L78.4081 244L82 189.246L65.0125 157L57.8014 158.411Z" fill="#4E4AA0"/>
<path d="M106.634 285C106.459 268.77 105.705 234.147 105 207.586L106.222 243.75L116.085 191.273L107.292 183.228L117.083 177.049L115.869 161C121.822 163.107 131.467 170.08 130.954 175.357L123.964 220.346L131 270.762L106.634 285Z" fill="#6E66B3"/>
<path d="M105.707 286L131 270.139L130.463 269.027L106.766 283.8C106.672 274.435 106.44 259.119 106.079 241L105 241.03C105.376 259.862 105.611 275.553 105.697 284.907L105.707 286Z" fill="#454584"/>
<path d="M103.592 195.489L103.632 194C103.751 198.145 103.875 202.51 104 207L103.592 195.489Z" fill="#4E4AA0"/>
<path d="M115 161L113 160C113.673 160.259 114.342 160.577 115 161Z" fill="#6E66B3"/>
<path d="M113.153 160.36L106 159.323C108.184 158.827 110.461 158.894 112.693 159.579L114.968 160.485L115 161C114.335 160.714 113.713 160.497 113.153 160.36Z" fill="#4E4AA0"/>
<path d="M105.773 182.664L114.957 190.684L104.654 243L103.378 206.947C103.249 202.321 103.122 197.824 103 193.553L103.29 157L113.426 159.759C113.979 159.865 114.166 160.039 114.822 160.261L116 176.504L105.773 182.664Z" fill="#4E4AA0"/>
<path d="M87 165.909L94.383 177L106 159.845L99.5776 152L87 165.909Z" fill="#F3E9FE"/>
<path d="M117.508 280L131 271.342L123.939 220.025L129.152 183.177L128.147 183L122.908 220.023L129.888 270.744L117 279.016L117.508 280Z" fill="#454584"/>
<path d="M81.514 266L102 265.328L101.487 251L81 251.674L81.514 266ZM97.4186 261.232L85.7913 261.615L85.5814 255.768L97.2092 255.385L97.4186 261.232Z" fill="#AF6B64"/>
<path d="M72.1347 153L61 158.892L81.3273 178L87 165.588L72.1347 153Z" fill="#F3E9FE"/>
<path d="M94.2631 114.627C95.013 114.268 95.9594 114.804 96.377 115.824C96.7945 116.843 96.5253 117.961 95.7753 118.321C95.0256 118.68 94.0791 118.145 93.6615 117.125C93.2441 116.105 93.5133 114.987 94.2631 114.627Z" fill="#3E3431"/>
<path d="M80.263 120.627C81.0128 120.268 81.9591 120.803 82.377 121.823C82.7943 122.843 82.5249 123.962 81.7752 124.321C81.0253 124.68 80.0789 124.145 79.6615 123.125C79.2439 122.105 79.5131 120.987 80.263 120.627Z" fill="#3E3431"/>
<path d="M47.6754 276L36 260.126L48.5614 250L65 267.79L47.6754 276Z" fill="#FFBB9C"/>
<path d="M72 282L70.25 265L44 271.46L47.0996 278.825L72 282Z" fill="#6E66B3"/>
<path d="M53.0045 260.832C53.6556 259.784 56.8191 257.307 61.1851 258.185C66.93 259.34 68.0492 262.391 68.0492 262.391C70.797 263.916 75.3526 264.221 74.9783 265.791C74.6199 269.191 70.8809 269.239 69.6127 268.816L65.7268 266.659C65.7268 266.659 60.4057 268.174 53 263.346L53.0045 260.832Z" fill="#FFBB9C"/>
<path d="M40.9329 270L13.8877 237.284L12.7664 235.999C11.0598 233.796 10.0493 231.062 10.0081 228.124C10.005 227.91 9.99911 227.698 10.0001 227.482C10.0449 217.859 17.5349 210.92 25.4253 212.139L25.6157 212.177C27.0137 212.459 28.3361 213.031 29.4966 213.855L30.3974 214.495C31.1894 215.057 31.8806 215.748 32.4418 216.539L51.442 243.299L60 256.033L40.9329 270Z" fill="#6E66B3"/>
<path d="M58.0192 201L41.7828 229.438L51.1958 242.249L60.9985 255.84L41.5984 270.039" stroke="#454584"/>
</g>
<defs>
<clipPath id="clip0_1256_12114">
<rect width="237" height="363" fill="white" transform="matrix(-1 0 0 1 231 90)"/>
</clipPath>
</defs>
</svg>
