<svg width="45" height="46" viewBox="0 0 45 46" fill="none" xmlns="http://www.w3.org/2000/svg">
<path fill-rule="evenodd" clip-rule="evenodd" d="M35.1682 34.2001C44.0544 25.9136 45.6441 13.1062 38.719 5.59383C31.7938 -1.9185 18.9762 -1.29095 10.0901 6.99551C1.20397 15.282 -0.385744 28.0894 6.53939 35.6018C10.9311 40.3658 17.6925 41.8563 24.3183 40.1958L29.1 46L29.8153 38.0528C31.6947 37.0403 33.5007 35.7551 35.1682 34.2001Z" fill="#EF8062"/>
<circle cx="29.5" cy="20.5" r="1.5" fill="white"/>
<circle cx="25.5" cy="20.5" r="1.5" fill="white"/>
<circle cx="21.5" cy="20.5" r="1.5" fill="white"/>
<path d="M29.5409 29.1376L29.4144 28.8929C29.0605 28.0856 24.7124 26.8624 24.3584 26.838L24.0803 26.8624C23.5494 26.9601 22.968 27.425 21.8304 28.3791C21.603 28.5748 21.2995 28.6238 21.0214 28.4769C19.5299 27.6696 17.7098 26.0549 16.7996 25.0763C15.8137 24.0245 14.6256 22.2874 14.0694 20.8928C13.9684 20.6237 14.0694 20.3302 14.2717 20.1345C15.5609 19.009 16.1171 18.471 16.1677 17.8838C16.1929 17.5413 15.4346 13.2111 14.6508 12.7952L14.4233 12.6484C13.9178 12.3303 13.1593 11.8655 12.3251 12.0368C12.1228 12.0858 11.9206 12.1592 11.7437 12.2569C11.1877 12.5998 9.79726 13.5295 9.16526 14.7281C8.78613 15.4865 8.6091 22.361 13.9179 28.1591C19.1761 33.9082 25.673 34.1528 26.6337 33.9571H26.6589L26.7347 33.9327C28.0493 33.4678 29.1617 32.2692 29.5914 31.7554C30.375 30.8502 29.8443 29.7492 29.5408 29.1376L29.5409 29.1376Z" fill="white"/>
</svg>
