<svg width="164" height="406" viewBox="0 0 164 406" fill="none" xmlns="http://www.w3.org/2000/svg">
<path fill-rule="evenodd" clip-rule="evenodd" d="M87.4371 61.1949C103.19 46.5053 105.682 23.674 93.0027 10.1999C80.3239 -3.27429 57.2755 -2.28896 41.5228 12.4007C25.7701 27.0903 23.2783 49.9216 35.9572 63.3957C43.8453 71.7786 55.7471 74.5648 67.4085 71.936L76.35 82L77.6965 68.1275C81.1285 66.3239 84.4169 64.0113 87.4371 61.1949Z" fill="#EF8062"/>
<path d="M86 289.618L60.5279 293L60 277.829L67.4145 269L84.5925 271.538L86 289.618Z" fill="#6E66B3"/>
<path d="M64.1245 269.419L92.9524 357.22L92.466 349.546L84.4616 398.735L80.3572 447L104.964 445.844L125.314 355.201L126 352.102L124.827 347.527L109.048 255.375L99.0887 237L57 249.8L64.1245 269.419Z" fill="#6E66B3"/>
<path d="M25.6569 266.149L27.2988 287.301L28.8277 308.46C29.8726 322.568 30.7284 336.68 31.6857 350.794C32.6387 364.91 33.4052 379.019 34.26 393.138L35.384 414.318L36.3611 435.503L36.9374 447.999L61.1978 448L65.1386 393.138V371.732L65.7706 361.098C65.9864 357.552 66.0132 354.011 66.1438 350.467C66.5919 336.294 66.9386 322.12 67.4742 307.941L68.2393 286.67L69.1173 265.392L70 244L24 244.801L25.6569 266.149Z" fill="#6E66B3"/>
<path d="M54.0256 255.466L96 254L96.3974 263.992L54.423 265.458L54.0256 255.466Z" fill="#312220"/>
<path d="M80.1157 167.434L80.1158 167.434C82.4905 163.396 86.4778 160.793 90.8587 160L97.8993 160.814C98.4511 160.921 99.0633 161.092 99.7178 161.316L99.6862 160.912L119.354 167.254L153.312 178.204C156.511 179.51 159.057 181.752 160.737 184.488L161.66 186.259C162.995 189.235 163.381 192.623 162.597 195.974C162.54 196.218 162.495 196.462 162.425 196.706C159.868 205.645 149.95 210.374 141.242 206.804L137.209 205.495L134.217 204.525L87.6554 189.419C78.9158 185.836 75.3714 175.501 80.1157 167.434Z" fill="#6E66B3"/>
<path d="M83.7486 152L56 153.002L60.2438 162L84 159.704L83.7486 152Z" fill="#CCB2F1"/>
<path d="M98 138.072L104.532 122.012C104.532 122.012 116.42 121.067 118.992 135.663C119.139 136.497 117.208 140.121 116.555 140.715L108.572 145.531C107.263 146.321 105.557 146.094 104.518 144.991L98 138.072Z" fill="#FFBB9C"/>
<path d="M117.644 136L127 149.803L116.499 158L108 145.706L117.644 136Z" fill="#FFBB9C"/>
<path d="M83 122.631L83.4193 120L101.077 121.582L115 132.197L114.505 135L96.3964 128.353L83 122.631Z" fill="black"/>
<path d="M105.937 139.71L114.191 132.7C115.166 132.079 115.28 130.746 114.424 129.98L94.3078 111.388C93.798 110.932 93.0291 110.871 92.4485 111.241L83.6729 118.584C82.8623 119.101 82.7673 120.209 83.4792 120.846L103.702 139.533C104.315 140.082 105.239 140.155 105.937 139.71Z" fill="black"/>
<path d="M105.937 142.71L114.191 135.7C115.166 135.079 115.28 133.746 114.424 132.98L94.3078 114.388C93.798 113.932 93.029 113.871 92.4487 114.241L83.6729 121.584C82.8622 122.101 82.7673 123.209 83.4793 123.846L103.702 142.533C104.315 143.082 105.239 143.155 105.937 142.71Z" fill="white"/>
<path d="M111.996 143.665C111.452 144.529 108.809 146.571 105.161 145.848C100.361 144.896 96.9169 142.146 96.9169 142.146C95.431 141.203 94.7627 140.203 95.0754 138.908C95.414 137.507 97.0603 136.735 98.1199 137.083L101.367 138.861C101.367 138.861 105.812 137.613 112 141.593L111.996 143.665Z" fill="#FFBB9C"/>
<path d="M158 176L157 174C157.36 174.626 157.689 175.3 158 176Z" fill="#F66390"/>
<path d="M73.3149 155L90 160.099C90 160.099 86.581 165.108 72.6556 167.472C69.0283 168.087 65.3164 168.189 61.6776 167.65C57.3775 167.013 52.6061 165.437 52 161.604L63.7103 155.338L73.3149 155Z" fill="#D08864"/>
<path d="M89.039 159C79.3994 171.609 52 161.611 52 161.611L53.6729 256L93 254.673L89.039 159Z" fill="#CCB2F1"/>
<path d="M51.3207 158.043L62.216 198.41L63 288L32.3953 282.078C32.3953 282.078 32.7983 207.106 26.6728 184.924C22.9922 171.596 24.5673 158.845 39.7535 158.33L49.4691 158L51.3207 158.043Z" fill="#6E66B3"/>
<path d="M64 288L63.2161 204L62.1576 204.011L62.9296 286.725L33.2037 280.958L33 281.986L64 288Z" fill="#454584"/>
<path d="M106 151.395L113.069 160L129 147.347L122.143 139L106 151.395Z" fill="#CCB2F1"/>
<path d="M78.1054 138.012L79.9467 159.587C80.4916 165.786 76.816 165.497 70.9949 165.952C66.0259 166.341 60.3634 164.378 60.1115 158.893L59 131L78.1054 138.012Z" fill="#ECB6A2"/>
<path d="M80 153L62 143.021L78.8414 140L80 153Z" fill="#DDA290"/>
<path d="M82.0016 121.618C82.084 125.759 85.284 129.064 89.1491 128.999C93.0141 128.934 96.0805 125.524 95.9984 121.382C95.9161 117.241 92.7159 113.936 88.8511 114.001C84.986 114.066 81.9193 117.476 82.0016 121.618Z" fill="#DDA290"/>
<path d="M73.8603 143.997C83.8697 143.149 91.4213 134.379 90.9817 126.011L89.9666 108.509C89.4157 98.0205 80.8132 89.832 70.5251 90.0026C59.9927 90.1774 49.7856 99.0636 50.0034 109.812L50.9618 123.441C51.8104 135.712 61.8122 144.196 73.8603 143.997Z" fill="#ECB6A2"/>
<path d="M42.0016 123.618C42.084 127.759 45.284 131.064 49.1491 130.999C53.0142 130.934 56.0807 127.524 55.9984 123.382C55.916 119.241 52.716 115.936 48.8509 116.001C44.9858 116.066 41.9195 119.476 42.0016 123.618Z" fill="#ECB6A2"/>
<path d="M51.5942 125C51.6099 125 51.6261 124.999 51.6418 124.997C51.8645 124.97 52.0235 124.766 51.9972 124.541C51.9845 124.431 51.6656 121.855 49.7437 120.625C48.5613 119.869 47.0585 119.798 45.2747 120.415C45.0626 120.488 44.9498 120.722 45.0216 120.937C45.094 121.152 45.3269 121.266 45.5359 121.193C47.0752 120.661 48.3451 120.703 49.3114 121.32C50.9094 122.343 51.1898 124.614 51.1923 124.636C51.2166 124.846 51.3918 125 51.5942 125Z" fill="#312220"/>
<path d="M90.5832 121.878C90.5832 121.878 90.6967 128.124 87.2914 129.333C84.2377 130.418 82.4482 128.439 78.3583 128.724C73.0316 129.096 69.6792 129.628 64.2003 132.582C59.6178 135.052 52.6298 123.035 51.8528 115.167C51.7703 114.331 50 116.904 50 116.904L51.8282 129.19C51.8282 129.19 54.8512 147.438 74.9361 145.909C95.0208 144.38 90.5832 121.878 90.5832 121.878Z" fill="#332C30"/>
<path d="M49 106.219L50.0472 117.178L50.9348 121L53 106L49 106.219Z" fill="#332C30"/>
<path d="M75.4843 127C75.4922 127 75.4995 126.999 75.5068 126.999L78.537 126.873C78.6787 126.866 78.8101 126.804 78.8973 126.701C78.9839 126.598 79.0184 126.466 78.9906 126.338L78.1276 122.361C78.0749 122.118 77.8212 121.958 77.5572 122.01C77.2944 122.058 77.1242 122.294 77.1769 122.536L77.929 126.002L75.4632 126.105C75.1955 126.116 74.9884 126.326 75.0005 126.572C75.0126 126.813 75.227 127 75.4843 127Z" fill="#312220"/>
<path d="M80.0057 111.564C80.0057 111.564 79.7939 113.131 81.9581 112.991C83.6014 112.885 84.6401 112.795 85.6093 112.942C86.1597 113.025 86.7119 112.749 86.9181 112.29C87.0846 111.92 86.9942 111.505 86.6749 111.236C86.0277 110.69 84.7342 109.904 82.7328 110.01C80.1625 110.146 80.0057 111.564 80.0057 111.564Z" fill="#332C30"/>
<path d="M70.9664 112.668C70.9664 112.668 71.461 114.603 68.6534 114.648C66.5217 114.681 65.171 114.675 63.9432 114.956C63.246 115.116 62.4957 114.827 62.1652 114.275C61.8983 113.829 61.956 113.302 62.3292 112.934C63.0857 112.187 64.6407 111.074 67.2338 111.003C70.5638 110.913 70.9664 112.668 70.9664 112.668Z" fill="#332C30"/>
<path d="M67.7653 122C68.7289 122 69.8334 121.753 70.8224 120.919C71.0073 120.763 71.0559 120.45 70.9298 120.22C70.8036 119.99 70.5523 119.931 70.3664 120.087C68.3424 121.792 65.5756 120.546 65.5472 120.533C65.3365 120.437 65.1044 120.569 65.0259 120.829C64.9474 121.089 65.0533 121.379 65.263 121.476C65.338 121.511 66.4116 122 67.7653 122Z" fill="#312220"/>
<path d="M83.2774 121C84.1041 121 85.0511 120.77 85.8399 119.969C86.0197 119.787 86.053 119.447 85.9147 119.211C85.7764 118.975 85.5188 118.93 85.34 119.112C83.8833 120.591 81.5667 119.573 81.5426 119.563C81.3295 119.465 81.0955 119.618 81.0222 119.9C80.949 120.183 81.0627 120.49 81.2768 120.587C81.3393 120.615 82.2079 121 83.2774 121Z" fill="#312220"/>
<path d="M76.0061 133C77.2994 133 78.7042 132.727 79.8298 131.83C80.0087 131.687 80.054 131.403 79.9301 131.196C79.8056 130.991 79.5609 130.938 79.3804 131.08C76.8936 133.065 72.5596 131.494 72.5154 131.479C72.309 131.403 72.0854 131.533 72.0191 131.773C71.9523 132.013 72.0665 132.269 72.274 132.346C72.3893 132.389 74.0721 133 76.0061 133Z" fill="white"/>
<path d="M51.1479 118.214L47.7393 111.783C44.3361 102.126 53.2242 91.9329 63.3053 89.7997C67.2935 88.9557 69.2564 89.2113 72.4252 89.0286C81.4727 88.5072 89.4099 95.1631 89.8768 104.146L90 106.517C89.9191 105.248 88.5156 105.997 88.2066 103.903C87.804 101.173 85.7638 98.9282 83.1463 98.0013C74.2523 94.8519 64.4685 97.7912 59.7501 101.524C56.5181 104.081 56.5181 107.07 57.4788 108.942C57.9572 109.874 57.8334 111.813 57.5644 113.947C57.1792 117.004 55.7756 119.85 53.5525 122V122L51.1479 118.214Z" fill="#312220"/>
<path d="M131.277 145L159.458 178.307L160.768 179.816C162.762 182.403 163.942 185.614 163.991 189.064C163.994 189.315 164.001 189.564 164 189.818C163.948 201.119 155.197 209.268 145.978 207.837L145.756 207.792C144.122 207.461 142.577 206.79 141.222 205.822L140.169 205.07C139.244 204.409 138.436 203.598 137.781 202.669L115.582 171.242L109 161.403L131.277 145Z" fill="#716DC6"/>
<path d="M78 170.715L71.0677 166L64 172.031L72.4721 179L78 170.715Z" fill="#312220"/>
<path d="M73.1752 175L83 234.093L75.564 252L68 234.605L71.7861 176.125L73.1752 175Z" fill="#312220"/>
<path d="M90.6972 287C90.5147 270.508 89.7322 235.327 89 208.338L90.2685 245.085L100.511 191.762L91.3806 183.587L101.548 177.308L100.287 161C106.469 163.141 116.485 170.227 115.953 175.589L108.693 221.304L116 272.533L90.6972 287Z" fill="#6E66B3"/>
<path d="M89.7347 288L116 271.786L115.442 270.65L90.8337 285.751C90.7358 276.178 90.4957 260.521 90.1204 242L89 242.031C89.3906 261.281 89.634 277.321 89.7243 286.883L89.7347 288Z" fill="#454584"/>
<path d="M88.5826 196.604L88.6243 195C88.7457 199.464 88.872 204.165 89 209L88.5826 196.604Z" fill="#4E4AA0"/>
<path d="M100 161L98 160C98.6729 160.259 99.3422 160.577 100 161Z" fill="#6E66B3"/>
<path d="M98.1526 160.36L91 159.323C93.1841 158.827 95.4605 158.894 97.6931 159.579L99.9679 160.485L100 161C99.3351 160.714 98.7132 160.497 98.1526 160.36Z" fill="#4E4AA0"/>
<path d="M90.7726 183.363L99.9573 191.556L89.6539 245L88.3778 208.169C88.2491 203.443 88.1221 198.849 88 194.487L88.5336 159L97.9096 160.218C98.4627 160.326 99.0764 160.498 99.7324 160.724L101 177.069L90.7726 183.363Z" fill="#4E4AA0"/>
<path d="M71 165.909L78.383 177L90 159.845L83.5776 152L71 165.909Z" fill="#F3E9FE"/>
<path d="M101.544 281L116 272.253L108.434 220.407L114.02 183.179L112.943 183L107.33 220.405L114.809 271.649L101 280.006L101.544 281Z" fill="#454584"/>
<path d="M66.514 268L87 267.283L86.4866 252L66 252.719L66.514 268ZM82.4186 262.915L70.7913 263.322L70.5814 257.085L82.2092 256.678L82.4186 262.915Z" fill="#AF6B64"/>
<path d="M55.5629 153L44 159.128L65.1091 179L71 166.092L55.5629 153Z" fill="#F3E9FE"/>
<path d="M39.9999 160.967C27.778 153.586 17.5788 176.643 11.8574 186.968L-5.04679 217.474C-6.45443 220.545 -6.76815 223.856 -6.13286 226.947L-5.60335 228.838C-4.55988 231.871 -2.56195 234.57 0.24597 236.463C0.450458 236.601 0.647199 236.746 0.860244 236.875C8.68487 241.615 18.9408 238.417 22.7639 230.046L24.7661 226.417L26.2514 223.725L49.3674 181.831C53.2045 173.429 48.8008 163.621 39.9999 160.967Z" fill="#6E66B3"/>
<path d="M42.0208 158.443L35 159.838L49.8043 182.637L56.5889 185.642L51.6528 195.335L63.2923 246L67 189.987L49.4645 157L42.0208 158.443Z" fill="#4E4AA0"/>
<path d="M30.6754 276L19 260.126L31.5614 250L48 267.79L30.6754 276Z" fill="#FFBB9C"/>
<path d="M55 282L53.25 264L27 270.84L30.0996 278.639L55 282Z" fill="#6E66B3"/>
<path d="M35.0045 261.832C35.6556 260.784 38.8191 258.307 43.1851 259.185C48.93 260.34 50.0492 263.391 50.0492 263.391C52.797 264.916 57.3526 265.222 56.9783 266.791C56.6199 270.191 52.8809 270.239 51.6127 269.816L47.7268 267.659C47.7268 267.659 42.4057 269.174 35 264.346L35.0045 261.832Z" fill="#FFBB9C"/>
<path d="M23.9329 270L-3.11235 237.284L-4.2336 235.999C-5.9402 233.796 -6.95067 231.062 -6.99194 228.124C-6.99496 227.91 -7.00089 227.698 -6.99989 227.482C-6.95508 217.859 0.534914 210.92 8.42532 212.139L8.61573 212.177C10.0137 212.459 11.3361 213.031 12.4966 213.855L13.3974 214.495C14.1894 215.057 14.8806 215.748 15.4418 216.539L34.442 243.299L43 256.033L23.9329 270Z" fill="#6E66B3"/>
<path d="M41.029 200.983L24.7925 229.421L34.2008 242.241L43.9985 255.84L24.6016 270.034" stroke="#454584"/>
<path d="M77.0696 27.2441V27.1863C75.3649 22.1715 71.517 18.1621 66.557 16.2331C61.5976 14.3035 56.033 14.6519 51.3557 17.1844H51.2741C49.9647 17.9081 48.7528 18.794 47.6673 19.8206H47.5857C43.8069 23.3968 41.776 28.4272 42.0196 33.6075C42.2627 38.788 44.7565 43.6083 48.8541 46.8195C49.1138 47.0219 49.2743 47.3249 49.2962 47.6521C49.3175 47.983 49.1949 48.3072 48.959 48.5421C47.4527 49.9399 45.747 51.1086 43.8979 52.0109C48.1623 53.4155 52.7836 53.3215 56.9874 51.7451C57.6787 51.4782 58.3544 51.1736 59.0116 50.8319C59.1944 50.7349 59.398 50.6833 59.6053 50.6812H60.0359C64.7782 50.6605 69.3205 48.7851 72.6822 45.4619C76.0438 42.1382 77.9542 37.6333 78 32.9209C78.0031 30.9909 77.6893 29.0736 77.0696 27.2441Z" fill="white"/>
<rect x="58" y="24" width="3" height="17" rx="1.5" fill="#EF8062"/>
<rect x="51" y="34" width="3" height="17" rx="1.5" transform="rotate(-90 51 34)" fill="#EF8062"/>
<path d="M82.0946 55.9092C81.9409 55.7486 81.864 55.5326 81.8819 55.314C81.8998 55.0954 82.0114 54.8942 82.1889 54.7598C85.064 52.5486 86.8139 49.231 86.9861 45.6656C87.1577 42.1001 85.7349 38.6369 83.0851 36.1727C82.2962 35.4538 81.4163 34.8354 80.4663 34.3336H80.3958L79.9239 34C79.6091 38.2905 77.8935 42.3701 75.0283 45.6424C72.1632 48.9143 68.2986 51.207 64 52.1847C66.3596 55.477 70.2237 57.4348 74.3447 57.4265H74.439C74.6396 57.4003 74.8434 57.428 75.0288 57.5066C78.3105 59.1594 82.1376 59.4534 85.6447 58.323C84.3546 57.7323 83.1619 56.9574 82.1061 56.024L82.0946 55.9092Z" fill="white"/>
</svg>
