<svg width="214" height="433" viewBox="0 0 214 433" fill="none" xmlns="http://www.w3.org/2000/svg">
<path fill-rule="evenodd" clip-rule="evenodd" d="M70.4355 61.198C86.1882 46.5084 88.6803 23.6768 76.0018 10.2023C63.3233 -3.27225 40.2753 -2.28721 24.5226 12.4024C8.76989 27.0921 6.27775 49.9236 18.9562 63.3981C26.8448 71.782 38.7479 74.5681 50.4102 71.9382L59.3498 82L60.696 68.1299C64.1276 66.3265 67.4156 64.0141 70.4355 61.198Z" fill="#EF8062"/>
<path fill-rule="evenodd" clip-rule="evenodd" d="M36.4056 35.7556C37.2896 32.5527 41.2019 26.1706 49.496 26.1419C55.4778 26.1211 58.2522 31.1985 57.9529 34.2494C57.9292 34.4915 57.7893 35.0056 56.9119 36.083C56.4823 36.6104 55.9669 37.1661 55.3193 37.8453C55.2152 37.9545 55.1066 38.068 54.9946 38.185L54.9945 38.1851C54.4518 38.7522 53.8275 39.4044 53.2329 40.0721C51.7897 41.6926 50.1136 43.8376 49.1442 46.6106C48.1295 49.5129 48.0088 52.7443 49.0841 56.3196L58.6787 53.4703C58.1773 51.8029 58.3185 50.728 58.6039 49.9116C58.9346 48.9658 59.5969 47.9795 60.7301 46.7071C61.1947 46.1854 61.6702 45.6883 62.2079 45.1261C62.3308 44.9977 62.4568 44.8659 62.5868 44.7296C63.2463 44.0379 63.9976 43.2386 64.6941 42.3834C66.0688 40.6955 67.6187 38.3335 67.9222 35.2398C68.711 27.2 62.2349 16.1144 49.4418 16.1588C34.947 16.209 28.2962 27.478 26.7471 33.0908L36.4056 35.7556ZM57.3002 67.7549C59.9308 66.2361 60.8238 62.8771 59.2949 60.2524C57.7659 57.6277 54.3939 56.7312 51.7633 58.25C49.1327 59.7688 48.2396 63.1277 49.7686 65.7524C51.2976 68.3771 54.6696 69.2737 57.3002 67.7549Z" fill="white"/>
<g clip-path="url(#clip0_1007_13863)">
<path d="M91.211 170.045C94.7709 167 99.3888 165.836 103.789 166.513L110.181 169.575C110.668 169.856 111.191 170.217 111.737 170.642L128.37 182.649L156.914 204.058C159.513 206.335 161.19 209.283 161.888 212.417L162.184 214.392C162.478 217.641 161.739 220.97 159.908 223.883C159.774 224.095 159.651 224.311 159.506 224.519C154.178 232.139 143.261 233.381 136.19 227.17L132.802 224.62L130.29 222.728L91.1823 193.287C84.0854 187.053 84.0989 176.127 91.211 170.045Z" fill="#6E66B3"/>
<path d="M34.5545 160.39C16.5767 158.751 13.5756 180.585 11.5197 190.769L5.44539 220.859C5.10317 223.837 5.83567 226.835 7.36892 229.47L8.43588 231.058C10.325 233.57 12.9844 235.617 16.1369 236.805C16.3665 236.892 16.5914 236.986 16.8261 237.064C25.4462 239.899 33.8467 235.251 34.7671 227.137L35.4818 223.56L36.012 220.905L44.2638 179.6C45.1875 171.456 43.4256 161.199 34.5545 160.39Z" fill="#6E66B3"/>
<path d="M84 266.928L90.2208 282.988C90.2208 282.988 101.543 283.933 103.992 269.337C104.132 268.503 102.294 264.879 101.671 264.285L94.0689 259.469C92.8221 258.679 91.1973 258.906 90.2076 260.009L84 266.928Z" fill="#FFBB9C"/>
<path d="M84 287.759L59.5076 291L59 276.461L66.1293 268L82.6466 270.432L84 287.759Z" fill="#6E66B3"/>
<path d="M76.9788 274.956L48.5687 361.503L49.048 353.938L56.9364 402.424L60.9813 450L36.7312 448.86L16.6764 359.513L16 356.457L17.1558 351.948L32.7059 261.113L42.5213 243L84 255.617L76.9788 274.956Z" fill="#6E66B3"/>
<path d="M108.085 249.906L113 285.664L111.532 306.513C110.529 320.412 109.707 334.318 108.788 348.224C107.873 362.131 107.137 376.033 106.316 389.945L105.237 410.813L104.299 431.687L103.745 443.999L80.4515 444L76.6677 389.945L76.6677 368.853L76.0609 358.376C75.8537 354.882 75.8279 351.393 75.7026 347.902C75.2724 333.937 74.9395 319.971 74.4252 306L73.6906 285.042L72.8475 264.077L72 243L99.3767 244.736L108.085 249.906Z" fill="#6E66B3"/>
<path d="M53.025 253.431L94 252L94.406 260.991L53.431 262.422L53.025 253.431Z" fill="#312220"/>
<path d="M81.7486 152L54 152.902L58.2438 161L82 158.933L81.7486 152Z" fill="#CCB2F1"/>
<path d="M155 175L154 174C154.36 174.313 154.689 174.65 155 175Z" fill="#F66390"/>
<path d="M72.3149 155L89 160.099C89 160.099 85.581 165.108 71.6556 167.472C68.0283 168.087 64.3164 168.189 60.6776 167.65C56.3775 167.013 51.6061 165.437 51 161.604L62.7103 155.338L72.3149 155Z" fill="#D08864"/>
<path d="M87.1356 159C77.7311 171.479 51 161.584 51 161.584L52.6321 255L91 253.687L87.1356 159Z" fill="#CCB2F1"/>
<path d="M50.628 159.042L61.2366 198.789L62 287L32.2007 281.169C32.2007 281.169 32.5931 207.35 26.6288 185.51C23.0451 172.387 24.5786 159.832 39.3652 159.324L48.8251 159L50.628 159.042Z" fill="#6E66B3"/>
<path d="M62 287L61.2414 204L60.217 204.011L60.9641 285.74L32.1971 280.042L32 281.058L62 287Z" fill="#454584"/>
<path d="M58.8946 139.811L57.0533 160.771C56.5084 166.792 60.184 166.511 66.0051 166.954C70.9741 167.332 76.6366 165.424 76.8885 160.096L78 133L58.8946 139.811Z" fill="#E09D84"/>
<path d="M58 155L75 145.021L59.0943 142L58 155Z" fill="#DDA290"/>
<path d="M57.1577 121.377C55.867 125.313 51.8398 127.538 48.1626 126.346C44.4854 125.153 42.5508 120.996 43.8413 117.06C45.1319 113.124 49.1593 110.899 52.8362 112.091C56.5135 113.283 58.4482 117.441 57.1577 121.377Z" fill="#DDA290"/>
<path d="M58.8829 144.688C49.5543 140.966 44.8514 130.528 47.6752 122.802L53.6725 106.673C57.2116 96.9907 67.7899 91.8207 77.5795 94.9887C87.6014 98.2322 94.8105 109.556 91.5151 119.581L86.6844 132.091C82.3487 143.36 70.3472 148.398 58.8829 144.688Z" fill="#ECB6A2"/>
<path d="M94.3063 134.891C93.0964 138.564 89.1336 140.577 85.4551 139.389C81.7766 138.201 79.7754 134.261 80.9853 130.589C82.1952 126.917 86.158 124.903 89.8365 126.091C93.515 127.279 95.516 131.219 94.3063 134.891Z" fill="#ECB6A2"/>
<path d="M83.9249 133.9C83.9099 133.895 83.8947 133.889 83.8803 133.883C83.6752 133.792 83.5829 133.551 83.674 133.343C83.7181 133.242 84.7771 130.871 86.9749 130.257C88.3267 129.88 89.7846 130.252 91.31 131.363C91.4913 131.495 91.5309 131.752 91.3993 131.936C91.267 132.121 91.011 132.162 90.8324 132.031C89.5163 131.072 88.2893 130.741 87.1847 131.049C85.3573 131.559 84.4247 133.649 84.4157 133.67C84.3311 133.863 84.1186 133.959 83.9249 133.9Z" fill="#312220"/>
<path d="M49.3764 119.695C49.3764 119.695 47.4427 125.636 50.2658 127.764C52.7974 129.672 55.0462 128.29 58.7784 129.73C63.6393 131.605 66.6115 133.069 70.8588 137.457C74.4113 141.126 84.4474 131.628 87.4746 124.326C87.7964 123.55 88.6951 126.515 88.6951 126.515L83.3943 137.742C83.3943 137.742 75.2342 154.329 56.9428 147.138C38.6515 139.947 49.3764 119.695 49.3764 119.695Z" fill="#332C30"/>
<path d="M87 108.204L85.9528 118.433L85.0652 122L83 108L87 108.204Z" fill="#332C30"/>
<path d="M61.8989 129.809C61.8914 129.807 61.8846 129.804 61.8777 129.802L59.017 128.795C58.8833 128.747 58.7759 128.649 58.7227 128.525C58.6699 128.401 58.6757 128.265 58.7398 128.15L60.7287 124.6C60.85 124.384 61.1396 124.304 61.3769 124.431C61.614 124.555 61.7077 124.83 61.5865 125.046L59.8531 128.14L62.1811 128.959C62.4338 129.048 62.5705 129.309 62.4868 129.542C62.4049 129.768 62.1451 129.884 61.8989 129.809Z" fill="#312220"/>
<path d="M62.2309 113.541C62.2309 113.541 61.975 115.101 59.9464 114.334C58.406 113.752 57.4388 113.363 56.469 113.22C55.9183 113.139 55.4711 112.713 55.4082 112.214C55.3573 111.811 55.5652 111.441 55.9493 111.277C56.7278 110.944 58.1949 110.57 60.0779 111.257C62.4961 112.138 62.2309 113.541 62.2309 113.541Z" fill="#332C30"/>
<path d="M71.666 117.206C71.666 117.206 70.7684 118.449 73.4436 119.302C75.4748 119.949 76.7678 120.34 77.8802 120.901C78.5119 121.219 79.2928 121.231 79.73 120.932C80.083 120.69 80.1435 120.295 79.8675 119.922C79.308 119.165 78.0652 117.912 75.6009 117.104C72.4363 116.065 71.666 117.206 71.666 117.206Z" fill="#332C30"/>
<path d="M60.2342 134.08C58.9974 133.702 57.7339 133.03 56.9199 131.843C56.7907 131.654 56.8305 131.369 57.0096 131.208C57.1887 131.048 57.4381 131.069 57.5691 131.258C59.3663 133.883 63.9707 133.648 64.0175 133.646C64.2371 133.634 64.4127 133.824 64.4059 134.073C64.3998 134.321 64.2154 134.533 63.9946 134.546C63.8718 134.553 62.0836 134.646 60.2342 134.08Z" fill="white"/>
<path d="M86.7418 128.03L91.8075 122.854C97.8121 114.592 92.4927 102.307 83.7006 97.388C80.2223 95.442 78.314 95.1259 75.4076 94.0463C67.1093 90.964 57.7478 95.0618 54.6831 103.518L53.8742 105.75C54.3212 104.56 55.4129 105.677 56.3143 103.762C57.489 101.268 60.0517 99.7033 62.7679 99.5645C71.997 99.0928 80.2757 104.697 83.5906 109.614C85.8612 112.983 84.9865 115.841 83.5415 117.357C82.8219 118.111 82.3702 120 81.9969 122.118C81.4623 125.151 81.9405 128.273 83.3879 130.964L83.3879 130.964L86.7418 128.03Z" fill="#312220"/>
<path d="M77 170.715L70.0677 166L63 172.031L71.4721 179L77 170.715Z" fill="#312220"/>
<path d="M71.1752 175L81 233.326L73.564 251L66 233.831L69.7861 176.11L71.1752 175Z" fill="#312220"/>
<path d="M40.8014 158.411L34 159.774L48.3417 182.061L54.9143 184.998L50.1324 194.474L61.4081 244L65 189.246L48.0125 157L40.8014 158.411Z" fill="#4E4AA0"/>
<path d="M88.6344 285C88.4586 268.77 87.7051 234.147 87 207.586L88.2215 243.75L98.0848 191.273L89.2924 183.228L99.0829 177.049L97.8694 161C103.822 163.107 113.467 170.08 112.954 175.357L105.964 220.346L113 270.762L88.6344 285Z" fill="#6E66B3"/>
<path d="M88.7075 286L114 270.139L113.463 269.027L89.7658 283.8C89.6715 274.435 89.4403 259.119 89.0789 241L88 241.03C88.3761 259.862 88.6106 275.553 88.6975 284.907L88.7075 286Z" fill="#454584"/>
<path d="M86.591 195.489L86.6319 194C86.7509 198.145 86.8746 202.51 87 207L86.591 195.489Z" fill="#4E4AA0"/>
<path d="M98 161L96 160C96.6729 160.259 97.3422 160.577 98 161Z" fill="#6E66B3"/>
<path d="M96.1526 160.36L89 159.323C91.1841 158.827 93.4605 158.894 95.6931 159.579L97.9679 160.485L98 161C97.3351 160.714 96.7132 160.497 96.1526 160.36Z" fill="#4E4AA0"/>
<path d="M88.7726 182.664L97.9573 190.684L87.6539 243L86.3778 206.947C86.2491 202.321 86.1221 197.824 86 193.553L86.2897 157L96.4259 159.759C96.979 159.865 97.1662 160.039 97.8222 160.261L99 176.504L88.7726 182.664Z" fill="#4E4AA0"/>
<path d="M70 165.909L77.383 177L89 159.845L82.5776 152L70 165.909Z" fill="#F3E9FE"/>
<path d="M100.508 279L114 270.431L106.939 219.644L112.152 183.175L111.147 183L105.908 219.641L112.888 269.84L100 278.026L100.508 279Z" fill="#454584"/>
<path d="M64.514 266L85 265.328L84.4866 251L64 251.674L64.514 266ZM80.4186 261.232L68.7913 261.615L68.5814 255.768L80.2092 255.385L80.4186 261.232Z" fill="#AF6B64"/>
<path d="M54.5629 153L43 158.892L64.1091 178L70 165.588L54.5629 153Z" fill="#F3E9FE"/>
<path d="M57.7369 116.627C56.987 116.268 56.0406 116.804 55.623 117.824C55.2055 118.843 55.4747 119.961 56.2247 120.321C56.9744 120.68 57.9209 120.145 58.3385 119.125C58.7559 118.105 58.4867 116.987 57.7369 116.627Z" fill="#3E3431"/>
<path d="M72.737 122.627C71.9872 122.268 71.0409 122.803 70.623 123.823C70.2057 124.843 70.4751 125.962 71.2248 126.321C71.9747 126.68 72.9211 126.145 73.3385 125.125C73.7561 124.105 73.4869 122.987 72.737 122.627Z" fill="#3E3431"/>
<path d="M70.1623 154.889L62.2524 172.937L47.2026 167.122L54.3903 143.99L70.1623 154.889Z" fill="#FFBB9C"/>
<path d="M113.326 264.796L125.277 249.128L112.894 238.785L96.1477 256.286L113.326 264.796Z" fill="#FFBB9C"/>
<path d="M54.9239 160.08C53.6909 160.04 49.9641 158.539 48.5412 154.319C46.669 148.766 48.7522 146.271 48.7522 146.271C48.6983 143.13 46.6854 139.031 48.2321 138.571C51.3558 137.181 53.2665 140.395 53.5342 141.705L53.6097 146.149C53.6097 146.149 57.5819 149.999 57.1033 158.827L54.9239 160.08Z" fill="#FFBB9C"/>
<path d="M110.138 248.833C109.505 247.774 106.386 245.242 102.005 246.044C96.2407 247.098 95.0684 250.13 95.0684 250.13C92.2945 251.606 87.7342 251.832 88.081 253.408C88.38 256.814 92.1176 256.927 93.393 256.526L97.316 254.438C97.316 254.438 102.61 256.045 110.099 251.347L110.138 248.833Z" fill="#FFBB9C"/>
<path d="M48.8915 157.318L43.5614 167.096L61.2608 177.127L66.4312 167.642L48.8915 157.318Z" fill="#CCB2F1"/>
<path d="M100.988 238.48L130.611 206.445L131.95 204.961C134.274 202.666 137.318 201.102 140.736 200.634C140.985 200.6 141.231 200.562 141.483 200.533C152.707 199.206 161.861 206.897 161.564 216.222L161.546 216.448C161.417 218.109 160.939 219.725 160.143 221.189L159.526 222.325C158.983 223.324 158.276 224.224 157.434 224.989L128.947 250.855L119.983 258.589L100.988 238.48Z" fill="#716DC6"/>
<path d="M66.1109 175.322L42.3308 227.405L41.5432 229.245C40.084 232.173 37.7066 234.65 34.6199 236.218C34.3951 236.332 34.1739 236.448 33.9448 236.559C23.7411 241.508 12.5786 237.274 9.84249 228.387L9.78591 228.168C9.37071 226.559 9.30077 224.879 9.58068 223.238L9.79801 221.963C9.98905 220.842 10.3675 219.761 10.9174 218.763L29.5342 184.997L41.6061 162.626L66.1109 175.322Z" fill="#716DC6"/>
<path d="M64.5412 139.961C69.1127 142.291 71.5491 148.338 69.9074 151.56C66.0446 165.774 63.1674 153.959 58.5959 151.63C54.0245 149.3 51.6495 144.8 53.2912 141.578C54.933 138.356 59.9698 137.632 64.5412 139.961Z" fill="#FFBB9C"/>
<path d="M97.7546 266.459C102.008 269.329 108.478 268.528 110.5 265.53C121.06 255.26 109.331 258.472 105.078 255.603C100.824 252.734 95.7366 252.838 93.7144 255.836C91.6922 258.834 93.5011 263.59 97.7546 266.459Z" fill="#FFBB9C"/>
</g>
<defs>
<clipPath id="clip0_1007_13863">
<rect width="237" height="363" fill="white" transform="matrix(-1 0 0 1 214 90)"/>
</clipPath>
</defs>
</svg>
