<svg width="16" height="16" viewBox="0 0 16 16" fill="none" xmlns="http://www.w3.org/2000/svg">
<path d="M14.6667 1.23077H12V0H10.6667V1.23077H5.33333V0H4V1.23077H1.33333C0.6 1.23077 0 1.78462 0 2.46154V14.7692C0 15.4462 0.6 16 1.33333 16H14.6667C15.4 16 16 15.4462 16 14.7692V2.46154C16 1.78462 15.4 1.23077 14.6667 1.23077ZM14.6667 14.7692H1.33333V6.15385H14.6667V14.7692ZM14.6667 4.92308H1.33333V2.46154H4V3.69231H5.33333V2.46154H10.6667V3.69231H12V2.46154H14.6667V4.92308Z" fill="#999999"/>
</svg>
