<svg width="23" height="23" viewBox="0 0 23 23" fill="none" xmlns="http://www.w3.org/2000/svg">
<path fill-rule="evenodd" clip-rule="evenodd" d="M12.1246 1.51954C9.69307 1.36738 7.28967 2.10809 5.36566 3.60257C3.44165 5.09704 2.12938 7.24249 1.67528 9.63604C1.22185 12.026 1.65516 14.4991 2.89382 16.5925C2.96676 16.7096 2.99003 16.855 2.95023 16.9943L1.91365 20.6223L1.43289 20.4849L1.91365 20.6223C1.89526 20.6867 1.89442 20.7548 1.91121 20.8196C1.928 20.8844 1.96181 20.9435 2.00915 20.9908C2.05648 21.0382 2.11561 21.072 2.18042 21.0888C2.24522 21.1056 2.31333 21.1047 2.3777 21.0863L6.00571 20.0498C6.14296 20.0106 6.28869 20.0322 6.40728 20.106C8.50067 21.3448 10.9739 21.7782 13.364 21.3247C15.7576 20.8706 17.903 19.5583 19.3975 17.6343C20.8919 15.7103 21.6326 13.3069 21.4805 10.8754C21.3283 8.44391 20.2937 6.1516 18.571 4.42892C16.8484 2.70624 14.556 1.67169 12.1246 1.51954ZM6.07597 21.0697C8.3402 22.3531 10.9888 22.7932 13.5504 22.3072C16.1833 21.8077 18.5433 20.3642 20.1872 18.2477C21.8311 16.1313 22.6459 13.4876 22.4785 10.8129C22.3111 8.1383 21.1731 5.61676 19.2782 3.72181C17.3832 1.82687 14.8617 0.688859 12.187 0.521487C9.51238 0.354116 6.86863 1.16889 4.75222 2.81282C2.63581 4.45675 1.19232 6.81674 0.692804 9.44964C0.206808 12.0113 0.646905 14.6598 1.93029 16.924L0.952128 20.3476L1.43227 20.4848" fill="#333333"/>
</svg>
