<svg width="20" height="20" viewBox="0 0 20 20" fill="none" xmlns="http://www.w3.org/2000/svg">
<path fill-rule="evenodd" clip-rule="evenodd" d="M10 1.5C5.30558 1.5 1.5 5.30558 1.5 10C1.5 14.6944 5.30558 18.5 10 18.5C14.6944 18.5 18.5 14.6944 18.5 10C18.5 5.30558 14.6944 1.5 10 1.5ZM0.5 10C0.5 4.75329 4.75329 0.5 10 0.5C15.2467 0.5 19.5 4.75329 19.5 10C19.5 15.2467 15.2467 19.5 10 19.5C4.75329 19.5 0.5 15.2467 0.5 10Z" fill="#333333"/>
<path fill-rule="evenodd" clip-rule="evenodd" d="M10 4.25C10.2761 4.25 10.5 4.47386 10.5 4.75V9.5H15.25C15.5261 9.5 15.75 9.72386 15.75 10C15.75 10.2761 15.5261 10.5 15.25 10.5H10C9.72386 10.5 9.5 10.2761 9.5 10V4.75C9.5 4.47386 9.72386 4.25 10 4.25Z" fill="#333333"/>
</svg>
