<svg width="28" height="27" viewBox="0 0 28 27" fill="none" xmlns="http://www.w3.org/2000/svg">
<path fill-rule="evenodd" clip-rule="evenodd" d="M0.646758 25.6466C0.451496 25.8418 0.451496 26.1584 0.646758 26.3537C0.84202 26.5489 1.1586 26.5489 1.35386 26.3537L14.0006 13.7069L26.6468 26.353C26.842 26.5483 27.1586 26.5483 27.3539 26.353C27.5491 26.1578 27.5491 25.8412 27.3539 25.6459L14.7077 12.9998L26.8098 0.89775C27.005 0.702488 27.005 0.385905 26.8098 0.190643C26.6145 -0.00461904 26.2979 -0.00461904 26.1027 0.190643L14.0006 12.2927L1.89795 0.190021C1.70268 -0.00524079 1.3861 -0.00524079 1.19084 0.190021C0.995576 0.385283 0.995576 0.701866 1.19084 0.897128L13.2935 12.9998L0.646758 25.6466Z" fill="#585F66"/>
</svg>
