<svg width="29" height="27" viewBox="0 0 29 27" fill="none" xmlns="http://www.w3.org/2000/svg">
<path fill-rule="evenodd" clip-rule="evenodd" d="M8 0.5C8.27614 0.5 8.5 0.723858 8.5 1V5C8.5 5.27614 8.27614 5.5 8 5.5C7.72386 5.5 7.5 5.27614 7.5 5V1C7.5 0.723858 7.72386 0.5 8 0.5Z" fill="#333333"/>
<path fill-rule="evenodd" clip-rule="evenodd" d="M12 0.5C12.2761 0.5 12.5 0.723858 12.5 1V5C12.5 5.27614 12.2761 5.5 12 5.5C11.7239 5.5 11.5 5.27614 11.5 5V1C11.5 0.723858 11.7239 0.5 12 0.5Z" fill="#333333"/>
<path fill-rule="evenodd" clip-rule="evenodd" d="M16 0.5C16.2761 0.5 16.5 0.723858 16.5 1V5C16.5 5.27614 16.2761 5.5 16 5.5C15.7239 5.5 15.5 5.27614 15.5 5V1C15.5 0.723858 15.7239 0.5 16 0.5Z" fill="#333333"/>
<path fill-rule="evenodd" clip-rule="evenodd" d="M0.5 26C0.5 25.7239 0.723858 25.5 1 25.5H24C24.2761 25.5 24.5 25.7239 24.5 26C24.5 26.2761 24.2761 26.5 24 26.5H1C0.723858 26.5 0.5 26.2761 0.5 26Z" fill="#333333"/>
<path fill-rule="evenodd" clip-rule="evenodd" d="M0.5 9C0.5 8.72386 0.723858 8.5 1 8.5H24C24.2761 8.5 24.5 8.72386 24.5 9L24.5 15.3747C24.5 15.3747 24.5 15.3747 24.5 15.3747C24.5004 17.706 23.8424 19.9891 22.6035 21.9527C21.3645 23.9165 19.5963 25.4789 17.5078 26.4531C17.2575 26.5699 16.96 26.4616 16.8433 26.2114C16.7265 25.9611 16.8348 25.6636 17.085 25.5469C18.9981 24.6544 20.6202 23.2222 21.7578 21.4192C22.8954 19.616 23.5003 17.5182 23.5 15.3749V9.5H1.5V15.3748C1.49966 17.5181 2.10461 19.616 3.24222 21.4191C4.37978 23.2222 6.00185 24.6544 7.9149 25.5468C8.16515 25.6636 8.27338 25.9611 8.15664 26.2113C8.0399 26.4616 7.74239 26.5698 7.49214 26.4531C5.40368 25.4788 3.63544 23.9165 2.39648 21.9527C1.15758 19.989 0.499644 17.7061 0.5 15.3748C0.5 15.3748 0.5 15.3748 0.5 15.3748V9Z" fill="#333333"/>
<path fill-rule="evenodd" clip-rule="evenodd" d="M22.9775 9C22.9775 8.72386 23.2013 8.5 23.4775 8.5C24.7911 8.5 26.0613 8.96098 27.0066 9.79705C27.9539 10.6349 28.5 11.7853 28.5 13V14C28.5 15.2147 27.9539 16.3651 27.0066 17.203C26.0613 18.039 24.7911 18.5 23.4775 18.5H23C22.7239 18.5 22.5 18.2761 22.5 18C22.5 17.7239 22.7239 17.5 23 17.5H23.4775C24.5628 17.5 25.5931 17.1181 26.3441 16.4539C27.0931 15.7914 27.5 14.9071 27.5 14V13C27.5 12.0929 27.0931 11.2086 26.3441 10.5461C25.5931 9.88188 24.5628 9.5 23.4775 9.5C23.2013 9.5 22.9775 9.27614 22.9775 9Z" fill="#333333"/>
</svg>
