<svg width="44" height="44" viewBox="0 0 44 44" fill="none" xmlns="http://www.w3.org/2000/svg">
<path fill-rule="evenodd" clip-rule="evenodd" d="M10.7433 9.5C10.4671 9.5 10.2433 9.72386 10.2433 10C10.2433 10.2761 10.4671 10.5 10.7433 10.5H12.3078V13.0614H10.7433H10.7083L10.6736 13.0663C8.76625 13.3349 7.58379 14.083 6.9822 15.2534C6.40317 16.38 6.42586 17.7871 6.63492 19.2296C6.90572 21.0982 7.67128 22.8582 9.04777 24.2195C10.3808 25.5379 12.2555 26.4514 14.724 26.7495C15.9211 28.8188 17.2505 30.1861 18.3368 31.3033L18.4146 31.3833C19.4466 32.4452 20.1743 33.226 20.4805 34.1598C20.4674 34.2133 20.4553 34.2672 20.4443 34.3218C20.3569 34.7529 20.2989 35.293 20.4721 35.9191C20.4473 35.9792 20.4192 36.0404 20.3876 36.1028C20.0587 36.7511 19.3185 37.5814 17.7068 38.5743L16.2043 39.5L13.5371 39.5C13.5938 39.1386 13.7116 38.8505 13.8631 38.6189C14.0802 38.2869 14.3857 38.0418 14.7448 37.8653C15.4776 37.5052 16.3882 37.4548 17.0042 37.5298L17.125 36.5371C16.3861 36.4472 15.2645 36.4957 14.3037 36.9679C13.8161 37.2075 13.3595 37.5619 13.0262 38.0715C12.6915 38.5833 12.5001 39.2228 12.5001 40V40.5H13.0001H21.0001H29.0001H29.5001V40C29.5001 39.2228 29.3087 38.5833 28.974 38.0715C28.6407 37.5619 28.1841 37.2075 27.6964 36.9679C26.7357 36.4957 25.614 36.4472 24.8752 36.5371L24.996 37.5298C25.612 37.4548 26.5225 37.5052 27.2554 37.8653C27.6145 38.0418 27.92 38.2869 28.1371 38.6189C28.2886 38.8505 28.4064 39.1386 28.463 39.5L25.7959 39.5L24.2934 38.5743C22.6817 37.5814 21.9414 36.7511 21.6126 36.1028C21.581 36.0404 21.5529 35.9792 21.528 35.9191C21.7013 35.293 21.6432 34.7529 21.5559 34.3218C21.5449 34.2672 21.5328 34.2133 21.5197 34.1598C21.8259 33.226 22.5535 32.4452 23.5856 31.3833L23.6634 31.3033C24.7496 30.1861 26.079 28.8188 27.2762 26.7495C29.7447 26.4514 31.6194 25.5379 32.9524 24.2195C34.3289 22.8582 35.0944 21.0982 35.3653 19.2296C35.5743 17.7871 35.597 16.38 35.018 15.2534C34.4164 14.083 33.2339 13.3349 31.3266 13.0663L31.2919 13.0614H31.2569H29.6924V10.5H31.2569C31.533 10.5 31.7569 10.2761 31.7569 10C31.7569 9.72386 31.533 9.5 31.2569 9.5H29.1924H23.5001H23.0001H19.0001H18.5001H12.8078H10.7433ZM22.8685 30.6864C22.1489 31.4268 21.4697 32.1257 21.0001 32.916C20.5305 32.1257 19.8513 31.4268 19.1317 30.6864L19.0662 30.619C17.9427 29.4634 16.6338 28.1169 15.4687 26.0364C14.2284 23.8216 13.3078 21.3094 13.3078 18.6491V13.5614V10.5H18.5001H19.0001H23.0001H23.5001H28.6924V13.5614V18.6491C28.6924 21.3094 27.7717 23.8216 26.5315 26.0364C25.3664 28.1169 24.0574 29.4634 22.934 30.619L22.934 30.619L22.8685 30.6864ZM19.5667 38.5C20.2152 37.9858 20.6782 37.4948 21.0001 37.0244C21.322 37.4948 21.785 37.9858 22.4335 38.5H19.5667ZM10.7788 14.0614H12.3078V18.6491C12.3078 21.1797 13.0736 23.5517 14.1302 25.649C12.2124 25.299 10.7802 24.5265 9.75096 23.5085C8.55532 22.326 7.8699 20.779 7.62458 19.0862C7.42073 17.6796 7.44382 16.5428 7.87159 15.7106C8.27409 14.9275 9.09645 14.3051 10.7788 14.0614ZM31.2214 14.0614H29.6924V18.6491C29.6924 21.1797 28.9265 23.5517 27.87 25.649C29.7877 25.299 31.22 24.5265 32.2492 23.5085C33.4448 22.326 34.1303 20.779 34.3756 19.0862C34.5794 17.6796 34.5564 16.5428 34.1286 15.7106C33.7261 14.9275 32.9037 14.3051 31.2214 14.0614ZM19.0001 14.1883L19.9863 16.108C20.2767 16.6732 20.8185 17.0668 21.4458 17.1684L23.5763 17.5131L22.0553 19.0443C21.6075 19.4951 21.4005 20.132 21.4978 20.76L21.8283 22.8927L19.9021 21.9194C19.3349 21.6328 18.6653 21.6328 18.0981 21.9194L16.1719 22.8927L16.5023 20.76C16.5996 20.132 16.3927 19.4951 15.9449 19.0443L14.4239 17.5131L16.5544 17.1684C17.1817 17.0668 17.7235 16.6732 18.0139 16.108L19.0001 14.1883ZM18.1106 13.7314C18.4826 13.0073 19.5176 13.0073 19.8896 13.7314L20.8758 15.651C21.021 15.9336 21.2919 16.1304 21.6055 16.1812L23.736 16.526C24.5396 16.656 24.8594 17.6403 24.2857 18.2178L22.7648 19.749C22.5409 19.9744 22.4374 20.2929 22.486 20.6069L22.8165 22.7396C22.9412 23.544 22.1038 24.1524 21.3773 23.7852L19.4511 22.8119C19.1675 22.6686 18.8327 22.6686 18.5491 22.8119L16.6229 23.7852C15.8963 24.1524 15.059 23.544 15.1836 22.7396L15.5141 20.6069C15.5628 20.2929 15.4593 19.9744 15.2354 19.749L13.7144 18.2178C13.1408 17.6403 13.4606 16.656 14.2642 16.526L16.3946 16.1812C16.7083 16.1304 16.9792 15.9336 17.1244 15.651L18.1106 13.7314Z" fill="#585F66"/>
</svg>
