<svg width="18" height="22" viewBox="0 0 18 22" fill="none" xmlns="http://www.w3.org/2000/svg">
<path fill-rule="evenodd" clip-rule="evenodd" d="M8.64645 0.646447C8.84171 0.451184 9.15829 0.451184 9.35355 0.646447L13.3536 4.64645C13.5488 4.84171 13.5488 5.15829 13.3536 5.35355C13.1583 5.54882 12.8417 5.54882 12.6464 5.35355L9 1.70711L5.35355 5.35355C5.15829 5.54882 4.84171 5.54882 4.64645 5.35355C4.45118 5.15829 4.45118 4.84171 4.64645 4.64645L8.64645 0.646447Z" fill="#333333"/>
<path fill-rule="evenodd" clip-rule="evenodd" d="M9 0.5C9.27614 0.5 9.5 0.723858 9.5 1V12C9.5 12.2761 9.27614 12.5 9 12.5C8.72386 12.5 8.5 12.2761 8.5 12V1C8.5 0.723858 8.72386 0.5 9 0.5Z" fill="#333333"/>
<path fill-rule="evenodd" clip-rule="evenodd" d="M1.8 9.5C1.72044 9.5 1.64413 9.53161 1.58787 9.58787C1.53161 9.64413 1.5 9.72044 1.5 9.8V20.2C1.5 20.2796 1.53161 20.3559 1.58787 20.4121C1.64413 20.4684 1.72043 20.5 1.8 20.5H16.2C16.2796 20.5 16.3559 20.4684 16.4121 20.4121C16.4684 20.3559 16.5 20.2796 16.5 20.2V9.8C16.5 9.72043 16.4684 9.64413 16.4121 9.58787C16.3559 9.53161 16.2796 9.5 16.2 9.5H13.8C13.5239 9.5 13.3 9.27614 13.3 9C13.3 8.72386 13.5239 8.5 13.8 8.5H16.2C16.5448 8.5 16.8754 8.63696 17.1192 8.88076C17.363 9.12456 17.5 9.45522 17.5 9.8V20.2C17.5 20.5448 17.363 20.8754 17.1192 21.1192C16.8754 21.363 16.5448 21.5 16.2 21.5H1.8C1.45522 21.5 1.12456 21.363 0.880761 21.1192C0.636964 20.8754 0.5 20.5448 0.5 20.2V9.8C0.5 9.45522 0.636964 9.12456 0.880761 8.88076C1.12456 8.63696 1.45522 8.5 1.8 8.5H4.2C4.47614 8.5 4.7 8.72386 4.7 9C4.7 9.27614 4.47614 9.5 4.2 9.5H1.8Z" fill="#333333"/>
</svg>
