<svg width="23" height="16" viewBox="0 0 23 16" fill="none" xmlns="http://www.w3.org/2000/svg">
<path fill-rule="evenodd" clip-rule="evenodd" d="M3.07758 4.15293C4.82999 2.33562 7.57711 0.5 11.5 0.5C15.4229 0.5 18.17 2.33562 19.9224 4.15293C20.7975 5.06042 21.4286 5.96676 21.8415 6.64676C22.0481 6.98719 22.2009 7.27211 22.3027 7.47379C22.3537 7.57467 22.392 7.65483 22.418 7.71083C22.431 7.73883 22.4409 7.7608 22.4478 7.77631L22.4559 7.79468L22.4583 7.80013L22.4591 7.80191L22.4594 7.80255C22.4595 7.80281 22.4596 7.80304 22 8C22.4596 8.19696 22.4595 8.19719 22.4594 8.19745L22.4591 8.19809L22.4583 8.19987L22.4559 8.20532L22.4478 8.22369C22.4409 8.2392 22.431 8.26117 22.418 8.28917C22.392 8.34517 22.3537 8.42533 22.3027 8.52621C22.2009 8.72789 22.0481 9.01281 21.8415 9.35324C21.4286 10.0332 20.7975 10.9396 19.9224 11.8471C18.17 13.6644 15.4229 15.5 11.5 15.5C7.57711 15.5 4.82999 13.6644 3.07758 11.8471C2.2025 10.9396 1.5714 10.0332 1.15854 9.35324C0.951856 9.01281 0.799125 8.72789 0.697256 8.52621C0.646302 8.42533 0.608017 8.34517 0.582018 8.28917C0.569017 8.26117 0.559083 8.2392 0.552168 8.22369L0.544053 8.20532L0.541681 8.19987L0.540915 8.19809L0.540636 8.19745C0.540526 8.19719 0.540427 8.19696 1 8C0.540427 7.80304 0.540526 7.80281 0.540636 7.80255L0.540915 7.80191L0.541681 7.80013L0.544053 7.79468L0.552168 7.77631C0.559083 7.7608 0.569017 7.73883 0.582018 7.71083C0.608017 7.65483 0.646302 7.57467 0.697256 7.47379C0.799125 7.27211 0.951856 6.98719 1.15854 6.64676C1.5714 5.96676 2.2025 5.06042 3.07758 4.15293ZM1 8L0.540427 7.80304C0.486524 7.92881 0.486524 8.07119 0.540427 8.19696L1 8ZM1.55226 8C1.56372 8.02326 1.57624 8.04841 1.58985 8.07535C1.68134 8.25649 1.82158 8.51844 2.01333 8.83426C2.39735 9.46676 2.985 10.3104 3.79742 11.1529C5.42001 12.8356 7.92289 14.5 11.5 14.5C15.0771 14.5 17.58 12.8356 19.2026 11.1529C20.015 10.3104 20.6026 9.46676 20.9867 8.83426C21.1784 8.51844 21.3187 8.25649 21.4101 8.07535C21.4238 8.04841 21.4363 8.02326 21.4477 8C21.4363 7.97674 21.4238 7.95159 21.4101 7.92465C21.3187 7.74351 21.1784 7.48156 20.9867 7.16574C20.6026 6.53324 20.015 5.68958 19.2026 4.84707C17.58 3.16438 15.0771 1.5 11.5 1.5C7.92289 1.5 5.42001 3.16438 3.79742 4.84707C2.985 5.68958 2.39735 6.53324 2.01333 7.16574C1.82158 7.48156 1.68134 7.74351 1.58985 7.92465C1.57624 7.95159 1.56372 7.97674 1.55226 8ZM22 8L22.4596 8.19696C22.5135 8.07119 22.5135 7.92881 22.4596 7.80304L22 8Z" fill="#A0A0A4"/>
<path fill-rule="evenodd" clip-rule="evenodd" d="M11 4.5C9.067 4.5 7.5 6.067 7.5 8C7.5 9.933 9.067 11.5 11 11.5C12.933 11.5 14.5 9.933 14.5 8C14.5 6.067 12.933 4.5 11 4.5ZM6.5 8C6.5 5.51472 8.51472 3.5 11 3.5C13.4853 3.5 15.5 5.51472 15.5 8C15.5 10.4853 13.4853 12.5 11 12.5C8.51472 12.5 6.5 10.4853 6.5 8Z" fill="#A0A0A4"/>
</svg>
