<svg width="17" height="20" viewBox="0 0 17 20" fill="none" xmlns="http://www.w3.org/2000/svg">
<path fill-rule="evenodd" clip-rule="evenodd" d="M1.75 1.5C1.6837 1.5 1.62011 1.52634 1.57322 1.57322C1.52634 1.62011 1.5 1.6837 1.5 1.75V18.25C1.5 18.3163 1.52634 18.3799 1.57322 18.4268C1.62011 18.4737 1.6837 18.5 1.75 18.5H15.25C15.3163 18.5 15.3799 18.4737 15.4268 18.4268C15.4737 18.3799 15.5 18.3163 15.5 18.25V6.45711L10.5429 1.5H1.75ZM0.866117 0.866117C1.10054 0.631696 1.41848 0.5 1.75 0.5H10.75C10.8826 0.5 11.0098 0.552678 11.1036 0.646447L16.3536 5.89645C16.4473 5.99021 16.5 6.11739 16.5 6.25V18.25C16.5 18.5815 16.3683 18.8995 16.1339 19.1339C15.8995 19.3683 15.5815 19.5 15.25 19.5H1.75C1.41848 19.5 1.10054 19.3683 0.866117 19.1339C0.631696 18.8995 0.5 18.5815 0.5 18.25V1.75C0.5 1.41848 0.631696 1.10054 0.866117 0.866117Z" fill="#333333"/>
<path fill-rule="evenodd" clip-rule="evenodd" d="M10 0.5C10.2761 0.5 10.5 0.723858 10.5 1V5.5H15C15.2761 5.5 15.5 5.72386 15.5 6C15.5 6.27614 15.2761 6.5 15 6.5H10C9.72386 6.5 9.5 6.27614 9.5 6V1C9.5 0.723858 9.72386 0.5 10 0.5Z" fill="#333333"/>
</svg>
