<svg width="25" height="23" viewBox="0 0 25 23" fill="none" xmlns="http://www.w3.org/2000/svg">
<path fill-rule="evenodd" clip-rule="evenodd" d="M1.97948 0.5C1.97953 0.5 1.97943 0.5 1.97948 0.5H23.0205C23.3042 0.500087 23.583 0.580006 23.8228 0.731613C24.0628 0.883313 24.2545 1.1009 24.3721 1.35971C24.4898 1.61869 24.5276 1.90631 24.4799 2.18691C24.4323 2.46702 24.3021 2.72567 24.1074 2.93212C24.1072 2.9324 24.1069 2.93269 24.1066 2.93298L16.0565 11.5138C15.9786 11.5947 15.9383 11.6982 15.9394 11.8023L15.9394 11.8073L15.9394 18.5197C15.9412 18.7636 15.8797 19.0034 15.7614 19.2166C15.6433 19.4295 15.4729 19.6084 15.2674 19.7382L11.3502 22.2638L11.3482 22.2651C11.1266 22.4064 10.8712 22.4866 10.6086 22.4985C10.3462 22.5103 10.0845 22.4536 9.85089 22.3331C9.61719 22.2126 9.41923 22.0323 9.27939 21.8093C9.13947 21.5862 9.06341 21.3293 9.06065 21.0658L9.06062 21.0606V11.8023C9.06166 11.6982 9.02148 11.5946 8.94355 11.5138L8.93874 11.5088L0.893389 2.93298C0.893174 2.93275 0.893603 2.93321 0.893389 2.93298C0.698625 2.72651 0.567673 2.4671 0.520069 2.18691C0.472397 1.90631 0.510169 1.61869 0.627894 1.35971C0.745535 1.10091 0.93719 0.883313 1.17719 0.731613C1.41681 0.580147 1.69612 0.500235 1.97948 0.5ZM23.0204 1.5H1.97964C1.97959 1.5 1.97969 1.5 1.97964 1.5C1.88322 1.50006 1.78992 1.52733 1.71149 1.57691C1.63316 1.62641 1.57378 1.69536 1.53825 1.77352C1.50281 1.8515 1.49189 1.93672 1.50594 2.01941C1.52001 2.1022 1.55893 2.18128 1.62038 2.24634L1.62154 2.24756L9.66598 10.8224C9.92069 11.0879 10.0636 11.4409 10.0606 11.8096V21.0574C10.0618 21.1342 10.0841 21.2103 10.1266 21.278C10.1695 21.3465 10.232 21.4046 10.3091 21.4443C10.3863 21.4841 10.4743 21.5035 10.5635 21.4995C10.6523 21.4955 10.7373 21.4684 10.8095 21.4226C10.8098 21.4224 10.8101 21.4222 10.8104 21.422L14.7324 18.8933C14.7988 18.8516 14.8514 18.7955 14.8869 18.7315C14.9224 18.6676 14.9401 18.5972 14.9394 18.5266L14.9394 18.5219V11.8095C14.9364 11.4408 15.0793 11.0878 15.334 10.8224L23.3785 2.24756L23.3796 2.24634C23.4411 2.18128 23.48 2.1022 23.4941 2.01941C23.5081 1.93672 23.4972 1.8515 23.4617 1.77352C23.4262 1.69536 23.3668 1.62641 23.2885 1.57691C23.2101 1.52732 23.1168 1.50004 23.0204 1.5C23.0203 1.5 23.0204 1.5 23.0204 1.5Z" fill="#333333"/>
</svg>
