<svg width="20" height="14" viewBox="0 0 20 14" fill="none" xmlns="http://www.w3.org/2000/svg">
<path fill-rule="evenodd" clip-rule="evenodd" d="M7 1.5C5.067 1.5 3.5 3.067 3.5 5C3.5 6.933 5.067 8.5 7 8.5C8.933 8.5 10.5 6.933 10.5 5C10.5 3.067 8.933 1.5 7 1.5ZM2.5 5C2.5 2.51472 4.51472 0.5 7 0.5C9.48528 0.5 11.5 2.51472 11.5 5C11.5 7.48528 9.48528 9.5 7 9.5C4.51472 9.5 2.5 7.48528 2.5 5Z" fill="#333333"/>
<path fill-rule="evenodd" clip-rule="evenodd" d="M13.5867 1.54036C13.103 1.46482 12.609 1.49555 12.1379 1.63056C11.8724 1.70662 11.5955 1.55308 11.5195 1.28762C11.4434 1.02216 11.5969 0.745301 11.8624 0.66924C12.4731 0.494264 13.1137 0.454371 13.741 0.55234C14.3683 0.650307 14.9672 0.883773 15.4974 1.23656C16.0275 1.58932 16.4765 2.05309 16.8146 2.59617C17.1527 3.13922 17.3721 3.74916 17.4585 4.38488C17.5449 5.0206 17.4964 5.6678 17.3161 6.28304C17.1358 6.8983 16.8278 7.46771 16.4123 7.95275C15.9968 8.43781 15.4833 8.82727 14.9063 9.09439C14.3291 9.36151 13.7021 9.49993 13.0673 9.5C12.7912 9.50003 12.5673 9.2762 12.5673 9.00006C12.5672 8.72392 12.7911 8.50003 13.0672 8.5C13.5565 8.49994 14.0403 8.39328 14.4862 8.18689C14.9321 7.98048 15.3301 7.67898 15.6528 7.30218C15.9757 6.92534 16.2158 6.48199 16.3565 6.00182C16.4972 5.52162 16.5351 5.01615 16.4676 4.51958C16.4001 4.02303 16.2288 3.54738 15.9657 3.12465C15.7025 2.70195 15.3538 2.34217 14.9434 2.0691C14.533 1.79604 14.0704 1.6159 13.5867 1.54036Z" fill="#333333"/>
<path fill-rule="evenodd" clip-rule="evenodd" d="M6.49996 10.5C5.5059 10.5 4.52529 10.7512 3.64065 11.2337C2.75586 11.7164 1.99211 12.4169 1.41555 13.2781C1.26194 13.5076 0.951383 13.5691 0.721911 13.4155C0.492438 13.2619 0.430943 12.9513 0.584556 12.7219C1.24872 11.7297 2.1321 10.9175 3.16179 10.3558C4.19164 9.7941 5.33666 9.50005 6.49992 9.5C7.66318 9.49995 8.80823 9.79391 9.83812 10.3556C10.8679 10.9172 11.7513 11.7293 12.4155 12.7214C12.5692 12.9508 12.5077 13.2614 12.2782 13.415C12.0488 13.5687 11.7382 13.5072 11.5846 13.2777C11.008 12.4165 10.2442 11.7161 9.35932 11.2335C8.47465 10.751 7.49402 10.5 6.49996 10.5Z" fill="#333333"/>
<path fill-rule="evenodd" clip-rule="evenodd" d="M16.1574 11.2408C15.1831 10.7537 14.1001 10.4992 13.0003 10.5C12.7242 10.5002 12.5002 10.2765 12.5 10.0004C12.4998 9.72421 12.7235 9.50019 12.9997 9.5C14.2536 9.49913 15.4901 9.78914 16.6046 10.3464C17.7192 10.9037 18.6799 11.7123 19.404 12.7054C19.5667 12.9285 19.5177 13.2413 19.2946 13.404C19.0715 13.5667 18.7587 13.5177 18.596 13.2946C17.9677 12.4329 17.1317 11.728 16.1574 11.2408Z" fill="#333333"/>
</svg>
