<svg width="20" height="20" viewBox="0 0 20 20" fill="none" xmlns="http://www.w3.org/2000/svg">
<path fill-rule="evenodd" clip-rule="evenodd" d="M9.99943 1.5C9.91602 1.5 9.83793 1.53032 9.78 1.58149L1.59875 8.80699C1.56646 8.8355 1.54162 8.86939 1.52497 8.90596C1.50834 8.94248 1.5 8.98135 1.5 9.02022V18.2053C1.5 18.2419 1.50741 18.2786 1.52221 18.3133C1.53702 18.348 1.55914 18.3805 1.58803 18.4086C1.61695 18.4367 1.65207 18.4597 1.69174 18.4756C1.73143 18.4916 1.77445 18.5 1.81822 18.5L6.72672 18.4994C6.81571 18.4994 6.89823 18.4649 6.95685 18.4079C7.01498 18.3515 7.04486 18.278 7.04486 18.2046V13.4362C7.04486 13.0881 7.18738 12.7572 7.43612 12.5156C7.68437 12.2745 8.01805 12.1415 8.36304 12.1415H11.6358C11.9808 12.1415 12.3144 12.2745 12.5627 12.5156C12.8114 12.7572 12.9539 13.0881 12.9539 13.4362V18.2046C12.9539 18.278 12.9838 18.3515 13.0419 18.4079C13.1006 18.4649 13.1831 18.4994 13.2721 18.4994L18.1818 18.5C18.2256 18.5 18.2686 18.4916 18.3083 18.4757C18.3479 18.4597 18.3831 18.4367 18.412 18.4086C18.4409 18.3805 18.463 18.348 18.4778 18.3133C18.4926 18.2786 18.5 18.2419 18.5 18.2053V9.02025C18.5 8.98138 18.4917 8.94251 18.475 8.90598C18.4584 8.86941 18.4335 8.83552 18.4012 8.807L10.2189 1.58147C10.1609 1.53031 10.0828 1.5 9.99943 1.5ZM9.11803 0.831956C9.36131 0.6171 9.6757 0.500011 9.99939 0.5C10.3231 0.49999 10.6375 0.617058 10.8808 0.831899L19.0632 8.05743C19.1996 8.17789 19.3095 8.32557 19.3851 8.49152C19.4607 8.65753 19.5 8.83767 19.5 9.02026V18.2053C19.5 18.3774 19.4651 18.5474 19.3976 18.7056C19.3302 18.8637 19.2318 19.0064 19.1087 19.1259C18.9856 19.2455 18.8403 19.3395 18.6814 19.4034C18.5226 19.4673 18.3528 19.5 18.1817 19.5L13.272 19.4994C12.927 19.4993 12.5934 19.3663 12.3451 19.1252C12.0964 18.8836 11.9539 18.5528 11.9539 18.2046V13.4362C11.9539 13.3628 11.9241 13.2894 11.8659 13.2329C11.8073 13.176 11.7248 13.1415 11.6358 13.1415H8.36304C8.27403 13.1415 8.1915 13.176 8.13287 13.2329C8.07474 13.2894 8.04486 13.3628 8.04486 13.4362V18.2046C8.04486 18.5528 7.90236 18.8836 7.65365 19.1252C7.40543 19.3663 7.0718 19.4993 6.72684 19.4994L1.81834 19.5C1.64721 19.5 1.47743 19.4673 1.31856 19.4034C1.15967 19.3395 1.01438 19.2455 0.891324 19.1259C0.768242 19.0064 0.669806 18.8637 0.60237 18.7056C0.534918 18.5474 0.5 18.3774 0.5 18.2053V9.02022C0.5 8.83765 0.539299 8.65752 0.614888 8.49153C0.690456 8.32559 0.800387 8.17791 0.936777 8.05746L9.11803 0.831956Z" fill="#333333"/>
</svg>
