<svg width="21" height="21" viewBox="0 0 21 21" fill="none" xmlns="http://www.w3.org/2000/svg">
<path fill-rule="evenodd" clip-rule="evenodd" d="M14.3969 1.62182C13.167 1.37719 11.8923 1.50275 10.7338 1.98261C9.5753 2.46247 8.58513 3.27508 7.88848 4.31769C7.19183 5.3603 6.82 6.58607 6.82 7.84V7.84188H6.81999C6.81696 8.64933 6.97223 9.44955 7.27701 10.1973C7.35296 10.3836 7.30982 10.5973 7.16755 10.7396L1.5 16.4071V19.5H4.3V17.72C4.3 17.4439 4.52386 17.22 4.8 17.22H6.58V15.44C6.58 15.1639 6.80386 14.94 7.08 14.94H9.15289L10.2604 13.8324L10.614 14.186L10.8027 13.723C11.5505 14.0278 12.3507 14.183 13.1581 14.18L13.16 14.18C14.4139 14.18 15.6397 13.8082 16.6823 13.1115C17.7249 12.4149 18.5375 11.4247 19.0174 10.2662C19.4973 9.10773 19.6228 7.83297 19.3782 6.60313C19.1335 5.37329 18.5297 4.24361 17.6431 3.35695C16.7564 2.47028 15.6267 1.86645 14.3969 1.62182ZM10.7388 14.7683L9.71355 15.7936C9.61978 15.8873 9.49261 15.94 9.36 15.94H7.58V17.72C7.58 17.9961 7.35614 18.22 7.08 18.22H5.3V20C5.3 20.2761 5.07614 20.5 4.8 20.5H1C0.723858 20.5 0.5 20.2761 0.5 20V16.2C0.5 16.0674 0.552678 15.9402 0.646447 15.8464L6.23166 10.2612C5.95654 9.48429 5.817 8.66494 5.82 7.83906C5.82 7.83875 5.82 7.83844 5.82 7.83812L6.32 7.84H5.82C5.82 7.83969 5.82 7.83938 5.82 7.83906C5.82018 6.38768 6.25066 4.96891 7.05701 3.76212C7.86354 2.55506 9.00989 1.61427 10.3511 1.05873C11.6923 0.50318 13.1681 0.357824 14.592 0.641039C16.0158 0.924255 17.3236 1.62332 18.3502 2.64984C19.3767 3.67636 20.0757 4.98422 20.359 6.40804C20.6422 7.83186 20.4968 9.30769 19.9413 10.6489C19.3857 11.9901 18.4449 13.1365 17.2379 13.943C16.0311 14.7493 14.6124 15.1798 13.1611 15.18C13.1608 15.18 13.1604 15.18 13.16 15.18V14.68L13.1619 15.18C13.1616 15.18 13.1614 15.18 13.1611 15.18C12.3352 15.183 11.5158 15.0435 10.7388 14.7683Z" fill="#A0A0A4"/>
<path d="M15 7C15.5523 7 16 6.55228 16 6C16 5.44772 15.5523 5 15 5C14.4477 5 14 5.44772 14 6C14 6.55228 14.4477 7 15 7Z" fill="#A0A0A4"/>
</svg>
