<svg width="22" height="20" viewBox="0 0 22 20" fill="none" xmlns="http://www.w3.org/2000/svg">
<path d="M1 6.31819L0.5 6.3181V6.31819H1ZM11 4.26915L10.5371 4.45819C10.6139 4.64625 10.7969 4.76915 11 4.76915C11.2031 4.76915 11.3861 4.64625 11.4629 4.45819L11 4.26915ZM21 6.31819L21.5 6.31819L21.5 6.3181L21 6.31819ZM12.4439 18.0778L12.1621 17.6647L12.4439 18.0778ZM9.8379 17.6647C8.46986 16.7316 6.36901 15.1415 4.61528 13.1436C2.85349 11.1365 1.5 8.784 1.5 6.31819H0.5C0.5 9.1427 2.03984 11.7254 3.86375 13.8033C5.69573 15.8903 7.87294 17.5349 9.27439 18.4908L9.8379 17.6647ZM1.5 6.31827C1.50018 5.20164 1.87858 4.12098 2.5687 3.25989L1.78839 2.6345C0.954724 3.67469 0.500222 4.97637 0.5 6.3181L1.5 6.31827ZM2.5687 3.25989C3.25864 2.39902 4.217 1.8112 5.27955 1.59348L5.07882 0.613829C3.78448 0.879043 2.62223 1.59408 1.78839 2.6345L2.5687 3.25989ZM5.27955 1.59348C6.34197 1.37578 7.44572 1.54091 8.40378 2.06193L8.88153 1.18343C7.71725 0.550267 6.3733 0.348586 5.07882 0.613829L5.27955 1.59348ZM8.40378 2.06193C9.3621 2.58308 10.1168 3.42904 10.5371 4.45819L11.4629 4.08012C10.9568 2.84081 10.0456 1.81645 8.88153 1.18343L8.40378 2.06193ZM11.4629 4.45819C11.8832 3.42903 12.6379 2.58309 13.5962 2.06193L13.1185 1.18343C11.9544 1.81646 11.0432 2.84081 10.5371 4.08012L11.4629 4.45819ZM13.5962 2.06193C14.5543 1.54091 15.658 1.37578 16.7204 1.59348L16.9212 0.613829C15.6267 0.348587 14.2827 0.550269 13.1185 1.18343L13.5962 2.06193ZM16.7204 1.59348C17.783 1.8112 18.7414 2.39902 19.4313 3.25989L20.2116 2.6345C19.3778 1.59408 18.2155 0.879042 16.9212 0.613829L16.7204 1.59348ZM19.4313 3.25989C20.1214 4.12098 20.4998 5.20164 20.5 6.31827L21.5 6.3181C21.4998 4.97637 21.0453 3.67469 20.2116 2.6345L19.4313 3.25989ZM20.5 6.31819C20.5 8.784 19.1465 11.1365 17.3847 13.1436C15.631 15.1415 13.5301 16.7316 12.1621 17.6647L12.7256 18.4908C14.1271 17.5349 16.3043 15.8903 18.1363 13.8033C19.9602 11.7254 21.5 9.14271 21.5 6.31819H20.5ZM9.27439 18.4908C10.3236 19.2065 11.6764 19.2065 12.7256 18.4908L12.1621 17.6647C11.4528 18.1486 10.5472 18.1486 9.8379 17.6647L9.27439 18.4908Z" fill="#333333"/>
</svg>
