<svg width="40" height="40" viewBox="0 0 40 40" fill="none" xmlns="http://www.w3.org/2000/svg">
<path d="M21.6842 37.4983C20.6842 37.4983 19.1342 37.015 17.6508 34.5816L14.7174 29.8316C14.4341 29.365 13.5674 28.915 13.0341 28.9483L7.4674 29.2316C4.13406 29.3983 2.96746 28.015 2.5508 27.1816C2.13413 26.3483 1.7674 24.565 3.93406 22.0316L7.23413 18.1983C7.56746 17.7983 7.75075 16.9316 7.60075 16.4316L5.9174 11.0483C5.0674 8.34826 6.01741 6.89828 6.65075 6.26495C7.28408 5.63161 8.75075 4.71492 11.4507 5.61491L16.3674 7.23158C16.8175 7.38158 17.6508 7.24826 18.0342 6.9816L23.1675 3.2816C25.5175 1.58159 27.2173 2.0316 28.0007 2.44826C28.784 2.86493 30.1173 3.99828 30.0673 6.89828L29.9507 13.2149C29.934 13.6816 30.3173 14.4482 30.684 14.7316L34.8175 17.865C37.0675 19.5816 37.1508 21.2983 37.0008 22.1816C36.8508 23.065 36.1842 24.665 33.4842 25.4983L28.1007 27.1816C27.6007 27.3316 26.984 27.9816 26.8507 28.4816L25.5675 33.3816C24.7175 36.5983 23.0508 37.315 22.1175 37.4483C22.0008 37.4816 21.8508 37.4983 21.6842 37.4983ZM13.084 26.4483C14.5174 26.4483 16.1007 27.315 16.834 28.515L19.7673 33.265C20.6007 34.6316 21.3507 35.0483 21.7507 34.9816C22.134 34.9316 22.7342 34.2983 23.1508 32.765L24.434 27.865C24.784 26.5316 26.034 25.215 27.3507 24.815L32.7342 23.1316C33.7675 22.815 34.434 22.2983 34.534 21.765C34.634 21.2316 34.1673 20.5316 33.3007 19.865L29.1675 16.7316C28.1508 15.9649 27.4175 14.4316 27.4342 13.1649L27.5508 6.84823C27.5675 5.73156 27.3008 4.89826 26.8175 4.64826C26.3342 4.39826 25.5175 4.64825 24.6008 5.29825L19.4673 8.99825C18.4507 9.73158 16.7675 9.99828 15.5508 9.59828L10.6341 7.9816C9.60076 7.64826 8.76746 7.6649 8.38413 8.04823C8.0008 8.43156 7.96738 9.26491 8.28405 10.2982L9.9674 15.6816C10.3841 16.9983 10.0174 18.7816 9.11738 19.815L5.81741 23.6483C4.76741 24.865 4.60075 25.715 4.78408 26.065C4.95075 26.415 5.7508 26.7983 7.33413 26.715L12.9007 26.4316C12.9674 26.4483 13.034 26.4483 13.084 26.4483Z" fill="white"/>
<path d="M36.5175 37.9169C36.2008 37.9169 35.8842 37.8003 35.6342 37.5503L30.5842 32.5003C30.1008 32.0169 30.1008 31.2169 30.5842 30.7336C31.0675 30.2503 31.8675 30.2503 32.3508 30.7336L37.4008 35.7836C37.8842 36.2669 37.8842 37.0669 37.4008 37.5503C37.1508 37.8003 36.8342 37.9169 36.5175 37.9169Z" fill="white"/>
</svg>
