<svg width="13" height="17" viewBox="0 0 13 17" fill="none" xmlns="http://www.w3.org/2000/svg">
<path fill-rule="evenodd" clip-rule="evenodd" d="M7.5 4.5C6.39543 4.5 5.5 5.39543 5.5 6.5C5.5 7.60457 6.39543 8.5 7.5 8.5C8.60457 8.5 9.5 7.60457 9.5 6.5C9.5 5.39543 8.60457 4.5 7.5 4.5ZM4.5 6.5C4.5 4.84315 5.84315 3.5 7.5 3.5C9.15685 3.5 10.5 4.84315 10.5 6.5C10.5 8.15685 9.15685 9.5 7.5 9.5C5.84315 9.5 4.5 8.15685 4.5 6.5Z" fill="#333333"/>
<path fill-rule="evenodd" clip-rule="evenodd" d="M6.5 1.5C5.18184 1.5 3.91254 2.04905 2.97281 3.03478C2.03231 4.02132 1.5 5.36424 1.5 6.76923C1.5 9.19354 2.78902 11.3891 4.13493 13.0126C4.80269 13.8181 5.47153 14.4672 5.97337 14.9147C6.18269 15.1013 6.36237 15.2523 6.5 15.3644C6.63763 15.2523 6.81731 15.1013 7.02663 14.9147C7.52847 14.4672 8.19732 13.8181 8.86507 13.0126C10.211 11.3891 11.5 9.19354 11.5 6.76923C11.5 5.36424 10.9677 4.02132 10.0272 3.03478C9.08746 2.04905 7.81816 1.5 6.5 1.5ZM6.5 16C6.20407 16.403 6.20393 16.4029 6.20377 16.4028L6.20334 16.4025L6.2021 16.4016L6.19814 16.3986L6.18435 16.3884C6.1726 16.3795 6.15579 16.3669 6.13425 16.3504C6.09117 16.3174 6.02916 16.2692 5.95092 16.2064C5.79449 16.081 5.5729 15.8974 5.30788 15.6611C4.77847 15.189 4.07232 14.504 3.36507 13.6508C1.96098 11.9571 0.5 9.53723 0.5 6.76923C0.5 5.11403 1.12662 3.5221 2.24902 2.34476C3.37219 1.16661 4.90078 0.5 6.5 0.5C8.09922 0.5 9.62781 1.16661 10.751 2.34476C11.8734 3.5221 12.5 5.11403 12.5 6.76923C12.5 9.53723 11.039 11.9571 9.63493 13.6508C8.92769 14.504 8.22153 15.189 7.69212 15.6611C7.4271 15.8974 7.20551 16.081 7.04908 16.2064C6.97084 16.2692 6.90883 16.3174 6.86575 16.3504C6.84421 16.3669 6.8274 16.3795 6.81565 16.3884L6.80186 16.3986L6.7979 16.4016L6.79666 16.4025L6.79623 16.4028C6.79607 16.4029 6.79593 16.403 6.5 16ZM6.5 16L6.79593 16.403C6.61983 16.5323 6.38017 16.5323 6.20407 16.403L6.5 16Z" fill="#333333"/>
</svg>
