<svg width="22" height="20" viewBox="0 0 22 20" fill="none" xmlns="http://www.w3.org/2000/svg">
<path fill-rule="evenodd" clip-rule="evenodd" d="M8.76909 4.55651C8.93446 4.47041 9.134 4.48347 9.28673 4.59039L14.2867 8.09039C14.4204 8.18395 14.5 8.33684 14.5 8.5C14.5 8.66316 14.4204 8.81605 14.2867 8.90962L9.28673 12.4096C9.134 12.5165 8.93446 12.5296 8.76909 12.4435C8.60373 12.3574 8.5 12.1864 8.5 12V5C8.5 4.81356 8.60373 4.64261 8.76909 4.55651ZM9.5 5.96033V11.0397L13.1281 8.5L9.5 5.96033Z" fill="#333333"/>
<path fill-rule="evenodd" clip-rule="evenodd" d="M19.3333 15.5C19.9777 15.5 20.5 14.9777 20.5 14.3333V2.66667C20.5 2.02234 19.9777 1.5 19.3333 1.5L2.66667 1.5C2.02234 1.5 1.5 2.02234 1.5 2.66667V14.3333C1.5 14.9777 2.02234 15.5 2.66667 15.5L19.3333 15.5ZM21.5 14.3333C21.5 15.53 20.53 16.5 19.3333 16.5L2.66667 16.5C1.47005 16.5 0.5 15.53 0.5 14.3333V2.66667C0.5 1.47005 1.47005 0.5 2.66667 0.5L19.3333 0.5C20.53 0.5 21.5 1.47005 21.5 2.66667V14.3333Z" fill="#333333"/>
<path fill-rule="evenodd" clip-rule="evenodd" d="M7.5 19C7.5 18.7239 7.72386 18.5 8 18.5H15C15.2761 18.5 15.5 18.7239 15.5 19C15.5 19.2761 15.2761 19.5 15 19.5H8C7.72386 19.5 7.5 19.2761 7.5 19Z" fill="#333333"/>
</svg>
