<svg width="44" height="44" viewBox="0 0 44 44" fill="none" xmlns="http://www.w3.org/2000/svg">
<path d="M28.1498 20.3454C28.6469 20.2631 29.007 19.8558 28.9999 19.3836V17.2595C29.0022 16.9031 28.853 16.5604 28.5854 16.3069C28.3181 16.0532 27.9539 15.9091 27.573 15.9062H25.5463C25.3715 15.1794 24.8519 14.5669 24.1348 14.243C23.4178 13.919 22.5821 13.919 21.8652 14.243C21.1482 14.5669 20.6285 15.1794 20.4537 15.9062H18.427C18.0461 15.9091 17.6819 16.0532 17.4146 16.3069C17.147 16.5604 16.9979 16.9031 17.0001 17.2595V19.3836C16.9931 19.8558 17.3531 20.2631 17.8502 20.3454C18.2813 20.4258 18.6481 20.6894 18.8426 21.0582C19.0369 21.4272 19.0369 21.8599 18.8426 22.2289C18.6484 22.598 18.2816 22.8615 17.8505 22.942C17.3531 23.0238 16.9927 23.4313 17.0001 23.9038V25.6465C16.9979 26.0029 17.147 26.3456 17.4143 26.5993C17.6819 26.8531 18.0462 26.9971 18.427 27H27.5729C27.9538 26.9971 28.3181 26.8531 28.5857 26.5993C28.8529 26.3455 29.0021 26.0028 28.9998 25.6465V23.9038C29.0072 23.4313 28.6471 23.0241 28.1498 22.9423C27.7187 22.8615 27.3518 22.5983 27.1573 22.2292C26.9631 21.8601 26.9631 21.4275 27.1573 21.0585C27.3519 20.6894 27.7187 20.4259 28.1498 20.3454H28.1498ZM27.7368 24.0676V25.6464C27.7419 25.7361 27.6688 25.8126 27.573 25.8181H18.4271C18.3313 25.8126 18.2582 25.7361 18.2633 25.6464V24.0678C19.0293 23.8761 19.6652 23.3767 20.0004 22.7045C20.3353 22.0321 20.3353 21.2554 20.0004 20.583C19.6651 19.9106 19.0293 19.4115 18.2633 19.2195V17.2595C18.2582 17.1701 18.3313 17.0933 18.4271 17.088H20.6427C21.1488 17.0917 21.5819 16.7485 21.6616 16.2808C21.7189 15.8719 21.9856 15.5152 22.3764 15.3248C22.7671 15.1343 23.2329 15.1343 23.6237 15.3248C24.0145 15.5153 24.2812 15.8719 24.3384 16.2808C24.4182 16.7485 24.8513 17.0917 25.3574 17.088H27.5729C27.6688 17.0933 27.7418 17.17 27.7367 17.2595V19.2195C26.971 19.4115 26.3349 19.9106 25.9997 20.583C25.6647 21.2552 25.6647 22.0318 25.9997 22.7042C26.3349 23.3766 26.971 23.8758 27.7367 24.0676H27.7368Z" fill="#585F66"/>
<path d="M7.37242 22H4.62758C4.28101 22 4 22.2239 4 22.5C4 22.7761 4.28101 23 4.62758 23H7.37242C7.71899 23 8 22.7761 8 22.5C8 22.2239 7.71899 22 7.37242 22Z" fill="#585F66"/>
<path d="M22.5 7C22.7761 7 23 6.743 23 6.42604V3.57396C23 3.257 22.7761 3 22.5 3C22.2239 3 22 3.257 22 3.57396V6.42604C22 6.743 22.2239 7 22.5 7Z" fill="#585F66"/>
<path d="M15.9441 7.60413C16.0522 7.91387 16.36 8.0739 16.6419 7.96676C16.9246 7.85204 17.0699 7.50323 16.9669 7.18805L16.0559 4.3987C15.9526 4.08407 15.6403 3.92214 15.3581 4.03688C15.0759 4.15187 14.9303 4.49987 15.0329 4.81504L15.9441 7.60413Z" fill="#585F66"/>
<path d="M11.4111 11C11.5539 11.0017 11.6925 10.9545 11.8 10.8677C12.0444 10.6688 12.068 10.3247 11.8532 10.0987L10.0314 8.18499C9.81656 7.95908 9.44417 7.93695 9.19983 8.13587C8.95577 8.33454 8.93184 8.67863 9.14696 8.90455L10.9687 10.8185C11.0818 10.9343 11.2425 11.0002 11.4111 11L11.4111 11Z" fill="#585F66"/>
<path d="M8.61958 15.025L5.943 14.0484V14.0486C5.61238 13.9285 5.21847 14.0387 5.06322 14.295C4.90767 14.5511 5.04903 14.8565 5.37906 14.9778L8.05564 15.9544H8.05534C8.38685 16.069 8.77573 15.9604 8.93694 15.7084C9.01175 15.5851 9.02033 15.4439 8.96089 15.3157C8.90145 15.1876 8.77873 15.083 8.61962 15.025L8.61958 15.025Z" fill="#585F66"/>
<path d="M40.3724 22H37.6276C37.281 22 37 22.2239 37 22.5C37 22.7761 37.281 23 37.6276 23H40.3724C40.719 23 41 22.7761 41 22.5C41 22.2239 40.719 22 40.3724 22Z" fill="#585F66"/>
<path d="M39.937 14.295C39.7812 14.0384 39.3868 13.9283 39.056 14.0489L36.3804 15.0259V15.0257C36.0496 15.1465 35.9074 15.4525 36.0632 15.7091C36.2258 15.96 36.613 16.0682 36.9442 15.9554L39.6198 14.9784C39.7788 14.9204 39.9015 14.8158 39.9609 14.6876C40.0203 14.5594 40.0118 14.4182 39.937 14.295V14.295Z" fill="#585F66"/>
<path d="M34.9686 8.18508L33.1468 10.1001V10.0998C32.932 10.3258 32.9556 10.6701 33.2 10.8692C33.4466 11.0611 33.813 11.0395 34.0313 10.82L35.853 8.90502C36.0682 8.679 36.0442 8.33473 35.8002 8.13594C35.5559 7.93692 35.1835 7.95906 34.9686 8.18508L34.9686 8.18508Z" fill="#585F66"/>
<path d="M28.3581 7.96512C28.6403 8.07574 28.9502 7.9147 29.0559 7.60263L29.9671 4.8147C30.0697 4.49966 29.9241 4.15181 29.6419 4.03686C29.3597 3.92218 29.0474 4.08403 28.9441 4.39853L28.0329 7.18646L28.0331 7.18673C27.9301 7.50178 28.0756 7.85044 28.3581 7.96513L28.3581 7.96512Z" fill="#585F66"/>
<path d="M25.8289 38.3767C25.8289 38.0433 25.5579 37.7729 25.2236 37.7729H19.996C19.733 37.7686 19.5142 37.5697 19.4858 37.3088C19.1683 34.7132 17.9967 32.0421 16.0974 29.5848C15.343 28.6094 14.4648 27.7267 13.7953 26.6874C12.7596 25.0817 12.2094 23.2128 12.2105 21.3037C12.2105 15.7367 16.8265 11.2075 22.5 11.2075C28.1736 11.2075 32.7895 15.7365 32.7895 21.3037C32.79 23.1457 32.2777 24.9519 31.3098 26.5208C31.1361 26.8025 30.9483 27.0728 30.7548 27.3402C31.1707 27.4267 31.5765 27.555 31.9664 27.7229C32.0948 27.5361 32.221 27.3475 32.3407 27.1534C33.4261 25.3941 34.0006 23.3691 34 21.3037C34 15.071 28.8412 10 22.5 10C16.1588 10 11 15.0707 11 21.3037C10.9989 23.4441 11.6155 25.5397 12.7769 27.3399C13.4659 28.4094 14.3631 29.3186 15.1388 30.322C16.9054 32.608 17.9933 35.0745 18.2843 37.4553V37.4556C18.3524 38.0079 18.6823 38.4941 19.1711 38.7626V40.2196C19.1819 40.7016 19.384 41.1595 19.7329 41.4932C20.0815 41.8269 20.5486 42.0091 21.0317 41.9996H23.9683C24.4515 42.0091 24.9186 41.8269 25.2672 41.4932C25.616 41.1595 25.8182 40.7015 25.829 40.2196L25.8289 38.3767ZM24.6184 40.2192C24.5957 40.5556 24.3057 40.8111 23.9683 40.7917H21.0317C20.6942 40.8111 20.4042 40.5556 20.3815 40.2192V38.9804H24.6184L24.6184 40.2192Z" fill="#585F66"/>
<path d="M29 28C27.6738 28 26.402 28.5268 25.4645 29.4645C24.5268 30.402 24 31.6738 24 33C24 34.3262 24.5268 35.598 25.4645 36.5355C26.402 37.4732 27.6738 38 29 38C30.3262 38 31.598 37.4732 32.5355 36.5355C33.4732 35.598 34 34.3262 34 33C33.9984 31.6744 33.4714 30.4034 32.5338 29.4662C31.5966 28.5287 30.3256 28.0016 29 28ZM29 36.8235C27.9858 36.8235 27.0134 36.4207 26.2965 35.7035C25.5793 34.9866 25.1765 34.0142 25.1765 33C25.1765 31.9858 25.5793 31.0134 26.2965 30.2965C27.0134 29.5793 27.9858 29.1765 29 29.1765C30.0142 29.1765 30.9866 29.5793 31.7035 30.2965C32.4207 31.0134 32.8235 31.9858 32.8235 33C32.8225 34.0136 32.4191 34.9855 31.7025 35.7025C30.9855 36.4191 30.0136 36.8225 29 36.8235Z" fill="#585F66"/>
<path d="M31.0364 32.0958L28.68 33.549L28.1723 32.6645C28.0923 32.5252 27.9578 32.4218 27.7986 32.3776C27.6393 32.3334 27.4683 32.3516 27.323 32.4285C27.178 32.5054 27.0706 32.6345 27.0245 32.7875C26.9785 32.9404 26.9978 33.1049 27.0778 33.2442L27.9082 34.6908C27.9916 34.8362 28.1341 34.9418 28.3018 34.9825C28.4697 35.0219 28.6468 34.9943 28.793 34.9059L31.7114 33.1057C31.8514 33.0197 31.9499 32.8842 31.9856 32.7286C32.021 32.5727 31.9906 32.4098 31.9008 32.2758C31.8112 32.1416 31.6695 32.0473 31.5075 32.0136C31.3452 31.9798 31.1758 32.0096 31.0364 32.0958L31.0364 32.0958Z" fill="#585F66"/>
</svg>
