<svg width="40" height="40" viewBox="0 0 40 40" fill="none" xmlns="http://www.w3.org/2000/svg">
<path d="M29.9969 11.934C29.8969 11.9173 29.7802 11.9173 29.6802 11.934C27.3802 11.8506 25.5469 9.96732 25.5469 7.63398C25.5469 5.25065 27.4635 3.33398 29.8469 3.33398C32.2302 3.33398 34.1469 5.26732 34.1469 7.63398C34.1302 9.96732 32.2969 11.8506 29.9969 11.934Z" stroke="white" stroke-width="2" stroke-linecap="round" stroke-linejoin="round"/>
<path d="M28.2795 24.0676C30.5628 24.451 33.0795 24.051 34.8462 22.8676C37.1962 21.301 37.1962 18.7343 34.8462 17.1676C33.0628 15.9842 30.5128 15.5842 28.2295 15.9842" stroke="white" stroke-width="2" stroke-linecap="round" stroke-linejoin="round"/>
<path d="M9.94394 11.934C10.0439 11.9173 10.1606 11.9173 10.2606 11.934C12.5606 11.8506 14.3939 9.96732 14.3939 7.63398C14.3939 5.25065 12.4773 3.33398 10.0939 3.33398C7.71061 3.33398 5.79395 5.26732 5.79395 7.63398C5.81061 9.96732 7.64394 11.8506 9.94394 11.934Z" stroke="white" stroke-width="2" stroke-linecap="round" stroke-linejoin="round"/>
<path d="M11.6622 24.0676C9.37884 24.451 6.86217 24.051 5.09551 22.8676C2.74551 21.301 2.74551 18.7343 5.09551 17.1676C6.87884 15.9842 9.42884 15.5842 11.7122 15.9842" stroke="white" stroke-width="2" stroke-linecap="round" stroke-linejoin="round"/>
<path d="M19.9968 24.3813C19.8968 24.3647 19.7802 24.3647 19.6802 24.3813C17.3802 24.298 15.5469 22.4147 15.5469 20.0813C15.5469 17.698 17.4635 15.7812 19.8468 15.7812C22.2302 15.7812 24.1468 17.7147 24.1468 20.0813C24.1302 22.4147 22.2968 24.3147 19.9968 24.3813Z" stroke="white" stroke-width="2" stroke-linecap="round" stroke-linejoin="round"/>
<path d="M15.1482 29.6316C12.7982 31.1983 12.7982 33.765 15.1482 35.3316C17.815 37.115 22.1815 37.115 24.8482 35.3316C27.1982 33.765 27.1982 31.1983 24.8482 29.6316C22.1982 27.865 17.815 27.865 15.1482 29.6316Z" stroke="white" stroke-width="2" stroke-linecap="round" stroke-linejoin="round"/>
</svg>
