<svg width="22" height="22" viewBox="0 0 22 22" fill="none" xmlns="http://www.w3.org/2000/svg">
<path fill-rule="evenodd" clip-rule="evenodd" d="M11 1.5C5.75329 1.5 1.5 5.75329 1.5 11C1.5 16.2467 5.75329 20.5 11 20.5C16.2467 20.5 20.5 16.2467 20.5 11C20.5 5.75329 16.2467 1.5 11 1.5ZM0.5 11C0.5 5.20101 5.20101 0.5 11 0.5C16.799 0.5 21.5 5.20101 21.5 11C21.5 16.799 16.799 21.5 11 21.5C5.20101 21.5 0.5 16.799 0.5 11Z" fill="#333333"/>
<path d="M11 17C11.5523 17 12 16.5523 12 16C12 15.4477 11.5523 15 11 15C10.4477 15 10 15.4477 10 16C10 16.5523 10.4477 17 11 17Z" fill="black"/>
<path fill-rule="evenodd" clip-rule="evenodd" d="M9.65722 5.7726C10.298 5.50164 11.0038 5.43057 11.6848 5.56885C12.3657 5.70711 12.9897 6.04812 13.4785 6.5471C13.9672 7.04596 14.2989 7.68032 14.4331 8.36941C14.5674 9.05846 14.4986 9.77278 14.2349 10.4225C13.9713 11.0722 13.5241 11.6293 12.9485 12.0219C12.512 12.3197 12.0167 12.5126 11.5 12.5885V13C11.5 13.2761 11.2761 13.5 11 13.5C10.7239 13.5 10.5 13.2761 10.5 13V12.125C10.5 11.9924 10.5527 11.8652 10.6464 11.7714C10.7402 11.6777 10.8674 11.625 11 11.625C11.4921 11.625 11.9741 11.4761 12.385 11.1958C12.796 10.9155 13.1179 10.5159 13.3083 10.0465C13.4988 9.57696 13.5488 9.05975 13.4516 8.56067C13.3543 8.06163 13.1146 7.60461 12.7641 7.24688C12.4138 6.88926 11.9687 6.64692 11.4858 6.54885C11.0029 6.45079 10.5022 6.50102 10.0467 6.69364C9.59102 6.88632 9.19989 7.21332 8.92394 7.6349C8.64793 8.05659 8.5 8.55342 8.5 9.0625C8.5 9.33864 8.27614 9.5625 8 9.5625C7.72386 9.5625 7.5 9.33864 7.5 9.0625C7.5 8.36017 7.70397 7.6728 8.08724 7.08724C8.47059 6.50157 9.01653 6.04351 9.65722 5.7726Z" fill="#333333"/>
</svg>
