<svg width="40" height="40" viewBox="0 0 40 40" fill="none" xmlns="http://www.w3.org/2000/svg">
<path d="M19.9968 37.9146C11.3302 37.9146 4.29688 30.8646 4.29688 22.2146C4.29688 13.5647 11.3302 6.49805 19.9968 6.49805C21.7802 6.49805 23.5135 6.74805 25.1802 7.26471C25.8468 7.46471 26.2135 8.16471 26.0135 8.83138C25.8135 9.49805 25.1135 9.86471 24.4468 9.66471C23.0302 9.23138 21.5302 8.99805 19.9968 8.99805C12.7136 8.99805 6.79688 14.9147 6.79688 22.198C6.79688 29.4813 12.7136 35.398 19.9968 35.398C27.2802 35.398 33.1968 29.4813 33.1968 22.198C33.1968 19.5646 32.4302 17.0313 30.9802 14.8647C30.5968 14.298 30.7468 13.5147 31.3302 13.1314C31.8968 12.748 32.6802 12.898 33.0635 13.4814C34.7968 16.0647 35.7135 19.0813 35.7135 22.2146C35.6968 30.8646 28.6635 37.9146 19.9968 37.9146Z" fill="white"/>
<path d="M26.8811 10.1164C26.5311 10.1164 26.1811 9.96636 25.9311 9.68303L21.1145 4.1497C20.6645 3.63303 20.7145 2.83303 21.2311 2.38303C21.7478 1.93303 22.5478 1.98303 22.9978 2.4997L27.8145 8.03303C28.2645 8.5497 28.2145 9.3497 27.6978 9.7997C27.4811 10.0164 27.1811 10.1164 26.8811 10.1164Z" fill="white"/>
<path d="M21.2667 14.2147C20.8834 14.2147 20.5 14.0314 20.25 13.6981C19.85 13.1481 19.9667 12.3647 20.5167 11.9481L26.1334 7.84806C26.6834 7.43139 27.4667 7.56472 27.8834 8.11472C28.3 8.66472 28.1667 9.44805 27.6167 9.86472L22 13.9814C21.7834 14.1481 21.5334 14.2147 21.2667 14.2147Z" fill="white"/>
</svg>
