<svg width="9" height="12" viewBox="0 0 9 12" fill="none" xmlns="http://www.w3.org/2000/svg">
<path d="M0 7.80765V6.81565H4.432V7.80765H0ZM0 9.74365V8.86365H5.328V9.74365H0ZM1.408 11.9996V0.639648H5.312C5.83467 0.639648 6.304 0.740982 6.72 0.943648C7.136 1.14631 7.488 1.42365 7.776 1.77565C8.07467 2.11698 8.29867 2.50098 8.448 2.92765C8.608 3.34365 8.688 3.77032 8.688 4.20765C8.688 4.82632 8.56 5.41298 8.304 5.96765C8.048 6.51165 7.67467 6.95432 7.184 7.29565C6.704 7.63698 6.11733 7.80765 5.424 7.80765H2.528V11.9996H1.408ZM2.528 6.81565H5.36C5.88267 6.81565 6.304 6.69298 6.624 6.44765C6.95467 6.20232 7.19467 5.88232 7.344 5.48765C7.49333 5.09298 7.568 4.66632 7.568 4.20765C7.568 3.73832 7.47733 3.30632 7.296 2.91165C7.12533 2.51698 6.864 2.20765 6.512 1.98365C6.17067 1.74898 5.74933 1.63165 5.248 1.63165H2.528V6.81565Z" fill="#333333"/>
</svg>
