<svg width="26" height="26" viewBox="0 0 26 26" fill="none" xmlns="http://www.w3.org/2000/svg">
<path fill-rule="evenodd" clip-rule="evenodd" d="M10.5 4C10.5 3.72386 10.7239 3.5 11 3.5H14C14.2761 3.5 14.5 3.72386 14.5 4C14.5 4.27614 14.2761 4.5 14 4.5H11C10.7239 4.5 10.5 4.27614 10.5 4Z" fill="#333333"/>
<path fill-rule="evenodd" clip-rule="evenodd" d="M10.5 22C10.5 21.7239 10.7239 21.5 11 21.5H14C14.2761 21.5 14.5 21.7239 14.5 22C14.5 22.2761 14.2761 22.5 14 22.5H11C10.7239 22.5 10.5 22.2761 10.5 22Z" fill="#333333"/>
<path fill-rule="evenodd" clip-rule="evenodd" d="M18.5 4C18.5 3.72386 18.7239 3.5 19 3.5H21.25C21.5815 3.5 21.8995 3.6317 22.1339 3.86612C22.3683 4.10054 22.5 4.41849 22.5 4.75001V7C22.5 7.27614 22.2761 7.5 22 7.5C21.7239 7.5 21.5 7.27614 21.5 7V4.75001C21.5 4.6837 21.4737 4.62011 21.4268 4.57322C21.3799 4.52634 21.3163 4.5 21.25 4.5H19C18.7239 4.5 18.5 4.27614 18.5 4Z" fill="#333333"/>
<path fill-rule="evenodd" clip-rule="evenodd" d="M22 10.5C22.2761 10.5 22.5 10.7239 22.5 11V14C22.5 14.2761 22.2761 14.5 22 14.5C21.7239 14.5 21.5 14.2761 21.5 14V11C21.5 10.7239 21.7239 10.5 22 10.5Z" fill="#333333"/>
<path fill-rule="evenodd" clip-rule="evenodd" d="M22 18.5C22.2761 18.5 22.5 18.7239 22.5 19V21.25C22.5 21.5815 22.3683 21.8995 22.1339 22.1339C21.8995 22.3683 21.5815 22.5 21.25 22.5H19C18.7239 22.5 18.5 22.2761 18.5 22C18.5 21.7239 18.7239 21.5 19 21.5H21.25C21.3163 21.5 21.3799 21.4737 21.4268 21.4268C21.4737 21.3799 21.5 21.3163 21.5 21.25V19C21.5 18.7239 21.7239 18.5 22 18.5Z" fill="#333333"/>
<path fill-rule="evenodd" clip-rule="evenodd" d="M4 10.5C4.27614 10.5 4.5 10.7239 4.5 11V14C4.5 14.2761 4.27614 14.5 4 14.5C3.72386 14.5 3.5 14.2761 3.5 14V11C3.5 10.7239 3.72386 10.5 4 10.5Z" fill="#333333"/>
<path fill-rule="evenodd" clip-rule="evenodd" d="M4 18.5C4.27614 18.5 4.5 18.7239 4.5 19V21.25C4.5 21.3163 4.52634 21.3799 4.57322 21.4268C4.6201 21.4737 4.68369 21.5 4.75 21.5H7C7.27614 21.5 7.5 21.7239 7.5 22C7.5 22.2761 7.27614 22.5 7 22.5H4.75C4.41848 22.5 4.10054 22.3683 3.86612 22.1339C3.6317 21.8995 3.5 21.5815 3.5 21.25V19C3.5 18.7239 3.72386 18.5 4 18.5Z" fill="#333333"/>
<path fill-rule="evenodd" clip-rule="evenodd" d="M3.86611 3.86612C4.10053 3.6317 4.41848 3.5 4.75 3.5H7C7.27614 3.5 7.5 3.72386 7.5 4C7.5 4.27614 7.27614 4.5 7 4.5H4.75C4.6837 4.5 4.62011 4.52634 4.57323 4.57322C4.52634 4.62011 4.5 4.6837 4.5 4.75001V7C4.5 7.27614 4.27614 7.5 4 7.5C3.72386 7.5 3.5 7.27614 3.5 7V4.75001C3.5 4.41849 3.6317 4.10054 3.86611 3.86612Z" fill="#333333"/>
</svg>
