<svg width="25" height="22" viewBox="0 0 25 22" fill="none" xmlns="http://www.w3.org/2000/svg">
<path d="M8.5 22C9.32843 22 10 21.3284 10 20.5C10 19.6716 9.32843 19 8.5 19C7.67157 19 7 19.6716 7 20.5C7 21.3284 7.67157 22 8.5 22Z" fill="#333333"/>
<path d="M20.5 22C21.3284 22 22 21.3284 22 20.5C22 19.6716 21.3284 19 20.5 19C19.6716 19 19 19.6716 19 20.5C19 21.3284 19.6716 22 20.5 22Z" fill="#333333"/>
<path fill-rule="evenodd" clip-rule="evenodd" d="M0.5 1C0.5 0.723858 0.723858 0.5 1 0.5H2.81047C3.11028 0.5 3.4001 0.600936 3.63615 0.784759C3.87191 0.96836 4.04069 1.22405 4.12019 1.51134L5.07026 4.94444H24C24.1562 4.94444 24.3034 5.01741 24.3979 5.14169C24.4925 5.26597 24.5235 5.42729 24.4819 5.5778L21.6408 15.844C21.5099 16.317 21.2326 16.7361 20.8474 17.036C20.462 17.3361 19.9902 17.5 19.5033 17.5H9.18655C8.69964 17.5 8.22781 17.3361 7.8424 17.036C7.45728 16.7361 7.17989 16.317 7.04899 15.844L4.21097 5.5887C4.20885 5.58168 4.20689 5.57459 4.20509 5.56745L3.15642 1.77805C3.13312 1.69387 3.0847 1.62278 3.02172 1.57373C2.95903 1.52491 2.88484 1.5 2.81047 1.5H1C0.723858 1.5 0.5 1.27614 0.5 1ZM5.347 5.94444L8.01277 15.5773C8.08746 15.8472 8.24448 16.0817 8.45683 16.247C8.66889 16.4122 8.92508 16.5 9.18655 16.5H19.5033C19.7648 16.5 20.0209 16.4122 20.233 16.247C20.4454 16.0817 20.6024 15.8472 20.6771 15.5773L23.3428 5.94444H5.347Z" fill="#333333"/>
</svg>
