<svg width="29" height="30" viewBox="0 0 29 30" fill="none" xmlns="http://www.w3.org/2000/svg">
<path fill-rule="evenodd" clip-rule="evenodd" d="M20.4666 8.18555C18.9392 6.70848 16.901 5.9038 14.7921 5.93687C10.9331 5.93687 7.65561 8.57685 6.48701 12.1317C5.86739 13.9946 5.86739 16.0119 6.48701 17.8748H6.49243C7.66646 21.4241 10.9385 24.0641 14.7976 24.0641C16.7896 24.0641 18.4998 23.5475 19.8252 22.6349V22.6312C21.3851 21.584 22.4505 19.9361 22.782 18.0732H14.7921V12.2972H28.7445C28.9185 13.3003 29 14.3254 29 15.345C29 19.9072 27.3921 23.7643 24.5945 26.3767L24.5974 26.379C22.1461 28.6717 18.7816 30 14.7921 30C9.19921 30 4.0846 26.8033 1.5735 21.7383C-0.524505 17.5 -0.5245 12.5066 1.57352 8.26826C4.08462 3.1977 9.19921 0.0010108 14.7921 0.0010108C18.4664 -0.043081 22.0156 1.35683 24.6898 3.90314L20.4666 8.18555Z" fill="#AAB9ED"/>
</svg>
