<svg width="30" height="30" viewBox="0 0 30 30" fill="none" xmlns="http://www.w3.org/2000/svg">
<path fill-rule="evenodd" clip-rule="evenodd" d="M2.10883 2.10883C0 4.21766 0 7.61175 0 14.4V15.6C0 22.3883 0 25.7823 2.10883 27.8912C4.21766 30 7.61175 30 14.4 30H15.6C22.3883 30 25.7823 30 27.8912 27.8912C30 25.7823 30 22.3883 30 15.6V14.4C30 7.61175 30 4.21766 27.8912 2.10883C25.7823 0 22.3883 0 15.6 0H14.4C7.61175 0 4.21766 0 2.10883 2.10883ZM5 9C5.1624 16.4955 9.0599 21 15.8931 21H16.2805V16.7117C18.7914 16.952 20.6901 18.7177 21.4521 21H25C24.0256 17.5886 21.4646 15.7027 19.8656 14.982C21.4646 14.0931 23.7132 11.9309 24.2503 9H21.0273C20.3277 11.3784 18.2543 13.5405 16.2805 13.7447V9H13.0574V17.3123C11.0587 16.8318 8.53529 14.5015 8.42286 9H5Z" fill="#AAB9ED"/>
</svg>
