<svg width="12" height="11" viewBox="0 0 12 11" fill="none" xmlns="http://www.w3.org/2000/svg">
<path d="M5.04892 0.92731C5.34827 0.00599962 6.65168 0.00600129 6.95103 0.927312L7.57157 2.83714C7.70544 3.24917 8.0894 3.52813 8.52263 3.52813H10.5307C11.4995 3.52813 11.9022 4.76774 11.1185 5.33714L9.49393 6.51748C9.14344 6.77213 8.99678 7.22349 9.13066 7.63552L9.7512 9.54534C10.0505 10.4667 8.99607 11.2328 8.21236 10.6634L6.58776 9.48304C6.23727 9.2284 5.76267 9.2284 5.41219 9.48304L3.78759 10.6634C3.00387 11.2328 1.94939 10.4667 2.24875 9.54535L2.86929 7.63552C3.00316 7.22349 2.8565 6.77213 2.50602 6.51748L0.881416 5.33714C0.0977026 4.76774 0.50048 3.52813 1.4692 3.52813H3.47732C3.91054 3.52813 4.2945 3.24917 4.42837 2.83714L5.04892 0.92731Z" fill="#0066CC"/>
</svg>
