<svg width="24" height="24" viewBox="0 0 24 24" fill="none" xmlns="http://www.w3.org/2000/svg">
<path d="M2.71429 10H7V20H2.71429C2.52485 20 2.34316 19.919 2.20921 19.7747C2.07525 19.6304 2 19.4348 2 19.2308V10.7692C2 10.5652 2.07525 10.3696 2.20921 10.2253C2.34316 10.081 2.52485 10 2.71429 10V10Z" stroke="#333333" stroke-linecap="round" stroke-linejoin="round"/>
<path d="M8 9.3913L11.7364 2C12.129 2 12.5177 2.07647 12.8803 2.22505C13.243 2.37363 13.5725 2.59141 13.8501 2.86595C14.1276 3.14048 14.3478 3.46641 14.498 3.82511C14.6483 4.18381 14.7256 4.56827 14.7256 4.95652V7.17391H20.5054C20.7173 7.17391 20.9268 7.21849 21.12 7.30468C21.3132 7.39088 21.4856 7.51672 21.6259 7.67386C21.7661 7.831 21.871 8.01584 21.9335 8.21612C21.996 8.4164 22.0147 8.62754 21.9885 8.83553L20.8675 17.7051C20.8223 18.0626 20.6467 18.3915 20.3736 18.63C20.1005 18.8684 19.7488 19 19.3845 19H8" stroke="#333333" stroke-linecap="round" stroke-linejoin="round"/>
</svg>
