<svg width="34" height="34" viewBox="0 0 34 34" fill="none" xmlns="http://www.w3.org/2000/svg">
<path d="M2.33333 0.5H31.6667C32.1529 0.5 32.6192 0.693154 32.963 1.03697C33.3068 1.38079 33.5 1.8471 33.5 2.33333V31.6667C33.5 32.1529 33.3068 32.6192 32.963 32.963C32.6192 33.3068 32.1529 33.5 31.6667 33.5H2.33333C1.8471 33.5 1.38079 33.3068 1.03697 32.963C0.693154 32.6192 0.5 32.1529 0.5 31.6667V2.33333C0.5 1.8471 0.693154 1.38079 1.03697 1.03697C1.38079 0.693154 1.8471 0.5 2.33333 0.5ZM15.1667 15.1667H7.83333V18.8333H15.1667V26.1667H18.8333V18.8333H26.1667V15.1667H18.8333V7.83333H15.1667V15.1667Z" fill="#0066CC"/>
</svg>
