<svg width="38" height="34" viewBox="0 0 38 34" fill="none" xmlns="http://www.w3.org/2000/svg">
<path d="M28.1281 7.34242C27.3037 5.18086 26.0127 3.49437 24.2548 2.28295C22.497 1.07153 20.3331 0.46582 17.7631 0.46582C14.4414 0.46582 11.6956 1.52878 9.52559 3.65471C7.3556 5.78064 6.1615 8.45883 5.94329 11.6893C4.31883 12.2119 2.98532 13.2036 1.94275 14.6644C0.900189 16.1252 0.378906 17.7701 0.378906 19.5992C0.378906 21.832 1.15477 23.7679 2.70649 25.4069C4.25822 27.0458 6.10089 27.8653 8.23451 27.8653H9.25283C9.42255 27.8653 9.58014 27.8356 9.72562 27.7763C9.87109 27.7169 9.99232 27.6337 10.0893 27.5268C10.1863 27.42 10.2651 27.2952 10.3257 27.1527C10.3863 27.0102 10.4166 26.8677 10.4166 26.7252C10.4166 26.4164 10.3075 26.1491 10.0893 25.9235C9.87109 25.6978 9.59227 25.585 9.25283 25.585H8.23451C6.73128 25.585 5.42807 24.9912 4.32489 23.8035C3.22171 22.6158 2.67012 21.2144 2.67012 19.5992C2.67012 18.174 3.11867 16.8913 4.01576 15.7511C4.91285 14.611 6.00391 13.934 7.28893 13.7202L8.34361 13.542L8.27088 12.4731H8.23451C8.23451 9.6465 9.10735 7.31867 10.853 5.48966C12.5987 3.66065 14.9021 2.74614 17.7631 2.74614C22.103 2.74614 24.9034 4.7533 26.1642 8.76762L26.4188 9.55148L27.2553 9.58711C28.6857 9.61087 30.0193 9.96717 31.2558 10.656C32.4923 11.3449 33.4864 12.2891 34.238 13.4886C34.9896 14.6881 35.3654 15.9768 35.3654 17.3545C35.3654 18.0196 35.2927 18.6787 35.1472 19.3319C35.0017 19.9851 34.8017 20.6146 34.5471 21.2203C34.2926 21.826 33.9652 22.3961 33.5652 22.9306C33.1651 23.465 32.7287 23.9282 32.2559 24.3201C31.7831 24.7121 31.2437 25.0209 30.6375 25.2465C30.0314 25.4722 29.401 25.585 28.7464 25.585H28.419C28.2736 25.585 28.1281 25.6147 27.9826 25.6741C27.8371 25.7335 27.7099 25.8166 27.6008 25.9235C27.4916 26.0304 27.4068 26.1491 27.3462 26.2798C27.2856 26.4104 27.2553 26.5589 27.2553 26.7252C27.2553 27.034 27.3704 27.3012 27.6008 27.5268C27.8311 27.7525 28.1038 27.8653 28.419 27.8653C29.8253 27.8178 31.1224 27.4793 32.3105 26.8499C33.4985 26.2204 34.4683 25.4009 35.22 24.3914C35.9716 23.3819 36.5595 22.2714 36.9838 21.06C37.4081 19.8486 37.6203 18.6134 37.6203 17.3545C37.6203 14.7653 36.705 12.5207 34.8745 10.6204C33.0439 8.72012 30.7951 7.62746 28.1281 7.34242ZM23.873 25.6919C23.7275 25.5256 23.5396 25.4425 23.3093 25.4425C23.0789 25.4425 22.8789 25.5256 22.7092 25.6919L20.1634 28.471V16.9982C20.1634 16.9269 20.1513 16.8497 20.127 16.7666C20.1028 16.6834 20.0785 16.6122 20.0543 16.5528C20.03 16.4934 19.9937 16.4281 19.9452 16.3568C19.8967 16.2856 19.8482 16.2262 19.7997 16.1787C19.7512 16.1312 19.6967 16.0896 19.636 16.054C19.5754 16.0183 19.5088 15.9827 19.436 15.9471C19.3633 15.9114 19.2905 15.8877 19.2178 15.8758C19.1451 15.8639 19.0723 15.858 18.9996 15.858C18.6602 15.858 18.3813 15.9708 18.1631 16.1965C17.9449 16.4221 17.8358 16.6894 17.8358 16.9982V28.471L15.3627 25.7632C15.193 25.5969 14.993 25.5078 14.7627 25.4959C14.5323 25.4841 14.3323 25.5494 14.1626 25.6919L13.8716 25.87C13.7019 26.0363 13.6171 26.2382 13.6171 26.4758C13.6171 26.7133 13.7019 26.9152 13.8716 27.0815L18.0904 31.6065V31.6421L18.3813 31.9272C18.551 32.0934 18.7511 32.1766 18.9814 32.1766C19.2117 32.1766 19.4118 32.0934 19.5815 31.9272L19.8724 31.6421V31.6065L24.1639 27.0102C24.5276 26.6539 24.5276 26.2976 24.1639 25.9413L23.873 25.6919Z" fill="#0066CC"/>
<path d="M20.7223 24.8114V15.6416L17.274 15.6416V24.8114H12.1016L18.9981 33.302L25.8947 24.8114H20.7223Z" fill="#0066CC"/>
</svg>
