<svg width="23" height="22" viewBox="0 0 23 22" fill="none" xmlns="http://www.w3.org/2000/svg">
<path fill-rule="evenodd" clip-rule="evenodd" d="M12 1.5C8.41015 1.5 5.5 4.41015 5.5 8C5.5 11.5899 8.41015 14.5 12 14.5C15.5899 14.5 18.5 11.5899 18.5 8C18.5 4.41015 15.5899 1.5 12 1.5ZM4.5 8C4.5 3.85786 7.85786 0.5 12 0.5C16.1421 0.5 19.5 3.85786 19.5 8C19.5 12.1421 16.1421 15.5 12 15.5C7.85786 15.5 4.5 12.1421 4.5 8Z" fill="#333333"/>
<path fill-rule="evenodd" clip-rule="evenodd" d="M11.5001 15.5C9.45888 15.5 7.45385 16.0318 5.6865 17.0417C3.91918 18.0515 2.45203 19.5037 1.43193 21.2518C1.29275 21.4903 0.986582 21.5708 0.748078 21.4316C0.509574 21.2925 0.429054 20.9863 0.568232 20.7478C1.67724 18.8473 3.2715 17.2699 5.19038 16.1734C7.10922 15.077 9.28533 14.5 11.5001 14.5C13.715 14.5 15.8911 15.0771 17.8099 16.1735C19.7287 17.27 21.323 18.8475 22.4319 20.748C22.5711 20.9865 22.4906 21.2927 22.2521 21.4319C22.0136 21.571 21.7074 21.4905 21.5682 21.252C20.5482 19.5039 19.081 18.0517 17.3137 17.0418C15.5464 16.0319 13.5414 15.5 11.5001 15.5Z" fill="#333333"/>
</svg>
