<svg width="16" height="15" viewBox="0 0 16 15" fill="none" xmlns="http://www.w3.org/2000/svg">
<path fill-rule="evenodd" clip-rule="evenodd" d="M2.21739 1.5C2.03811 1.5 1.85898 1.57575 1.72152 1.72253C1.58303 1.87042 1.5 2.07762 1.5 2.3C1.5 2.52238 1.58303 2.72958 1.72152 2.87747C1.85898 3.02425 2.03812 3.1 2.21739 3.1H14.3913C14.6963 3.1 14.9817 3.2297 15.1867 3.44861C15.3906 3.66642 15.5 3.95521 15.5 4.25V13.35C15.5 13.6448 15.3906 13.9336 15.1867 14.1514C14.9817 14.3703 14.6963 14.5 14.3913 14.5H2.21739C1.75092 14.5 1.31076 14.3018 0.991607 13.961C0.673489 13.6213 0.5 13.1672 0.5 12.7V2.3C0.5 1.83282 0.673489 1.3787 0.991607 1.03899C1.31076 0.698178 1.75092 0.5 2.21739 0.5H12.5652C12.8414 0.5 13.0652 0.723858 13.0652 1C13.0652 1.27614 12.8414 1.5 12.5652 1.5H2.21739ZM1.5 3.93555V12.7C1.5 12.9224 1.58303 13.1296 1.72152 13.2775C1.85898 13.4243 2.03812 13.5 2.21739 13.5H14.3913C14.4091 13.5 14.4335 13.4927 14.4568 13.4679C14.4811 13.4419 14.5 13.4 14.5 13.35V4.25C14.5 4.20001 14.4811 4.15814 14.4568 4.13215C14.4335 4.10727 14.4091 4.1 14.3913 4.1H2.21739C1.96564 4.1 1.72154 4.04227 1.5 3.93555Z" fill="#333333"/>
<path d="M11.5 9C11.7761 9 12 8.77614 12 8.5C12 8.22386 11.7761 8 11.5 8C11.2239 8 11 8.22386 11 8.5C11 8.77614 11.2239 9 11.5 9Z" fill="#333333"/>
</svg>
